G75*
%MOIN*%
%OFA0B0*%
%FSLAX25Y25*%
%IPPOS*%
%LPD*%
%AMOC8*
5,1,8,0,0,1.08239X$1,22.5*
%
%ADD10C,0.00039*%
%ADD11C,0.00000*%
%ADD12C,0.00600*%
D10*
X0003246Y0005215D02*
X0281543Y0005215D01*
X0281543Y0511120D01*
X0003246Y0511120D01*
X0003246Y0005215D01*
D11*
X0036464Y0266780D02*
X0036469Y0267215D01*
X0036485Y0267649D01*
X0036512Y0268083D01*
X0036549Y0268517D01*
X0036597Y0268949D01*
X0036656Y0269380D01*
X0036725Y0269809D01*
X0036804Y0270236D01*
X0036894Y0270662D01*
X0036995Y0271085D01*
X0037106Y0271505D01*
X0037227Y0271923D01*
X0037358Y0272337D01*
X0037500Y0272749D01*
X0037651Y0273156D01*
X0037813Y0273560D01*
X0037984Y0273960D01*
X0038165Y0274355D01*
X0038356Y0274746D01*
X0038556Y0275132D01*
X0038766Y0275513D01*
X0038985Y0275888D01*
X0039213Y0276259D01*
X0039450Y0276623D01*
X0039696Y0276982D01*
X0039951Y0277334D01*
X0040214Y0277680D01*
X0040486Y0278020D01*
X0040766Y0278352D01*
X0041054Y0278678D01*
X0041350Y0278997D01*
X0041653Y0279308D01*
X0041964Y0279611D01*
X0042283Y0279907D01*
X0042609Y0280195D01*
X0042941Y0280475D01*
X0043281Y0280747D01*
X0043627Y0281010D01*
X0043979Y0281265D01*
X0044338Y0281511D01*
X0044702Y0281748D01*
X0045073Y0281976D01*
X0045448Y0282195D01*
X0045829Y0282405D01*
X0046215Y0282605D01*
X0046606Y0282796D01*
X0047001Y0282977D01*
X0047401Y0283148D01*
X0047805Y0283310D01*
X0048212Y0283461D01*
X0048624Y0283603D01*
X0049038Y0283734D01*
X0049456Y0283855D01*
X0049876Y0283966D01*
X0050299Y0284067D01*
X0050725Y0284157D01*
X0051152Y0284236D01*
X0051581Y0284305D01*
X0052012Y0284364D01*
X0052444Y0284412D01*
X0052878Y0284449D01*
X0053312Y0284476D01*
X0053746Y0284492D01*
X0054181Y0284497D01*
X0054616Y0284492D01*
X0055050Y0284476D01*
X0055484Y0284449D01*
X0055918Y0284412D01*
X0056350Y0284364D01*
X0056781Y0284305D01*
X0057210Y0284236D01*
X0057637Y0284157D01*
X0058063Y0284067D01*
X0058486Y0283966D01*
X0058906Y0283855D01*
X0059324Y0283734D01*
X0059738Y0283603D01*
X0060150Y0283461D01*
X0060557Y0283310D01*
X0060961Y0283148D01*
X0061361Y0282977D01*
X0061756Y0282796D01*
X0062147Y0282605D01*
X0062533Y0282405D01*
X0062914Y0282195D01*
X0063289Y0281976D01*
X0063660Y0281748D01*
X0064024Y0281511D01*
X0064383Y0281265D01*
X0064735Y0281010D01*
X0065081Y0280747D01*
X0065421Y0280475D01*
X0065753Y0280195D01*
X0066079Y0279907D01*
X0066398Y0279611D01*
X0066709Y0279308D01*
X0067012Y0278997D01*
X0067308Y0278678D01*
X0067596Y0278352D01*
X0067876Y0278020D01*
X0068148Y0277680D01*
X0068411Y0277334D01*
X0068666Y0276982D01*
X0068912Y0276623D01*
X0069149Y0276259D01*
X0069377Y0275888D01*
X0069596Y0275513D01*
X0069806Y0275132D01*
X0070006Y0274746D01*
X0070197Y0274355D01*
X0070378Y0273960D01*
X0070549Y0273560D01*
X0070711Y0273156D01*
X0070862Y0272749D01*
X0071004Y0272337D01*
X0071135Y0271923D01*
X0071256Y0271505D01*
X0071367Y0271085D01*
X0071468Y0270662D01*
X0071558Y0270236D01*
X0071637Y0269809D01*
X0071706Y0269380D01*
X0071765Y0268949D01*
X0071813Y0268517D01*
X0071850Y0268083D01*
X0071877Y0267649D01*
X0071893Y0267215D01*
X0071898Y0266780D01*
X0071893Y0266345D01*
X0071877Y0265911D01*
X0071850Y0265477D01*
X0071813Y0265043D01*
X0071765Y0264611D01*
X0071706Y0264180D01*
X0071637Y0263751D01*
X0071558Y0263324D01*
X0071468Y0262898D01*
X0071367Y0262475D01*
X0071256Y0262055D01*
X0071135Y0261637D01*
X0071004Y0261223D01*
X0070862Y0260811D01*
X0070711Y0260404D01*
X0070549Y0260000D01*
X0070378Y0259600D01*
X0070197Y0259205D01*
X0070006Y0258814D01*
X0069806Y0258428D01*
X0069596Y0258047D01*
X0069377Y0257672D01*
X0069149Y0257301D01*
X0068912Y0256937D01*
X0068666Y0256578D01*
X0068411Y0256226D01*
X0068148Y0255880D01*
X0067876Y0255540D01*
X0067596Y0255208D01*
X0067308Y0254882D01*
X0067012Y0254563D01*
X0066709Y0254252D01*
X0066398Y0253949D01*
X0066079Y0253653D01*
X0065753Y0253365D01*
X0065421Y0253085D01*
X0065081Y0252813D01*
X0064735Y0252550D01*
X0064383Y0252295D01*
X0064024Y0252049D01*
X0063660Y0251812D01*
X0063289Y0251584D01*
X0062914Y0251365D01*
X0062533Y0251155D01*
X0062147Y0250955D01*
X0061756Y0250764D01*
X0061361Y0250583D01*
X0060961Y0250412D01*
X0060557Y0250250D01*
X0060150Y0250099D01*
X0059738Y0249957D01*
X0059324Y0249826D01*
X0058906Y0249705D01*
X0058486Y0249594D01*
X0058063Y0249493D01*
X0057637Y0249403D01*
X0057210Y0249324D01*
X0056781Y0249255D01*
X0056350Y0249196D01*
X0055918Y0249148D01*
X0055484Y0249111D01*
X0055050Y0249084D01*
X0054616Y0249068D01*
X0054181Y0249063D01*
X0053746Y0249068D01*
X0053312Y0249084D01*
X0052878Y0249111D01*
X0052444Y0249148D01*
X0052012Y0249196D01*
X0051581Y0249255D01*
X0051152Y0249324D01*
X0050725Y0249403D01*
X0050299Y0249493D01*
X0049876Y0249594D01*
X0049456Y0249705D01*
X0049038Y0249826D01*
X0048624Y0249957D01*
X0048212Y0250099D01*
X0047805Y0250250D01*
X0047401Y0250412D01*
X0047001Y0250583D01*
X0046606Y0250764D01*
X0046215Y0250955D01*
X0045829Y0251155D01*
X0045448Y0251365D01*
X0045073Y0251584D01*
X0044702Y0251812D01*
X0044338Y0252049D01*
X0043979Y0252295D01*
X0043627Y0252550D01*
X0043281Y0252813D01*
X0042941Y0253085D01*
X0042609Y0253365D01*
X0042283Y0253653D01*
X0041964Y0253949D01*
X0041653Y0254252D01*
X0041350Y0254563D01*
X0041054Y0254882D01*
X0040766Y0255208D01*
X0040486Y0255540D01*
X0040214Y0255880D01*
X0039951Y0256226D01*
X0039696Y0256578D01*
X0039450Y0256937D01*
X0039213Y0257301D01*
X0038985Y0257672D01*
X0038766Y0258047D01*
X0038556Y0258428D01*
X0038356Y0258814D01*
X0038165Y0259205D01*
X0037984Y0259600D01*
X0037813Y0260000D01*
X0037651Y0260404D01*
X0037500Y0260811D01*
X0037358Y0261223D01*
X0037227Y0261637D01*
X0037106Y0262055D01*
X0036995Y0262475D01*
X0036894Y0262898D01*
X0036804Y0263324D01*
X0036725Y0263751D01*
X0036656Y0264180D01*
X0036597Y0264611D01*
X0036549Y0265043D01*
X0036512Y0265477D01*
X0036485Y0265911D01*
X0036469Y0266345D01*
X0036464Y0266780D01*
X0178984Y0435677D02*
X0178986Y0435835D01*
X0178992Y0435993D01*
X0179002Y0436151D01*
X0179016Y0436309D01*
X0179034Y0436466D01*
X0179055Y0436623D01*
X0179081Y0436779D01*
X0179111Y0436935D01*
X0179144Y0437090D01*
X0179182Y0437243D01*
X0179223Y0437396D01*
X0179268Y0437548D01*
X0179317Y0437699D01*
X0179370Y0437848D01*
X0179426Y0437996D01*
X0179486Y0438142D01*
X0179550Y0438287D01*
X0179618Y0438430D01*
X0179689Y0438572D01*
X0179763Y0438712D01*
X0179841Y0438849D01*
X0179923Y0438985D01*
X0180007Y0439119D01*
X0180096Y0439250D01*
X0180187Y0439379D01*
X0180282Y0439506D01*
X0180379Y0439631D01*
X0180480Y0439753D01*
X0180584Y0439872D01*
X0180691Y0439989D01*
X0180801Y0440103D01*
X0180914Y0440214D01*
X0181029Y0440323D01*
X0181147Y0440428D01*
X0181268Y0440530D01*
X0181391Y0440630D01*
X0181517Y0440726D01*
X0181645Y0440819D01*
X0181775Y0440909D01*
X0181908Y0440995D01*
X0182043Y0441079D01*
X0182179Y0441158D01*
X0182318Y0441235D01*
X0182459Y0441307D01*
X0182601Y0441377D01*
X0182745Y0441442D01*
X0182891Y0441504D01*
X0183038Y0441562D01*
X0183187Y0441617D01*
X0183337Y0441668D01*
X0183488Y0441715D01*
X0183640Y0441758D01*
X0183793Y0441797D01*
X0183948Y0441833D01*
X0184103Y0441864D01*
X0184259Y0441892D01*
X0184415Y0441916D01*
X0184572Y0441936D01*
X0184730Y0441952D01*
X0184887Y0441964D01*
X0185046Y0441972D01*
X0185204Y0441976D01*
X0185362Y0441976D01*
X0185520Y0441972D01*
X0185679Y0441964D01*
X0185836Y0441952D01*
X0185994Y0441936D01*
X0186151Y0441916D01*
X0186307Y0441892D01*
X0186463Y0441864D01*
X0186618Y0441833D01*
X0186773Y0441797D01*
X0186926Y0441758D01*
X0187078Y0441715D01*
X0187229Y0441668D01*
X0187379Y0441617D01*
X0187528Y0441562D01*
X0187675Y0441504D01*
X0187821Y0441442D01*
X0187965Y0441377D01*
X0188107Y0441307D01*
X0188248Y0441235D01*
X0188387Y0441158D01*
X0188523Y0441079D01*
X0188658Y0440995D01*
X0188791Y0440909D01*
X0188921Y0440819D01*
X0189049Y0440726D01*
X0189175Y0440630D01*
X0189298Y0440530D01*
X0189419Y0440428D01*
X0189537Y0440323D01*
X0189652Y0440214D01*
X0189765Y0440103D01*
X0189875Y0439989D01*
X0189982Y0439872D01*
X0190086Y0439753D01*
X0190187Y0439631D01*
X0190284Y0439506D01*
X0190379Y0439379D01*
X0190470Y0439250D01*
X0190559Y0439119D01*
X0190643Y0438985D01*
X0190725Y0438849D01*
X0190803Y0438712D01*
X0190877Y0438572D01*
X0190948Y0438430D01*
X0191016Y0438287D01*
X0191080Y0438142D01*
X0191140Y0437996D01*
X0191196Y0437848D01*
X0191249Y0437699D01*
X0191298Y0437548D01*
X0191343Y0437396D01*
X0191384Y0437243D01*
X0191422Y0437090D01*
X0191455Y0436935D01*
X0191485Y0436779D01*
X0191511Y0436623D01*
X0191532Y0436466D01*
X0191550Y0436309D01*
X0191564Y0436151D01*
X0191574Y0435993D01*
X0191580Y0435835D01*
X0191582Y0435677D01*
X0191580Y0435519D01*
X0191574Y0435361D01*
X0191564Y0435203D01*
X0191550Y0435045D01*
X0191532Y0434888D01*
X0191511Y0434731D01*
X0191485Y0434575D01*
X0191455Y0434419D01*
X0191422Y0434264D01*
X0191384Y0434111D01*
X0191343Y0433958D01*
X0191298Y0433806D01*
X0191249Y0433655D01*
X0191196Y0433506D01*
X0191140Y0433358D01*
X0191080Y0433212D01*
X0191016Y0433067D01*
X0190948Y0432924D01*
X0190877Y0432782D01*
X0190803Y0432642D01*
X0190725Y0432505D01*
X0190643Y0432369D01*
X0190559Y0432235D01*
X0190470Y0432104D01*
X0190379Y0431975D01*
X0190284Y0431848D01*
X0190187Y0431723D01*
X0190086Y0431601D01*
X0189982Y0431482D01*
X0189875Y0431365D01*
X0189765Y0431251D01*
X0189652Y0431140D01*
X0189537Y0431031D01*
X0189419Y0430926D01*
X0189298Y0430824D01*
X0189175Y0430724D01*
X0189049Y0430628D01*
X0188921Y0430535D01*
X0188791Y0430445D01*
X0188658Y0430359D01*
X0188523Y0430275D01*
X0188387Y0430196D01*
X0188248Y0430119D01*
X0188107Y0430047D01*
X0187965Y0429977D01*
X0187821Y0429912D01*
X0187675Y0429850D01*
X0187528Y0429792D01*
X0187379Y0429737D01*
X0187229Y0429686D01*
X0187078Y0429639D01*
X0186926Y0429596D01*
X0186773Y0429557D01*
X0186618Y0429521D01*
X0186463Y0429490D01*
X0186307Y0429462D01*
X0186151Y0429438D01*
X0185994Y0429418D01*
X0185836Y0429402D01*
X0185679Y0429390D01*
X0185520Y0429382D01*
X0185362Y0429378D01*
X0185204Y0429378D01*
X0185046Y0429382D01*
X0184887Y0429390D01*
X0184730Y0429402D01*
X0184572Y0429418D01*
X0184415Y0429438D01*
X0184259Y0429462D01*
X0184103Y0429490D01*
X0183948Y0429521D01*
X0183793Y0429557D01*
X0183640Y0429596D01*
X0183488Y0429639D01*
X0183337Y0429686D01*
X0183187Y0429737D01*
X0183038Y0429792D01*
X0182891Y0429850D01*
X0182745Y0429912D01*
X0182601Y0429977D01*
X0182459Y0430047D01*
X0182318Y0430119D01*
X0182179Y0430196D01*
X0182043Y0430275D01*
X0181908Y0430359D01*
X0181775Y0430445D01*
X0181645Y0430535D01*
X0181517Y0430628D01*
X0181391Y0430724D01*
X0181268Y0430824D01*
X0181147Y0430926D01*
X0181029Y0431031D01*
X0180914Y0431140D01*
X0180801Y0431251D01*
X0180691Y0431365D01*
X0180584Y0431482D01*
X0180480Y0431601D01*
X0180379Y0431723D01*
X0180282Y0431848D01*
X0180187Y0431975D01*
X0180096Y0432104D01*
X0180007Y0432235D01*
X0179923Y0432369D01*
X0179841Y0432505D01*
X0179763Y0432642D01*
X0179689Y0432782D01*
X0179618Y0432924D01*
X0179550Y0433067D01*
X0179486Y0433212D01*
X0179426Y0433358D01*
X0179370Y0433506D01*
X0179317Y0433655D01*
X0179268Y0433806D01*
X0179223Y0433958D01*
X0179182Y0434111D01*
X0179144Y0434264D01*
X0179111Y0434419D01*
X0179081Y0434575D01*
X0179055Y0434731D01*
X0179034Y0434888D01*
X0179016Y0435045D01*
X0179002Y0435203D01*
X0178992Y0435361D01*
X0178986Y0435519D01*
X0178984Y0435677D01*
X0208905Y0266780D02*
X0208910Y0267215D01*
X0208926Y0267649D01*
X0208953Y0268083D01*
X0208990Y0268517D01*
X0209038Y0268949D01*
X0209097Y0269380D01*
X0209166Y0269809D01*
X0209245Y0270236D01*
X0209335Y0270662D01*
X0209436Y0271085D01*
X0209547Y0271505D01*
X0209668Y0271923D01*
X0209799Y0272337D01*
X0209941Y0272749D01*
X0210092Y0273156D01*
X0210254Y0273560D01*
X0210425Y0273960D01*
X0210606Y0274355D01*
X0210797Y0274746D01*
X0210997Y0275132D01*
X0211207Y0275513D01*
X0211426Y0275888D01*
X0211654Y0276259D01*
X0211891Y0276623D01*
X0212137Y0276982D01*
X0212392Y0277334D01*
X0212655Y0277680D01*
X0212927Y0278020D01*
X0213207Y0278352D01*
X0213495Y0278678D01*
X0213791Y0278997D01*
X0214094Y0279308D01*
X0214405Y0279611D01*
X0214724Y0279907D01*
X0215050Y0280195D01*
X0215382Y0280475D01*
X0215722Y0280747D01*
X0216068Y0281010D01*
X0216420Y0281265D01*
X0216779Y0281511D01*
X0217143Y0281748D01*
X0217514Y0281976D01*
X0217889Y0282195D01*
X0218270Y0282405D01*
X0218656Y0282605D01*
X0219047Y0282796D01*
X0219442Y0282977D01*
X0219842Y0283148D01*
X0220246Y0283310D01*
X0220653Y0283461D01*
X0221065Y0283603D01*
X0221479Y0283734D01*
X0221897Y0283855D01*
X0222317Y0283966D01*
X0222740Y0284067D01*
X0223166Y0284157D01*
X0223593Y0284236D01*
X0224022Y0284305D01*
X0224453Y0284364D01*
X0224885Y0284412D01*
X0225319Y0284449D01*
X0225753Y0284476D01*
X0226187Y0284492D01*
X0226622Y0284497D01*
X0227057Y0284492D01*
X0227491Y0284476D01*
X0227925Y0284449D01*
X0228359Y0284412D01*
X0228791Y0284364D01*
X0229222Y0284305D01*
X0229651Y0284236D01*
X0230078Y0284157D01*
X0230504Y0284067D01*
X0230927Y0283966D01*
X0231347Y0283855D01*
X0231765Y0283734D01*
X0232179Y0283603D01*
X0232591Y0283461D01*
X0232998Y0283310D01*
X0233402Y0283148D01*
X0233802Y0282977D01*
X0234197Y0282796D01*
X0234588Y0282605D01*
X0234974Y0282405D01*
X0235355Y0282195D01*
X0235730Y0281976D01*
X0236101Y0281748D01*
X0236465Y0281511D01*
X0236824Y0281265D01*
X0237176Y0281010D01*
X0237522Y0280747D01*
X0237862Y0280475D01*
X0238194Y0280195D01*
X0238520Y0279907D01*
X0238839Y0279611D01*
X0239150Y0279308D01*
X0239453Y0278997D01*
X0239749Y0278678D01*
X0240037Y0278352D01*
X0240317Y0278020D01*
X0240589Y0277680D01*
X0240852Y0277334D01*
X0241107Y0276982D01*
X0241353Y0276623D01*
X0241590Y0276259D01*
X0241818Y0275888D01*
X0242037Y0275513D01*
X0242247Y0275132D01*
X0242447Y0274746D01*
X0242638Y0274355D01*
X0242819Y0273960D01*
X0242990Y0273560D01*
X0243152Y0273156D01*
X0243303Y0272749D01*
X0243445Y0272337D01*
X0243576Y0271923D01*
X0243697Y0271505D01*
X0243808Y0271085D01*
X0243909Y0270662D01*
X0243999Y0270236D01*
X0244078Y0269809D01*
X0244147Y0269380D01*
X0244206Y0268949D01*
X0244254Y0268517D01*
X0244291Y0268083D01*
X0244318Y0267649D01*
X0244334Y0267215D01*
X0244339Y0266780D01*
X0244334Y0266345D01*
X0244318Y0265911D01*
X0244291Y0265477D01*
X0244254Y0265043D01*
X0244206Y0264611D01*
X0244147Y0264180D01*
X0244078Y0263751D01*
X0243999Y0263324D01*
X0243909Y0262898D01*
X0243808Y0262475D01*
X0243697Y0262055D01*
X0243576Y0261637D01*
X0243445Y0261223D01*
X0243303Y0260811D01*
X0243152Y0260404D01*
X0242990Y0260000D01*
X0242819Y0259600D01*
X0242638Y0259205D01*
X0242447Y0258814D01*
X0242247Y0258428D01*
X0242037Y0258047D01*
X0241818Y0257672D01*
X0241590Y0257301D01*
X0241353Y0256937D01*
X0241107Y0256578D01*
X0240852Y0256226D01*
X0240589Y0255880D01*
X0240317Y0255540D01*
X0240037Y0255208D01*
X0239749Y0254882D01*
X0239453Y0254563D01*
X0239150Y0254252D01*
X0238839Y0253949D01*
X0238520Y0253653D01*
X0238194Y0253365D01*
X0237862Y0253085D01*
X0237522Y0252813D01*
X0237176Y0252550D01*
X0236824Y0252295D01*
X0236465Y0252049D01*
X0236101Y0251812D01*
X0235730Y0251584D01*
X0235355Y0251365D01*
X0234974Y0251155D01*
X0234588Y0250955D01*
X0234197Y0250764D01*
X0233802Y0250583D01*
X0233402Y0250412D01*
X0232998Y0250250D01*
X0232591Y0250099D01*
X0232179Y0249957D01*
X0231765Y0249826D01*
X0231347Y0249705D01*
X0230927Y0249594D01*
X0230504Y0249493D01*
X0230078Y0249403D01*
X0229651Y0249324D01*
X0229222Y0249255D01*
X0228791Y0249196D01*
X0228359Y0249148D01*
X0227925Y0249111D01*
X0227491Y0249084D01*
X0227057Y0249068D01*
X0226622Y0249063D01*
X0226187Y0249068D01*
X0225753Y0249084D01*
X0225319Y0249111D01*
X0224885Y0249148D01*
X0224453Y0249196D01*
X0224022Y0249255D01*
X0223593Y0249324D01*
X0223166Y0249403D01*
X0222740Y0249493D01*
X0222317Y0249594D01*
X0221897Y0249705D01*
X0221479Y0249826D01*
X0221065Y0249957D01*
X0220653Y0250099D01*
X0220246Y0250250D01*
X0219842Y0250412D01*
X0219442Y0250583D01*
X0219047Y0250764D01*
X0218656Y0250955D01*
X0218270Y0251155D01*
X0217889Y0251365D01*
X0217514Y0251584D01*
X0217143Y0251812D01*
X0216779Y0252049D01*
X0216420Y0252295D01*
X0216068Y0252550D01*
X0215722Y0252813D01*
X0215382Y0253085D01*
X0215050Y0253365D01*
X0214724Y0253653D01*
X0214405Y0253949D01*
X0214094Y0254252D01*
X0213791Y0254563D01*
X0213495Y0254882D01*
X0213207Y0255208D01*
X0212927Y0255540D01*
X0212655Y0255880D01*
X0212392Y0256226D01*
X0212137Y0256578D01*
X0211891Y0256937D01*
X0211654Y0257301D01*
X0211426Y0257672D01*
X0211207Y0258047D01*
X0210997Y0258428D01*
X0210797Y0258814D01*
X0210606Y0259205D01*
X0210425Y0259600D01*
X0210254Y0260000D01*
X0210092Y0260404D01*
X0209941Y0260811D01*
X0209799Y0261223D01*
X0209668Y0261637D01*
X0209547Y0262055D01*
X0209436Y0262475D01*
X0209335Y0262898D01*
X0209245Y0263324D01*
X0209166Y0263751D01*
X0209097Y0264180D01*
X0209038Y0264611D01*
X0208990Y0265043D01*
X0208953Y0265477D01*
X0208926Y0265911D01*
X0208910Y0266345D01*
X0208905Y0266780D01*
D12*
X0203772Y0264455D02*
X0202559Y0264455D01*
X0200132Y0264455D02*
X0195278Y0264455D01*
X0195278Y0263242D02*
X0195278Y0265669D01*
X0195278Y0268075D02*
X0200132Y0268075D01*
X0200132Y0269289D01*
X0198918Y0270502D01*
X0200132Y0271715D01*
X0198918Y0272929D01*
X0195278Y0272929D01*
X0195278Y0270502D02*
X0198918Y0270502D01*
X0198918Y0275326D02*
X0196492Y0275326D01*
X0195278Y0276539D01*
X0195278Y0278966D01*
X0197705Y0280179D02*
X0197705Y0275326D01*
X0198918Y0275326D02*
X0200132Y0276539D01*
X0200132Y0278966D01*
X0198918Y0280179D01*
X0197705Y0280179D01*
X0197705Y0289826D02*
X0200132Y0289826D01*
X0202559Y0292253D01*
X0200132Y0295873D02*
X0200132Y0298300D01*
X0198918Y0299513D01*
X0196492Y0299513D01*
X0195278Y0298300D01*
X0195278Y0295873D01*
X0196492Y0294660D01*
X0198918Y0294660D01*
X0200132Y0295873D01*
X0195278Y0292253D02*
X0197705Y0289826D01*
X0194065Y0301910D02*
X0194065Y0306763D01*
X0196492Y0309160D02*
X0195278Y0310374D01*
X0195278Y0312800D01*
X0196492Y0314014D01*
X0195278Y0316411D02*
X0197705Y0318837D01*
X0200132Y0318837D01*
X0202559Y0316411D01*
X0201345Y0314014D02*
X0202559Y0312800D01*
X0202559Y0310374D01*
X0201345Y0309160D01*
X0196492Y0309160D01*
X0188321Y0309165D02*
X0187107Y0307952D01*
X0184681Y0307952D01*
X0183467Y0309165D01*
X0183467Y0311592D01*
X0184681Y0312805D01*
X0187107Y0312805D01*
X0188321Y0311592D01*
X0188321Y0309165D01*
X0188321Y0305555D02*
X0188321Y0301915D01*
X0187107Y0300702D01*
X0185894Y0301915D01*
X0185894Y0304342D01*
X0184681Y0305555D01*
X0183467Y0304342D01*
X0183467Y0300702D01*
X0187107Y0298305D02*
X0187107Y0293451D01*
X0187107Y0291055D02*
X0183467Y0291055D01*
X0183467Y0286201D02*
X0188321Y0286201D01*
X0188321Y0289841D01*
X0187107Y0291055D01*
X0187107Y0283804D02*
X0185894Y0283804D01*
X0185894Y0278951D01*
X0184681Y0278951D02*
X0187107Y0278951D01*
X0188321Y0280164D01*
X0188321Y0282591D01*
X0187107Y0283804D01*
X0183467Y0280164D02*
X0184681Y0278951D01*
X0183467Y0280164D02*
X0183467Y0282591D01*
X0184681Y0276554D02*
X0183467Y0275341D01*
X0183467Y0271700D01*
X0181041Y0271700D02*
X0188321Y0271700D01*
X0188321Y0275341D01*
X0187107Y0276554D01*
X0184681Y0276554D01*
X0184681Y0269304D02*
X0183467Y0268090D01*
X0183467Y0265664D01*
X0184681Y0264450D01*
X0187107Y0264450D01*
X0188321Y0265664D01*
X0188321Y0268090D01*
X0187107Y0269304D01*
X0184681Y0269304D01*
X0176510Y0268095D02*
X0176510Y0264455D01*
X0175296Y0263242D01*
X0172870Y0263242D01*
X0171656Y0264455D01*
X0171656Y0268095D01*
X0170443Y0268095D02*
X0176510Y0268095D01*
X0172870Y0271705D02*
X0172870Y0272919D01*
X0171656Y0272919D01*
X0171656Y0271705D01*
X0172870Y0271705D01*
X0171656Y0272919D02*
X0169230Y0270492D01*
X0170443Y0268095D02*
X0169230Y0266882D01*
X0169230Y0265669D01*
X0171656Y0260845D02*
X0175296Y0260845D01*
X0176510Y0259632D01*
X0176510Y0255992D01*
X0171656Y0255992D01*
X0171656Y0253585D02*
X0171656Y0251158D01*
X0171656Y0252371D02*
X0176510Y0252371D01*
X0176510Y0251158D01*
X0178937Y0252371D02*
X0180150Y0252371D01*
X0183467Y0251163D02*
X0184681Y0249950D01*
X0187107Y0249950D01*
X0188321Y0251163D01*
X0188321Y0253590D01*
X0187107Y0254803D01*
X0185894Y0254803D01*
X0185894Y0249950D01*
X0183467Y0251163D02*
X0183467Y0253590D01*
X0178937Y0247538D02*
X0171656Y0247538D01*
X0171656Y0248751D02*
X0171656Y0246324D01*
X0172870Y0243928D02*
X0171656Y0242714D01*
X0172870Y0241501D01*
X0171656Y0240288D01*
X0172870Y0239074D01*
X0176510Y0239074D01*
X0175296Y0236677D02*
X0176510Y0235464D01*
X0176510Y0233037D01*
X0175296Y0231824D01*
X0172870Y0231824D01*
X0171656Y0233037D01*
X0171656Y0235464D01*
X0172870Y0236677D01*
X0175296Y0236677D01*
X0176510Y0243928D02*
X0172870Y0243928D01*
X0178937Y0246324D02*
X0178937Y0247538D01*
X0183467Y0245126D02*
X0188321Y0247553D01*
X0188321Y0242699D02*
X0183467Y0245126D01*
X0183467Y0240293D02*
X0183467Y0237866D01*
X0183467Y0239079D02*
X0188321Y0239079D01*
X0188321Y0237866D01*
X0188321Y0235459D02*
X0188321Y0233032D01*
X0189534Y0234246D02*
X0184681Y0234246D01*
X0183467Y0235459D01*
X0183467Y0230636D02*
X0183467Y0226995D01*
X0184681Y0225782D01*
X0185894Y0226995D01*
X0185894Y0230636D01*
X0187107Y0230636D02*
X0183467Y0230636D01*
X0178937Y0228214D02*
X0178937Y0224574D01*
X0171656Y0224574D01*
X0171656Y0228214D01*
X0172870Y0229427D01*
X0177723Y0229427D01*
X0178937Y0228214D01*
X0183467Y0219740D02*
X0188321Y0219740D01*
X0188321Y0222167D02*
X0188321Y0223380D01*
X0188321Y0222167D02*
X0185894Y0219740D01*
X0184681Y0217343D02*
X0187107Y0217343D01*
X0188321Y0216130D01*
X0188321Y0213703D01*
X0187107Y0212490D01*
X0184681Y0212490D01*
X0183467Y0213703D01*
X0183467Y0216130D01*
X0184681Y0217343D01*
X0184681Y0210093D02*
X0183467Y0208880D01*
X0183467Y0205240D01*
X0190748Y0205240D01*
X0188321Y0205240D02*
X0188321Y0208880D01*
X0187107Y0210093D01*
X0184681Y0210093D01*
X0185894Y0202843D02*
X0185894Y0199203D01*
X0184681Y0197989D01*
X0183467Y0199203D01*
X0183467Y0202843D01*
X0187107Y0202843D01*
X0188321Y0201629D01*
X0188321Y0199203D01*
X0190748Y0194369D02*
X0183467Y0194369D01*
X0183467Y0193156D02*
X0183467Y0195582D01*
X0183467Y0190749D02*
X0183467Y0188322D01*
X0183467Y0189536D02*
X0190748Y0189536D01*
X0190748Y0188322D01*
X0188321Y0184712D02*
X0188321Y0182285D01*
X0187107Y0181072D01*
X0184681Y0181072D01*
X0183467Y0182285D01*
X0183467Y0184712D01*
X0184681Y0185925D01*
X0187107Y0185925D01*
X0188321Y0184712D01*
X0190748Y0193156D02*
X0190748Y0194369D01*
X0195278Y0195577D02*
X0196492Y0194364D01*
X0197705Y0195577D01*
X0197705Y0199218D01*
X0198918Y0199218D02*
X0195278Y0199218D01*
X0195278Y0195577D01*
X0195278Y0191967D02*
X0198918Y0191967D01*
X0200132Y0190754D01*
X0200132Y0187114D01*
X0195278Y0187114D01*
X0195278Y0181072D02*
X0200132Y0181072D01*
X0200132Y0183499D02*
X0200132Y0184712D01*
X0200132Y0183499D02*
X0197705Y0181072D01*
X0196492Y0178675D02*
X0195278Y0177462D01*
X0195278Y0175035D01*
X0196492Y0173822D01*
X0198918Y0173822D01*
X0200132Y0175035D01*
X0200132Y0177462D01*
X0198918Y0178675D01*
X0196492Y0178675D01*
X0188321Y0178675D02*
X0188321Y0175035D01*
X0187107Y0173822D01*
X0184681Y0173822D01*
X0183467Y0175035D01*
X0183467Y0178675D01*
X0178937Y0177462D02*
X0178937Y0173822D01*
X0171656Y0173822D01*
X0174083Y0173822D02*
X0174083Y0177462D01*
X0175296Y0178675D01*
X0177723Y0178675D01*
X0178937Y0177462D01*
X0176510Y0182285D02*
X0176510Y0184712D01*
X0175296Y0185925D01*
X0171656Y0185925D01*
X0171656Y0182285D01*
X0172870Y0181072D01*
X0174083Y0182285D01*
X0174083Y0185925D01*
X0176510Y0188322D02*
X0176510Y0190749D01*
X0177723Y0189536D02*
X0172870Y0189536D01*
X0171656Y0190749D01*
X0171656Y0193156D02*
X0176510Y0193156D01*
X0176510Y0195582D02*
X0176510Y0196796D01*
X0176510Y0195582D02*
X0174083Y0193156D01*
X0171656Y0199198D02*
X0171656Y0201624D01*
X0171656Y0200411D02*
X0176510Y0200411D01*
X0176510Y0199198D01*
X0178937Y0200411D02*
X0180150Y0200411D01*
X0176510Y0205245D02*
X0175296Y0204031D01*
X0172870Y0204031D01*
X0171656Y0205245D01*
X0171656Y0208885D01*
X0171656Y0211281D02*
X0178937Y0211281D01*
X0176510Y0208885D02*
X0176510Y0205245D01*
X0174083Y0211281D02*
X0176510Y0214922D01*
X0174083Y0211281D02*
X0171656Y0214922D01*
X0167126Y0207656D02*
X0159845Y0207656D01*
X0161059Y0205260D02*
X0159845Y0204046D01*
X0159845Y0201619D01*
X0161059Y0200406D01*
X0165912Y0200406D01*
X0167126Y0201619D01*
X0167126Y0204046D01*
X0165912Y0205260D01*
X0163485Y0207656D02*
X0164699Y0208870D01*
X0164699Y0211296D01*
X0163485Y0212510D01*
X0159845Y0212510D01*
X0161059Y0214907D02*
X0159845Y0216120D01*
X0159845Y0219760D01*
X0164699Y0219760D01*
X0164699Y0222157D02*
X0159845Y0222157D01*
X0162272Y0222157D02*
X0164699Y0224584D01*
X0164699Y0225797D01*
X0163485Y0228199D02*
X0164699Y0229412D01*
X0164699Y0233052D01*
X0163485Y0235449D02*
X0164699Y0236662D01*
X0164699Y0239089D01*
X0163485Y0240303D01*
X0159845Y0240303D01*
X0161059Y0242699D02*
X0163485Y0242699D01*
X0164699Y0243913D01*
X0164699Y0246339D01*
X0163485Y0247553D01*
X0162272Y0247553D01*
X0162272Y0242699D01*
X0161059Y0242699D02*
X0159845Y0243913D01*
X0159845Y0246339D01*
X0159845Y0249950D02*
X0159845Y0253590D01*
X0161059Y0254803D01*
X0162272Y0253590D01*
X0162272Y0251163D01*
X0163485Y0249950D01*
X0164699Y0251163D01*
X0164699Y0254803D01*
X0161059Y0257200D02*
X0161059Y0258413D01*
X0159845Y0258413D01*
X0159845Y0257200D01*
X0161059Y0257200D01*
X0159845Y0235449D02*
X0167126Y0235449D01*
X0163485Y0228199D02*
X0161059Y0228199D01*
X0159845Y0229412D01*
X0159845Y0233052D01*
X0161059Y0214907D02*
X0164699Y0214907D01*
X0163485Y0190759D02*
X0159845Y0190759D01*
X0159845Y0188332D02*
X0163485Y0188332D01*
X0164699Y0189546D01*
X0163485Y0190759D01*
X0163485Y0188332D02*
X0164699Y0187119D01*
X0164699Y0185905D01*
X0159845Y0185905D01*
X0159845Y0183499D02*
X0159845Y0181072D01*
X0159845Y0182285D02*
X0164699Y0182285D01*
X0164699Y0181072D01*
X0167126Y0182285D02*
X0168339Y0182285D01*
X0167126Y0178675D02*
X0167126Y0173822D01*
X0167126Y0176248D02*
X0159845Y0176248D01*
X0188321Y0226995D02*
X0188321Y0229422D01*
X0187107Y0230636D01*
X0190748Y0239079D02*
X0191961Y0239079D01*
X0195278Y0237876D02*
X0195278Y0236662D01*
X0196492Y0235449D01*
X0197705Y0235449D01*
X0200132Y0237876D01*
X0201345Y0237876D01*
X0202559Y0236662D01*
X0201345Y0235449D01*
X0200132Y0235449D01*
X0195278Y0240303D01*
X0197705Y0240303D02*
X0195278Y0237876D01*
X0195278Y0225792D02*
X0196492Y0224579D01*
X0201345Y0224579D01*
X0200132Y0225792D02*
X0200132Y0223365D01*
X0198918Y0220968D02*
X0195278Y0220968D01*
X0195278Y0216115D02*
X0200132Y0216115D01*
X0200132Y0219755D01*
X0198918Y0220968D01*
X0198918Y0213718D02*
X0197705Y0213718D01*
X0197705Y0208865D01*
X0196492Y0208865D02*
X0198918Y0208865D01*
X0200132Y0210078D01*
X0200132Y0212505D01*
X0198918Y0213718D01*
X0195278Y0210078D02*
X0196492Y0208865D01*
X0195278Y0210078D02*
X0195278Y0212505D01*
X0195278Y0206468D02*
X0198918Y0206468D01*
X0200132Y0205255D01*
X0198918Y0204041D01*
X0195278Y0204041D01*
X0195278Y0201614D02*
X0200132Y0201614D01*
X0200132Y0202828D01*
X0198918Y0204041D01*
X0198918Y0199218D02*
X0200132Y0198004D01*
X0200132Y0195577D01*
X0198918Y0249950D02*
X0196492Y0249950D01*
X0195278Y0251163D01*
X0195278Y0254803D01*
X0195278Y0257200D02*
X0200132Y0257200D01*
X0200132Y0254803D02*
X0200132Y0251163D01*
X0198918Y0249950D01*
X0197705Y0257200D02*
X0200132Y0259627D01*
X0200132Y0260840D01*
X0200132Y0263242D02*
X0200132Y0264455D01*
X0176510Y0282576D02*
X0176510Y0283789D01*
X0175296Y0285003D01*
X0176510Y0286216D01*
X0175296Y0287429D01*
X0171656Y0287429D01*
X0171656Y0289826D02*
X0176510Y0294680D01*
X0176510Y0297076D02*
X0176510Y0298290D01*
X0175296Y0299503D01*
X0176510Y0300717D01*
X0175296Y0301930D01*
X0171656Y0301930D01*
X0171656Y0304327D02*
X0176510Y0309180D01*
X0176510Y0311577D02*
X0176510Y0312790D01*
X0175296Y0314004D01*
X0176510Y0315217D01*
X0175296Y0316431D01*
X0171656Y0316431D01*
X0171656Y0318827D02*
X0176510Y0323681D01*
X0176510Y0318827D02*
X0171656Y0323681D01*
X0169230Y0326078D02*
X0171656Y0328504D01*
X0171656Y0327291D01*
X0172870Y0327291D01*
X0172870Y0328504D01*
X0171656Y0328504D01*
X0172870Y0338161D02*
X0174083Y0339375D01*
X0174083Y0343015D01*
X0175296Y0343015D02*
X0171656Y0343015D01*
X0171656Y0339375D01*
X0172870Y0338161D01*
X0176510Y0339375D02*
X0176510Y0341802D01*
X0175296Y0343015D01*
X0176510Y0345412D02*
X0171656Y0345412D01*
X0171656Y0350265D02*
X0175296Y0350265D01*
X0176510Y0349052D01*
X0176510Y0345412D01*
X0181041Y0350245D02*
X0188321Y0350245D01*
X0188321Y0353885D01*
X0187107Y0355099D01*
X0184681Y0355099D01*
X0183467Y0353885D01*
X0183467Y0350245D01*
X0183467Y0357496D02*
X0188321Y0357496D01*
X0188321Y0359922D02*
X0188321Y0361136D01*
X0188321Y0359922D02*
X0185894Y0357496D01*
X0184681Y0363537D02*
X0183467Y0364751D01*
X0183467Y0367178D01*
X0184681Y0368391D01*
X0187107Y0368391D01*
X0188321Y0367178D01*
X0188321Y0364751D01*
X0187107Y0363537D01*
X0184681Y0363537D01*
X0181041Y0370788D02*
X0181041Y0372001D01*
X0182254Y0373214D01*
X0188321Y0373214D01*
X0190748Y0373214D02*
X0191961Y0373214D01*
X0188321Y0376835D02*
X0188321Y0379261D01*
X0187107Y0380475D01*
X0185894Y0380475D01*
X0185894Y0375621D01*
X0184681Y0375621D02*
X0187107Y0375621D01*
X0188321Y0376835D01*
X0184681Y0375621D02*
X0183467Y0376835D01*
X0183467Y0379261D01*
X0184681Y0382872D02*
X0183467Y0384085D01*
X0183467Y0387725D01*
X0184681Y0391335D02*
X0183467Y0392549D01*
X0184681Y0391335D02*
X0189534Y0391335D01*
X0188321Y0390122D02*
X0188321Y0392549D01*
X0188321Y0387725D02*
X0188321Y0384085D01*
X0187107Y0382872D01*
X0184681Y0382872D01*
X0183467Y0402206D02*
X0183467Y0405846D01*
X0184681Y0407059D01*
X0187107Y0407059D01*
X0188321Y0405846D01*
X0188321Y0402206D01*
X0190748Y0402206D02*
X0183467Y0402206D01*
X0184681Y0409456D02*
X0183467Y0410669D01*
X0183467Y0414309D01*
X0182254Y0414309D02*
X0181041Y0413096D01*
X0181041Y0411883D01*
X0182254Y0414309D02*
X0188321Y0414309D01*
X0188321Y0409456D02*
X0184681Y0409456D01*
X0178937Y0357515D02*
X0171656Y0357515D01*
X0171656Y0353875D01*
X0172870Y0352662D01*
X0175296Y0352662D01*
X0176510Y0353875D01*
X0176510Y0357515D01*
X0185894Y0340598D02*
X0185894Y0335745D01*
X0184681Y0335745D02*
X0187107Y0335745D01*
X0188321Y0336958D01*
X0188321Y0339385D01*
X0187107Y0340598D01*
X0185894Y0340598D01*
X0183467Y0339385D02*
X0183467Y0336958D01*
X0184681Y0335745D01*
X0183467Y0333348D02*
X0183467Y0329708D01*
X0184681Y0328494D01*
X0187107Y0328494D01*
X0188321Y0329708D01*
X0188321Y0333348D01*
X0195278Y0333328D02*
X0195278Y0336968D01*
X0196492Y0338181D01*
X0197705Y0336968D01*
X0197705Y0334541D01*
X0198918Y0333328D01*
X0200132Y0334541D01*
X0200132Y0338181D01*
X0200132Y0329708D02*
X0195278Y0329708D01*
X0195278Y0330921D02*
X0195278Y0328494D01*
X0200132Y0328494D02*
X0200132Y0329708D01*
X0202559Y0329708D02*
X0203772Y0329708D01*
X0196492Y0347828D02*
X0197705Y0349042D01*
X0197705Y0352682D01*
X0198918Y0352682D02*
X0195278Y0352682D01*
X0195278Y0349042D01*
X0196492Y0347828D01*
X0200132Y0349042D02*
X0200132Y0351469D01*
X0198918Y0352682D01*
X0188321Y0326093D02*
X0188321Y0324879D01*
X0185894Y0322452D01*
X0183467Y0322452D02*
X0188321Y0322452D01*
X0188321Y0320056D02*
X0183467Y0320056D01*
X0183467Y0316416D01*
X0184681Y0315202D01*
X0188321Y0315202D01*
X0176510Y0311577D02*
X0171656Y0311577D01*
X0171656Y0309180D02*
X0176510Y0304327D01*
X0175296Y0299503D02*
X0171656Y0299503D01*
X0171656Y0297076D02*
X0176510Y0297076D01*
X0171656Y0294680D02*
X0176510Y0289826D01*
X0175296Y0285003D02*
X0171656Y0285003D01*
X0171656Y0282576D02*
X0176510Y0282576D01*
X0175296Y0314004D02*
X0171656Y0314004D01*
X0254072Y0287038D02*
X0254072Y0285825D01*
X0254072Y0287038D02*
X0255285Y0288251D01*
X0261352Y0288251D01*
X0257712Y0290648D02*
X0257712Y0291862D01*
X0256499Y0291862D01*
X0256499Y0290648D01*
X0257712Y0290648D01*
X0256499Y0288251D02*
X0256499Y0284611D01*
X0257712Y0283398D01*
X0261352Y0283398D01*
X0261352Y0280991D02*
X0261352Y0278564D01*
X0262566Y0279778D02*
X0257712Y0279778D01*
X0256499Y0280991D01*
X0261352Y0274949D02*
X0258926Y0272522D01*
X0258926Y0270126D02*
X0258926Y0266486D01*
X0257712Y0265272D01*
X0256499Y0266486D01*
X0256499Y0270126D01*
X0260139Y0270126D01*
X0261352Y0268912D01*
X0261352Y0266486D01*
X0260139Y0262875D02*
X0261352Y0261662D01*
X0261352Y0259235D01*
X0260139Y0258022D01*
X0257712Y0258022D01*
X0256499Y0259235D01*
X0256499Y0261662D01*
X0257712Y0262875D01*
X0260139Y0262875D01*
X0265883Y0262870D02*
X0265883Y0261657D01*
X0265883Y0262870D02*
X0267096Y0264084D01*
X0273163Y0264084D01*
X0273163Y0259230D02*
X0269523Y0259230D01*
X0268310Y0260444D01*
X0268310Y0264084D01*
X0269523Y0256833D02*
X0271950Y0256833D01*
X0273163Y0255620D01*
X0273163Y0251980D01*
X0275590Y0251980D02*
X0268310Y0251980D01*
X0268310Y0255620D01*
X0269523Y0256833D01*
X0261352Y0255620D02*
X0261352Y0254407D01*
X0258926Y0251980D01*
X0261352Y0251980D02*
X0256499Y0251980D01*
X0256499Y0249583D02*
X0256499Y0245943D01*
X0257712Y0244730D01*
X0260139Y0244730D01*
X0261352Y0245943D01*
X0261352Y0249583D01*
X0255285Y0249583D01*
X0254072Y0248370D01*
X0254072Y0247156D01*
X0256499Y0242333D02*
X0256499Y0238693D01*
X0257712Y0237479D01*
X0260139Y0237479D01*
X0261352Y0238693D01*
X0261352Y0242333D01*
X0268310Y0242328D02*
X0270737Y0238688D01*
X0273163Y0242328D01*
X0275590Y0238688D02*
X0268310Y0238688D01*
X0268310Y0232646D02*
X0273163Y0232646D01*
X0270737Y0232646D02*
X0273163Y0235073D01*
X0273163Y0236286D01*
X0271950Y0230249D02*
X0269523Y0230249D01*
X0268310Y0229036D01*
X0268310Y0226609D01*
X0269523Y0225396D01*
X0271950Y0225396D01*
X0273163Y0226609D01*
X0273163Y0229036D01*
X0271950Y0230249D01*
X0273163Y0222999D02*
X0269523Y0222999D01*
X0268310Y0221785D01*
X0269523Y0220572D01*
X0268310Y0219359D01*
X0269523Y0218145D01*
X0273163Y0218145D01*
X0273163Y0215739D02*
X0273163Y0213312D01*
X0274377Y0214525D02*
X0269523Y0214525D01*
X0268310Y0215739D01*
X0264992Y0219359D02*
X0263779Y0219359D01*
X0261352Y0219359D02*
X0256499Y0219359D01*
X0256499Y0220572D02*
X0256499Y0218145D01*
X0256499Y0215739D02*
X0257712Y0214525D01*
X0262566Y0214525D01*
X0261352Y0213312D02*
X0261352Y0215739D01*
X0261352Y0218145D02*
X0261352Y0219359D01*
X0260139Y0222979D02*
X0261352Y0224192D01*
X0261352Y0226619D01*
X0260139Y0227832D01*
X0258926Y0227832D01*
X0258926Y0222979D01*
X0260139Y0222979D02*
X0257712Y0222979D01*
X0256499Y0224192D01*
X0256499Y0226619D01*
X0256499Y0230229D02*
X0261352Y0230229D01*
X0261352Y0231442D01*
X0260139Y0232656D01*
X0261352Y0233869D01*
X0260139Y0235083D01*
X0256499Y0235083D01*
X0256499Y0232656D02*
X0260139Y0232656D01*
X0260139Y0210915D02*
X0256499Y0210915D01*
X0256499Y0207275D01*
X0257712Y0206062D01*
X0258926Y0207275D01*
X0258926Y0210915D01*
X0260139Y0210915D02*
X0261352Y0209702D01*
X0261352Y0207275D01*
X0261352Y0203660D02*
X0258926Y0200020D01*
X0256499Y0203660D01*
X0256499Y0200020D02*
X0263779Y0200020D01*
X0268310Y0201233D02*
X0269523Y0200020D01*
X0270737Y0201233D01*
X0270737Y0204873D01*
X0271950Y0204873D02*
X0268310Y0204873D01*
X0268310Y0201233D01*
X0268310Y0207270D02*
X0273163Y0207270D01*
X0270737Y0207270D02*
X0273163Y0209697D01*
X0273163Y0210910D01*
X0271950Y0204873D02*
X0273163Y0203660D01*
X0273163Y0201233D01*
X0261352Y0272522D02*
X0256499Y0272522D01*
X0261352Y0274949D02*
X0261352Y0276163D01*
X0268310Y0278584D02*
X0271950Y0274944D01*
X0270737Y0273731D02*
X0275590Y0278584D01*
X0273163Y0282194D02*
X0273163Y0284621D01*
X0271950Y0285835D01*
X0268310Y0285835D01*
X0268310Y0282194D01*
X0269523Y0280981D01*
X0270737Y0282194D01*
X0270737Y0285835D01*
X0273163Y0288231D02*
X0273163Y0290658D01*
X0274377Y0289445D02*
X0269523Y0289445D01*
X0268310Y0290658D01*
X0268310Y0293065D02*
X0268310Y0295492D01*
X0268310Y0294278D02*
X0273163Y0294278D01*
X0273163Y0293065D01*
X0275590Y0294278D02*
X0276803Y0294278D01*
X0273163Y0299112D02*
X0273163Y0301539D01*
X0271950Y0302752D01*
X0270737Y0302752D01*
X0270737Y0297898D01*
X0271950Y0297898D02*
X0269523Y0297898D01*
X0268310Y0299112D01*
X0268310Y0301539D01*
X0271950Y0297898D02*
X0273163Y0299112D01*
X0275590Y0312399D02*
X0268310Y0312399D01*
X0268310Y0317252D02*
X0275590Y0317252D01*
X0273163Y0314826D01*
X0275590Y0312399D01*
X0271950Y0319649D02*
X0269523Y0319649D01*
X0268310Y0320863D01*
X0268310Y0324503D01*
X0269523Y0326900D02*
X0268310Y0328113D01*
X0268310Y0330540D01*
X0269523Y0331753D01*
X0271950Y0331753D01*
X0271950Y0329326D01*
X0274377Y0326900D02*
X0269523Y0326900D01*
X0273163Y0324503D02*
X0273163Y0320863D01*
X0271950Y0319649D01*
X0274377Y0326900D02*
X0275590Y0328113D01*
X0275590Y0330540D01*
X0274377Y0331753D01*
X0273163Y0334150D02*
X0268310Y0334150D01*
X0270737Y0334150D02*
X0273163Y0336577D01*
X0273163Y0337790D01*
X0271950Y0340192D02*
X0269523Y0340192D01*
X0268310Y0341405D01*
X0268310Y0343832D01*
X0269523Y0345045D01*
X0271950Y0345045D01*
X0273163Y0343832D01*
X0273163Y0341405D01*
X0271950Y0340192D01*
X0269523Y0347442D02*
X0270737Y0348655D01*
X0270737Y0352296D01*
X0271950Y0352296D02*
X0268310Y0352296D01*
X0268310Y0348655D01*
X0269523Y0347442D01*
X0273163Y0348655D02*
X0273163Y0351082D01*
X0271950Y0352296D01*
X0273163Y0354692D02*
X0268310Y0354692D01*
X0270737Y0354692D02*
X0273163Y0357119D01*
X0273163Y0358332D01*
X0273163Y0360734D02*
X0273163Y0363161D01*
X0274377Y0361948D02*
X0269523Y0361948D01*
X0268310Y0363161D01*
X0269523Y0365568D02*
X0268310Y0366781D01*
X0268310Y0370421D01*
X0267096Y0370421D02*
X0265883Y0369208D01*
X0265883Y0367994D01*
X0267096Y0370421D02*
X0273163Y0370421D01*
X0273163Y0365568D02*
X0269523Y0365568D01*
X0263779Y0372818D02*
X0256499Y0372818D01*
X0256499Y0370411D02*
X0257712Y0369198D01*
X0262566Y0369198D01*
X0261352Y0367984D02*
X0261352Y0370411D01*
X0260139Y0372818D02*
X0261352Y0374031D01*
X0261352Y0376458D01*
X0260139Y0377672D01*
X0256499Y0377672D01*
X0257712Y0380068D02*
X0256499Y0381282D01*
X0256499Y0383708D01*
X0258926Y0384922D02*
X0258926Y0380068D01*
X0260139Y0380068D02*
X0261352Y0381282D01*
X0261352Y0383708D01*
X0260139Y0384922D01*
X0258926Y0384922D01*
X0257712Y0380068D02*
X0260139Y0380068D01*
X0261352Y0394569D02*
X0261352Y0398209D01*
X0260139Y0399422D01*
X0257712Y0399422D01*
X0256499Y0398209D01*
X0256499Y0394569D01*
X0263779Y0394569D01*
X0260139Y0401819D02*
X0261352Y0403033D01*
X0261352Y0405459D01*
X0260139Y0406673D01*
X0258926Y0406673D01*
X0258926Y0401819D01*
X0260139Y0401819D02*
X0257712Y0401819D01*
X0256499Y0403033D01*
X0256499Y0405459D01*
X0256499Y0409069D02*
X0256499Y0412710D01*
X0257712Y0413923D01*
X0258926Y0412710D01*
X0258926Y0410283D01*
X0260139Y0409069D01*
X0261352Y0410283D01*
X0261352Y0413923D01*
X0261352Y0416320D02*
X0261352Y0418746D01*
X0262566Y0417533D02*
X0257712Y0417533D01*
X0256499Y0418746D01*
X0256499Y0421153D02*
X0258926Y0423580D01*
X0261352Y0423580D01*
X0263779Y0421153D01*
X0261352Y0358337D02*
X0261352Y0354697D01*
X0260139Y0353484D01*
X0258926Y0354697D01*
X0258926Y0357124D01*
X0257712Y0358337D01*
X0256499Y0357124D01*
X0256499Y0353484D01*
X0258926Y0347462D02*
X0258926Y0342609D01*
X0260139Y0342609D02*
X0261352Y0343822D01*
X0261352Y0346249D01*
X0260139Y0347462D01*
X0258926Y0347462D01*
X0256499Y0346249D02*
X0256499Y0343822D01*
X0257712Y0342609D01*
X0260139Y0342609D01*
X0260139Y0340212D02*
X0256499Y0340212D01*
X0260139Y0340212D02*
X0261352Y0338998D01*
X0261352Y0336572D01*
X0260139Y0335358D01*
X0261352Y0332961D02*
X0261352Y0329321D01*
X0260139Y0328108D01*
X0258926Y0329321D01*
X0258926Y0331748D01*
X0257712Y0332961D01*
X0256499Y0331748D01*
X0256499Y0328108D01*
X0256499Y0325701D02*
X0258926Y0323274D01*
X0261352Y0323274D01*
X0263779Y0325701D01*
X0263779Y0335358D02*
X0256499Y0335358D01*
X0261352Y0349859D02*
X0262566Y0351072D01*
X0264992Y0351072D01*
X0260139Y0313627D02*
X0256499Y0313627D01*
X0256499Y0311201D02*
X0260139Y0311201D01*
X0261352Y0312414D01*
X0260139Y0313627D01*
X0260139Y0311201D02*
X0261352Y0309987D01*
X0261352Y0308774D01*
X0256499Y0308774D01*
X0257712Y0306377D02*
X0256499Y0305164D01*
X0256499Y0302737D01*
X0257712Y0301524D01*
X0260139Y0301524D01*
X0261352Y0302737D01*
X0261352Y0305164D01*
X0260139Y0306377D01*
X0257712Y0306377D01*
X0256499Y0299127D02*
X0256499Y0295487D01*
X0257712Y0294273D01*
X0260139Y0294273D01*
X0261352Y0295487D01*
X0261352Y0299127D01*
X0268310Y0273731D02*
X0275590Y0273731D01*
X0218891Y0026377D02*
X0215251Y0026377D01*
X0214037Y0025164D01*
X0214037Y0022737D01*
X0215251Y0021524D01*
X0218891Y0021524D01*
X0218891Y0019097D02*
X0218891Y0026377D01*
X0210427Y0023951D02*
X0208001Y0023951D01*
X0206787Y0022737D01*
X0206787Y0019097D01*
X0210427Y0019097D01*
X0211641Y0020311D01*
X0210427Y0021524D01*
X0206787Y0021524D01*
X0204390Y0019097D02*
X0204390Y0023951D01*
X0200750Y0023951D01*
X0199537Y0022737D01*
X0199537Y0019097D01*
X0197140Y0020311D02*
X0197140Y0022737D01*
X0195927Y0023951D01*
X0193500Y0023951D01*
X0192287Y0022737D01*
X0192287Y0021524D01*
X0197140Y0021524D01*
X0197140Y0020311D02*
X0195927Y0019097D01*
X0193500Y0019097D01*
X0189890Y0019097D02*
X0187463Y0019097D01*
X0188676Y0019097D02*
X0188676Y0026377D01*
X0189890Y0026377D01*
X0177806Y0022737D02*
X0177806Y0020311D01*
X0176593Y0019097D01*
X0172953Y0019097D01*
X0172953Y0026377D01*
X0172953Y0023951D02*
X0176593Y0023951D01*
X0177806Y0022737D01*
X0170556Y0022737D02*
X0170556Y0020311D01*
X0169342Y0019097D01*
X0166916Y0019097D01*
X0165702Y0021524D02*
X0170556Y0021524D01*
X0170556Y0022737D02*
X0169342Y0023951D01*
X0166916Y0023951D01*
X0165702Y0022737D01*
X0165702Y0021524D01*
X0163305Y0022737D02*
X0162092Y0023951D01*
X0158452Y0023951D01*
X0156055Y0023951D02*
X0154842Y0023951D01*
X0154842Y0019097D01*
X0156055Y0019097D02*
X0153628Y0019097D01*
X0151222Y0020311D02*
X0151222Y0022737D01*
X0150008Y0023951D01*
X0146368Y0023951D01*
X0146368Y0017884D01*
X0147582Y0016671D01*
X0148795Y0016671D01*
X0150008Y0019097D02*
X0146368Y0019097D01*
X0143971Y0019097D02*
X0143971Y0023951D01*
X0140331Y0023951D01*
X0139118Y0022737D01*
X0139118Y0019097D01*
X0150008Y0019097D02*
X0151222Y0020311D01*
X0154842Y0026377D02*
X0154842Y0027591D01*
X0159665Y0021524D02*
X0158452Y0020311D01*
X0159665Y0019097D01*
X0163305Y0019097D01*
X0162092Y0021524D02*
X0159665Y0021524D01*
X0162092Y0021524D02*
X0163305Y0022737D01*
X0129471Y0023951D02*
X0125831Y0023951D01*
X0124617Y0022737D01*
X0124617Y0020311D01*
X0125831Y0019097D01*
X0129471Y0019097D01*
X0129471Y0026377D01*
X0122220Y0023951D02*
X0122220Y0020311D01*
X0121007Y0019097D01*
X0117367Y0019097D01*
X0117367Y0017884D02*
X0118580Y0016671D01*
X0119794Y0016671D01*
X0117367Y0017884D02*
X0117367Y0023951D01*
X0107720Y0026377D02*
X0107720Y0019097D01*
X0107720Y0021524D02*
X0104080Y0021524D01*
X0102866Y0022737D01*
X0102866Y0025164D01*
X0104080Y0026377D01*
X0107720Y0026377D01*
X0100470Y0026377D02*
X0095616Y0026377D01*
X0093219Y0026377D02*
X0089579Y0026377D01*
X0088366Y0025164D01*
X0088366Y0022737D01*
X0089579Y0021524D01*
X0093219Y0021524D01*
X0090793Y0021524D02*
X0088366Y0019097D01*
X0085969Y0019097D02*
X0081116Y0019097D01*
X0085969Y0020311D02*
X0081116Y0025164D01*
X0081116Y0026377D01*
X0085969Y0026377D01*
X0085969Y0020311D02*
X0085969Y0019097D01*
X0093219Y0019097D02*
X0093219Y0026377D01*
X0098043Y0026377D02*
X0098043Y0019097D01*
X0018110Y0193571D02*
X0018110Y0195998D01*
X0018110Y0194785D02*
X0012043Y0194785D01*
X0010830Y0193571D01*
X0010830Y0192358D01*
X0012043Y0191144D01*
X0010830Y0198395D02*
X0010830Y0203248D01*
X0012043Y0205645D02*
X0010830Y0206858D01*
X0010830Y0209285D01*
X0012043Y0210499D01*
X0012043Y0212895D02*
X0010830Y0214109D01*
X0010830Y0215322D01*
X0012043Y0216535D01*
X0018110Y0216535D01*
X0018110Y0215322D02*
X0018110Y0217749D01*
X0018110Y0220146D02*
X0010830Y0220146D01*
X0010830Y0224999D01*
X0012043Y0227396D02*
X0010830Y0228609D01*
X0010830Y0231036D01*
X0012043Y0232249D01*
X0012043Y0234646D02*
X0010830Y0235860D01*
X0010830Y0237073D01*
X0012043Y0238286D01*
X0018110Y0238286D01*
X0018110Y0237073D02*
X0018110Y0239500D01*
X0018110Y0241896D02*
X0010830Y0241896D01*
X0010830Y0246750D01*
X0012043Y0249147D02*
X0010830Y0250360D01*
X0010830Y0252787D01*
X0012043Y0254000D01*
X0012043Y0249147D02*
X0016896Y0249147D01*
X0018110Y0250360D01*
X0018110Y0252787D01*
X0016896Y0254000D01*
X0016896Y0232249D02*
X0018110Y0231036D01*
X0018110Y0228609D01*
X0016896Y0227396D01*
X0012043Y0227396D01*
X0016896Y0210499D02*
X0018110Y0209285D01*
X0018110Y0206858D01*
X0016896Y0205645D01*
X0012043Y0205645D01*
X0010830Y0198395D02*
X0018110Y0198395D01*
M02*
