G75*
%MOIN*%
%OFA0B0*%
%FSLAX25Y25*%
%IPPOS*%
%LPD*%
%AMOC8*
5,1,8,0,0,1.08239X$1,22.5*
%
%ADD10C,0.00039*%
%ADD11C,0.00000*%
D10*
X0003246Y0005215D02*
X0281543Y0005215D01*
X0281543Y0511120D01*
X0003246Y0511120D01*
X0003246Y0005215D01*
X0020717Y0016287D02*
X0020717Y0018748D01*
X0020716Y0018748D02*
X0020718Y0018900D01*
X0020724Y0019052D01*
X0020734Y0019204D01*
X0020747Y0019355D01*
X0020765Y0019506D01*
X0020786Y0019657D01*
X0020812Y0019807D01*
X0020841Y0019956D01*
X0020874Y0020105D01*
X0020911Y0020252D01*
X0020951Y0020399D01*
X0020996Y0020544D01*
X0021044Y0020688D01*
X0021096Y0020831D01*
X0021151Y0020973D01*
X0021210Y0021113D01*
X0021273Y0021252D01*
X0021339Y0021389D01*
X0021409Y0021524D01*
X0021482Y0021657D01*
X0021559Y0021788D01*
X0021639Y0021918D01*
X0021722Y0022045D01*
X0021808Y0022170D01*
X0021898Y0022293D01*
X0021991Y0022413D01*
X0022087Y0022531D01*
X0022186Y0022647D01*
X0022288Y0022760D01*
X0022392Y0022870D01*
X0022500Y0022978D01*
X0022610Y0023082D01*
X0022723Y0023184D01*
X0022839Y0023283D01*
X0022957Y0023379D01*
X0023077Y0023472D01*
X0023200Y0023562D01*
X0023325Y0023648D01*
X0023452Y0023731D01*
X0023582Y0023811D01*
X0023713Y0023888D01*
X0023846Y0023961D01*
X0023981Y0024031D01*
X0024118Y0024097D01*
X0024257Y0024160D01*
X0024397Y0024219D01*
X0024539Y0024274D01*
X0024682Y0024326D01*
X0024826Y0024374D01*
X0024971Y0024419D01*
X0025118Y0024459D01*
X0025265Y0024496D01*
X0025414Y0024529D01*
X0025563Y0024558D01*
X0025713Y0024584D01*
X0025864Y0024605D01*
X0026015Y0024623D01*
X0026166Y0024636D01*
X0026318Y0024646D01*
X0026470Y0024652D01*
X0026622Y0024654D01*
X0038433Y0024654D01*
X0038585Y0024652D01*
X0038737Y0024646D01*
X0038889Y0024636D01*
X0039040Y0024623D01*
X0039191Y0024605D01*
X0039342Y0024584D01*
X0039492Y0024558D01*
X0039641Y0024529D01*
X0039790Y0024496D01*
X0039937Y0024459D01*
X0040084Y0024419D01*
X0040229Y0024374D01*
X0040373Y0024326D01*
X0040516Y0024274D01*
X0040658Y0024219D01*
X0040798Y0024160D01*
X0040937Y0024097D01*
X0041074Y0024031D01*
X0041209Y0023961D01*
X0041342Y0023888D01*
X0041473Y0023811D01*
X0041603Y0023731D01*
X0041730Y0023648D01*
X0041855Y0023562D01*
X0041978Y0023472D01*
X0042098Y0023379D01*
X0042216Y0023283D01*
X0042332Y0023184D01*
X0042445Y0023082D01*
X0042555Y0022978D01*
X0042663Y0022870D01*
X0042767Y0022760D01*
X0042869Y0022647D01*
X0042968Y0022531D01*
X0043064Y0022413D01*
X0043157Y0022293D01*
X0043247Y0022170D01*
X0043333Y0022045D01*
X0043416Y0021918D01*
X0043496Y0021788D01*
X0043573Y0021657D01*
X0043646Y0021524D01*
X0043716Y0021389D01*
X0043782Y0021252D01*
X0043845Y0021113D01*
X0043904Y0020973D01*
X0043959Y0020831D01*
X0044011Y0020688D01*
X0044059Y0020544D01*
X0044104Y0020399D01*
X0044144Y0020252D01*
X0044181Y0020105D01*
X0044214Y0019956D01*
X0044243Y0019807D01*
X0044269Y0019657D01*
X0044290Y0019506D01*
X0044308Y0019355D01*
X0044321Y0019204D01*
X0044331Y0019052D01*
X0044337Y0018900D01*
X0044339Y0018748D01*
X0044339Y0016287D01*
X0044337Y0016135D01*
X0044331Y0015983D01*
X0044321Y0015831D01*
X0044308Y0015680D01*
X0044290Y0015529D01*
X0044269Y0015378D01*
X0044243Y0015228D01*
X0044214Y0015079D01*
X0044181Y0014930D01*
X0044144Y0014783D01*
X0044104Y0014636D01*
X0044059Y0014491D01*
X0044011Y0014347D01*
X0043959Y0014204D01*
X0043904Y0014062D01*
X0043845Y0013922D01*
X0043782Y0013783D01*
X0043716Y0013646D01*
X0043646Y0013511D01*
X0043573Y0013378D01*
X0043496Y0013247D01*
X0043416Y0013117D01*
X0043333Y0012990D01*
X0043247Y0012865D01*
X0043157Y0012742D01*
X0043064Y0012622D01*
X0042968Y0012504D01*
X0042869Y0012388D01*
X0042767Y0012275D01*
X0042663Y0012165D01*
X0042555Y0012057D01*
X0042445Y0011953D01*
X0042332Y0011851D01*
X0042216Y0011752D01*
X0042098Y0011656D01*
X0041978Y0011563D01*
X0041855Y0011473D01*
X0041730Y0011387D01*
X0041603Y0011304D01*
X0041473Y0011224D01*
X0041342Y0011147D01*
X0041209Y0011074D01*
X0041074Y0011004D01*
X0040937Y0010938D01*
X0040798Y0010875D01*
X0040658Y0010816D01*
X0040516Y0010761D01*
X0040373Y0010709D01*
X0040229Y0010661D01*
X0040084Y0010616D01*
X0039937Y0010576D01*
X0039790Y0010539D01*
X0039641Y0010506D01*
X0039492Y0010477D01*
X0039342Y0010451D01*
X0039191Y0010430D01*
X0039040Y0010412D01*
X0038889Y0010399D01*
X0038737Y0010389D01*
X0038585Y0010383D01*
X0038433Y0010381D01*
X0038433Y0010382D02*
X0026622Y0010382D01*
X0026622Y0010381D02*
X0026470Y0010383D01*
X0026318Y0010389D01*
X0026166Y0010399D01*
X0026015Y0010412D01*
X0025864Y0010430D01*
X0025713Y0010451D01*
X0025563Y0010477D01*
X0025414Y0010506D01*
X0025265Y0010539D01*
X0025118Y0010576D01*
X0024971Y0010616D01*
X0024826Y0010661D01*
X0024682Y0010709D01*
X0024539Y0010761D01*
X0024397Y0010816D01*
X0024257Y0010875D01*
X0024118Y0010938D01*
X0023981Y0011004D01*
X0023846Y0011074D01*
X0023713Y0011147D01*
X0023582Y0011224D01*
X0023452Y0011304D01*
X0023325Y0011387D01*
X0023200Y0011473D01*
X0023077Y0011563D01*
X0022957Y0011656D01*
X0022839Y0011752D01*
X0022723Y0011851D01*
X0022610Y0011953D01*
X0022500Y0012057D01*
X0022392Y0012165D01*
X0022288Y0012275D01*
X0022186Y0012388D01*
X0022087Y0012504D01*
X0021991Y0012622D01*
X0021898Y0012742D01*
X0021808Y0012865D01*
X0021722Y0012990D01*
X0021639Y0013117D01*
X0021559Y0013247D01*
X0021482Y0013378D01*
X0021409Y0013511D01*
X0021339Y0013646D01*
X0021273Y0013783D01*
X0021210Y0013922D01*
X0021151Y0014062D01*
X0021096Y0014204D01*
X0021044Y0014347D01*
X0020996Y0014491D01*
X0020951Y0014636D01*
X0020911Y0014783D01*
X0020874Y0014930D01*
X0020841Y0015079D01*
X0020812Y0015228D01*
X0020786Y0015378D01*
X0020765Y0015529D01*
X0020747Y0015680D01*
X0020734Y0015831D01*
X0020724Y0015983D01*
X0020718Y0016135D01*
X0020716Y0016287D01*
X0039171Y0366189D02*
X0157281Y0366189D01*
X0157528Y0366189D01*
X0157281Y0366189D02*
X0157429Y0366191D01*
X0157577Y0366197D01*
X0157725Y0366206D01*
X0157873Y0366220D01*
X0158020Y0366237D01*
X0158166Y0366259D01*
X0158312Y0366284D01*
X0158458Y0366313D01*
X0158602Y0366345D01*
X0158746Y0366382D01*
X0158888Y0366422D01*
X0159030Y0366466D01*
X0159170Y0366514D01*
X0159309Y0366565D01*
X0159447Y0366620D01*
X0159583Y0366678D01*
X0159717Y0366740D01*
X0159850Y0366806D01*
X0159981Y0366875D01*
X0160111Y0366947D01*
X0160238Y0367023D01*
X0160363Y0367102D01*
X0160486Y0367184D01*
X0160607Y0367270D01*
X0160726Y0367358D01*
X0160842Y0367450D01*
X0160956Y0367545D01*
X0161068Y0367643D01*
X0161176Y0367743D01*
X0161283Y0367846D01*
X0161386Y0367953D01*
X0161486Y0368061D01*
X0161584Y0368173D01*
X0161679Y0368287D01*
X0161771Y0368403D01*
X0161859Y0368522D01*
X0161945Y0368643D01*
X0162027Y0368766D01*
X0162106Y0368891D01*
X0162182Y0369019D01*
X0162254Y0369148D01*
X0162323Y0369279D01*
X0162389Y0369412D01*
X0162451Y0369546D01*
X0162509Y0369682D01*
X0162564Y0369820D01*
X0162615Y0369959D01*
X0162663Y0370099D01*
X0162707Y0370241D01*
X0162747Y0370383D01*
X0162784Y0370527D01*
X0162816Y0370671D01*
X0162845Y0370817D01*
X0162870Y0370963D01*
X0162892Y0371109D01*
X0162909Y0371256D01*
X0162923Y0371404D01*
X0162932Y0371552D01*
X0162938Y0371700D01*
X0162940Y0371848D01*
X0162941Y0371848D02*
X0162941Y0429181D01*
X0162940Y0429181D02*
X0162938Y0429329D01*
X0162932Y0429477D01*
X0162923Y0429625D01*
X0162909Y0429773D01*
X0162892Y0429920D01*
X0162870Y0430066D01*
X0162845Y0430212D01*
X0162816Y0430358D01*
X0162784Y0430502D01*
X0162747Y0430646D01*
X0162707Y0430788D01*
X0162663Y0430930D01*
X0162615Y0431070D01*
X0162564Y0431209D01*
X0162509Y0431347D01*
X0162451Y0431483D01*
X0162389Y0431617D01*
X0162323Y0431750D01*
X0162254Y0431881D01*
X0162182Y0432011D01*
X0162106Y0432138D01*
X0162027Y0432263D01*
X0161945Y0432386D01*
X0161859Y0432507D01*
X0161771Y0432626D01*
X0161679Y0432742D01*
X0161584Y0432856D01*
X0161486Y0432968D01*
X0161386Y0433076D01*
X0161283Y0433183D01*
X0161176Y0433286D01*
X0161068Y0433386D01*
X0160956Y0433484D01*
X0160842Y0433579D01*
X0160726Y0433671D01*
X0160607Y0433759D01*
X0160486Y0433845D01*
X0160363Y0433927D01*
X0160238Y0434006D01*
X0160111Y0434082D01*
X0159981Y0434154D01*
X0159850Y0434223D01*
X0159717Y0434289D01*
X0159583Y0434351D01*
X0159447Y0434409D01*
X0159309Y0434464D01*
X0159170Y0434515D01*
X0159030Y0434563D01*
X0158888Y0434607D01*
X0158746Y0434647D01*
X0158602Y0434684D01*
X0158458Y0434716D01*
X0158312Y0434745D01*
X0158166Y0434770D01*
X0158020Y0434792D01*
X0157873Y0434809D01*
X0157725Y0434823D01*
X0157577Y0434832D01*
X0157429Y0434838D01*
X0157281Y0434840D01*
X0157281Y0434841D02*
X0039171Y0434841D01*
X0039171Y0434840D02*
X0039023Y0434838D01*
X0038875Y0434832D01*
X0038727Y0434823D01*
X0038579Y0434809D01*
X0038432Y0434792D01*
X0038286Y0434770D01*
X0038140Y0434745D01*
X0037994Y0434716D01*
X0037850Y0434684D01*
X0037706Y0434647D01*
X0037564Y0434607D01*
X0037422Y0434563D01*
X0037282Y0434515D01*
X0037143Y0434464D01*
X0037005Y0434409D01*
X0036869Y0434351D01*
X0036735Y0434289D01*
X0036602Y0434223D01*
X0036471Y0434154D01*
X0036342Y0434082D01*
X0036214Y0434006D01*
X0036089Y0433927D01*
X0035966Y0433845D01*
X0035845Y0433759D01*
X0035726Y0433671D01*
X0035610Y0433579D01*
X0035496Y0433484D01*
X0035384Y0433386D01*
X0035276Y0433286D01*
X0035169Y0433183D01*
X0035066Y0433076D01*
X0034966Y0432968D01*
X0034868Y0432856D01*
X0034773Y0432742D01*
X0034681Y0432626D01*
X0034593Y0432507D01*
X0034507Y0432386D01*
X0034425Y0432263D01*
X0034346Y0432138D01*
X0034270Y0432011D01*
X0034198Y0431881D01*
X0034129Y0431750D01*
X0034063Y0431617D01*
X0034001Y0431483D01*
X0033943Y0431347D01*
X0033888Y0431209D01*
X0033837Y0431070D01*
X0033789Y0430930D01*
X0033745Y0430788D01*
X0033705Y0430646D01*
X0033668Y0430502D01*
X0033636Y0430358D01*
X0033607Y0430212D01*
X0033582Y0430066D01*
X0033560Y0429920D01*
X0033543Y0429773D01*
X0033529Y0429625D01*
X0033520Y0429477D01*
X0033514Y0429329D01*
X0033512Y0429181D01*
X0033512Y0371848D01*
X0033512Y0371602D01*
X0033512Y0371848D02*
X0033514Y0371700D01*
X0033520Y0371552D01*
X0033529Y0371404D01*
X0033543Y0371256D01*
X0033560Y0371109D01*
X0033582Y0370963D01*
X0033607Y0370817D01*
X0033636Y0370671D01*
X0033668Y0370527D01*
X0033705Y0370383D01*
X0033745Y0370241D01*
X0033789Y0370099D01*
X0033837Y0369959D01*
X0033888Y0369820D01*
X0033943Y0369682D01*
X0034001Y0369546D01*
X0034063Y0369412D01*
X0034129Y0369279D01*
X0034198Y0369148D01*
X0034270Y0369019D01*
X0034346Y0368891D01*
X0034425Y0368766D01*
X0034507Y0368643D01*
X0034593Y0368522D01*
X0034681Y0368403D01*
X0034773Y0368287D01*
X0034868Y0368173D01*
X0034966Y0368061D01*
X0035066Y0367953D01*
X0035169Y0367846D01*
X0035276Y0367743D01*
X0035384Y0367643D01*
X0035496Y0367545D01*
X0035610Y0367450D01*
X0035726Y0367358D01*
X0035845Y0367270D01*
X0035966Y0367184D01*
X0036089Y0367102D01*
X0036214Y0367023D01*
X0036342Y0366947D01*
X0036471Y0366875D01*
X0036602Y0366806D01*
X0036735Y0366740D01*
X0036869Y0366678D01*
X0037005Y0366620D01*
X0037143Y0366565D01*
X0037282Y0366514D01*
X0037422Y0366466D01*
X0037564Y0366422D01*
X0037706Y0366382D01*
X0037850Y0366345D01*
X0037994Y0366313D01*
X0038140Y0366284D01*
X0038286Y0366259D01*
X0038432Y0366237D01*
X0038579Y0366220D01*
X0038727Y0366206D01*
X0038875Y0366197D01*
X0039023Y0366191D01*
X0039171Y0366189D01*
X0038433Y0491681D02*
X0026622Y0491681D01*
X0026470Y0491683D01*
X0026318Y0491689D01*
X0026166Y0491699D01*
X0026015Y0491712D01*
X0025864Y0491730D01*
X0025713Y0491751D01*
X0025563Y0491777D01*
X0025414Y0491806D01*
X0025265Y0491839D01*
X0025118Y0491876D01*
X0024971Y0491916D01*
X0024826Y0491961D01*
X0024682Y0492009D01*
X0024539Y0492061D01*
X0024397Y0492116D01*
X0024257Y0492175D01*
X0024118Y0492238D01*
X0023981Y0492304D01*
X0023846Y0492374D01*
X0023713Y0492447D01*
X0023582Y0492524D01*
X0023452Y0492604D01*
X0023325Y0492687D01*
X0023200Y0492773D01*
X0023077Y0492863D01*
X0022957Y0492956D01*
X0022839Y0493052D01*
X0022723Y0493151D01*
X0022610Y0493253D01*
X0022500Y0493357D01*
X0022392Y0493465D01*
X0022288Y0493575D01*
X0022186Y0493688D01*
X0022087Y0493804D01*
X0021991Y0493922D01*
X0021898Y0494042D01*
X0021808Y0494165D01*
X0021722Y0494290D01*
X0021639Y0494417D01*
X0021559Y0494547D01*
X0021482Y0494678D01*
X0021409Y0494811D01*
X0021339Y0494946D01*
X0021273Y0495083D01*
X0021210Y0495222D01*
X0021151Y0495362D01*
X0021096Y0495504D01*
X0021044Y0495647D01*
X0020996Y0495791D01*
X0020951Y0495936D01*
X0020911Y0496083D01*
X0020874Y0496230D01*
X0020841Y0496379D01*
X0020812Y0496528D01*
X0020786Y0496678D01*
X0020765Y0496829D01*
X0020747Y0496980D01*
X0020734Y0497131D01*
X0020724Y0497283D01*
X0020718Y0497435D01*
X0020716Y0497587D01*
X0020717Y0497587D02*
X0020717Y0500047D01*
X0020716Y0500047D02*
X0020718Y0500199D01*
X0020724Y0500351D01*
X0020734Y0500503D01*
X0020747Y0500654D01*
X0020765Y0500805D01*
X0020786Y0500956D01*
X0020812Y0501106D01*
X0020841Y0501255D01*
X0020874Y0501404D01*
X0020911Y0501551D01*
X0020951Y0501698D01*
X0020996Y0501843D01*
X0021044Y0501987D01*
X0021096Y0502130D01*
X0021151Y0502272D01*
X0021210Y0502412D01*
X0021273Y0502551D01*
X0021339Y0502688D01*
X0021409Y0502823D01*
X0021482Y0502956D01*
X0021559Y0503087D01*
X0021639Y0503217D01*
X0021722Y0503344D01*
X0021808Y0503469D01*
X0021898Y0503592D01*
X0021991Y0503712D01*
X0022087Y0503830D01*
X0022186Y0503946D01*
X0022288Y0504059D01*
X0022392Y0504169D01*
X0022500Y0504277D01*
X0022610Y0504381D01*
X0022723Y0504483D01*
X0022839Y0504582D01*
X0022957Y0504678D01*
X0023077Y0504771D01*
X0023200Y0504861D01*
X0023325Y0504947D01*
X0023452Y0505030D01*
X0023582Y0505110D01*
X0023713Y0505187D01*
X0023846Y0505260D01*
X0023981Y0505330D01*
X0024118Y0505396D01*
X0024257Y0505459D01*
X0024397Y0505518D01*
X0024539Y0505573D01*
X0024682Y0505625D01*
X0024826Y0505673D01*
X0024971Y0505718D01*
X0025118Y0505758D01*
X0025265Y0505795D01*
X0025414Y0505828D01*
X0025563Y0505857D01*
X0025713Y0505883D01*
X0025864Y0505904D01*
X0026015Y0505922D01*
X0026166Y0505935D01*
X0026318Y0505945D01*
X0026470Y0505951D01*
X0026622Y0505953D01*
X0038433Y0505953D01*
X0038585Y0505951D01*
X0038737Y0505945D01*
X0038889Y0505935D01*
X0039040Y0505922D01*
X0039191Y0505904D01*
X0039342Y0505883D01*
X0039492Y0505857D01*
X0039641Y0505828D01*
X0039790Y0505795D01*
X0039937Y0505758D01*
X0040084Y0505718D01*
X0040229Y0505673D01*
X0040373Y0505625D01*
X0040516Y0505573D01*
X0040658Y0505518D01*
X0040798Y0505459D01*
X0040937Y0505396D01*
X0041074Y0505330D01*
X0041209Y0505260D01*
X0041342Y0505187D01*
X0041473Y0505110D01*
X0041603Y0505030D01*
X0041730Y0504947D01*
X0041855Y0504861D01*
X0041978Y0504771D01*
X0042098Y0504678D01*
X0042216Y0504582D01*
X0042332Y0504483D01*
X0042445Y0504381D01*
X0042555Y0504277D01*
X0042663Y0504169D01*
X0042767Y0504059D01*
X0042869Y0503946D01*
X0042968Y0503830D01*
X0043064Y0503712D01*
X0043157Y0503592D01*
X0043247Y0503469D01*
X0043333Y0503344D01*
X0043416Y0503217D01*
X0043496Y0503087D01*
X0043573Y0502956D01*
X0043646Y0502823D01*
X0043716Y0502688D01*
X0043782Y0502551D01*
X0043845Y0502412D01*
X0043904Y0502272D01*
X0043959Y0502130D01*
X0044011Y0501987D01*
X0044059Y0501843D01*
X0044104Y0501698D01*
X0044144Y0501551D01*
X0044181Y0501404D01*
X0044214Y0501255D01*
X0044243Y0501106D01*
X0044269Y0500956D01*
X0044290Y0500805D01*
X0044308Y0500654D01*
X0044321Y0500503D01*
X0044331Y0500351D01*
X0044337Y0500199D01*
X0044339Y0500047D01*
X0044339Y0497587D01*
X0044337Y0497435D01*
X0044331Y0497283D01*
X0044321Y0497131D01*
X0044308Y0496980D01*
X0044290Y0496829D01*
X0044269Y0496678D01*
X0044243Y0496528D01*
X0044214Y0496379D01*
X0044181Y0496230D01*
X0044144Y0496083D01*
X0044104Y0495936D01*
X0044059Y0495791D01*
X0044011Y0495647D01*
X0043959Y0495504D01*
X0043904Y0495362D01*
X0043845Y0495222D01*
X0043782Y0495083D01*
X0043716Y0494946D01*
X0043646Y0494811D01*
X0043573Y0494678D01*
X0043496Y0494547D01*
X0043416Y0494417D01*
X0043333Y0494290D01*
X0043247Y0494165D01*
X0043157Y0494042D01*
X0043064Y0493922D01*
X0042968Y0493804D01*
X0042869Y0493688D01*
X0042767Y0493575D01*
X0042663Y0493465D01*
X0042555Y0493357D01*
X0042445Y0493253D01*
X0042332Y0493151D01*
X0042216Y0493052D01*
X0042098Y0492956D01*
X0041978Y0492863D01*
X0041855Y0492773D01*
X0041730Y0492687D01*
X0041603Y0492604D01*
X0041473Y0492524D01*
X0041342Y0492447D01*
X0041209Y0492374D01*
X0041074Y0492304D01*
X0040937Y0492238D01*
X0040798Y0492175D01*
X0040658Y0492116D01*
X0040516Y0492061D01*
X0040373Y0492009D01*
X0040229Y0491961D01*
X0040084Y0491916D01*
X0039937Y0491876D01*
X0039790Y0491839D01*
X0039641Y0491806D01*
X0039492Y0491777D01*
X0039342Y0491751D01*
X0039191Y0491730D01*
X0039040Y0491712D01*
X0038889Y0491699D01*
X0038737Y0491689D01*
X0038585Y0491683D01*
X0038433Y0491681D01*
X0162941Y0371848D02*
X0162941Y0371602D01*
X0240205Y0497587D02*
X0240205Y0500047D01*
X0240204Y0500047D02*
X0240206Y0500199D01*
X0240212Y0500351D01*
X0240222Y0500503D01*
X0240235Y0500654D01*
X0240253Y0500805D01*
X0240274Y0500956D01*
X0240300Y0501106D01*
X0240329Y0501255D01*
X0240362Y0501404D01*
X0240399Y0501551D01*
X0240439Y0501698D01*
X0240484Y0501843D01*
X0240532Y0501987D01*
X0240584Y0502130D01*
X0240639Y0502272D01*
X0240698Y0502412D01*
X0240761Y0502551D01*
X0240827Y0502688D01*
X0240897Y0502823D01*
X0240970Y0502956D01*
X0241047Y0503087D01*
X0241127Y0503217D01*
X0241210Y0503344D01*
X0241296Y0503469D01*
X0241386Y0503592D01*
X0241479Y0503712D01*
X0241575Y0503830D01*
X0241674Y0503946D01*
X0241776Y0504059D01*
X0241880Y0504169D01*
X0241988Y0504277D01*
X0242098Y0504381D01*
X0242211Y0504483D01*
X0242327Y0504582D01*
X0242445Y0504678D01*
X0242565Y0504771D01*
X0242688Y0504861D01*
X0242813Y0504947D01*
X0242940Y0505030D01*
X0243070Y0505110D01*
X0243201Y0505187D01*
X0243334Y0505260D01*
X0243469Y0505330D01*
X0243606Y0505396D01*
X0243745Y0505459D01*
X0243885Y0505518D01*
X0244027Y0505573D01*
X0244170Y0505625D01*
X0244314Y0505673D01*
X0244459Y0505718D01*
X0244606Y0505758D01*
X0244753Y0505795D01*
X0244902Y0505828D01*
X0245051Y0505857D01*
X0245201Y0505883D01*
X0245352Y0505904D01*
X0245503Y0505922D01*
X0245654Y0505935D01*
X0245806Y0505945D01*
X0245958Y0505951D01*
X0246110Y0505953D01*
X0257921Y0505953D01*
X0258073Y0505951D01*
X0258225Y0505945D01*
X0258377Y0505935D01*
X0258528Y0505922D01*
X0258679Y0505904D01*
X0258830Y0505883D01*
X0258980Y0505857D01*
X0259129Y0505828D01*
X0259278Y0505795D01*
X0259425Y0505758D01*
X0259572Y0505718D01*
X0259717Y0505673D01*
X0259861Y0505625D01*
X0260004Y0505573D01*
X0260146Y0505518D01*
X0260286Y0505459D01*
X0260425Y0505396D01*
X0260562Y0505330D01*
X0260697Y0505260D01*
X0260830Y0505187D01*
X0260961Y0505110D01*
X0261091Y0505030D01*
X0261218Y0504947D01*
X0261343Y0504861D01*
X0261466Y0504771D01*
X0261586Y0504678D01*
X0261704Y0504582D01*
X0261820Y0504483D01*
X0261933Y0504381D01*
X0262043Y0504277D01*
X0262151Y0504169D01*
X0262255Y0504059D01*
X0262357Y0503946D01*
X0262456Y0503830D01*
X0262552Y0503712D01*
X0262645Y0503592D01*
X0262735Y0503469D01*
X0262821Y0503344D01*
X0262904Y0503217D01*
X0262984Y0503087D01*
X0263061Y0502956D01*
X0263134Y0502823D01*
X0263204Y0502688D01*
X0263270Y0502551D01*
X0263333Y0502412D01*
X0263392Y0502272D01*
X0263447Y0502130D01*
X0263499Y0501987D01*
X0263547Y0501843D01*
X0263592Y0501698D01*
X0263632Y0501551D01*
X0263669Y0501404D01*
X0263702Y0501255D01*
X0263731Y0501106D01*
X0263757Y0500956D01*
X0263778Y0500805D01*
X0263796Y0500654D01*
X0263809Y0500503D01*
X0263819Y0500351D01*
X0263825Y0500199D01*
X0263827Y0500047D01*
X0263827Y0497587D01*
X0263825Y0497435D01*
X0263819Y0497283D01*
X0263809Y0497131D01*
X0263796Y0496980D01*
X0263778Y0496829D01*
X0263757Y0496678D01*
X0263731Y0496528D01*
X0263702Y0496379D01*
X0263669Y0496230D01*
X0263632Y0496083D01*
X0263592Y0495936D01*
X0263547Y0495791D01*
X0263499Y0495647D01*
X0263447Y0495504D01*
X0263392Y0495362D01*
X0263333Y0495222D01*
X0263270Y0495083D01*
X0263204Y0494946D01*
X0263134Y0494811D01*
X0263061Y0494678D01*
X0262984Y0494547D01*
X0262904Y0494417D01*
X0262821Y0494290D01*
X0262735Y0494165D01*
X0262645Y0494042D01*
X0262552Y0493922D01*
X0262456Y0493804D01*
X0262357Y0493688D01*
X0262255Y0493575D01*
X0262151Y0493465D01*
X0262043Y0493357D01*
X0261933Y0493253D01*
X0261820Y0493151D01*
X0261704Y0493052D01*
X0261586Y0492956D01*
X0261466Y0492863D01*
X0261343Y0492773D01*
X0261218Y0492687D01*
X0261091Y0492604D01*
X0260961Y0492524D01*
X0260830Y0492447D01*
X0260697Y0492374D01*
X0260562Y0492304D01*
X0260425Y0492238D01*
X0260286Y0492175D01*
X0260146Y0492116D01*
X0260004Y0492061D01*
X0259861Y0492009D01*
X0259717Y0491961D01*
X0259572Y0491916D01*
X0259425Y0491876D01*
X0259278Y0491839D01*
X0259129Y0491806D01*
X0258980Y0491777D01*
X0258830Y0491751D01*
X0258679Y0491730D01*
X0258528Y0491712D01*
X0258377Y0491699D01*
X0258225Y0491689D01*
X0258073Y0491683D01*
X0257921Y0491681D01*
X0246110Y0491681D01*
X0245958Y0491683D01*
X0245806Y0491689D01*
X0245654Y0491699D01*
X0245503Y0491712D01*
X0245352Y0491730D01*
X0245201Y0491751D01*
X0245051Y0491777D01*
X0244902Y0491806D01*
X0244753Y0491839D01*
X0244606Y0491876D01*
X0244459Y0491916D01*
X0244314Y0491961D01*
X0244170Y0492009D01*
X0244027Y0492061D01*
X0243885Y0492116D01*
X0243745Y0492175D01*
X0243606Y0492238D01*
X0243469Y0492304D01*
X0243334Y0492374D01*
X0243201Y0492447D01*
X0243070Y0492524D01*
X0242940Y0492604D01*
X0242813Y0492687D01*
X0242688Y0492773D01*
X0242565Y0492863D01*
X0242445Y0492956D01*
X0242327Y0493052D01*
X0242211Y0493151D01*
X0242098Y0493253D01*
X0241988Y0493357D01*
X0241880Y0493465D01*
X0241776Y0493575D01*
X0241674Y0493688D01*
X0241575Y0493804D01*
X0241479Y0493922D01*
X0241386Y0494042D01*
X0241296Y0494165D01*
X0241210Y0494290D01*
X0241127Y0494417D01*
X0241047Y0494547D01*
X0240970Y0494678D01*
X0240897Y0494811D01*
X0240827Y0494946D01*
X0240761Y0495083D01*
X0240698Y0495222D01*
X0240639Y0495362D01*
X0240584Y0495504D01*
X0240532Y0495647D01*
X0240484Y0495791D01*
X0240439Y0495936D01*
X0240399Y0496083D01*
X0240362Y0496230D01*
X0240329Y0496379D01*
X0240300Y0496528D01*
X0240274Y0496678D01*
X0240253Y0496829D01*
X0240235Y0496980D01*
X0240222Y0497131D01*
X0240212Y0497283D01*
X0240206Y0497435D01*
X0240204Y0497587D01*
X0246110Y0024654D02*
X0257921Y0024654D01*
X0258073Y0024652D01*
X0258225Y0024646D01*
X0258377Y0024636D01*
X0258528Y0024623D01*
X0258679Y0024605D01*
X0258830Y0024584D01*
X0258980Y0024558D01*
X0259129Y0024529D01*
X0259278Y0024496D01*
X0259425Y0024459D01*
X0259572Y0024419D01*
X0259717Y0024374D01*
X0259861Y0024326D01*
X0260004Y0024274D01*
X0260146Y0024219D01*
X0260286Y0024160D01*
X0260425Y0024097D01*
X0260562Y0024031D01*
X0260697Y0023961D01*
X0260830Y0023888D01*
X0260961Y0023811D01*
X0261091Y0023731D01*
X0261218Y0023648D01*
X0261343Y0023562D01*
X0261466Y0023472D01*
X0261586Y0023379D01*
X0261704Y0023283D01*
X0261820Y0023184D01*
X0261933Y0023082D01*
X0262043Y0022978D01*
X0262151Y0022870D01*
X0262255Y0022760D01*
X0262357Y0022647D01*
X0262456Y0022531D01*
X0262552Y0022413D01*
X0262645Y0022293D01*
X0262735Y0022170D01*
X0262821Y0022045D01*
X0262904Y0021918D01*
X0262984Y0021788D01*
X0263061Y0021657D01*
X0263134Y0021524D01*
X0263204Y0021389D01*
X0263270Y0021252D01*
X0263333Y0021113D01*
X0263392Y0020973D01*
X0263447Y0020831D01*
X0263499Y0020688D01*
X0263547Y0020544D01*
X0263592Y0020399D01*
X0263632Y0020252D01*
X0263669Y0020105D01*
X0263702Y0019956D01*
X0263731Y0019807D01*
X0263757Y0019657D01*
X0263778Y0019506D01*
X0263796Y0019355D01*
X0263809Y0019204D01*
X0263819Y0019052D01*
X0263825Y0018900D01*
X0263827Y0018748D01*
X0263827Y0016287D01*
X0263825Y0016135D01*
X0263819Y0015983D01*
X0263809Y0015831D01*
X0263796Y0015680D01*
X0263778Y0015529D01*
X0263757Y0015378D01*
X0263731Y0015228D01*
X0263702Y0015079D01*
X0263669Y0014930D01*
X0263632Y0014783D01*
X0263592Y0014636D01*
X0263547Y0014491D01*
X0263499Y0014347D01*
X0263447Y0014204D01*
X0263392Y0014062D01*
X0263333Y0013922D01*
X0263270Y0013783D01*
X0263204Y0013646D01*
X0263134Y0013511D01*
X0263061Y0013378D01*
X0262984Y0013247D01*
X0262904Y0013117D01*
X0262821Y0012990D01*
X0262735Y0012865D01*
X0262645Y0012742D01*
X0262552Y0012622D01*
X0262456Y0012504D01*
X0262357Y0012388D01*
X0262255Y0012275D01*
X0262151Y0012165D01*
X0262043Y0012057D01*
X0261933Y0011953D01*
X0261820Y0011851D01*
X0261704Y0011752D01*
X0261586Y0011656D01*
X0261466Y0011563D01*
X0261343Y0011473D01*
X0261218Y0011387D01*
X0261091Y0011304D01*
X0260961Y0011224D01*
X0260830Y0011147D01*
X0260697Y0011074D01*
X0260562Y0011004D01*
X0260425Y0010938D01*
X0260286Y0010875D01*
X0260146Y0010816D01*
X0260004Y0010761D01*
X0259861Y0010709D01*
X0259717Y0010661D01*
X0259572Y0010616D01*
X0259425Y0010576D01*
X0259278Y0010539D01*
X0259129Y0010506D01*
X0258980Y0010477D01*
X0258830Y0010451D01*
X0258679Y0010430D01*
X0258528Y0010412D01*
X0258377Y0010399D01*
X0258225Y0010389D01*
X0258073Y0010383D01*
X0257921Y0010381D01*
X0257921Y0010382D02*
X0246110Y0010382D01*
X0246110Y0010381D02*
X0245958Y0010383D01*
X0245806Y0010389D01*
X0245654Y0010399D01*
X0245503Y0010412D01*
X0245352Y0010430D01*
X0245201Y0010451D01*
X0245051Y0010477D01*
X0244902Y0010506D01*
X0244753Y0010539D01*
X0244606Y0010576D01*
X0244459Y0010616D01*
X0244314Y0010661D01*
X0244170Y0010709D01*
X0244027Y0010761D01*
X0243885Y0010816D01*
X0243745Y0010875D01*
X0243606Y0010938D01*
X0243469Y0011004D01*
X0243334Y0011074D01*
X0243201Y0011147D01*
X0243070Y0011224D01*
X0242940Y0011304D01*
X0242813Y0011387D01*
X0242688Y0011473D01*
X0242565Y0011563D01*
X0242445Y0011656D01*
X0242327Y0011752D01*
X0242211Y0011851D01*
X0242098Y0011953D01*
X0241988Y0012057D01*
X0241880Y0012165D01*
X0241776Y0012275D01*
X0241674Y0012388D01*
X0241575Y0012504D01*
X0241479Y0012622D01*
X0241386Y0012742D01*
X0241296Y0012865D01*
X0241210Y0012990D01*
X0241127Y0013117D01*
X0241047Y0013247D01*
X0240970Y0013378D01*
X0240897Y0013511D01*
X0240827Y0013646D01*
X0240761Y0013783D01*
X0240698Y0013922D01*
X0240639Y0014062D01*
X0240584Y0014204D01*
X0240532Y0014347D01*
X0240484Y0014491D01*
X0240439Y0014636D01*
X0240399Y0014783D01*
X0240362Y0014930D01*
X0240329Y0015079D01*
X0240300Y0015228D01*
X0240274Y0015378D01*
X0240253Y0015529D01*
X0240235Y0015680D01*
X0240222Y0015831D01*
X0240212Y0015983D01*
X0240206Y0016135D01*
X0240204Y0016287D01*
X0240205Y0016287D02*
X0240205Y0018748D01*
X0240204Y0018748D02*
X0240206Y0018900D01*
X0240212Y0019052D01*
X0240222Y0019204D01*
X0240235Y0019355D01*
X0240253Y0019506D01*
X0240274Y0019657D01*
X0240300Y0019807D01*
X0240329Y0019956D01*
X0240362Y0020105D01*
X0240399Y0020252D01*
X0240439Y0020399D01*
X0240484Y0020544D01*
X0240532Y0020688D01*
X0240584Y0020831D01*
X0240639Y0020973D01*
X0240698Y0021113D01*
X0240761Y0021252D01*
X0240827Y0021389D01*
X0240897Y0021524D01*
X0240970Y0021657D01*
X0241047Y0021788D01*
X0241127Y0021918D01*
X0241210Y0022045D01*
X0241296Y0022170D01*
X0241386Y0022293D01*
X0241479Y0022413D01*
X0241575Y0022531D01*
X0241674Y0022647D01*
X0241776Y0022760D01*
X0241880Y0022870D01*
X0241988Y0022978D01*
X0242098Y0023082D01*
X0242211Y0023184D01*
X0242327Y0023283D01*
X0242445Y0023379D01*
X0242565Y0023472D01*
X0242688Y0023562D01*
X0242813Y0023648D01*
X0242940Y0023731D01*
X0243070Y0023811D01*
X0243201Y0023888D01*
X0243334Y0023961D01*
X0243469Y0024031D01*
X0243606Y0024097D01*
X0243745Y0024160D01*
X0243885Y0024219D01*
X0244027Y0024274D01*
X0244170Y0024326D01*
X0244314Y0024374D01*
X0244459Y0024419D01*
X0244606Y0024459D01*
X0244753Y0024496D01*
X0244902Y0024529D01*
X0245051Y0024558D01*
X0245201Y0024584D01*
X0245352Y0024605D01*
X0245503Y0024623D01*
X0245654Y0024636D01*
X0245806Y0024646D01*
X0245958Y0024652D01*
X0246110Y0024654D01*
D11*
X0208905Y0266780D02*
X0208910Y0267215D01*
X0208926Y0267649D01*
X0208953Y0268083D01*
X0208990Y0268517D01*
X0209038Y0268949D01*
X0209097Y0269380D01*
X0209166Y0269809D01*
X0209245Y0270236D01*
X0209335Y0270662D01*
X0209436Y0271085D01*
X0209547Y0271505D01*
X0209668Y0271923D01*
X0209799Y0272337D01*
X0209941Y0272749D01*
X0210092Y0273156D01*
X0210254Y0273560D01*
X0210425Y0273960D01*
X0210606Y0274355D01*
X0210797Y0274746D01*
X0210997Y0275132D01*
X0211207Y0275513D01*
X0211426Y0275888D01*
X0211654Y0276259D01*
X0211891Y0276623D01*
X0212137Y0276982D01*
X0212392Y0277334D01*
X0212655Y0277680D01*
X0212927Y0278020D01*
X0213207Y0278352D01*
X0213495Y0278678D01*
X0213791Y0278997D01*
X0214094Y0279308D01*
X0214405Y0279611D01*
X0214724Y0279907D01*
X0215050Y0280195D01*
X0215382Y0280475D01*
X0215722Y0280747D01*
X0216068Y0281010D01*
X0216420Y0281265D01*
X0216779Y0281511D01*
X0217143Y0281748D01*
X0217514Y0281976D01*
X0217889Y0282195D01*
X0218270Y0282405D01*
X0218656Y0282605D01*
X0219047Y0282796D01*
X0219442Y0282977D01*
X0219842Y0283148D01*
X0220246Y0283310D01*
X0220653Y0283461D01*
X0221065Y0283603D01*
X0221479Y0283734D01*
X0221897Y0283855D01*
X0222317Y0283966D01*
X0222740Y0284067D01*
X0223166Y0284157D01*
X0223593Y0284236D01*
X0224022Y0284305D01*
X0224453Y0284364D01*
X0224885Y0284412D01*
X0225319Y0284449D01*
X0225753Y0284476D01*
X0226187Y0284492D01*
X0226622Y0284497D01*
X0227057Y0284492D01*
X0227491Y0284476D01*
X0227925Y0284449D01*
X0228359Y0284412D01*
X0228791Y0284364D01*
X0229222Y0284305D01*
X0229651Y0284236D01*
X0230078Y0284157D01*
X0230504Y0284067D01*
X0230927Y0283966D01*
X0231347Y0283855D01*
X0231765Y0283734D01*
X0232179Y0283603D01*
X0232591Y0283461D01*
X0232998Y0283310D01*
X0233402Y0283148D01*
X0233802Y0282977D01*
X0234197Y0282796D01*
X0234588Y0282605D01*
X0234974Y0282405D01*
X0235355Y0282195D01*
X0235730Y0281976D01*
X0236101Y0281748D01*
X0236465Y0281511D01*
X0236824Y0281265D01*
X0237176Y0281010D01*
X0237522Y0280747D01*
X0237862Y0280475D01*
X0238194Y0280195D01*
X0238520Y0279907D01*
X0238839Y0279611D01*
X0239150Y0279308D01*
X0239453Y0278997D01*
X0239749Y0278678D01*
X0240037Y0278352D01*
X0240317Y0278020D01*
X0240589Y0277680D01*
X0240852Y0277334D01*
X0241107Y0276982D01*
X0241353Y0276623D01*
X0241590Y0276259D01*
X0241818Y0275888D01*
X0242037Y0275513D01*
X0242247Y0275132D01*
X0242447Y0274746D01*
X0242638Y0274355D01*
X0242819Y0273960D01*
X0242990Y0273560D01*
X0243152Y0273156D01*
X0243303Y0272749D01*
X0243445Y0272337D01*
X0243576Y0271923D01*
X0243697Y0271505D01*
X0243808Y0271085D01*
X0243909Y0270662D01*
X0243999Y0270236D01*
X0244078Y0269809D01*
X0244147Y0269380D01*
X0244206Y0268949D01*
X0244254Y0268517D01*
X0244291Y0268083D01*
X0244318Y0267649D01*
X0244334Y0267215D01*
X0244339Y0266780D01*
X0244334Y0266345D01*
X0244318Y0265911D01*
X0244291Y0265477D01*
X0244254Y0265043D01*
X0244206Y0264611D01*
X0244147Y0264180D01*
X0244078Y0263751D01*
X0243999Y0263324D01*
X0243909Y0262898D01*
X0243808Y0262475D01*
X0243697Y0262055D01*
X0243576Y0261637D01*
X0243445Y0261223D01*
X0243303Y0260811D01*
X0243152Y0260404D01*
X0242990Y0260000D01*
X0242819Y0259600D01*
X0242638Y0259205D01*
X0242447Y0258814D01*
X0242247Y0258428D01*
X0242037Y0258047D01*
X0241818Y0257672D01*
X0241590Y0257301D01*
X0241353Y0256937D01*
X0241107Y0256578D01*
X0240852Y0256226D01*
X0240589Y0255880D01*
X0240317Y0255540D01*
X0240037Y0255208D01*
X0239749Y0254882D01*
X0239453Y0254563D01*
X0239150Y0254252D01*
X0238839Y0253949D01*
X0238520Y0253653D01*
X0238194Y0253365D01*
X0237862Y0253085D01*
X0237522Y0252813D01*
X0237176Y0252550D01*
X0236824Y0252295D01*
X0236465Y0252049D01*
X0236101Y0251812D01*
X0235730Y0251584D01*
X0235355Y0251365D01*
X0234974Y0251155D01*
X0234588Y0250955D01*
X0234197Y0250764D01*
X0233802Y0250583D01*
X0233402Y0250412D01*
X0232998Y0250250D01*
X0232591Y0250099D01*
X0232179Y0249957D01*
X0231765Y0249826D01*
X0231347Y0249705D01*
X0230927Y0249594D01*
X0230504Y0249493D01*
X0230078Y0249403D01*
X0229651Y0249324D01*
X0229222Y0249255D01*
X0228791Y0249196D01*
X0228359Y0249148D01*
X0227925Y0249111D01*
X0227491Y0249084D01*
X0227057Y0249068D01*
X0226622Y0249063D01*
X0226187Y0249068D01*
X0225753Y0249084D01*
X0225319Y0249111D01*
X0224885Y0249148D01*
X0224453Y0249196D01*
X0224022Y0249255D01*
X0223593Y0249324D01*
X0223166Y0249403D01*
X0222740Y0249493D01*
X0222317Y0249594D01*
X0221897Y0249705D01*
X0221479Y0249826D01*
X0221065Y0249957D01*
X0220653Y0250099D01*
X0220246Y0250250D01*
X0219842Y0250412D01*
X0219442Y0250583D01*
X0219047Y0250764D01*
X0218656Y0250955D01*
X0218270Y0251155D01*
X0217889Y0251365D01*
X0217514Y0251584D01*
X0217143Y0251812D01*
X0216779Y0252049D01*
X0216420Y0252295D01*
X0216068Y0252550D01*
X0215722Y0252813D01*
X0215382Y0253085D01*
X0215050Y0253365D01*
X0214724Y0253653D01*
X0214405Y0253949D01*
X0214094Y0254252D01*
X0213791Y0254563D01*
X0213495Y0254882D01*
X0213207Y0255208D01*
X0212927Y0255540D01*
X0212655Y0255880D01*
X0212392Y0256226D01*
X0212137Y0256578D01*
X0211891Y0256937D01*
X0211654Y0257301D01*
X0211426Y0257672D01*
X0211207Y0258047D01*
X0210997Y0258428D01*
X0210797Y0258814D01*
X0210606Y0259205D01*
X0210425Y0259600D01*
X0210254Y0260000D01*
X0210092Y0260404D01*
X0209941Y0260811D01*
X0209799Y0261223D01*
X0209668Y0261637D01*
X0209547Y0262055D01*
X0209436Y0262475D01*
X0209335Y0262898D01*
X0209245Y0263324D01*
X0209166Y0263751D01*
X0209097Y0264180D01*
X0209038Y0264611D01*
X0208990Y0265043D01*
X0208953Y0265477D01*
X0208926Y0265911D01*
X0208910Y0266345D01*
X0208905Y0266780D01*
X0178984Y0435677D02*
X0178986Y0435835D01*
X0178992Y0435993D01*
X0179002Y0436151D01*
X0179016Y0436309D01*
X0179034Y0436466D01*
X0179055Y0436623D01*
X0179081Y0436779D01*
X0179111Y0436935D01*
X0179144Y0437090D01*
X0179182Y0437243D01*
X0179223Y0437396D01*
X0179268Y0437548D01*
X0179317Y0437699D01*
X0179370Y0437848D01*
X0179426Y0437996D01*
X0179486Y0438142D01*
X0179550Y0438287D01*
X0179618Y0438430D01*
X0179689Y0438572D01*
X0179763Y0438712D01*
X0179841Y0438849D01*
X0179923Y0438985D01*
X0180007Y0439119D01*
X0180096Y0439250D01*
X0180187Y0439379D01*
X0180282Y0439506D01*
X0180379Y0439631D01*
X0180480Y0439753D01*
X0180584Y0439872D01*
X0180691Y0439989D01*
X0180801Y0440103D01*
X0180914Y0440214D01*
X0181029Y0440323D01*
X0181147Y0440428D01*
X0181268Y0440530D01*
X0181391Y0440630D01*
X0181517Y0440726D01*
X0181645Y0440819D01*
X0181775Y0440909D01*
X0181908Y0440995D01*
X0182043Y0441079D01*
X0182179Y0441158D01*
X0182318Y0441235D01*
X0182459Y0441307D01*
X0182601Y0441377D01*
X0182745Y0441442D01*
X0182891Y0441504D01*
X0183038Y0441562D01*
X0183187Y0441617D01*
X0183337Y0441668D01*
X0183488Y0441715D01*
X0183640Y0441758D01*
X0183793Y0441797D01*
X0183948Y0441833D01*
X0184103Y0441864D01*
X0184259Y0441892D01*
X0184415Y0441916D01*
X0184572Y0441936D01*
X0184730Y0441952D01*
X0184887Y0441964D01*
X0185046Y0441972D01*
X0185204Y0441976D01*
X0185362Y0441976D01*
X0185520Y0441972D01*
X0185679Y0441964D01*
X0185836Y0441952D01*
X0185994Y0441936D01*
X0186151Y0441916D01*
X0186307Y0441892D01*
X0186463Y0441864D01*
X0186618Y0441833D01*
X0186773Y0441797D01*
X0186926Y0441758D01*
X0187078Y0441715D01*
X0187229Y0441668D01*
X0187379Y0441617D01*
X0187528Y0441562D01*
X0187675Y0441504D01*
X0187821Y0441442D01*
X0187965Y0441377D01*
X0188107Y0441307D01*
X0188248Y0441235D01*
X0188387Y0441158D01*
X0188523Y0441079D01*
X0188658Y0440995D01*
X0188791Y0440909D01*
X0188921Y0440819D01*
X0189049Y0440726D01*
X0189175Y0440630D01*
X0189298Y0440530D01*
X0189419Y0440428D01*
X0189537Y0440323D01*
X0189652Y0440214D01*
X0189765Y0440103D01*
X0189875Y0439989D01*
X0189982Y0439872D01*
X0190086Y0439753D01*
X0190187Y0439631D01*
X0190284Y0439506D01*
X0190379Y0439379D01*
X0190470Y0439250D01*
X0190559Y0439119D01*
X0190643Y0438985D01*
X0190725Y0438849D01*
X0190803Y0438712D01*
X0190877Y0438572D01*
X0190948Y0438430D01*
X0191016Y0438287D01*
X0191080Y0438142D01*
X0191140Y0437996D01*
X0191196Y0437848D01*
X0191249Y0437699D01*
X0191298Y0437548D01*
X0191343Y0437396D01*
X0191384Y0437243D01*
X0191422Y0437090D01*
X0191455Y0436935D01*
X0191485Y0436779D01*
X0191511Y0436623D01*
X0191532Y0436466D01*
X0191550Y0436309D01*
X0191564Y0436151D01*
X0191574Y0435993D01*
X0191580Y0435835D01*
X0191582Y0435677D01*
X0191580Y0435519D01*
X0191574Y0435361D01*
X0191564Y0435203D01*
X0191550Y0435045D01*
X0191532Y0434888D01*
X0191511Y0434731D01*
X0191485Y0434575D01*
X0191455Y0434419D01*
X0191422Y0434264D01*
X0191384Y0434111D01*
X0191343Y0433958D01*
X0191298Y0433806D01*
X0191249Y0433655D01*
X0191196Y0433506D01*
X0191140Y0433358D01*
X0191080Y0433212D01*
X0191016Y0433067D01*
X0190948Y0432924D01*
X0190877Y0432782D01*
X0190803Y0432642D01*
X0190725Y0432505D01*
X0190643Y0432369D01*
X0190559Y0432235D01*
X0190470Y0432104D01*
X0190379Y0431975D01*
X0190284Y0431848D01*
X0190187Y0431723D01*
X0190086Y0431601D01*
X0189982Y0431482D01*
X0189875Y0431365D01*
X0189765Y0431251D01*
X0189652Y0431140D01*
X0189537Y0431031D01*
X0189419Y0430926D01*
X0189298Y0430824D01*
X0189175Y0430724D01*
X0189049Y0430628D01*
X0188921Y0430535D01*
X0188791Y0430445D01*
X0188658Y0430359D01*
X0188523Y0430275D01*
X0188387Y0430196D01*
X0188248Y0430119D01*
X0188107Y0430047D01*
X0187965Y0429977D01*
X0187821Y0429912D01*
X0187675Y0429850D01*
X0187528Y0429792D01*
X0187379Y0429737D01*
X0187229Y0429686D01*
X0187078Y0429639D01*
X0186926Y0429596D01*
X0186773Y0429557D01*
X0186618Y0429521D01*
X0186463Y0429490D01*
X0186307Y0429462D01*
X0186151Y0429438D01*
X0185994Y0429418D01*
X0185836Y0429402D01*
X0185679Y0429390D01*
X0185520Y0429382D01*
X0185362Y0429378D01*
X0185204Y0429378D01*
X0185046Y0429382D01*
X0184887Y0429390D01*
X0184730Y0429402D01*
X0184572Y0429418D01*
X0184415Y0429438D01*
X0184259Y0429462D01*
X0184103Y0429490D01*
X0183948Y0429521D01*
X0183793Y0429557D01*
X0183640Y0429596D01*
X0183488Y0429639D01*
X0183337Y0429686D01*
X0183187Y0429737D01*
X0183038Y0429792D01*
X0182891Y0429850D01*
X0182745Y0429912D01*
X0182601Y0429977D01*
X0182459Y0430047D01*
X0182318Y0430119D01*
X0182179Y0430196D01*
X0182043Y0430275D01*
X0181908Y0430359D01*
X0181775Y0430445D01*
X0181645Y0430535D01*
X0181517Y0430628D01*
X0181391Y0430724D01*
X0181268Y0430824D01*
X0181147Y0430926D01*
X0181029Y0431031D01*
X0180914Y0431140D01*
X0180801Y0431251D01*
X0180691Y0431365D01*
X0180584Y0431482D01*
X0180480Y0431601D01*
X0180379Y0431723D01*
X0180282Y0431848D01*
X0180187Y0431975D01*
X0180096Y0432104D01*
X0180007Y0432235D01*
X0179923Y0432369D01*
X0179841Y0432505D01*
X0179763Y0432642D01*
X0179689Y0432782D01*
X0179618Y0432924D01*
X0179550Y0433067D01*
X0179486Y0433212D01*
X0179426Y0433358D01*
X0179370Y0433506D01*
X0179317Y0433655D01*
X0179268Y0433806D01*
X0179223Y0433958D01*
X0179182Y0434111D01*
X0179144Y0434264D01*
X0179111Y0434419D01*
X0179081Y0434575D01*
X0179055Y0434731D01*
X0179034Y0434888D01*
X0179016Y0435045D01*
X0179002Y0435203D01*
X0178992Y0435361D01*
X0178986Y0435519D01*
X0178984Y0435677D01*
X0036464Y0266780D02*
X0036469Y0267215D01*
X0036485Y0267649D01*
X0036512Y0268083D01*
X0036549Y0268517D01*
X0036597Y0268949D01*
X0036656Y0269380D01*
X0036725Y0269809D01*
X0036804Y0270236D01*
X0036894Y0270662D01*
X0036995Y0271085D01*
X0037106Y0271505D01*
X0037227Y0271923D01*
X0037358Y0272337D01*
X0037500Y0272749D01*
X0037651Y0273156D01*
X0037813Y0273560D01*
X0037984Y0273960D01*
X0038165Y0274355D01*
X0038356Y0274746D01*
X0038556Y0275132D01*
X0038766Y0275513D01*
X0038985Y0275888D01*
X0039213Y0276259D01*
X0039450Y0276623D01*
X0039696Y0276982D01*
X0039951Y0277334D01*
X0040214Y0277680D01*
X0040486Y0278020D01*
X0040766Y0278352D01*
X0041054Y0278678D01*
X0041350Y0278997D01*
X0041653Y0279308D01*
X0041964Y0279611D01*
X0042283Y0279907D01*
X0042609Y0280195D01*
X0042941Y0280475D01*
X0043281Y0280747D01*
X0043627Y0281010D01*
X0043979Y0281265D01*
X0044338Y0281511D01*
X0044702Y0281748D01*
X0045073Y0281976D01*
X0045448Y0282195D01*
X0045829Y0282405D01*
X0046215Y0282605D01*
X0046606Y0282796D01*
X0047001Y0282977D01*
X0047401Y0283148D01*
X0047805Y0283310D01*
X0048212Y0283461D01*
X0048624Y0283603D01*
X0049038Y0283734D01*
X0049456Y0283855D01*
X0049876Y0283966D01*
X0050299Y0284067D01*
X0050725Y0284157D01*
X0051152Y0284236D01*
X0051581Y0284305D01*
X0052012Y0284364D01*
X0052444Y0284412D01*
X0052878Y0284449D01*
X0053312Y0284476D01*
X0053746Y0284492D01*
X0054181Y0284497D01*
X0054616Y0284492D01*
X0055050Y0284476D01*
X0055484Y0284449D01*
X0055918Y0284412D01*
X0056350Y0284364D01*
X0056781Y0284305D01*
X0057210Y0284236D01*
X0057637Y0284157D01*
X0058063Y0284067D01*
X0058486Y0283966D01*
X0058906Y0283855D01*
X0059324Y0283734D01*
X0059738Y0283603D01*
X0060150Y0283461D01*
X0060557Y0283310D01*
X0060961Y0283148D01*
X0061361Y0282977D01*
X0061756Y0282796D01*
X0062147Y0282605D01*
X0062533Y0282405D01*
X0062914Y0282195D01*
X0063289Y0281976D01*
X0063660Y0281748D01*
X0064024Y0281511D01*
X0064383Y0281265D01*
X0064735Y0281010D01*
X0065081Y0280747D01*
X0065421Y0280475D01*
X0065753Y0280195D01*
X0066079Y0279907D01*
X0066398Y0279611D01*
X0066709Y0279308D01*
X0067012Y0278997D01*
X0067308Y0278678D01*
X0067596Y0278352D01*
X0067876Y0278020D01*
X0068148Y0277680D01*
X0068411Y0277334D01*
X0068666Y0276982D01*
X0068912Y0276623D01*
X0069149Y0276259D01*
X0069377Y0275888D01*
X0069596Y0275513D01*
X0069806Y0275132D01*
X0070006Y0274746D01*
X0070197Y0274355D01*
X0070378Y0273960D01*
X0070549Y0273560D01*
X0070711Y0273156D01*
X0070862Y0272749D01*
X0071004Y0272337D01*
X0071135Y0271923D01*
X0071256Y0271505D01*
X0071367Y0271085D01*
X0071468Y0270662D01*
X0071558Y0270236D01*
X0071637Y0269809D01*
X0071706Y0269380D01*
X0071765Y0268949D01*
X0071813Y0268517D01*
X0071850Y0268083D01*
X0071877Y0267649D01*
X0071893Y0267215D01*
X0071898Y0266780D01*
X0071893Y0266345D01*
X0071877Y0265911D01*
X0071850Y0265477D01*
X0071813Y0265043D01*
X0071765Y0264611D01*
X0071706Y0264180D01*
X0071637Y0263751D01*
X0071558Y0263324D01*
X0071468Y0262898D01*
X0071367Y0262475D01*
X0071256Y0262055D01*
X0071135Y0261637D01*
X0071004Y0261223D01*
X0070862Y0260811D01*
X0070711Y0260404D01*
X0070549Y0260000D01*
X0070378Y0259600D01*
X0070197Y0259205D01*
X0070006Y0258814D01*
X0069806Y0258428D01*
X0069596Y0258047D01*
X0069377Y0257672D01*
X0069149Y0257301D01*
X0068912Y0256937D01*
X0068666Y0256578D01*
X0068411Y0256226D01*
X0068148Y0255880D01*
X0067876Y0255540D01*
X0067596Y0255208D01*
X0067308Y0254882D01*
X0067012Y0254563D01*
X0066709Y0254252D01*
X0066398Y0253949D01*
X0066079Y0253653D01*
X0065753Y0253365D01*
X0065421Y0253085D01*
X0065081Y0252813D01*
X0064735Y0252550D01*
X0064383Y0252295D01*
X0064024Y0252049D01*
X0063660Y0251812D01*
X0063289Y0251584D01*
X0062914Y0251365D01*
X0062533Y0251155D01*
X0062147Y0250955D01*
X0061756Y0250764D01*
X0061361Y0250583D01*
X0060961Y0250412D01*
X0060557Y0250250D01*
X0060150Y0250099D01*
X0059738Y0249957D01*
X0059324Y0249826D01*
X0058906Y0249705D01*
X0058486Y0249594D01*
X0058063Y0249493D01*
X0057637Y0249403D01*
X0057210Y0249324D01*
X0056781Y0249255D01*
X0056350Y0249196D01*
X0055918Y0249148D01*
X0055484Y0249111D01*
X0055050Y0249084D01*
X0054616Y0249068D01*
X0054181Y0249063D01*
X0053746Y0249068D01*
X0053312Y0249084D01*
X0052878Y0249111D01*
X0052444Y0249148D01*
X0052012Y0249196D01*
X0051581Y0249255D01*
X0051152Y0249324D01*
X0050725Y0249403D01*
X0050299Y0249493D01*
X0049876Y0249594D01*
X0049456Y0249705D01*
X0049038Y0249826D01*
X0048624Y0249957D01*
X0048212Y0250099D01*
X0047805Y0250250D01*
X0047401Y0250412D01*
X0047001Y0250583D01*
X0046606Y0250764D01*
X0046215Y0250955D01*
X0045829Y0251155D01*
X0045448Y0251365D01*
X0045073Y0251584D01*
X0044702Y0251812D01*
X0044338Y0252049D01*
X0043979Y0252295D01*
X0043627Y0252550D01*
X0043281Y0252813D01*
X0042941Y0253085D01*
X0042609Y0253365D01*
X0042283Y0253653D01*
X0041964Y0253949D01*
X0041653Y0254252D01*
X0041350Y0254563D01*
X0041054Y0254882D01*
X0040766Y0255208D01*
X0040486Y0255540D01*
X0040214Y0255880D01*
X0039951Y0256226D01*
X0039696Y0256578D01*
X0039450Y0256937D01*
X0039213Y0257301D01*
X0038985Y0257672D01*
X0038766Y0258047D01*
X0038556Y0258428D01*
X0038356Y0258814D01*
X0038165Y0259205D01*
X0037984Y0259600D01*
X0037813Y0260000D01*
X0037651Y0260404D01*
X0037500Y0260811D01*
X0037358Y0261223D01*
X0037227Y0261637D01*
X0037106Y0262055D01*
X0036995Y0262475D01*
X0036894Y0262898D01*
X0036804Y0263324D01*
X0036725Y0263751D01*
X0036656Y0264180D01*
X0036597Y0264611D01*
X0036549Y0265043D01*
X0036512Y0265477D01*
X0036485Y0265911D01*
X0036469Y0266345D01*
X0036464Y0266780D01*
M02*
