G75*
%MOIN*%
%OFA0B0*%
%FSLAX25Y25*%
%IPPOS*%
%LPD*%
%AMOC8*
5,1,8,0,0,1.08239X$1,22.5*
%
%ADD10C,0.00039*%
%ADD11C,0.00000*%
%ADD12C,0.36233*%
%ADD13C,0.13398*%
%ADD14R,0.02362X0.00394*%
%ADD15R,0.02756X0.00394*%
%ADD16R,0.03150X0.00394*%
%ADD17R,0.03543X0.00394*%
%ADD18R,0.01575X0.00394*%
%ADD19R,0.03937X0.00394*%
%ADD20R,0.04331X0.00394*%
%ADD21R,0.04724X0.00394*%
%ADD22R,0.05512X0.00394*%
%ADD23R,0.01969X0.00394*%
%ADD24R,0.05906X0.00394*%
%ADD25R,0.05118X0.00394*%
%ADD26R,0.01181X0.00394*%
%ADD27R,0.00394X0.00394*%
%ADD28R,0.07480X0.00394*%
%ADD29R,0.10236X0.00394*%
%ADD30R,0.13386X0.00394*%
%ADD31R,0.16142X0.00394*%
%ADD32R,0.20079X0.00394*%
%ADD33R,0.20866X0.00394*%
%ADD34R,0.18504X0.00394*%
%ADD35R,0.15354X0.00394*%
%ADD36R,0.12598X0.00394*%
%ADD37R,0.08661X0.00394*%
%ADD38R,0.06299X0.00394*%
%ADD39R,0.09843X0.00394*%
%ADD40R,0.11417X0.00394*%
%ADD41R,0.07874X0.00394*%
%ADD42R,0.19291X0.00394*%
%ADD43R,0.17323X0.00394*%
%ADD44R,0.12992X0.00394*%
%ADD45R,0.10630X0.00394*%
%ADD46R,0.14173X0.00394*%
%ADD47R,0.08268X0.00394*%
%ADD48R,0.07087X0.00394*%
%ADD49R,0.11024X0.00394*%
%ADD50R,0.21260X0.00394*%
%ADD51R,0.00787X0.00394*%
%ADD52R,0.06693X0.00394*%
%ADD53R,0.16929X0.00394*%
%ADD54R,0.19685X0.00394*%
%ADD55R,0.17717X0.00394*%
%ADD56R,0.14961X0.00394*%
%ADD57R,0.12205X0.00394*%
%ADD58R,0.09449X0.00394*%
%ADD59R,0.09055X0.00394*%
%ADD60R,0.22047X0.00394*%
%ADD61R,0.20472X0.00394*%
%ADD62R,0.18110X0.00394*%
%ADD63C,0.30784*%
%ADD64C,0.29898*%
D10*
X0003246Y0005215D02*
X0281543Y0005215D01*
X0281543Y0511120D01*
X0003246Y0511120D01*
X0003246Y0005215D01*
D11*
X0036464Y0266780D02*
X0036469Y0267215D01*
X0036485Y0267649D01*
X0036512Y0268083D01*
X0036549Y0268517D01*
X0036597Y0268949D01*
X0036656Y0269380D01*
X0036725Y0269809D01*
X0036804Y0270236D01*
X0036894Y0270662D01*
X0036995Y0271085D01*
X0037106Y0271505D01*
X0037227Y0271923D01*
X0037358Y0272337D01*
X0037500Y0272749D01*
X0037651Y0273156D01*
X0037813Y0273560D01*
X0037984Y0273960D01*
X0038165Y0274355D01*
X0038356Y0274746D01*
X0038556Y0275132D01*
X0038766Y0275513D01*
X0038985Y0275888D01*
X0039213Y0276259D01*
X0039450Y0276623D01*
X0039696Y0276982D01*
X0039951Y0277334D01*
X0040214Y0277680D01*
X0040486Y0278020D01*
X0040766Y0278352D01*
X0041054Y0278678D01*
X0041350Y0278997D01*
X0041653Y0279308D01*
X0041964Y0279611D01*
X0042283Y0279907D01*
X0042609Y0280195D01*
X0042941Y0280475D01*
X0043281Y0280747D01*
X0043627Y0281010D01*
X0043979Y0281265D01*
X0044338Y0281511D01*
X0044702Y0281748D01*
X0045073Y0281976D01*
X0045448Y0282195D01*
X0045829Y0282405D01*
X0046215Y0282605D01*
X0046606Y0282796D01*
X0047001Y0282977D01*
X0047401Y0283148D01*
X0047805Y0283310D01*
X0048212Y0283461D01*
X0048624Y0283603D01*
X0049038Y0283734D01*
X0049456Y0283855D01*
X0049876Y0283966D01*
X0050299Y0284067D01*
X0050725Y0284157D01*
X0051152Y0284236D01*
X0051581Y0284305D01*
X0052012Y0284364D01*
X0052444Y0284412D01*
X0052878Y0284449D01*
X0053312Y0284476D01*
X0053746Y0284492D01*
X0054181Y0284497D01*
X0054616Y0284492D01*
X0055050Y0284476D01*
X0055484Y0284449D01*
X0055918Y0284412D01*
X0056350Y0284364D01*
X0056781Y0284305D01*
X0057210Y0284236D01*
X0057637Y0284157D01*
X0058063Y0284067D01*
X0058486Y0283966D01*
X0058906Y0283855D01*
X0059324Y0283734D01*
X0059738Y0283603D01*
X0060150Y0283461D01*
X0060557Y0283310D01*
X0060961Y0283148D01*
X0061361Y0282977D01*
X0061756Y0282796D01*
X0062147Y0282605D01*
X0062533Y0282405D01*
X0062914Y0282195D01*
X0063289Y0281976D01*
X0063660Y0281748D01*
X0064024Y0281511D01*
X0064383Y0281265D01*
X0064735Y0281010D01*
X0065081Y0280747D01*
X0065421Y0280475D01*
X0065753Y0280195D01*
X0066079Y0279907D01*
X0066398Y0279611D01*
X0066709Y0279308D01*
X0067012Y0278997D01*
X0067308Y0278678D01*
X0067596Y0278352D01*
X0067876Y0278020D01*
X0068148Y0277680D01*
X0068411Y0277334D01*
X0068666Y0276982D01*
X0068912Y0276623D01*
X0069149Y0276259D01*
X0069377Y0275888D01*
X0069596Y0275513D01*
X0069806Y0275132D01*
X0070006Y0274746D01*
X0070197Y0274355D01*
X0070378Y0273960D01*
X0070549Y0273560D01*
X0070711Y0273156D01*
X0070862Y0272749D01*
X0071004Y0272337D01*
X0071135Y0271923D01*
X0071256Y0271505D01*
X0071367Y0271085D01*
X0071468Y0270662D01*
X0071558Y0270236D01*
X0071637Y0269809D01*
X0071706Y0269380D01*
X0071765Y0268949D01*
X0071813Y0268517D01*
X0071850Y0268083D01*
X0071877Y0267649D01*
X0071893Y0267215D01*
X0071898Y0266780D01*
X0071893Y0266345D01*
X0071877Y0265911D01*
X0071850Y0265477D01*
X0071813Y0265043D01*
X0071765Y0264611D01*
X0071706Y0264180D01*
X0071637Y0263751D01*
X0071558Y0263324D01*
X0071468Y0262898D01*
X0071367Y0262475D01*
X0071256Y0262055D01*
X0071135Y0261637D01*
X0071004Y0261223D01*
X0070862Y0260811D01*
X0070711Y0260404D01*
X0070549Y0260000D01*
X0070378Y0259600D01*
X0070197Y0259205D01*
X0070006Y0258814D01*
X0069806Y0258428D01*
X0069596Y0258047D01*
X0069377Y0257672D01*
X0069149Y0257301D01*
X0068912Y0256937D01*
X0068666Y0256578D01*
X0068411Y0256226D01*
X0068148Y0255880D01*
X0067876Y0255540D01*
X0067596Y0255208D01*
X0067308Y0254882D01*
X0067012Y0254563D01*
X0066709Y0254252D01*
X0066398Y0253949D01*
X0066079Y0253653D01*
X0065753Y0253365D01*
X0065421Y0253085D01*
X0065081Y0252813D01*
X0064735Y0252550D01*
X0064383Y0252295D01*
X0064024Y0252049D01*
X0063660Y0251812D01*
X0063289Y0251584D01*
X0062914Y0251365D01*
X0062533Y0251155D01*
X0062147Y0250955D01*
X0061756Y0250764D01*
X0061361Y0250583D01*
X0060961Y0250412D01*
X0060557Y0250250D01*
X0060150Y0250099D01*
X0059738Y0249957D01*
X0059324Y0249826D01*
X0058906Y0249705D01*
X0058486Y0249594D01*
X0058063Y0249493D01*
X0057637Y0249403D01*
X0057210Y0249324D01*
X0056781Y0249255D01*
X0056350Y0249196D01*
X0055918Y0249148D01*
X0055484Y0249111D01*
X0055050Y0249084D01*
X0054616Y0249068D01*
X0054181Y0249063D01*
X0053746Y0249068D01*
X0053312Y0249084D01*
X0052878Y0249111D01*
X0052444Y0249148D01*
X0052012Y0249196D01*
X0051581Y0249255D01*
X0051152Y0249324D01*
X0050725Y0249403D01*
X0050299Y0249493D01*
X0049876Y0249594D01*
X0049456Y0249705D01*
X0049038Y0249826D01*
X0048624Y0249957D01*
X0048212Y0250099D01*
X0047805Y0250250D01*
X0047401Y0250412D01*
X0047001Y0250583D01*
X0046606Y0250764D01*
X0046215Y0250955D01*
X0045829Y0251155D01*
X0045448Y0251365D01*
X0045073Y0251584D01*
X0044702Y0251812D01*
X0044338Y0252049D01*
X0043979Y0252295D01*
X0043627Y0252550D01*
X0043281Y0252813D01*
X0042941Y0253085D01*
X0042609Y0253365D01*
X0042283Y0253653D01*
X0041964Y0253949D01*
X0041653Y0254252D01*
X0041350Y0254563D01*
X0041054Y0254882D01*
X0040766Y0255208D01*
X0040486Y0255540D01*
X0040214Y0255880D01*
X0039951Y0256226D01*
X0039696Y0256578D01*
X0039450Y0256937D01*
X0039213Y0257301D01*
X0038985Y0257672D01*
X0038766Y0258047D01*
X0038556Y0258428D01*
X0038356Y0258814D01*
X0038165Y0259205D01*
X0037984Y0259600D01*
X0037813Y0260000D01*
X0037651Y0260404D01*
X0037500Y0260811D01*
X0037358Y0261223D01*
X0037227Y0261637D01*
X0037106Y0262055D01*
X0036995Y0262475D01*
X0036894Y0262898D01*
X0036804Y0263324D01*
X0036725Y0263751D01*
X0036656Y0264180D01*
X0036597Y0264611D01*
X0036549Y0265043D01*
X0036512Y0265477D01*
X0036485Y0265911D01*
X0036469Y0266345D01*
X0036464Y0266780D01*
X0178984Y0435677D02*
X0178986Y0435835D01*
X0178992Y0435993D01*
X0179002Y0436151D01*
X0179016Y0436309D01*
X0179034Y0436466D01*
X0179055Y0436623D01*
X0179081Y0436779D01*
X0179111Y0436935D01*
X0179144Y0437090D01*
X0179182Y0437243D01*
X0179223Y0437396D01*
X0179268Y0437548D01*
X0179317Y0437699D01*
X0179370Y0437848D01*
X0179426Y0437996D01*
X0179486Y0438142D01*
X0179550Y0438287D01*
X0179618Y0438430D01*
X0179689Y0438572D01*
X0179763Y0438712D01*
X0179841Y0438849D01*
X0179923Y0438985D01*
X0180007Y0439119D01*
X0180096Y0439250D01*
X0180187Y0439379D01*
X0180282Y0439506D01*
X0180379Y0439631D01*
X0180480Y0439753D01*
X0180584Y0439872D01*
X0180691Y0439989D01*
X0180801Y0440103D01*
X0180914Y0440214D01*
X0181029Y0440323D01*
X0181147Y0440428D01*
X0181268Y0440530D01*
X0181391Y0440630D01*
X0181517Y0440726D01*
X0181645Y0440819D01*
X0181775Y0440909D01*
X0181908Y0440995D01*
X0182043Y0441079D01*
X0182179Y0441158D01*
X0182318Y0441235D01*
X0182459Y0441307D01*
X0182601Y0441377D01*
X0182745Y0441442D01*
X0182891Y0441504D01*
X0183038Y0441562D01*
X0183187Y0441617D01*
X0183337Y0441668D01*
X0183488Y0441715D01*
X0183640Y0441758D01*
X0183793Y0441797D01*
X0183948Y0441833D01*
X0184103Y0441864D01*
X0184259Y0441892D01*
X0184415Y0441916D01*
X0184572Y0441936D01*
X0184730Y0441952D01*
X0184887Y0441964D01*
X0185046Y0441972D01*
X0185204Y0441976D01*
X0185362Y0441976D01*
X0185520Y0441972D01*
X0185679Y0441964D01*
X0185836Y0441952D01*
X0185994Y0441936D01*
X0186151Y0441916D01*
X0186307Y0441892D01*
X0186463Y0441864D01*
X0186618Y0441833D01*
X0186773Y0441797D01*
X0186926Y0441758D01*
X0187078Y0441715D01*
X0187229Y0441668D01*
X0187379Y0441617D01*
X0187528Y0441562D01*
X0187675Y0441504D01*
X0187821Y0441442D01*
X0187965Y0441377D01*
X0188107Y0441307D01*
X0188248Y0441235D01*
X0188387Y0441158D01*
X0188523Y0441079D01*
X0188658Y0440995D01*
X0188791Y0440909D01*
X0188921Y0440819D01*
X0189049Y0440726D01*
X0189175Y0440630D01*
X0189298Y0440530D01*
X0189419Y0440428D01*
X0189537Y0440323D01*
X0189652Y0440214D01*
X0189765Y0440103D01*
X0189875Y0439989D01*
X0189982Y0439872D01*
X0190086Y0439753D01*
X0190187Y0439631D01*
X0190284Y0439506D01*
X0190379Y0439379D01*
X0190470Y0439250D01*
X0190559Y0439119D01*
X0190643Y0438985D01*
X0190725Y0438849D01*
X0190803Y0438712D01*
X0190877Y0438572D01*
X0190948Y0438430D01*
X0191016Y0438287D01*
X0191080Y0438142D01*
X0191140Y0437996D01*
X0191196Y0437848D01*
X0191249Y0437699D01*
X0191298Y0437548D01*
X0191343Y0437396D01*
X0191384Y0437243D01*
X0191422Y0437090D01*
X0191455Y0436935D01*
X0191485Y0436779D01*
X0191511Y0436623D01*
X0191532Y0436466D01*
X0191550Y0436309D01*
X0191564Y0436151D01*
X0191574Y0435993D01*
X0191580Y0435835D01*
X0191582Y0435677D01*
X0191580Y0435519D01*
X0191574Y0435361D01*
X0191564Y0435203D01*
X0191550Y0435045D01*
X0191532Y0434888D01*
X0191511Y0434731D01*
X0191485Y0434575D01*
X0191455Y0434419D01*
X0191422Y0434264D01*
X0191384Y0434111D01*
X0191343Y0433958D01*
X0191298Y0433806D01*
X0191249Y0433655D01*
X0191196Y0433506D01*
X0191140Y0433358D01*
X0191080Y0433212D01*
X0191016Y0433067D01*
X0190948Y0432924D01*
X0190877Y0432782D01*
X0190803Y0432642D01*
X0190725Y0432505D01*
X0190643Y0432369D01*
X0190559Y0432235D01*
X0190470Y0432104D01*
X0190379Y0431975D01*
X0190284Y0431848D01*
X0190187Y0431723D01*
X0190086Y0431601D01*
X0189982Y0431482D01*
X0189875Y0431365D01*
X0189765Y0431251D01*
X0189652Y0431140D01*
X0189537Y0431031D01*
X0189419Y0430926D01*
X0189298Y0430824D01*
X0189175Y0430724D01*
X0189049Y0430628D01*
X0188921Y0430535D01*
X0188791Y0430445D01*
X0188658Y0430359D01*
X0188523Y0430275D01*
X0188387Y0430196D01*
X0188248Y0430119D01*
X0188107Y0430047D01*
X0187965Y0429977D01*
X0187821Y0429912D01*
X0187675Y0429850D01*
X0187528Y0429792D01*
X0187379Y0429737D01*
X0187229Y0429686D01*
X0187078Y0429639D01*
X0186926Y0429596D01*
X0186773Y0429557D01*
X0186618Y0429521D01*
X0186463Y0429490D01*
X0186307Y0429462D01*
X0186151Y0429438D01*
X0185994Y0429418D01*
X0185836Y0429402D01*
X0185679Y0429390D01*
X0185520Y0429382D01*
X0185362Y0429378D01*
X0185204Y0429378D01*
X0185046Y0429382D01*
X0184887Y0429390D01*
X0184730Y0429402D01*
X0184572Y0429418D01*
X0184415Y0429438D01*
X0184259Y0429462D01*
X0184103Y0429490D01*
X0183948Y0429521D01*
X0183793Y0429557D01*
X0183640Y0429596D01*
X0183488Y0429639D01*
X0183337Y0429686D01*
X0183187Y0429737D01*
X0183038Y0429792D01*
X0182891Y0429850D01*
X0182745Y0429912D01*
X0182601Y0429977D01*
X0182459Y0430047D01*
X0182318Y0430119D01*
X0182179Y0430196D01*
X0182043Y0430275D01*
X0181908Y0430359D01*
X0181775Y0430445D01*
X0181645Y0430535D01*
X0181517Y0430628D01*
X0181391Y0430724D01*
X0181268Y0430824D01*
X0181147Y0430926D01*
X0181029Y0431031D01*
X0180914Y0431140D01*
X0180801Y0431251D01*
X0180691Y0431365D01*
X0180584Y0431482D01*
X0180480Y0431601D01*
X0180379Y0431723D01*
X0180282Y0431848D01*
X0180187Y0431975D01*
X0180096Y0432104D01*
X0180007Y0432235D01*
X0179923Y0432369D01*
X0179841Y0432505D01*
X0179763Y0432642D01*
X0179689Y0432782D01*
X0179618Y0432924D01*
X0179550Y0433067D01*
X0179486Y0433212D01*
X0179426Y0433358D01*
X0179370Y0433506D01*
X0179317Y0433655D01*
X0179268Y0433806D01*
X0179223Y0433958D01*
X0179182Y0434111D01*
X0179144Y0434264D01*
X0179111Y0434419D01*
X0179081Y0434575D01*
X0179055Y0434731D01*
X0179034Y0434888D01*
X0179016Y0435045D01*
X0179002Y0435203D01*
X0178992Y0435361D01*
X0178986Y0435519D01*
X0178984Y0435677D01*
X0208905Y0266780D02*
X0208910Y0267215D01*
X0208926Y0267649D01*
X0208953Y0268083D01*
X0208990Y0268517D01*
X0209038Y0268949D01*
X0209097Y0269380D01*
X0209166Y0269809D01*
X0209245Y0270236D01*
X0209335Y0270662D01*
X0209436Y0271085D01*
X0209547Y0271505D01*
X0209668Y0271923D01*
X0209799Y0272337D01*
X0209941Y0272749D01*
X0210092Y0273156D01*
X0210254Y0273560D01*
X0210425Y0273960D01*
X0210606Y0274355D01*
X0210797Y0274746D01*
X0210997Y0275132D01*
X0211207Y0275513D01*
X0211426Y0275888D01*
X0211654Y0276259D01*
X0211891Y0276623D01*
X0212137Y0276982D01*
X0212392Y0277334D01*
X0212655Y0277680D01*
X0212927Y0278020D01*
X0213207Y0278352D01*
X0213495Y0278678D01*
X0213791Y0278997D01*
X0214094Y0279308D01*
X0214405Y0279611D01*
X0214724Y0279907D01*
X0215050Y0280195D01*
X0215382Y0280475D01*
X0215722Y0280747D01*
X0216068Y0281010D01*
X0216420Y0281265D01*
X0216779Y0281511D01*
X0217143Y0281748D01*
X0217514Y0281976D01*
X0217889Y0282195D01*
X0218270Y0282405D01*
X0218656Y0282605D01*
X0219047Y0282796D01*
X0219442Y0282977D01*
X0219842Y0283148D01*
X0220246Y0283310D01*
X0220653Y0283461D01*
X0221065Y0283603D01*
X0221479Y0283734D01*
X0221897Y0283855D01*
X0222317Y0283966D01*
X0222740Y0284067D01*
X0223166Y0284157D01*
X0223593Y0284236D01*
X0224022Y0284305D01*
X0224453Y0284364D01*
X0224885Y0284412D01*
X0225319Y0284449D01*
X0225753Y0284476D01*
X0226187Y0284492D01*
X0226622Y0284497D01*
X0227057Y0284492D01*
X0227491Y0284476D01*
X0227925Y0284449D01*
X0228359Y0284412D01*
X0228791Y0284364D01*
X0229222Y0284305D01*
X0229651Y0284236D01*
X0230078Y0284157D01*
X0230504Y0284067D01*
X0230927Y0283966D01*
X0231347Y0283855D01*
X0231765Y0283734D01*
X0232179Y0283603D01*
X0232591Y0283461D01*
X0232998Y0283310D01*
X0233402Y0283148D01*
X0233802Y0282977D01*
X0234197Y0282796D01*
X0234588Y0282605D01*
X0234974Y0282405D01*
X0235355Y0282195D01*
X0235730Y0281976D01*
X0236101Y0281748D01*
X0236465Y0281511D01*
X0236824Y0281265D01*
X0237176Y0281010D01*
X0237522Y0280747D01*
X0237862Y0280475D01*
X0238194Y0280195D01*
X0238520Y0279907D01*
X0238839Y0279611D01*
X0239150Y0279308D01*
X0239453Y0278997D01*
X0239749Y0278678D01*
X0240037Y0278352D01*
X0240317Y0278020D01*
X0240589Y0277680D01*
X0240852Y0277334D01*
X0241107Y0276982D01*
X0241353Y0276623D01*
X0241590Y0276259D01*
X0241818Y0275888D01*
X0242037Y0275513D01*
X0242247Y0275132D01*
X0242447Y0274746D01*
X0242638Y0274355D01*
X0242819Y0273960D01*
X0242990Y0273560D01*
X0243152Y0273156D01*
X0243303Y0272749D01*
X0243445Y0272337D01*
X0243576Y0271923D01*
X0243697Y0271505D01*
X0243808Y0271085D01*
X0243909Y0270662D01*
X0243999Y0270236D01*
X0244078Y0269809D01*
X0244147Y0269380D01*
X0244206Y0268949D01*
X0244254Y0268517D01*
X0244291Y0268083D01*
X0244318Y0267649D01*
X0244334Y0267215D01*
X0244339Y0266780D01*
X0244334Y0266345D01*
X0244318Y0265911D01*
X0244291Y0265477D01*
X0244254Y0265043D01*
X0244206Y0264611D01*
X0244147Y0264180D01*
X0244078Y0263751D01*
X0243999Y0263324D01*
X0243909Y0262898D01*
X0243808Y0262475D01*
X0243697Y0262055D01*
X0243576Y0261637D01*
X0243445Y0261223D01*
X0243303Y0260811D01*
X0243152Y0260404D01*
X0242990Y0260000D01*
X0242819Y0259600D01*
X0242638Y0259205D01*
X0242447Y0258814D01*
X0242247Y0258428D01*
X0242037Y0258047D01*
X0241818Y0257672D01*
X0241590Y0257301D01*
X0241353Y0256937D01*
X0241107Y0256578D01*
X0240852Y0256226D01*
X0240589Y0255880D01*
X0240317Y0255540D01*
X0240037Y0255208D01*
X0239749Y0254882D01*
X0239453Y0254563D01*
X0239150Y0254252D01*
X0238839Y0253949D01*
X0238520Y0253653D01*
X0238194Y0253365D01*
X0237862Y0253085D01*
X0237522Y0252813D01*
X0237176Y0252550D01*
X0236824Y0252295D01*
X0236465Y0252049D01*
X0236101Y0251812D01*
X0235730Y0251584D01*
X0235355Y0251365D01*
X0234974Y0251155D01*
X0234588Y0250955D01*
X0234197Y0250764D01*
X0233802Y0250583D01*
X0233402Y0250412D01*
X0232998Y0250250D01*
X0232591Y0250099D01*
X0232179Y0249957D01*
X0231765Y0249826D01*
X0231347Y0249705D01*
X0230927Y0249594D01*
X0230504Y0249493D01*
X0230078Y0249403D01*
X0229651Y0249324D01*
X0229222Y0249255D01*
X0228791Y0249196D01*
X0228359Y0249148D01*
X0227925Y0249111D01*
X0227491Y0249084D01*
X0227057Y0249068D01*
X0226622Y0249063D01*
X0226187Y0249068D01*
X0225753Y0249084D01*
X0225319Y0249111D01*
X0224885Y0249148D01*
X0224453Y0249196D01*
X0224022Y0249255D01*
X0223593Y0249324D01*
X0223166Y0249403D01*
X0222740Y0249493D01*
X0222317Y0249594D01*
X0221897Y0249705D01*
X0221479Y0249826D01*
X0221065Y0249957D01*
X0220653Y0250099D01*
X0220246Y0250250D01*
X0219842Y0250412D01*
X0219442Y0250583D01*
X0219047Y0250764D01*
X0218656Y0250955D01*
X0218270Y0251155D01*
X0217889Y0251365D01*
X0217514Y0251584D01*
X0217143Y0251812D01*
X0216779Y0252049D01*
X0216420Y0252295D01*
X0216068Y0252550D01*
X0215722Y0252813D01*
X0215382Y0253085D01*
X0215050Y0253365D01*
X0214724Y0253653D01*
X0214405Y0253949D01*
X0214094Y0254252D01*
X0213791Y0254563D01*
X0213495Y0254882D01*
X0213207Y0255208D01*
X0212927Y0255540D01*
X0212655Y0255880D01*
X0212392Y0256226D01*
X0212137Y0256578D01*
X0211891Y0256937D01*
X0211654Y0257301D01*
X0211426Y0257672D01*
X0211207Y0258047D01*
X0210997Y0258428D01*
X0210797Y0258814D01*
X0210606Y0259205D01*
X0210425Y0259600D01*
X0210254Y0260000D01*
X0210092Y0260404D01*
X0209941Y0260811D01*
X0209799Y0261223D01*
X0209668Y0261637D01*
X0209547Y0262055D01*
X0209436Y0262475D01*
X0209335Y0262898D01*
X0209245Y0263324D01*
X0209166Y0263751D01*
X0209097Y0264180D01*
X0209038Y0264611D01*
X0208990Y0265043D01*
X0208953Y0265477D01*
X0208926Y0265911D01*
X0208910Y0266345D01*
X0208905Y0266780D01*
D12*
X0226622Y0266780D03*
X0054181Y0266780D03*
D13*
X0185283Y0435677D03*
D14*
X0183364Y0411514D03*
X0167222Y0387892D03*
X0149900Y0303640D03*
X0231002Y0235923D03*
X0246750Y0259545D03*
X0243207Y0362695D03*
X0247537Y0441829D03*
X0241632Y0474900D03*
X0241632Y0475293D03*
X0241632Y0475687D03*
X0241632Y0477656D03*
X0241632Y0478049D03*
X0219191Y0492616D03*
X0219191Y0493010D03*
X0219191Y0493404D03*
X0219191Y0493797D03*
X0219191Y0494191D03*
X0219191Y0494585D03*
X0219191Y0494978D03*
X0219191Y0495372D03*
X0219191Y0495766D03*
X0219191Y0496159D03*
X0219191Y0496553D03*
X0219191Y0496947D03*
X0219191Y0497341D03*
X0219191Y0497734D03*
X0219191Y0498128D03*
X0219191Y0498522D03*
X0219191Y0498915D03*
X0219191Y0499309D03*
X0216435Y0499309D03*
X0216041Y0498522D03*
X0215648Y0497341D03*
X0212498Y0497341D03*
X0212498Y0497734D03*
X0212104Y0498128D03*
X0211711Y0498915D03*
X0208955Y0498915D03*
X0208955Y0498522D03*
X0208955Y0498128D03*
X0208955Y0497734D03*
X0208955Y0497341D03*
X0208955Y0496947D03*
X0208955Y0496553D03*
X0208955Y0496159D03*
X0208955Y0495766D03*
X0208955Y0495372D03*
X0208955Y0494978D03*
X0208955Y0494585D03*
X0208955Y0494191D03*
X0208955Y0493797D03*
X0208955Y0493404D03*
X0208955Y0493010D03*
X0208955Y0492616D03*
X0208955Y0499309D03*
X0214073Y0494585D03*
X0200687Y0492616D03*
X0199506Y0499703D03*
X0199506Y0500096D03*
X0199506Y0500490D03*
X0199506Y0500884D03*
X0193994Y0500884D03*
X0193994Y0501278D03*
X0193994Y0501671D03*
X0193994Y0500490D03*
X0193994Y0500096D03*
X0193994Y0499703D03*
X0193994Y0499309D03*
X0193994Y0498915D03*
X0193994Y0496553D03*
X0193994Y0496159D03*
X0193994Y0495766D03*
X0193994Y0495372D03*
X0193994Y0494978D03*
X0193994Y0494585D03*
X0193994Y0494191D03*
X0193994Y0493797D03*
X0193994Y0493404D03*
X0193994Y0493010D03*
X0193994Y0492616D03*
X0190057Y0501671D03*
X0187695Y0492616D03*
X0183758Y0496553D03*
X0183758Y0499703D03*
X0177459Y0498522D03*
X0177459Y0498128D03*
X0165648Y0498128D03*
X0165648Y0498522D03*
X0165648Y0498915D03*
X0165648Y0499309D03*
X0165648Y0499703D03*
X0165648Y0500096D03*
X0165648Y0500490D03*
X0165648Y0500884D03*
X0165648Y0501278D03*
X0165648Y0501671D03*
X0165648Y0502065D03*
X0165648Y0502459D03*
X0165648Y0502852D03*
X0165648Y0503246D03*
X0165648Y0503640D03*
X0165648Y0497734D03*
X0165648Y0497341D03*
X0165648Y0493010D03*
X0158167Y0493010D03*
X0158167Y0493404D03*
X0158167Y0493797D03*
X0158167Y0494191D03*
X0158167Y0494585D03*
X0158167Y0494978D03*
X0158167Y0495372D03*
X0158167Y0495766D03*
X0158167Y0496159D03*
X0158167Y0496553D03*
X0158167Y0496947D03*
X0158167Y0497341D03*
X0158167Y0497734D03*
X0158167Y0498128D03*
X0158167Y0498522D03*
X0158167Y0498915D03*
X0158167Y0503246D03*
X0153049Y0497734D03*
X0153049Y0497341D03*
X0152656Y0498522D03*
X0152262Y0499309D03*
X0152262Y0499703D03*
X0149112Y0500096D03*
X0149112Y0500490D03*
X0148719Y0499703D03*
X0148719Y0499309D03*
X0148325Y0498522D03*
X0148325Y0498128D03*
X0147931Y0497734D03*
X0147931Y0497341D03*
X0147931Y0496947D03*
X0147144Y0494978D03*
X0146750Y0494191D03*
X0146750Y0493797D03*
X0146356Y0493010D03*
X0154230Y0494191D03*
X0154230Y0494585D03*
X0154624Y0493010D03*
X0137301Y0493010D03*
X0137301Y0493404D03*
X0137301Y0493797D03*
X0137301Y0494191D03*
X0137301Y0494585D03*
X0137301Y0494978D03*
X0137301Y0495372D03*
X0137301Y0495766D03*
X0137301Y0496159D03*
X0137301Y0496553D03*
X0137301Y0496947D03*
X0137301Y0497341D03*
X0137301Y0497734D03*
X0137301Y0498128D03*
X0137301Y0498522D03*
X0137301Y0498915D03*
X0137301Y0499309D03*
X0137301Y0499703D03*
X0137301Y0500096D03*
X0137301Y0500490D03*
X0137301Y0500884D03*
X0137301Y0501278D03*
X0137301Y0501671D03*
X0137301Y0492616D03*
X0130608Y0493404D03*
X0123522Y0493404D03*
X0123522Y0493797D03*
X0123522Y0494191D03*
X0123522Y0494585D03*
X0123522Y0494978D03*
X0123522Y0495372D03*
X0123522Y0495766D03*
X0123522Y0496159D03*
X0123522Y0496553D03*
X0123522Y0496947D03*
X0123522Y0497341D03*
X0123522Y0497734D03*
X0123522Y0498128D03*
X0123522Y0498522D03*
X0123522Y0498915D03*
X0123522Y0502852D03*
X0123522Y0503246D03*
X0123522Y0493010D03*
X0123522Y0492616D03*
X0110530Y0503640D03*
X0108167Y0499309D03*
X0107774Y0498915D03*
X0107774Y0498522D03*
X0107380Y0498128D03*
X0107380Y0497734D03*
X0106986Y0496947D03*
X0104230Y0496947D03*
X0104230Y0497341D03*
X0103837Y0497734D03*
X0103837Y0498128D03*
X0103443Y0498522D03*
X0103443Y0498915D03*
X0105411Y0494585D03*
X0100687Y0503640D03*
X0094388Y0500490D03*
X0094388Y0500096D03*
X0094781Y0499309D03*
X0094781Y0498915D03*
X0095175Y0498522D03*
X0095175Y0498128D03*
X0095175Y0497734D03*
X0095569Y0496947D03*
X0096356Y0494978D03*
X0096356Y0494585D03*
X0096750Y0493797D03*
X0096750Y0493404D03*
X0090844Y0498522D03*
X0090844Y0498915D03*
X0090844Y0499309D03*
X0091238Y0499703D03*
X0091238Y0500096D03*
X0091632Y0500884D03*
X0092813Y0503640D03*
X0090451Y0498128D03*
X0090451Y0497734D03*
X0090451Y0497341D03*
X0090057Y0496947D03*
X0089270Y0494585D03*
X0088876Y0493404D03*
X0088482Y0493010D03*
X0085333Y0493010D03*
X0085333Y0497341D03*
X0085333Y0497734D03*
X0085333Y0498128D03*
X0085333Y0498522D03*
X0085333Y0498915D03*
X0085333Y0499309D03*
X0085333Y0499703D03*
X0085333Y0500096D03*
X0085333Y0500490D03*
X0085333Y0500884D03*
X0085333Y0501278D03*
X0085333Y0501671D03*
X0085333Y0502065D03*
X0085333Y0502459D03*
X0085333Y0502852D03*
X0085333Y0503246D03*
X0085333Y0503640D03*
X0077852Y0503246D03*
X0073128Y0501278D03*
X0073128Y0499703D03*
X0073128Y0499309D03*
X0074309Y0492616D03*
X0077852Y0493010D03*
X0020766Y0394978D03*
X0015254Y0384348D03*
X0015254Y0383955D03*
X0015254Y0383561D03*
X0007380Y0407970D03*
X0007380Y0408364D03*
X0007380Y0408758D03*
X0007380Y0409152D03*
X0007380Y0409545D03*
X0041238Y0215451D03*
X0041238Y0215057D03*
X0092419Y0044585D03*
X0092419Y0044191D03*
X0103443Y0021750D03*
X0103443Y0021356D03*
X0103443Y0020963D03*
X0103443Y0020569D03*
X0103443Y0020175D03*
X0103443Y0019781D03*
X0103443Y0019388D03*
X0103443Y0018994D03*
X0103443Y0018600D03*
X0103443Y0018207D03*
X0103443Y0017813D03*
X0103443Y0017419D03*
X0103443Y0017026D03*
X0103443Y0016632D03*
X0103443Y0016238D03*
X0103443Y0015844D03*
X0103443Y0015451D03*
X0103443Y0015057D03*
X0107380Y0019388D03*
X0107380Y0019781D03*
X0106986Y0020175D03*
X0106986Y0020569D03*
X0106593Y0021356D03*
X0110136Y0019388D03*
X0110530Y0019781D03*
X0110530Y0020175D03*
X0110923Y0020569D03*
X0111317Y0021356D03*
X0114467Y0021356D03*
X0114467Y0020963D03*
X0114467Y0020569D03*
X0114467Y0020175D03*
X0114467Y0019781D03*
X0114467Y0019388D03*
X0114467Y0018994D03*
X0114467Y0018600D03*
X0114467Y0018207D03*
X0114467Y0017813D03*
X0114467Y0017419D03*
X0114467Y0017026D03*
X0114467Y0016632D03*
X0114467Y0016238D03*
X0114467Y0015844D03*
X0114467Y0015451D03*
X0108955Y0016632D03*
X0108955Y0017026D03*
X0124309Y0023325D03*
X0130215Y0021750D03*
X0130215Y0021356D03*
X0130215Y0020963D03*
X0130215Y0020569D03*
X0130215Y0020175D03*
X0130215Y0019781D03*
X0130215Y0019388D03*
X0130215Y0018994D03*
X0130215Y0018600D03*
X0130215Y0018207D03*
X0130215Y0017813D03*
X0130215Y0017419D03*
X0130215Y0017026D03*
X0130215Y0016632D03*
X0130215Y0016238D03*
X0130215Y0015844D03*
X0130215Y0015451D03*
X0130215Y0015057D03*
X0135726Y0016632D03*
X0134545Y0019388D03*
X0134152Y0019781D03*
X0133758Y0020175D03*
X0133758Y0020569D03*
X0133364Y0020963D03*
X0133364Y0021356D03*
X0137301Y0020175D03*
X0137301Y0019781D03*
X0137695Y0020569D03*
X0138089Y0021356D03*
X0141238Y0021356D03*
X0141238Y0020963D03*
X0141238Y0020569D03*
X0141238Y0020175D03*
X0141238Y0019781D03*
X0141238Y0019388D03*
X0141238Y0018994D03*
X0141238Y0018600D03*
X0141238Y0018207D03*
X0141238Y0017813D03*
X0141238Y0017419D03*
X0141238Y0017026D03*
X0141238Y0016632D03*
X0141238Y0016238D03*
X0141238Y0015844D03*
X0141238Y0015451D03*
X0141238Y0015057D03*
X0141238Y0021750D03*
X0156986Y0021750D03*
X0156986Y0022144D03*
X0156986Y0021356D03*
X0156986Y0020963D03*
X0156986Y0020569D03*
X0156986Y0020175D03*
X0156986Y0019781D03*
X0156986Y0019388D03*
X0156986Y0018994D03*
X0156986Y0018600D03*
X0156986Y0018207D03*
X0156986Y0017813D03*
X0156986Y0017419D03*
X0156986Y0017026D03*
X0156986Y0016632D03*
X0156986Y0016238D03*
X0156986Y0015844D03*
X0156986Y0015451D03*
X0156986Y0015057D03*
X0160923Y0019781D03*
X0160923Y0020175D03*
X0160530Y0020569D03*
X0160530Y0020963D03*
X0160136Y0021356D03*
X0160136Y0021750D03*
X0159742Y0022144D03*
X0164073Y0019781D03*
X0164073Y0019388D03*
X0164467Y0020569D03*
X0164860Y0021356D03*
X0165254Y0021750D03*
X0165254Y0022144D03*
X0168010Y0022144D03*
X0168010Y0021750D03*
X0168010Y0021356D03*
X0168010Y0020963D03*
X0168010Y0020569D03*
X0168010Y0020175D03*
X0168010Y0019781D03*
X0168010Y0019388D03*
X0168010Y0018994D03*
X0168010Y0018600D03*
X0168010Y0018207D03*
X0168010Y0017813D03*
X0168010Y0017419D03*
X0168010Y0017026D03*
X0168010Y0016632D03*
X0168010Y0016238D03*
X0168010Y0015844D03*
X0168010Y0015451D03*
X0168010Y0015057D03*
X0162498Y0016632D03*
X0178246Y0023719D03*
X0076671Y0020569D03*
D15*
X0076474Y0020963D03*
X0077262Y0022931D03*
X0077656Y0023325D03*
X0078049Y0024112D03*
X0078443Y0024900D03*
X0103640Y0026474D03*
X0106396Y0021750D03*
X0106789Y0020963D03*
X0114270Y0021750D03*
X0114270Y0026474D03*
X0120175Y0023719D03*
X0120569Y0022931D03*
X0124112Y0022931D03*
X0124506Y0023719D03*
X0124900Y0024112D03*
X0125293Y0024900D03*
X0126081Y0026081D03*
X0130411Y0026474D03*
X0138285Y0021750D03*
X0137892Y0020963D03*
X0135530Y0017026D03*
X0144978Y0015057D03*
X0145766Y0016238D03*
X0146159Y0017026D03*
X0146553Y0017419D03*
X0146553Y0017813D03*
X0146947Y0018207D03*
X0147341Y0018600D03*
X0147341Y0018994D03*
X0151671Y0017419D03*
X0152065Y0017026D03*
X0150884Y0022931D03*
X0151278Y0023325D03*
X0151278Y0023719D03*
X0151671Y0024112D03*
X0152065Y0024900D03*
X0152459Y0025293D03*
X0152852Y0026081D03*
X0153246Y0026474D03*
X0157183Y0026474D03*
X0161120Y0019388D03*
X0162695Y0017026D03*
X0164270Y0020175D03*
X0164663Y0020963D03*
X0167813Y0026474D03*
X0174112Y0018994D03*
X0173719Y0018207D03*
X0173719Y0017813D03*
X0173325Y0017419D03*
X0172931Y0017026D03*
X0172931Y0016632D03*
X0172537Y0016238D03*
X0172144Y0015451D03*
X0171750Y0015057D03*
X0177656Y0018994D03*
X0177656Y0022931D03*
X0178049Y0023325D03*
X0178443Y0024112D03*
X0178837Y0024506D03*
X0178837Y0024900D03*
X0179230Y0025293D03*
X0179624Y0025687D03*
X0179624Y0026081D03*
X0180018Y0026474D03*
X0180018Y0015057D03*
X0146947Y0023719D03*
X0146553Y0024506D03*
X0145766Y0025687D03*
X0124506Y0018207D03*
X0120569Y0018994D03*
X0120175Y0018600D03*
X0120175Y0018207D03*
X0119781Y0017813D03*
X0119388Y0017026D03*
X0118994Y0016238D03*
X0118600Y0015451D03*
X0118207Y0015057D03*
X0114270Y0015057D03*
X0006002Y0204427D03*
X0026081Y0332774D03*
X0006002Y0337498D03*
X0015844Y0381986D03*
X0015451Y0382774D03*
X0015451Y0383167D03*
X0015451Y0384742D03*
X0015451Y0385136D03*
X0015451Y0385530D03*
X0015844Y0386317D03*
X0020175Y0393010D03*
X0020175Y0393404D03*
X0020569Y0393797D03*
X0020569Y0394191D03*
X0020569Y0394585D03*
X0020963Y0395372D03*
X0020963Y0395766D03*
X0020963Y0396159D03*
X0020963Y0396553D03*
X0020963Y0396947D03*
X0020963Y0397341D03*
X0020963Y0397734D03*
X0020569Y0398128D03*
X0020569Y0398522D03*
X0020569Y0398915D03*
X0007577Y0406789D03*
X0007577Y0407183D03*
X0007183Y0407577D03*
X0007577Y0409939D03*
X0007577Y0410333D03*
X0055608Y0495766D03*
X0055215Y0496553D03*
X0055215Y0496947D03*
X0055215Y0497341D03*
X0055215Y0497734D03*
X0055215Y0498128D03*
X0055215Y0498522D03*
X0055215Y0498915D03*
X0055215Y0499309D03*
X0055215Y0499703D03*
X0055215Y0500096D03*
X0055608Y0500490D03*
X0055608Y0500884D03*
X0059545Y0492616D03*
X0063089Y0495372D03*
X0063482Y0495766D03*
X0063482Y0496159D03*
X0063876Y0496553D03*
X0063876Y0496947D03*
X0063876Y0497341D03*
X0063876Y0497734D03*
X0063876Y0498128D03*
X0063876Y0498522D03*
X0063876Y0498915D03*
X0063876Y0499309D03*
X0063876Y0499703D03*
X0063482Y0500096D03*
X0063482Y0500490D03*
X0063089Y0500884D03*
X0067813Y0500884D03*
X0067813Y0501278D03*
X0067813Y0501671D03*
X0067813Y0500490D03*
X0067813Y0500096D03*
X0067813Y0499703D03*
X0067813Y0499309D03*
X0067813Y0498915D03*
X0067813Y0498522D03*
X0067813Y0496553D03*
X0067813Y0496159D03*
X0067813Y0495766D03*
X0067813Y0495372D03*
X0067813Y0494978D03*
X0067813Y0494585D03*
X0067813Y0494191D03*
X0067813Y0493797D03*
X0067813Y0493404D03*
X0067813Y0493010D03*
X0067813Y0492616D03*
X0072144Y0495766D03*
X0072144Y0496159D03*
X0071750Y0496553D03*
X0072537Y0495372D03*
X0072931Y0494585D03*
X0073325Y0493797D03*
X0073719Y0493404D03*
X0072931Y0498915D03*
X0073325Y0500096D03*
X0073325Y0500490D03*
X0073325Y0500884D03*
X0078049Y0502459D03*
X0078049Y0502852D03*
X0081199Y0498522D03*
X0081986Y0497734D03*
X0081986Y0497341D03*
X0085136Y0493797D03*
X0085136Y0493404D03*
X0089073Y0493797D03*
X0089073Y0494191D03*
X0089467Y0494978D03*
X0095372Y0497341D03*
X0096553Y0494191D03*
X0096947Y0493010D03*
X0100884Y0502852D03*
X0100884Y0503246D03*
X0105608Y0494978D03*
X0110333Y0503246D03*
X0115057Y0501671D03*
X0115057Y0501278D03*
X0115057Y0500884D03*
X0115057Y0500490D03*
X0115057Y0500096D03*
X0115057Y0499703D03*
X0115057Y0499309D03*
X0115057Y0496947D03*
X0115057Y0496553D03*
X0115057Y0496159D03*
X0115057Y0495766D03*
X0115057Y0495372D03*
X0115057Y0494978D03*
X0115057Y0494585D03*
X0123719Y0502459D03*
X0126474Y0498915D03*
X0126868Y0498522D03*
X0127262Y0498128D03*
X0127656Y0497341D03*
X0130411Y0493797D03*
X0146553Y0493404D03*
X0146947Y0494585D03*
X0148522Y0498915D03*
X0152852Y0498128D03*
X0153246Y0496947D03*
X0154033Y0494978D03*
X0154427Y0493797D03*
X0154427Y0493404D03*
X0158364Y0502852D03*
X0161514Y0498522D03*
X0161907Y0498128D03*
X0162301Y0497734D03*
X0165451Y0493797D03*
X0165451Y0493404D03*
X0169781Y0494585D03*
X0169781Y0494978D03*
X0169781Y0495372D03*
X0169781Y0495766D03*
X0169781Y0496159D03*
X0169781Y0496553D03*
X0169781Y0496947D03*
X0169781Y0497341D03*
X0169781Y0497734D03*
X0169781Y0498128D03*
X0169781Y0498522D03*
X0169781Y0498915D03*
X0169781Y0499309D03*
X0169781Y0499703D03*
X0169781Y0500096D03*
X0169781Y0500490D03*
X0169781Y0500884D03*
X0169781Y0501278D03*
X0169781Y0501671D03*
X0176474Y0500884D03*
X0176868Y0500490D03*
X0176868Y0500096D03*
X0177262Y0499703D03*
X0177262Y0499309D03*
X0177262Y0498915D03*
X0177262Y0497734D03*
X0177262Y0497341D03*
X0177262Y0496947D03*
X0176868Y0496553D03*
X0176868Y0496159D03*
X0176474Y0495372D03*
X0183561Y0496947D03*
X0183561Y0497341D03*
X0183561Y0497734D03*
X0183561Y0498128D03*
X0183561Y0498522D03*
X0183561Y0498915D03*
X0183561Y0499309D03*
X0183955Y0500096D03*
X0183955Y0500490D03*
X0184348Y0500884D03*
X0183955Y0496159D03*
X0183955Y0495766D03*
X0184348Y0495372D03*
X0194191Y0498522D03*
X0198915Y0498915D03*
X0199309Y0499309D03*
X0199309Y0501278D03*
X0198522Y0495766D03*
X0198915Y0494978D03*
X0199309Y0494585D03*
X0199309Y0494191D03*
X0199703Y0493797D03*
X0200096Y0493010D03*
X0204427Y0493010D03*
X0204427Y0493404D03*
X0204427Y0493797D03*
X0204427Y0494191D03*
X0204427Y0494585D03*
X0204427Y0494978D03*
X0204427Y0495372D03*
X0204427Y0495766D03*
X0204427Y0496159D03*
X0204427Y0496553D03*
X0204427Y0496947D03*
X0204427Y0497341D03*
X0204427Y0497734D03*
X0204427Y0498128D03*
X0204427Y0498522D03*
X0204427Y0498915D03*
X0204427Y0499309D03*
X0204427Y0499703D03*
X0204427Y0500096D03*
X0204427Y0500490D03*
X0204427Y0500884D03*
X0204427Y0501278D03*
X0204427Y0501671D03*
X0204427Y0502065D03*
X0204427Y0502459D03*
X0204427Y0502852D03*
X0204427Y0503246D03*
X0204427Y0503640D03*
X0209152Y0503640D03*
X0209152Y0503246D03*
X0213876Y0494978D03*
X0218994Y0503640D03*
X0223325Y0501671D03*
X0223325Y0501278D03*
X0223325Y0500884D03*
X0223325Y0500490D03*
X0223325Y0500096D03*
X0223325Y0499703D03*
X0223325Y0499309D03*
X0223325Y0496947D03*
X0223325Y0496553D03*
X0223325Y0496159D03*
X0223325Y0495766D03*
X0223325Y0495372D03*
X0223325Y0494978D03*
X0223325Y0494585D03*
X0236711Y0466632D03*
X0236317Y0465844D03*
X0236317Y0465451D03*
X0236317Y0465057D03*
X0236317Y0463482D03*
X0236317Y0463089D03*
X0236317Y0462695D03*
X0240648Y0472537D03*
X0241041Y0473325D03*
X0241435Y0473719D03*
X0241435Y0474112D03*
X0241435Y0474506D03*
X0241829Y0476081D03*
X0241829Y0476474D03*
X0241829Y0476868D03*
X0241829Y0477262D03*
X0241435Y0478443D03*
X0241435Y0478837D03*
X0254821Y0452852D03*
X0254821Y0452459D03*
X0254821Y0452065D03*
X0254821Y0451671D03*
X0254821Y0451278D03*
X0254821Y0450884D03*
X0254821Y0450490D03*
X0254821Y0450096D03*
X0254821Y0449703D03*
X0254821Y0449309D03*
X0254427Y0448522D03*
X0254033Y0447734D03*
X0204427Y0492616D03*
X0183167Y0411120D03*
X0170175Y0393404D03*
X0167419Y0388285D03*
X0150490Y0503246D03*
X0150490Y0503640D03*
X0243404Y0362301D03*
X0258364Y0361907D03*
X0246553Y0259152D03*
X0232774Y0239860D03*
X0232380Y0239467D03*
X0231593Y0237892D03*
X0231199Y0237104D03*
X0230805Y0236317D03*
X0124506Y0246553D03*
D16*
X0149506Y0304033D03*
X0118010Y0313876D03*
X0167616Y0388679D03*
X0167616Y0389073D03*
X0168010Y0389467D03*
X0168010Y0389860D03*
X0168404Y0390254D03*
X0168404Y0390648D03*
X0168797Y0391041D03*
X0168797Y0391435D03*
X0169191Y0391829D03*
X0169585Y0392222D03*
X0169585Y0392616D03*
X0169978Y0393010D03*
X0170372Y0393797D03*
X0170766Y0394191D03*
X0171159Y0394978D03*
X0171553Y0395372D03*
X0172341Y0396553D03*
X0172734Y0396947D03*
X0173522Y0398128D03*
X0173915Y0398522D03*
X0174703Y0399703D03*
X0175096Y0400096D03*
X0175490Y0400490D03*
X0175884Y0400884D03*
X0175884Y0401278D03*
X0176278Y0401671D03*
X0176671Y0402065D03*
X0177065Y0402459D03*
X0178246Y0404033D03*
X0179033Y0405215D03*
X0179427Y0405608D03*
X0180608Y0407183D03*
X0181002Y0407577D03*
X0181396Y0408364D03*
X0181789Y0408758D03*
X0182183Y0409545D03*
X0182577Y0409939D03*
X0182970Y0410333D03*
X0182970Y0410726D03*
X0199900Y0493404D03*
X0198719Y0495372D03*
X0198325Y0496159D03*
X0197931Y0496553D03*
X0209348Y0502459D03*
X0209348Y0502852D03*
X0214073Y0495372D03*
X0218797Y0502852D03*
X0218797Y0503246D03*
X0240451Y0472144D03*
X0240844Y0472931D03*
X0240057Y0471356D03*
X0238089Y0468600D03*
X0237695Y0468207D03*
X0237695Y0467813D03*
X0237301Y0467419D03*
X0236907Y0467026D03*
X0236514Y0466238D03*
X0236120Y0464663D03*
X0236120Y0464270D03*
X0236120Y0463876D03*
X0236514Y0462301D03*
X0236907Y0461907D03*
X0241238Y0479230D03*
X0241238Y0479624D03*
X0240844Y0480018D03*
X0253837Y0454427D03*
X0254230Y0454033D03*
X0254624Y0453640D03*
X0254624Y0453246D03*
X0254624Y0448915D03*
X0254230Y0448128D03*
X0253837Y0447341D03*
X0253443Y0446947D03*
X0258167Y0361514D03*
X0253443Y0355215D03*
X0251474Y0352459D03*
X0244388Y0360726D03*
X0243600Y0361907D03*
X0246356Y0258364D03*
X0245963Y0257970D03*
X0245963Y0257577D03*
X0245569Y0257183D03*
X0245175Y0256789D03*
X0244781Y0256002D03*
X0244388Y0255608D03*
X0243994Y0255215D03*
X0243207Y0254033D03*
X0242813Y0253640D03*
X0242419Y0252852D03*
X0242026Y0252459D03*
X0240057Y0250096D03*
X0238876Y0248522D03*
X0238482Y0248128D03*
X0238089Y0247734D03*
X0237695Y0246947D03*
X0237301Y0246553D03*
X0236907Y0246159D03*
X0236907Y0245766D03*
X0236514Y0245372D03*
X0236120Y0244978D03*
X0235333Y0243797D03*
X0234939Y0243404D03*
X0234152Y0242222D03*
X0233758Y0241435D03*
X0233364Y0241041D03*
X0233364Y0240648D03*
X0232970Y0240254D03*
X0232183Y0239073D03*
X0232183Y0238679D03*
X0231789Y0238285D03*
X0231396Y0237498D03*
X0231002Y0236711D03*
X0171947Y0026474D03*
X0172341Y0026081D03*
X0172734Y0025687D03*
X0172734Y0025293D03*
X0173128Y0024900D03*
X0173522Y0024506D03*
X0173522Y0024112D03*
X0173915Y0023719D03*
X0173915Y0023325D03*
X0174309Y0022931D03*
X0173915Y0018600D03*
X0172341Y0015844D03*
X0177852Y0018600D03*
X0178246Y0018207D03*
X0178246Y0017813D03*
X0178640Y0017419D03*
X0178640Y0017026D03*
X0179033Y0016632D03*
X0179427Y0015844D03*
X0179821Y0015451D03*
X0167616Y0025687D03*
X0167616Y0026081D03*
X0162498Y0017419D03*
X0157380Y0026081D03*
X0152656Y0025687D03*
X0151868Y0024506D03*
X0147537Y0022931D03*
X0147144Y0023325D03*
X0146750Y0024112D03*
X0146356Y0024900D03*
X0145963Y0025293D03*
X0145569Y0026081D03*
X0145175Y0026474D03*
X0140844Y0026474D03*
X0140844Y0026081D03*
X0135726Y0017813D03*
X0135726Y0017419D03*
X0130608Y0025687D03*
X0130608Y0026081D03*
X0126278Y0026474D03*
X0125884Y0025687D03*
X0125490Y0025293D03*
X0125096Y0024506D03*
X0123915Y0018994D03*
X0124309Y0018600D03*
X0124703Y0017813D03*
X0125096Y0017419D03*
X0125096Y0017026D03*
X0125490Y0016632D03*
X0125490Y0016238D03*
X0125884Y0015844D03*
X0125884Y0015451D03*
X0126278Y0015057D03*
X0119585Y0017419D03*
X0119191Y0016632D03*
X0118797Y0015844D03*
X0120372Y0023325D03*
X0119978Y0024112D03*
X0119585Y0024506D03*
X0119585Y0024900D03*
X0119191Y0025293D03*
X0118797Y0026081D03*
X0118404Y0026474D03*
X0114073Y0026081D03*
X0114073Y0025687D03*
X0108955Y0017813D03*
X0108955Y0017419D03*
X0103837Y0026081D03*
X0090844Y0041435D03*
X0090451Y0041041D03*
X0090057Y0040254D03*
X0089663Y0039860D03*
X0089270Y0039467D03*
X0088876Y0038679D03*
X0088482Y0038285D03*
X0088089Y0037892D03*
X0087301Y0036711D03*
X0086907Y0036317D03*
X0084152Y0032774D03*
X0083758Y0032380D03*
X0082970Y0031593D03*
X0082577Y0030805D03*
X0082183Y0030411D03*
X0081789Y0030018D03*
X0081789Y0029624D03*
X0081396Y0029230D03*
X0081002Y0028837D03*
X0081002Y0028443D03*
X0080608Y0028049D03*
X0080215Y0027656D03*
X0079821Y0026868D03*
X0079427Y0026474D03*
X0079033Y0025687D03*
X0078640Y0025293D03*
X0078246Y0024506D03*
X0077852Y0023719D03*
X0077065Y0022537D03*
X0077065Y0022144D03*
X0076671Y0021750D03*
X0076671Y0021356D03*
X0091238Y0042222D03*
X0091632Y0042616D03*
X0092026Y0043404D03*
X0092419Y0043797D03*
X0145175Y0015451D03*
X0145569Y0015844D03*
X0145963Y0016632D03*
X0150687Y0018994D03*
X0151081Y0018600D03*
X0151081Y0018207D03*
X0151474Y0017813D03*
X0152262Y0016632D03*
X0152656Y0016238D03*
X0152656Y0015844D03*
X0153049Y0015057D03*
X0039663Y0212301D03*
X0040057Y0212695D03*
X0040057Y0213089D03*
X0040451Y0213482D03*
X0040844Y0213876D03*
X0040844Y0214270D03*
X0041238Y0214663D03*
X0016435Y0381199D03*
X0016041Y0381593D03*
X0015648Y0382380D03*
X0015648Y0385923D03*
X0016041Y0386711D03*
X0016435Y0387104D03*
X0016829Y0387892D03*
X0018797Y0390648D03*
X0019191Y0391435D03*
X0019585Y0391829D03*
X0019585Y0392222D03*
X0019978Y0392616D03*
X0020372Y0399309D03*
X0019978Y0399703D03*
X0008561Y0411907D03*
X0008167Y0411514D03*
X0008167Y0411120D03*
X0007774Y0410726D03*
X0007774Y0406396D03*
X0008167Y0406002D03*
X0012498Y0415844D03*
X0056199Y0494978D03*
X0055805Y0495372D03*
X0055411Y0496159D03*
X0056199Y0501278D03*
X0062892Y0501278D03*
X0062498Y0494978D03*
X0072734Y0494978D03*
X0073128Y0494191D03*
X0073915Y0493010D03*
X0072341Y0498522D03*
X0072734Y0501671D03*
X0078246Y0502065D03*
X0080608Y0499309D03*
X0081002Y0498915D03*
X0081396Y0498128D03*
X0084939Y0494191D03*
X0092813Y0502852D03*
X0092813Y0503246D03*
X0101081Y0502459D03*
X0105411Y0495372D03*
X0110136Y0502065D03*
X0110136Y0502459D03*
X0110136Y0502852D03*
X0123915Y0502065D03*
X0127459Y0497734D03*
X0130215Y0494191D03*
X0150687Y0502852D03*
X0158561Y0502459D03*
X0161317Y0498915D03*
X0162498Y0497341D03*
X0165254Y0494191D03*
X0176671Y0495766D03*
X0176278Y0501278D03*
D17*
X0175687Y0501671D03*
X0176081Y0494978D03*
X0184742Y0494978D03*
X0184742Y0501278D03*
X0187892Y0503640D03*
X0198915Y0501671D03*
X0198522Y0498522D03*
X0209545Y0501671D03*
X0209545Y0502065D03*
X0213876Y0495766D03*
X0218600Y0501671D03*
X0218600Y0502065D03*
X0218600Y0502459D03*
X0240648Y0480411D03*
X0240254Y0471750D03*
X0239860Y0470963D03*
X0239467Y0470569D03*
X0239073Y0470175D03*
X0239073Y0469781D03*
X0238679Y0469388D03*
X0238285Y0468994D03*
X0237104Y0461514D03*
X0237498Y0461120D03*
X0248128Y0442222D03*
X0252459Y0445766D03*
X0252852Y0446159D03*
X0253246Y0446553D03*
X0253640Y0454821D03*
X0253246Y0455215D03*
X0243797Y0361514D03*
X0244191Y0361120D03*
X0244585Y0360333D03*
X0244978Y0359939D03*
X0245372Y0359545D03*
X0245766Y0359152D03*
X0246159Y0358758D03*
X0246553Y0358364D03*
X0246947Y0357970D03*
X0247734Y0356789D03*
X0248128Y0356396D03*
X0248522Y0356002D03*
X0248915Y0355608D03*
X0249309Y0355215D03*
X0253640Y0355608D03*
X0254033Y0356002D03*
X0254427Y0356396D03*
X0254821Y0356789D03*
X0254821Y0357183D03*
X0255215Y0357577D03*
X0255608Y0357970D03*
X0256002Y0358364D03*
X0256396Y0358758D03*
X0256789Y0359152D03*
X0256789Y0359545D03*
X0257183Y0359939D03*
X0257577Y0360333D03*
X0257970Y0360726D03*
X0257970Y0361120D03*
X0246553Y0258758D03*
X0244978Y0256396D03*
X0243797Y0254821D03*
X0243404Y0254427D03*
X0242616Y0253246D03*
X0241829Y0252065D03*
X0241435Y0251671D03*
X0241041Y0251278D03*
X0240648Y0250884D03*
X0240254Y0250490D03*
X0239860Y0249703D03*
X0239467Y0249309D03*
X0239073Y0248915D03*
X0237892Y0247341D03*
X0235923Y0244585D03*
X0235530Y0244191D03*
X0234742Y0243010D03*
X0234348Y0242616D03*
X0233955Y0241829D03*
X0170963Y0394585D03*
X0171750Y0395766D03*
X0172144Y0396159D03*
X0172931Y0397341D03*
X0173325Y0397734D03*
X0174112Y0398915D03*
X0174506Y0399309D03*
X0177262Y0402852D03*
X0177656Y0403246D03*
X0178049Y0403640D03*
X0178443Y0404427D03*
X0178837Y0404821D03*
X0179624Y0406002D03*
X0180018Y0406396D03*
X0180411Y0406789D03*
X0181199Y0407970D03*
X0181986Y0409152D03*
X0165057Y0494585D03*
X0158758Y0501671D03*
X0158758Y0502065D03*
X0150490Y0502459D03*
X0130018Y0494978D03*
X0130018Y0494585D03*
X0124112Y0501278D03*
X0124112Y0501671D03*
X0109939Y0501671D03*
X0109939Y0501278D03*
X0105608Y0495766D03*
X0101278Y0501671D03*
X0101278Y0502065D03*
X0093010Y0502459D03*
X0084742Y0494585D03*
X0078443Y0501671D03*
X0062301Y0501671D03*
X0056789Y0501671D03*
X0012301Y0415451D03*
X0019388Y0400490D03*
X0019781Y0400096D03*
X0018994Y0391041D03*
X0018600Y0390254D03*
X0018207Y0389860D03*
X0017813Y0389467D03*
X0017419Y0389073D03*
X0017419Y0388679D03*
X0017026Y0388285D03*
X0016632Y0387498D03*
X0022144Y0377262D03*
X0039467Y0211907D03*
X0039073Y0211514D03*
X0038679Y0211120D03*
X0038285Y0210726D03*
X0091829Y0043010D03*
X0091041Y0041829D03*
X0090254Y0040648D03*
X0089073Y0039073D03*
X0087892Y0037498D03*
X0087498Y0037104D03*
X0086711Y0035923D03*
X0086317Y0035530D03*
X0085923Y0035136D03*
X0085530Y0034742D03*
X0085136Y0034348D03*
X0085136Y0033955D03*
X0084742Y0033561D03*
X0084348Y0033167D03*
X0083561Y0031986D03*
X0082774Y0031199D03*
X0080018Y0027262D03*
X0079230Y0026081D03*
X0104033Y0025687D03*
X0104033Y0025293D03*
X0104033Y0024900D03*
X0113876Y0025293D03*
X0118994Y0025687D03*
X0130805Y0025293D03*
X0130805Y0024900D03*
X0140648Y0025293D03*
X0140648Y0025687D03*
X0152852Y0015451D03*
X0157577Y0025293D03*
X0157577Y0025687D03*
X0162695Y0017813D03*
X0167419Y0024900D03*
X0167419Y0025293D03*
X0176081Y0020963D03*
X0179230Y0016238D03*
X0278443Y0037498D03*
X0149309Y0304427D03*
D18*
X0149900Y0303246D03*
X0132183Y0306396D03*
X0145963Y0492616D03*
X0158167Y0503640D03*
X0214073Y0494191D03*
X0243207Y0363089D03*
X0246750Y0259939D03*
X0162498Y0016238D03*
X0135726Y0016238D03*
X0108955Y0016238D03*
X0092419Y0044978D03*
X0022734Y0376868D03*
X0012892Y0416238D03*
X0085726Y0492616D03*
D19*
X0084545Y0494978D03*
X0078640Y0501278D03*
X0092813Y0501671D03*
X0092813Y0502065D03*
X0101474Y0501278D03*
X0101474Y0500884D03*
X0105411Y0496159D03*
X0109742Y0500884D03*
X0124309Y0500884D03*
X0129821Y0495372D03*
X0150687Y0501671D03*
X0150687Y0502065D03*
X0158955Y0501278D03*
X0164860Y0495372D03*
X0164860Y0494978D03*
X0185333Y0501671D03*
X0209742Y0501278D03*
X0209742Y0500884D03*
X0214073Y0496159D03*
X0218404Y0501278D03*
X0240057Y0480805D03*
X0251868Y0445372D03*
X0248325Y0442616D03*
X0247144Y0357577D03*
X0247537Y0357183D03*
X0251474Y0352852D03*
X0149112Y0304821D03*
X0148719Y0305215D03*
X0136120Y0242222D03*
X0038089Y0210333D03*
X0037695Y0209939D03*
X0006593Y0204821D03*
X0016829Y0380805D03*
X0008561Y0405608D03*
X0008955Y0412301D03*
X0009348Y0412695D03*
X0059348Y0503640D03*
X0088089Y0472144D03*
X0104230Y0024506D03*
X0104230Y0024112D03*
X0108955Y0018600D03*
X0108955Y0018207D03*
X0113679Y0024506D03*
X0113679Y0024900D03*
X0122341Y0021356D03*
X0122341Y0020963D03*
X0122341Y0020569D03*
X0131002Y0024112D03*
X0131002Y0024506D03*
X0135726Y0018600D03*
X0135726Y0018207D03*
X0140451Y0024112D03*
X0140451Y0024506D03*
X0140451Y0024900D03*
X0149112Y0020963D03*
X0157774Y0024506D03*
X0157774Y0024900D03*
X0162498Y0018207D03*
X0167222Y0024112D03*
X0167222Y0024506D03*
D20*
X0167026Y0023719D03*
X0167026Y0023325D03*
X0162695Y0018600D03*
X0157970Y0023719D03*
X0157970Y0024112D03*
X0149309Y0020569D03*
X0148915Y0021356D03*
X0140254Y0023325D03*
X0140254Y0023719D03*
X0131199Y0023719D03*
X0113482Y0023719D03*
X0113482Y0024112D03*
X0104427Y0023719D03*
X0104427Y0023325D03*
X0176081Y0021356D03*
X0176081Y0020569D03*
X0148128Y0305608D03*
X0237892Y0460726D03*
X0239467Y0481199D03*
X0252852Y0455608D03*
X0251278Y0444978D03*
X0218207Y0500490D03*
X0218207Y0500884D03*
X0209939Y0500490D03*
X0209939Y0500096D03*
X0175293Y0494585D03*
X0164663Y0495766D03*
X0159152Y0500884D03*
X0150490Y0501278D03*
X0129624Y0496159D03*
X0129624Y0495766D03*
X0124506Y0500490D03*
X0109545Y0500490D03*
X0109545Y0500096D03*
X0105608Y0496553D03*
X0101671Y0499703D03*
X0101671Y0500096D03*
X0101671Y0500490D03*
X0084348Y0495372D03*
X0078837Y0500490D03*
X0078837Y0500884D03*
X0060333Y0477656D03*
X0018994Y0400884D03*
X0011907Y0415057D03*
X0009152Y0405215D03*
X0017419Y0380411D03*
X0006789Y0205215D03*
D21*
X0008955Y0206789D03*
X0009742Y0207183D03*
X0010136Y0207577D03*
X0010923Y0207970D03*
X0032577Y0206789D03*
X0036907Y0209545D03*
X0018010Y0380018D03*
X0018404Y0401278D03*
X0011711Y0414663D03*
X0011317Y0414270D03*
X0010923Y0413876D03*
X0010530Y0413482D03*
X0009742Y0413089D03*
X0079033Y0500096D03*
X0084152Y0496159D03*
X0084152Y0495766D03*
X0092813Y0501278D03*
X0101868Y0499309D03*
X0109348Y0499703D03*
X0124703Y0500096D03*
X0129427Y0496553D03*
X0159348Y0500096D03*
X0159348Y0500490D03*
X0164467Y0496159D03*
X0170766Y0492616D03*
X0210136Y0499703D03*
X0214073Y0496553D03*
X0218010Y0499703D03*
X0218010Y0500096D03*
X0238482Y0460333D03*
X0248719Y0443010D03*
X0250687Y0444585D03*
X0251474Y0353246D03*
X0147537Y0306002D03*
X0260136Y0041829D03*
X0175884Y0021750D03*
X0175884Y0020175D03*
X0166829Y0022537D03*
X0166829Y0022931D03*
X0162498Y0018994D03*
X0158167Y0022931D03*
X0158167Y0023325D03*
X0149112Y0021750D03*
X0149112Y0020175D03*
X0140057Y0022931D03*
X0135726Y0018994D03*
X0131396Y0022537D03*
X0131396Y0022931D03*
X0131396Y0023325D03*
X0122341Y0021750D03*
X0122341Y0020175D03*
X0113285Y0022931D03*
X0113285Y0023325D03*
X0108955Y0018994D03*
X0104624Y0022931D03*
D22*
X0122341Y0022537D03*
X0122341Y0022144D03*
X0122341Y0019781D03*
X0122341Y0019388D03*
X0149112Y0022144D03*
X0149112Y0022537D03*
X0175884Y0022537D03*
X0175884Y0022144D03*
X0175884Y0019781D03*
X0175884Y0019388D03*
X0036120Y0209152D03*
X0007380Y0337104D03*
X0021553Y0377656D03*
X0009742Y0404821D03*
X0059348Y0503246D03*
X0083758Y0496947D03*
X0159742Y0499309D03*
X0187695Y0503246D03*
X0249506Y0443797D03*
X0251474Y0354033D03*
X0126278Y0309545D03*
D23*
X0167419Y0387498D03*
X0158364Y0492616D03*
X0155215Y0492616D03*
X0152459Y0498915D03*
X0152065Y0500096D03*
X0152065Y0500490D03*
X0130805Y0500490D03*
X0130805Y0500096D03*
X0130805Y0499703D03*
X0130805Y0499309D03*
X0130805Y0498915D03*
X0130805Y0498522D03*
X0130805Y0498128D03*
X0130805Y0497734D03*
X0130805Y0497341D03*
X0130805Y0500884D03*
X0130805Y0501278D03*
X0130805Y0501671D03*
X0130805Y0502065D03*
X0130805Y0502459D03*
X0130805Y0502852D03*
X0130805Y0503246D03*
X0130805Y0503640D03*
X0130805Y0493010D03*
X0123325Y0503640D03*
X0110726Y0499309D03*
X0110726Y0498915D03*
X0110726Y0498522D03*
X0110726Y0498128D03*
X0110726Y0497734D03*
X0110726Y0497341D03*
X0110726Y0496947D03*
X0110726Y0496553D03*
X0110726Y0496159D03*
X0110726Y0495766D03*
X0110726Y0495372D03*
X0110726Y0494978D03*
X0110726Y0494585D03*
X0110726Y0494191D03*
X0110726Y0493797D03*
X0110726Y0493404D03*
X0110726Y0493010D03*
X0110726Y0492616D03*
X0105608Y0494191D03*
X0107183Y0497341D03*
X0100490Y0497341D03*
X0100490Y0497734D03*
X0100490Y0498128D03*
X0100490Y0498522D03*
X0100490Y0498915D03*
X0100490Y0496947D03*
X0100490Y0496553D03*
X0100490Y0496159D03*
X0100490Y0495766D03*
X0100490Y0495372D03*
X0100490Y0494978D03*
X0100490Y0494585D03*
X0100490Y0494191D03*
X0100490Y0493797D03*
X0100490Y0493404D03*
X0100490Y0493010D03*
X0100490Y0492616D03*
X0097341Y0492616D03*
X0094585Y0499703D03*
X0094191Y0500884D03*
X0091435Y0500490D03*
X0088285Y0492616D03*
X0077656Y0492616D03*
X0077656Y0493404D03*
X0077656Y0493797D03*
X0077656Y0494191D03*
X0077656Y0494585D03*
X0077656Y0494978D03*
X0077656Y0495372D03*
X0077656Y0495766D03*
X0077656Y0496159D03*
X0077656Y0496553D03*
X0077656Y0496947D03*
X0077656Y0497341D03*
X0077656Y0497734D03*
X0077656Y0498128D03*
X0077656Y0498522D03*
X0077656Y0498915D03*
X0077656Y0499309D03*
X0077656Y0503640D03*
X0190254Y0494978D03*
X0211514Y0499309D03*
X0211907Y0498522D03*
X0212695Y0496947D03*
X0215451Y0496947D03*
X0215844Y0497734D03*
X0215844Y0498128D03*
X0216238Y0498915D03*
X0258364Y0362301D03*
X0251278Y0352065D03*
X0230805Y0235530D03*
X0133167Y0021750D03*
X0137104Y0019388D03*
X0111514Y0021750D03*
X0111120Y0020963D03*
D24*
X0149309Y0019388D03*
X0012695Y0208758D03*
X0007577Y0206002D03*
X0017419Y0401671D03*
X0059545Y0493404D03*
X0069388Y0497341D03*
X0116632Y0497341D03*
X0116632Y0497734D03*
X0116632Y0498128D03*
X0116632Y0498522D03*
X0116632Y0498915D03*
X0171356Y0503640D03*
X0187498Y0493404D03*
X0139860Y0309545D03*
X0146159Y0306789D03*
X0127262Y0309152D03*
X0124506Y0310333D03*
X0123719Y0310726D03*
D25*
X0125293Y0309939D03*
X0118600Y0313482D03*
X0146947Y0306396D03*
X0125293Y0246159D03*
X0011514Y0208364D03*
X0007183Y0205608D03*
X0104821Y0022537D03*
X0104821Y0022144D03*
X0113089Y0022144D03*
X0113089Y0022537D03*
X0131593Y0022144D03*
X0139860Y0022144D03*
X0139860Y0022537D03*
X0149309Y0019781D03*
X0158364Y0022537D03*
X0251278Y0353640D03*
X0248915Y0443404D03*
X0250096Y0444191D03*
X0252065Y0456002D03*
X0239073Y0459939D03*
X0238679Y0481593D03*
X0195372Y0503640D03*
X0187498Y0493010D03*
X0164270Y0496553D03*
X0164270Y0496947D03*
X0159545Y0499703D03*
X0150490Y0500884D03*
X0129230Y0496947D03*
X0124900Y0499309D03*
X0124900Y0499703D03*
X0083955Y0496553D03*
X0079230Y0499703D03*
X0068994Y0503640D03*
X0059545Y0493010D03*
D26*
X0131199Y0492616D03*
X0166238Y0492616D03*
X0190254Y0495372D03*
X0190254Y0501278D03*
X0183167Y0411907D03*
X0167419Y0387104D03*
X0137104Y0241829D03*
X0230805Y0235136D03*
X0258364Y0362695D03*
X0258758Y0042222D03*
X0076868Y0020175D03*
X0005215Y0204033D03*
D27*
X0016632Y0333561D03*
X0078443Y0472931D03*
X0085530Y0474900D03*
X0149703Y0302852D03*
X0241829Y0457183D03*
X0263089Y0041829D03*
X0263089Y0039073D03*
X0279624Y0037104D03*
D28*
X0276474Y0037892D03*
X0121750Y0311514D03*
X0119781Y0312695D03*
X0032380Y0207183D03*
X0024112Y0333167D03*
X0020963Y0378443D03*
X0061514Y0477262D03*
X0059545Y0493797D03*
X0059545Y0502459D03*
X0070175Y0502459D03*
X0086317Y0472537D03*
X0172144Y0493404D03*
X0187498Y0493797D03*
X0187892Y0502459D03*
X0196553Y0502459D03*
X0196553Y0502065D03*
X0225687Y0502065D03*
X0225687Y0494191D03*
X0232380Y0484348D03*
X0236711Y0482380D03*
D29*
X0062892Y0476868D03*
X0022734Y0333561D03*
X0019191Y0211120D03*
X0275096Y0038285D03*
D30*
X0273522Y0038679D03*
X0031396Y0208364D03*
D31*
X0030411Y0208758D03*
X0272144Y0039073D03*
D32*
X0270175Y0039467D03*
X0080018Y0474112D03*
D33*
X0073719Y0474900D03*
X0135136Y0308758D03*
X0268207Y0039860D03*
D34*
X0266632Y0040254D03*
D35*
X0265057Y0040648D03*
X0019781Y0210333D03*
D36*
X0025490Y0209152D03*
X0132183Y0243797D03*
X0244781Y0458364D03*
X0245569Y0457970D03*
X0263679Y0041041D03*
D37*
X0261711Y0041435D03*
X0134152Y0243010D03*
X0120372Y0311907D03*
X0021159Y0378837D03*
X0020766Y0379230D03*
X0015254Y0402459D03*
X0012892Y0403640D03*
X0092813Y0495766D03*
X0092813Y0496159D03*
X0150687Y0495766D03*
X0172734Y0494191D03*
X0172734Y0502065D03*
X0233364Y0483955D03*
X0234152Y0483561D03*
X0235726Y0482774D03*
X0249506Y0456789D03*
D38*
X0251081Y0456396D03*
X0225096Y0497341D03*
X0225096Y0497734D03*
X0225096Y0498128D03*
X0225096Y0498522D03*
X0225096Y0498915D03*
X0195963Y0497341D03*
X0195963Y0496947D03*
X0195963Y0503246D03*
X0251474Y0354427D03*
X0135333Y0242616D03*
X0125884Y0245766D03*
X0123128Y0311120D03*
X0021159Y0378049D03*
X0019191Y0379624D03*
X0069585Y0496947D03*
X0069585Y0503246D03*
X0018797Y0211514D03*
X0007774Y0206396D03*
D39*
X0031986Y0207577D03*
X0242222Y0459152D03*
D40*
X0031593Y0207970D03*
D41*
X0014073Y0209152D03*
X0119978Y0312301D03*
X0187695Y0494191D03*
X0187695Y0502065D03*
X0172341Y0502852D03*
X0070372Y0502065D03*
X0012104Y0404033D03*
D42*
X0020569Y0209545D03*
D43*
X0019978Y0209939D03*
X0081396Y0473719D03*
D44*
X0019388Y0210726D03*
D45*
X0128443Y0244978D03*
X0133167Y0243404D03*
X0139467Y0309152D03*
D46*
X0130215Y0244585D03*
X0131002Y0244191D03*
X0020766Y0333955D03*
X0064860Y0476474D03*
D47*
X0059545Y0494191D03*
X0059545Y0502065D03*
X0093010Y0496553D03*
X0150490Y0496553D03*
X0150490Y0496159D03*
X0172537Y0493797D03*
X0172537Y0502459D03*
X0187498Y0494585D03*
X0126868Y0245372D03*
D48*
X0132577Y0306789D03*
X0144781Y0307183D03*
X0240451Y0459545D03*
X0225490Y0492616D03*
X0225490Y0493010D03*
X0225490Y0493404D03*
X0225490Y0493797D03*
X0225490Y0502459D03*
X0225490Y0502852D03*
X0225490Y0503246D03*
X0225490Y0503640D03*
X0196356Y0502852D03*
X0196356Y0498128D03*
X0171947Y0503246D03*
X0117222Y0503246D03*
X0117222Y0502852D03*
X0117222Y0502459D03*
X0117222Y0502065D03*
X0117222Y0503640D03*
X0117222Y0494191D03*
X0117222Y0493797D03*
X0117222Y0493404D03*
X0117222Y0493010D03*
X0117222Y0492616D03*
X0069978Y0498128D03*
X0069978Y0502852D03*
X0016435Y0402065D03*
D49*
X0084939Y0472931D03*
X0133364Y0307183D03*
X0247931Y0457183D03*
D50*
X0137301Y0307577D03*
X0136514Y0307970D03*
X0136120Y0308364D03*
X0015648Y0335136D03*
D51*
X0059348Y0478049D03*
X0068797Y0476868D03*
X0105411Y0493797D03*
X0117222Y0311514D03*
X0214073Y0493797D03*
X0247537Y0441435D03*
D52*
X0237498Y0481986D03*
X0196159Y0497734D03*
X0187892Y0502852D03*
X0171750Y0493010D03*
X0251278Y0354821D03*
X0119388Y0313089D03*
X0069781Y0497734D03*
X0059545Y0502852D03*
X0010726Y0404427D03*
D53*
X0019388Y0334348D03*
D54*
X0017616Y0334742D03*
D55*
X0013482Y0335530D03*
D56*
X0012104Y0335923D03*
X0082970Y0473325D03*
D57*
X0010726Y0336317D03*
X0243797Y0458758D03*
X0246553Y0457577D03*
D58*
X0009348Y0336711D03*
D59*
X0014663Y0402852D03*
X0013876Y0403246D03*
X0059545Y0494585D03*
X0093010Y0495372D03*
X0137498Y0502065D03*
X0137498Y0502459D03*
X0137498Y0502852D03*
X0137498Y0503246D03*
X0137498Y0503640D03*
X0150490Y0495372D03*
X0234742Y0483167D03*
D60*
X0077459Y0474506D03*
X0070372Y0475293D03*
D61*
X0068404Y0475687D03*
D62*
X0066829Y0476081D03*
D63*
X0226278Y0435726D03*
X0226081Y0362104D03*
D64*
X0207774Y0143207D03*
X0207774Y0096356D03*
X0244978Y0096159D03*
X0245175Y0143010D03*
X0148719Y0143010D03*
X0148719Y0096356D03*
X0111120Y0096159D03*
X0111120Y0143207D03*
X0073915Y0143207D03*
X0073915Y0096356D03*
X0036317Y0096356D03*
X0036514Y0143207D03*
M02*
