G75*
%MOIN*%
%OFA0B0*%
%FSLAX25Y25*%
%IPPOS*%
%LPD*%
%AMOC8*
5,1,8,0,0,1.08239X$1,22.5*
%
%ADD10C,0.00039*%
%ADD11C,0.00000*%
%ADD12C,0.29984*%
%ADD13C,0.29098*%
%ADD14C,0.01200*%
D10*
X0003246Y0005215D02*
X0281543Y0005215D01*
X0281543Y0511120D01*
X0003246Y0511120D01*
X0003246Y0005215D01*
D11*
X0036464Y0266780D02*
X0036469Y0267215D01*
X0036485Y0267649D01*
X0036512Y0268083D01*
X0036549Y0268517D01*
X0036597Y0268949D01*
X0036656Y0269380D01*
X0036725Y0269809D01*
X0036804Y0270236D01*
X0036894Y0270662D01*
X0036995Y0271085D01*
X0037106Y0271505D01*
X0037227Y0271923D01*
X0037358Y0272337D01*
X0037500Y0272749D01*
X0037651Y0273156D01*
X0037813Y0273560D01*
X0037984Y0273960D01*
X0038165Y0274355D01*
X0038356Y0274746D01*
X0038556Y0275132D01*
X0038766Y0275513D01*
X0038985Y0275888D01*
X0039213Y0276259D01*
X0039450Y0276623D01*
X0039696Y0276982D01*
X0039951Y0277334D01*
X0040214Y0277680D01*
X0040486Y0278020D01*
X0040766Y0278352D01*
X0041054Y0278678D01*
X0041350Y0278997D01*
X0041653Y0279308D01*
X0041964Y0279611D01*
X0042283Y0279907D01*
X0042609Y0280195D01*
X0042941Y0280475D01*
X0043281Y0280747D01*
X0043627Y0281010D01*
X0043979Y0281265D01*
X0044338Y0281511D01*
X0044702Y0281748D01*
X0045073Y0281976D01*
X0045448Y0282195D01*
X0045829Y0282405D01*
X0046215Y0282605D01*
X0046606Y0282796D01*
X0047001Y0282977D01*
X0047401Y0283148D01*
X0047805Y0283310D01*
X0048212Y0283461D01*
X0048624Y0283603D01*
X0049038Y0283734D01*
X0049456Y0283855D01*
X0049876Y0283966D01*
X0050299Y0284067D01*
X0050725Y0284157D01*
X0051152Y0284236D01*
X0051581Y0284305D01*
X0052012Y0284364D01*
X0052444Y0284412D01*
X0052878Y0284449D01*
X0053312Y0284476D01*
X0053746Y0284492D01*
X0054181Y0284497D01*
X0054616Y0284492D01*
X0055050Y0284476D01*
X0055484Y0284449D01*
X0055918Y0284412D01*
X0056350Y0284364D01*
X0056781Y0284305D01*
X0057210Y0284236D01*
X0057637Y0284157D01*
X0058063Y0284067D01*
X0058486Y0283966D01*
X0058906Y0283855D01*
X0059324Y0283734D01*
X0059738Y0283603D01*
X0060150Y0283461D01*
X0060557Y0283310D01*
X0060961Y0283148D01*
X0061361Y0282977D01*
X0061756Y0282796D01*
X0062147Y0282605D01*
X0062533Y0282405D01*
X0062914Y0282195D01*
X0063289Y0281976D01*
X0063660Y0281748D01*
X0064024Y0281511D01*
X0064383Y0281265D01*
X0064735Y0281010D01*
X0065081Y0280747D01*
X0065421Y0280475D01*
X0065753Y0280195D01*
X0066079Y0279907D01*
X0066398Y0279611D01*
X0066709Y0279308D01*
X0067012Y0278997D01*
X0067308Y0278678D01*
X0067596Y0278352D01*
X0067876Y0278020D01*
X0068148Y0277680D01*
X0068411Y0277334D01*
X0068666Y0276982D01*
X0068912Y0276623D01*
X0069149Y0276259D01*
X0069377Y0275888D01*
X0069596Y0275513D01*
X0069806Y0275132D01*
X0070006Y0274746D01*
X0070197Y0274355D01*
X0070378Y0273960D01*
X0070549Y0273560D01*
X0070711Y0273156D01*
X0070862Y0272749D01*
X0071004Y0272337D01*
X0071135Y0271923D01*
X0071256Y0271505D01*
X0071367Y0271085D01*
X0071468Y0270662D01*
X0071558Y0270236D01*
X0071637Y0269809D01*
X0071706Y0269380D01*
X0071765Y0268949D01*
X0071813Y0268517D01*
X0071850Y0268083D01*
X0071877Y0267649D01*
X0071893Y0267215D01*
X0071898Y0266780D01*
X0071893Y0266345D01*
X0071877Y0265911D01*
X0071850Y0265477D01*
X0071813Y0265043D01*
X0071765Y0264611D01*
X0071706Y0264180D01*
X0071637Y0263751D01*
X0071558Y0263324D01*
X0071468Y0262898D01*
X0071367Y0262475D01*
X0071256Y0262055D01*
X0071135Y0261637D01*
X0071004Y0261223D01*
X0070862Y0260811D01*
X0070711Y0260404D01*
X0070549Y0260000D01*
X0070378Y0259600D01*
X0070197Y0259205D01*
X0070006Y0258814D01*
X0069806Y0258428D01*
X0069596Y0258047D01*
X0069377Y0257672D01*
X0069149Y0257301D01*
X0068912Y0256937D01*
X0068666Y0256578D01*
X0068411Y0256226D01*
X0068148Y0255880D01*
X0067876Y0255540D01*
X0067596Y0255208D01*
X0067308Y0254882D01*
X0067012Y0254563D01*
X0066709Y0254252D01*
X0066398Y0253949D01*
X0066079Y0253653D01*
X0065753Y0253365D01*
X0065421Y0253085D01*
X0065081Y0252813D01*
X0064735Y0252550D01*
X0064383Y0252295D01*
X0064024Y0252049D01*
X0063660Y0251812D01*
X0063289Y0251584D01*
X0062914Y0251365D01*
X0062533Y0251155D01*
X0062147Y0250955D01*
X0061756Y0250764D01*
X0061361Y0250583D01*
X0060961Y0250412D01*
X0060557Y0250250D01*
X0060150Y0250099D01*
X0059738Y0249957D01*
X0059324Y0249826D01*
X0058906Y0249705D01*
X0058486Y0249594D01*
X0058063Y0249493D01*
X0057637Y0249403D01*
X0057210Y0249324D01*
X0056781Y0249255D01*
X0056350Y0249196D01*
X0055918Y0249148D01*
X0055484Y0249111D01*
X0055050Y0249084D01*
X0054616Y0249068D01*
X0054181Y0249063D01*
X0053746Y0249068D01*
X0053312Y0249084D01*
X0052878Y0249111D01*
X0052444Y0249148D01*
X0052012Y0249196D01*
X0051581Y0249255D01*
X0051152Y0249324D01*
X0050725Y0249403D01*
X0050299Y0249493D01*
X0049876Y0249594D01*
X0049456Y0249705D01*
X0049038Y0249826D01*
X0048624Y0249957D01*
X0048212Y0250099D01*
X0047805Y0250250D01*
X0047401Y0250412D01*
X0047001Y0250583D01*
X0046606Y0250764D01*
X0046215Y0250955D01*
X0045829Y0251155D01*
X0045448Y0251365D01*
X0045073Y0251584D01*
X0044702Y0251812D01*
X0044338Y0252049D01*
X0043979Y0252295D01*
X0043627Y0252550D01*
X0043281Y0252813D01*
X0042941Y0253085D01*
X0042609Y0253365D01*
X0042283Y0253653D01*
X0041964Y0253949D01*
X0041653Y0254252D01*
X0041350Y0254563D01*
X0041054Y0254882D01*
X0040766Y0255208D01*
X0040486Y0255540D01*
X0040214Y0255880D01*
X0039951Y0256226D01*
X0039696Y0256578D01*
X0039450Y0256937D01*
X0039213Y0257301D01*
X0038985Y0257672D01*
X0038766Y0258047D01*
X0038556Y0258428D01*
X0038356Y0258814D01*
X0038165Y0259205D01*
X0037984Y0259600D01*
X0037813Y0260000D01*
X0037651Y0260404D01*
X0037500Y0260811D01*
X0037358Y0261223D01*
X0037227Y0261637D01*
X0037106Y0262055D01*
X0036995Y0262475D01*
X0036894Y0262898D01*
X0036804Y0263324D01*
X0036725Y0263751D01*
X0036656Y0264180D01*
X0036597Y0264611D01*
X0036549Y0265043D01*
X0036512Y0265477D01*
X0036485Y0265911D01*
X0036469Y0266345D01*
X0036464Y0266780D01*
X0178984Y0435677D02*
X0178986Y0435835D01*
X0178992Y0435993D01*
X0179002Y0436151D01*
X0179016Y0436309D01*
X0179034Y0436466D01*
X0179055Y0436623D01*
X0179081Y0436779D01*
X0179111Y0436935D01*
X0179144Y0437090D01*
X0179182Y0437243D01*
X0179223Y0437396D01*
X0179268Y0437548D01*
X0179317Y0437699D01*
X0179370Y0437848D01*
X0179426Y0437996D01*
X0179486Y0438142D01*
X0179550Y0438287D01*
X0179618Y0438430D01*
X0179689Y0438572D01*
X0179763Y0438712D01*
X0179841Y0438849D01*
X0179923Y0438985D01*
X0180007Y0439119D01*
X0180096Y0439250D01*
X0180187Y0439379D01*
X0180282Y0439506D01*
X0180379Y0439631D01*
X0180480Y0439753D01*
X0180584Y0439872D01*
X0180691Y0439989D01*
X0180801Y0440103D01*
X0180914Y0440214D01*
X0181029Y0440323D01*
X0181147Y0440428D01*
X0181268Y0440530D01*
X0181391Y0440630D01*
X0181517Y0440726D01*
X0181645Y0440819D01*
X0181775Y0440909D01*
X0181908Y0440995D01*
X0182043Y0441079D01*
X0182179Y0441158D01*
X0182318Y0441235D01*
X0182459Y0441307D01*
X0182601Y0441377D01*
X0182745Y0441442D01*
X0182891Y0441504D01*
X0183038Y0441562D01*
X0183187Y0441617D01*
X0183337Y0441668D01*
X0183488Y0441715D01*
X0183640Y0441758D01*
X0183793Y0441797D01*
X0183948Y0441833D01*
X0184103Y0441864D01*
X0184259Y0441892D01*
X0184415Y0441916D01*
X0184572Y0441936D01*
X0184730Y0441952D01*
X0184887Y0441964D01*
X0185046Y0441972D01*
X0185204Y0441976D01*
X0185362Y0441976D01*
X0185520Y0441972D01*
X0185679Y0441964D01*
X0185836Y0441952D01*
X0185994Y0441936D01*
X0186151Y0441916D01*
X0186307Y0441892D01*
X0186463Y0441864D01*
X0186618Y0441833D01*
X0186773Y0441797D01*
X0186926Y0441758D01*
X0187078Y0441715D01*
X0187229Y0441668D01*
X0187379Y0441617D01*
X0187528Y0441562D01*
X0187675Y0441504D01*
X0187821Y0441442D01*
X0187965Y0441377D01*
X0188107Y0441307D01*
X0188248Y0441235D01*
X0188387Y0441158D01*
X0188523Y0441079D01*
X0188658Y0440995D01*
X0188791Y0440909D01*
X0188921Y0440819D01*
X0189049Y0440726D01*
X0189175Y0440630D01*
X0189298Y0440530D01*
X0189419Y0440428D01*
X0189537Y0440323D01*
X0189652Y0440214D01*
X0189765Y0440103D01*
X0189875Y0439989D01*
X0189982Y0439872D01*
X0190086Y0439753D01*
X0190187Y0439631D01*
X0190284Y0439506D01*
X0190379Y0439379D01*
X0190470Y0439250D01*
X0190559Y0439119D01*
X0190643Y0438985D01*
X0190725Y0438849D01*
X0190803Y0438712D01*
X0190877Y0438572D01*
X0190948Y0438430D01*
X0191016Y0438287D01*
X0191080Y0438142D01*
X0191140Y0437996D01*
X0191196Y0437848D01*
X0191249Y0437699D01*
X0191298Y0437548D01*
X0191343Y0437396D01*
X0191384Y0437243D01*
X0191422Y0437090D01*
X0191455Y0436935D01*
X0191485Y0436779D01*
X0191511Y0436623D01*
X0191532Y0436466D01*
X0191550Y0436309D01*
X0191564Y0436151D01*
X0191574Y0435993D01*
X0191580Y0435835D01*
X0191582Y0435677D01*
X0191580Y0435519D01*
X0191574Y0435361D01*
X0191564Y0435203D01*
X0191550Y0435045D01*
X0191532Y0434888D01*
X0191511Y0434731D01*
X0191485Y0434575D01*
X0191455Y0434419D01*
X0191422Y0434264D01*
X0191384Y0434111D01*
X0191343Y0433958D01*
X0191298Y0433806D01*
X0191249Y0433655D01*
X0191196Y0433506D01*
X0191140Y0433358D01*
X0191080Y0433212D01*
X0191016Y0433067D01*
X0190948Y0432924D01*
X0190877Y0432782D01*
X0190803Y0432642D01*
X0190725Y0432505D01*
X0190643Y0432369D01*
X0190559Y0432235D01*
X0190470Y0432104D01*
X0190379Y0431975D01*
X0190284Y0431848D01*
X0190187Y0431723D01*
X0190086Y0431601D01*
X0189982Y0431482D01*
X0189875Y0431365D01*
X0189765Y0431251D01*
X0189652Y0431140D01*
X0189537Y0431031D01*
X0189419Y0430926D01*
X0189298Y0430824D01*
X0189175Y0430724D01*
X0189049Y0430628D01*
X0188921Y0430535D01*
X0188791Y0430445D01*
X0188658Y0430359D01*
X0188523Y0430275D01*
X0188387Y0430196D01*
X0188248Y0430119D01*
X0188107Y0430047D01*
X0187965Y0429977D01*
X0187821Y0429912D01*
X0187675Y0429850D01*
X0187528Y0429792D01*
X0187379Y0429737D01*
X0187229Y0429686D01*
X0187078Y0429639D01*
X0186926Y0429596D01*
X0186773Y0429557D01*
X0186618Y0429521D01*
X0186463Y0429490D01*
X0186307Y0429462D01*
X0186151Y0429438D01*
X0185994Y0429418D01*
X0185836Y0429402D01*
X0185679Y0429390D01*
X0185520Y0429382D01*
X0185362Y0429378D01*
X0185204Y0429378D01*
X0185046Y0429382D01*
X0184887Y0429390D01*
X0184730Y0429402D01*
X0184572Y0429418D01*
X0184415Y0429438D01*
X0184259Y0429462D01*
X0184103Y0429490D01*
X0183948Y0429521D01*
X0183793Y0429557D01*
X0183640Y0429596D01*
X0183488Y0429639D01*
X0183337Y0429686D01*
X0183187Y0429737D01*
X0183038Y0429792D01*
X0182891Y0429850D01*
X0182745Y0429912D01*
X0182601Y0429977D01*
X0182459Y0430047D01*
X0182318Y0430119D01*
X0182179Y0430196D01*
X0182043Y0430275D01*
X0181908Y0430359D01*
X0181775Y0430445D01*
X0181645Y0430535D01*
X0181517Y0430628D01*
X0181391Y0430724D01*
X0181268Y0430824D01*
X0181147Y0430926D01*
X0181029Y0431031D01*
X0180914Y0431140D01*
X0180801Y0431251D01*
X0180691Y0431365D01*
X0180584Y0431482D01*
X0180480Y0431601D01*
X0180379Y0431723D01*
X0180282Y0431848D01*
X0180187Y0431975D01*
X0180096Y0432104D01*
X0180007Y0432235D01*
X0179923Y0432369D01*
X0179841Y0432505D01*
X0179763Y0432642D01*
X0179689Y0432782D01*
X0179618Y0432924D01*
X0179550Y0433067D01*
X0179486Y0433212D01*
X0179426Y0433358D01*
X0179370Y0433506D01*
X0179317Y0433655D01*
X0179268Y0433806D01*
X0179223Y0433958D01*
X0179182Y0434111D01*
X0179144Y0434264D01*
X0179111Y0434419D01*
X0179081Y0434575D01*
X0179055Y0434731D01*
X0179034Y0434888D01*
X0179016Y0435045D01*
X0179002Y0435203D01*
X0178992Y0435361D01*
X0178986Y0435519D01*
X0178984Y0435677D01*
X0208905Y0266780D02*
X0208910Y0267215D01*
X0208926Y0267649D01*
X0208953Y0268083D01*
X0208990Y0268517D01*
X0209038Y0268949D01*
X0209097Y0269380D01*
X0209166Y0269809D01*
X0209245Y0270236D01*
X0209335Y0270662D01*
X0209436Y0271085D01*
X0209547Y0271505D01*
X0209668Y0271923D01*
X0209799Y0272337D01*
X0209941Y0272749D01*
X0210092Y0273156D01*
X0210254Y0273560D01*
X0210425Y0273960D01*
X0210606Y0274355D01*
X0210797Y0274746D01*
X0210997Y0275132D01*
X0211207Y0275513D01*
X0211426Y0275888D01*
X0211654Y0276259D01*
X0211891Y0276623D01*
X0212137Y0276982D01*
X0212392Y0277334D01*
X0212655Y0277680D01*
X0212927Y0278020D01*
X0213207Y0278352D01*
X0213495Y0278678D01*
X0213791Y0278997D01*
X0214094Y0279308D01*
X0214405Y0279611D01*
X0214724Y0279907D01*
X0215050Y0280195D01*
X0215382Y0280475D01*
X0215722Y0280747D01*
X0216068Y0281010D01*
X0216420Y0281265D01*
X0216779Y0281511D01*
X0217143Y0281748D01*
X0217514Y0281976D01*
X0217889Y0282195D01*
X0218270Y0282405D01*
X0218656Y0282605D01*
X0219047Y0282796D01*
X0219442Y0282977D01*
X0219842Y0283148D01*
X0220246Y0283310D01*
X0220653Y0283461D01*
X0221065Y0283603D01*
X0221479Y0283734D01*
X0221897Y0283855D01*
X0222317Y0283966D01*
X0222740Y0284067D01*
X0223166Y0284157D01*
X0223593Y0284236D01*
X0224022Y0284305D01*
X0224453Y0284364D01*
X0224885Y0284412D01*
X0225319Y0284449D01*
X0225753Y0284476D01*
X0226187Y0284492D01*
X0226622Y0284497D01*
X0227057Y0284492D01*
X0227491Y0284476D01*
X0227925Y0284449D01*
X0228359Y0284412D01*
X0228791Y0284364D01*
X0229222Y0284305D01*
X0229651Y0284236D01*
X0230078Y0284157D01*
X0230504Y0284067D01*
X0230927Y0283966D01*
X0231347Y0283855D01*
X0231765Y0283734D01*
X0232179Y0283603D01*
X0232591Y0283461D01*
X0232998Y0283310D01*
X0233402Y0283148D01*
X0233802Y0282977D01*
X0234197Y0282796D01*
X0234588Y0282605D01*
X0234974Y0282405D01*
X0235355Y0282195D01*
X0235730Y0281976D01*
X0236101Y0281748D01*
X0236465Y0281511D01*
X0236824Y0281265D01*
X0237176Y0281010D01*
X0237522Y0280747D01*
X0237862Y0280475D01*
X0238194Y0280195D01*
X0238520Y0279907D01*
X0238839Y0279611D01*
X0239150Y0279308D01*
X0239453Y0278997D01*
X0239749Y0278678D01*
X0240037Y0278352D01*
X0240317Y0278020D01*
X0240589Y0277680D01*
X0240852Y0277334D01*
X0241107Y0276982D01*
X0241353Y0276623D01*
X0241590Y0276259D01*
X0241818Y0275888D01*
X0242037Y0275513D01*
X0242247Y0275132D01*
X0242447Y0274746D01*
X0242638Y0274355D01*
X0242819Y0273960D01*
X0242990Y0273560D01*
X0243152Y0273156D01*
X0243303Y0272749D01*
X0243445Y0272337D01*
X0243576Y0271923D01*
X0243697Y0271505D01*
X0243808Y0271085D01*
X0243909Y0270662D01*
X0243999Y0270236D01*
X0244078Y0269809D01*
X0244147Y0269380D01*
X0244206Y0268949D01*
X0244254Y0268517D01*
X0244291Y0268083D01*
X0244318Y0267649D01*
X0244334Y0267215D01*
X0244339Y0266780D01*
X0244334Y0266345D01*
X0244318Y0265911D01*
X0244291Y0265477D01*
X0244254Y0265043D01*
X0244206Y0264611D01*
X0244147Y0264180D01*
X0244078Y0263751D01*
X0243999Y0263324D01*
X0243909Y0262898D01*
X0243808Y0262475D01*
X0243697Y0262055D01*
X0243576Y0261637D01*
X0243445Y0261223D01*
X0243303Y0260811D01*
X0243152Y0260404D01*
X0242990Y0260000D01*
X0242819Y0259600D01*
X0242638Y0259205D01*
X0242447Y0258814D01*
X0242247Y0258428D01*
X0242037Y0258047D01*
X0241818Y0257672D01*
X0241590Y0257301D01*
X0241353Y0256937D01*
X0241107Y0256578D01*
X0240852Y0256226D01*
X0240589Y0255880D01*
X0240317Y0255540D01*
X0240037Y0255208D01*
X0239749Y0254882D01*
X0239453Y0254563D01*
X0239150Y0254252D01*
X0238839Y0253949D01*
X0238520Y0253653D01*
X0238194Y0253365D01*
X0237862Y0253085D01*
X0237522Y0252813D01*
X0237176Y0252550D01*
X0236824Y0252295D01*
X0236465Y0252049D01*
X0236101Y0251812D01*
X0235730Y0251584D01*
X0235355Y0251365D01*
X0234974Y0251155D01*
X0234588Y0250955D01*
X0234197Y0250764D01*
X0233802Y0250583D01*
X0233402Y0250412D01*
X0232998Y0250250D01*
X0232591Y0250099D01*
X0232179Y0249957D01*
X0231765Y0249826D01*
X0231347Y0249705D01*
X0230927Y0249594D01*
X0230504Y0249493D01*
X0230078Y0249403D01*
X0229651Y0249324D01*
X0229222Y0249255D01*
X0228791Y0249196D01*
X0228359Y0249148D01*
X0227925Y0249111D01*
X0227491Y0249084D01*
X0227057Y0249068D01*
X0226622Y0249063D01*
X0226187Y0249068D01*
X0225753Y0249084D01*
X0225319Y0249111D01*
X0224885Y0249148D01*
X0224453Y0249196D01*
X0224022Y0249255D01*
X0223593Y0249324D01*
X0223166Y0249403D01*
X0222740Y0249493D01*
X0222317Y0249594D01*
X0221897Y0249705D01*
X0221479Y0249826D01*
X0221065Y0249957D01*
X0220653Y0250099D01*
X0220246Y0250250D01*
X0219842Y0250412D01*
X0219442Y0250583D01*
X0219047Y0250764D01*
X0218656Y0250955D01*
X0218270Y0251155D01*
X0217889Y0251365D01*
X0217514Y0251584D01*
X0217143Y0251812D01*
X0216779Y0252049D01*
X0216420Y0252295D01*
X0216068Y0252550D01*
X0215722Y0252813D01*
X0215382Y0253085D01*
X0215050Y0253365D01*
X0214724Y0253653D01*
X0214405Y0253949D01*
X0214094Y0254252D01*
X0213791Y0254563D01*
X0213495Y0254882D01*
X0213207Y0255208D01*
X0212927Y0255540D01*
X0212655Y0255880D01*
X0212392Y0256226D01*
X0212137Y0256578D01*
X0211891Y0256937D01*
X0211654Y0257301D01*
X0211426Y0257672D01*
X0211207Y0258047D01*
X0210997Y0258428D01*
X0210797Y0258814D01*
X0210606Y0259205D01*
X0210425Y0259600D01*
X0210254Y0260000D01*
X0210092Y0260404D01*
X0209941Y0260811D01*
X0209799Y0261223D01*
X0209668Y0261637D01*
X0209547Y0262055D01*
X0209436Y0262475D01*
X0209335Y0262898D01*
X0209245Y0263324D01*
X0209166Y0263751D01*
X0209097Y0264180D01*
X0209038Y0264611D01*
X0208990Y0265043D01*
X0208953Y0265477D01*
X0208926Y0265911D01*
X0208910Y0266345D01*
X0208905Y0266780D01*
D12*
X0226081Y0362104D03*
X0226278Y0435726D03*
D13*
X0207774Y0143207D03*
X0207774Y0096356D03*
X0244978Y0096159D03*
X0245175Y0143010D03*
X0148719Y0143010D03*
X0148719Y0096356D03*
X0111120Y0096159D03*
X0111120Y0143207D03*
X0073915Y0143207D03*
X0073915Y0096356D03*
X0036317Y0096356D03*
X0036514Y0143207D03*
D14*
X0029809Y0128661D02*
X0007866Y0128661D01*
X0007866Y0127463D02*
X0033648Y0127463D01*
X0034414Y0127257D02*
X0030358Y0128344D01*
X0026721Y0130444D01*
X0023751Y0133414D01*
X0021651Y0137051D01*
X0007866Y0137051D01*
X0007866Y0138249D02*
X0021330Y0138249D01*
X0021651Y0137051D02*
X0020565Y0141107D01*
X0020565Y0145306D01*
X0021651Y0149363D01*
X0023751Y0153000D01*
X0026721Y0155969D01*
X0030358Y0158069D01*
X0034414Y0159156D01*
X0038614Y0159156D01*
X0042670Y0158069D01*
X0046307Y0155969D01*
X0049276Y0153000D01*
X0051376Y0149363D01*
X0052463Y0145306D01*
X0052463Y0141107D01*
X0051376Y0137051D01*
X0059053Y0137051D01*
X0061153Y0133414D01*
X0064122Y0130444D01*
X0067759Y0128344D01*
X0071816Y0127257D01*
X0076015Y0127257D01*
X0080072Y0128344D01*
X0083708Y0130444D01*
X0086678Y0133414D01*
X0088778Y0137051D01*
X0096258Y0137051D01*
X0098358Y0133414D01*
X0101327Y0130444D01*
X0104964Y0128344D01*
X0109020Y0127257D01*
X0113220Y0127257D01*
X0117276Y0128344D01*
X0120913Y0130444D01*
X0123883Y0133414D01*
X0125982Y0137051D01*
X0133803Y0137051D01*
X0133856Y0136854D02*
X0135956Y0133217D01*
X0138925Y0130247D01*
X0142562Y0128148D01*
X0146619Y0127061D01*
X0150818Y0127061D01*
X0154875Y0128148D01*
X0158512Y0130247D01*
X0161481Y0133217D01*
X0163581Y0136854D01*
X0164668Y0140910D01*
X0164668Y0145110D01*
X0163581Y0149166D01*
X0161481Y0152803D01*
X0158512Y0155772D01*
X0154875Y0157872D01*
X0150818Y0158959D01*
X0146619Y0158959D01*
X0142562Y0157872D01*
X0138925Y0155772D01*
X0135956Y0152803D01*
X0133856Y0149166D01*
X0132769Y0145110D01*
X0132769Y0140910D01*
X0133856Y0136854D01*
X0134434Y0135852D02*
X0125291Y0135852D01*
X0125982Y0137051D02*
X0127069Y0141107D01*
X0127069Y0145306D01*
X0125982Y0149363D01*
X0123883Y0153000D01*
X0120913Y0155969D01*
X0117276Y0158069D01*
X0113220Y0159156D01*
X0109020Y0159156D01*
X0104964Y0158069D01*
X0101327Y0155969D01*
X0098358Y0153000D01*
X0096258Y0149363D01*
X0095171Y0145306D01*
X0095171Y0141107D01*
X0096258Y0137051D01*
X0095937Y0138249D02*
X0089099Y0138249D01*
X0088778Y0137051D02*
X0089865Y0141107D01*
X0089865Y0145306D01*
X0088778Y0149363D01*
X0086678Y0153000D01*
X0083708Y0155969D01*
X0080072Y0158069D01*
X0076015Y0159156D01*
X0071816Y0159156D01*
X0067759Y0158069D01*
X0064122Y0155969D01*
X0061153Y0153000D01*
X0059053Y0149363D01*
X0057966Y0145306D01*
X0057966Y0141107D01*
X0059053Y0137051D01*
X0058732Y0138249D02*
X0051697Y0138249D01*
X0051376Y0137051D02*
X0049276Y0133414D01*
X0046307Y0130444D01*
X0042670Y0128344D01*
X0038614Y0127257D01*
X0034414Y0127257D01*
X0039380Y0127463D02*
X0071050Y0127463D01*
X0067210Y0128661D02*
X0043219Y0128661D01*
X0045295Y0129860D02*
X0065135Y0129860D01*
X0063508Y0131058D02*
X0046921Y0131058D01*
X0048119Y0132257D02*
X0062310Y0132257D01*
X0061129Y0133455D02*
X0049300Y0133455D01*
X0049992Y0134654D02*
X0060437Y0134654D01*
X0059745Y0135852D02*
X0050684Y0135852D01*
X0052018Y0139448D02*
X0058411Y0139448D01*
X0058090Y0140646D02*
X0052340Y0140646D01*
X0052463Y0141845D02*
X0057966Y0141845D01*
X0057966Y0143043D02*
X0052463Y0143043D01*
X0052463Y0144242D02*
X0057966Y0144242D01*
X0058002Y0145440D02*
X0052427Y0145440D01*
X0052106Y0146639D02*
X0058323Y0146639D01*
X0058644Y0147837D02*
X0051785Y0147837D01*
X0051464Y0149036D02*
X0058965Y0149036D01*
X0059556Y0150234D02*
X0050873Y0150234D01*
X0050181Y0151433D02*
X0060248Y0151433D01*
X0060940Y0152631D02*
X0049489Y0152631D01*
X0048446Y0153830D02*
X0061983Y0153830D01*
X0063182Y0155028D02*
X0047248Y0155028D01*
X0045860Y0156227D02*
X0064569Y0156227D01*
X0066645Y0157426D02*
X0043784Y0157426D01*
X0040599Y0158624D02*
X0069831Y0158624D01*
X0078000Y0158624D02*
X0107035Y0158624D01*
X0103849Y0157426D02*
X0081186Y0157426D01*
X0083262Y0156227D02*
X0101773Y0156227D01*
X0100386Y0155028D02*
X0084649Y0155028D01*
X0085848Y0153830D02*
X0099188Y0153830D01*
X0098145Y0152631D02*
X0086891Y0152631D01*
X0087582Y0151433D02*
X0097453Y0151433D01*
X0096761Y0150234D02*
X0088274Y0150234D01*
X0088865Y0149036D02*
X0096170Y0149036D01*
X0095849Y0147837D02*
X0089186Y0147837D01*
X0089508Y0146639D02*
X0095528Y0146639D01*
X0095207Y0145440D02*
X0089829Y0145440D01*
X0089865Y0144242D02*
X0095171Y0144242D01*
X0095171Y0143043D02*
X0089865Y0143043D01*
X0089865Y0141845D02*
X0095171Y0141845D01*
X0095294Y0140646D02*
X0089741Y0140646D01*
X0089420Y0139448D02*
X0095615Y0139448D01*
X0096950Y0135852D02*
X0088086Y0135852D01*
X0087394Y0134654D02*
X0097642Y0134654D01*
X0098333Y0133455D02*
X0086702Y0133455D01*
X0085521Y0132257D02*
X0099514Y0132257D01*
X0100713Y0131058D02*
X0084323Y0131058D01*
X0082696Y0129860D02*
X0102339Y0129860D01*
X0104415Y0128661D02*
X0080620Y0128661D01*
X0076781Y0127463D02*
X0108254Y0127463D01*
X0113986Y0127463D02*
X0145118Y0127463D01*
X0141673Y0128661D02*
X0117825Y0128661D01*
X0119901Y0129860D02*
X0139597Y0129860D01*
X0138114Y0131058D02*
X0121527Y0131058D01*
X0122726Y0132257D02*
X0136916Y0132257D01*
X0135818Y0133455D02*
X0123907Y0133455D01*
X0124599Y0134654D02*
X0135126Y0134654D01*
X0133482Y0138249D02*
X0126304Y0138249D01*
X0126625Y0139448D02*
X0133161Y0139448D01*
X0132840Y0140646D02*
X0126946Y0140646D01*
X0127069Y0141845D02*
X0132769Y0141845D01*
X0132769Y0143043D02*
X0127069Y0143043D01*
X0127069Y0144242D02*
X0132769Y0144242D01*
X0132858Y0145440D02*
X0127033Y0145440D01*
X0126712Y0146639D02*
X0133179Y0146639D01*
X0133500Y0147837D02*
X0126391Y0147837D01*
X0126070Y0149036D02*
X0133821Y0149036D01*
X0134473Y0150234D02*
X0125479Y0150234D01*
X0124787Y0151433D02*
X0135165Y0151433D01*
X0135857Y0152631D02*
X0124095Y0152631D01*
X0123052Y0153830D02*
X0136983Y0153830D01*
X0138182Y0155028D02*
X0121854Y0155028D01*
X0120467Y0156227D02*
X0139713Y0156227D01*
X0141789Y0157426D02*
X0118391Y0157426D01*
X0115205Y0158624D02*
X0145368Y0158624D01*
X0152069Y0158624D02*
X0203689Y0158624D01*
X0205674Y0159156D02*
X0201617Y0158069D01*
X0197981Y0155969D01*
X0195011Y0153000D01*
X0192911Y0149363D01*
X0191824Y0145306D01*
X0191824Y0141107D01*
X0192911Y0137051D01*
X0163634Y0137051D01*
X0163955Y0138249D02*
X0192590Y0138249D01*
X0192911Y0137051D02*
X0195011Y0133414D01*
X0197981Y0130444D01*
X0201617Y0128344D01*
X0205674Y0127257D01*
X0209873Y0127257D01*
X0213930Y0128344D01*
X0217567Y0130444D01*
X0220536Y0133414D01*
X0222636Y0137051D01*
X0230260Y0137051D01*
X0230313Y0136854D02*
X0232413Y0133217D01*
X0235382Y0130247D01*
X0239019Y0128148D01*
X0243075Y0127061D01*
X0247275Y0127061D01*
X0251331Y0128148D01*
X0254968Y0130247D01*
X0257938Y0133217D01*
X0260037Y0136854D01*
X0261124Y0140910D01*
X0261124Y0145110D01*
X0260037Y0149166D01*
X0257938Y0152803D01*
X0254968Y0155772D01*
X0251331Y0157872D01*
X0247275Y0158959D01*
X0243075Y0158959D01*
X0239019Y0157872D01*
X0235382Y0155772D01*
X0232413Y0152803D01*
X0230313Y0149166D01*
X0229226Y0145110D01*
X0229226Y0140910D01*
X0230313Y0136854D01*
X0230891Y0135852D02*
X0221944Y0135852D01*
X0221252Y0134654D02*
X0231583Y0134654D01*
X0232275Y0133455D02*
X0220560Y0133455D01*
X0219379Y0132257D02*
X0233373Y0132257D01*
X0234571Y0131058D02*
X0218181Y0131058D01*
X0216554Y0129860D02*
X0236053Y0129860D01*
X0238129Y0128661D02*
X0214479Y0128661D01*
X0210639Y0127463D02*
X0241575Y0127463D01*
X0248776Y0127463D02*
X0276924Y0127463D01*
X0276924Y0128661D02*
X0252221Y0128661D01*
X0254297Y0129860D02*
X0276924Y0129860D01*
X0276924Y0131058D02*
X0255779Y0131058D01*
X0256978Y0132257D02*
X0276924Y0132257D01*
X0276924Y0133455D02*
X0258075Y0133455D01*
X0258767Y0134654D02*
X0276924Y0134654D01*
X0276924Y0135852D02*
X0259459Y0135852D01*
X0260090Y0137051D02*
X0276924Y0137051D01*
X0276924Y0138249D02*
X0260411Y0138249D01*
X0260733Y0139448D02*
X0276924Y0139448D01*
X0276924Y0140646D02*
X0261054Y0140646D01*
X0261124Y0141845D02*
X0276924Y0141845D01*
X0276924Y0143043D02*
X0261124Y0143043D01*
X0261124Y0144242D02*
X0276924Y0144242D01*
X0276924Y0145440D02*
X0261036Y0145440D01*
X0260715Y0146639D02*
X0276924Y0146639D01*
X0276924Y0147837D02*
X0260393Y0147837D01*
X0260072Y0149036D02*
X0276924Y0149036D01*
X0276924Y0150234D02*
X0259421Y0150234D01*
X0258729Y0151433D02*
X0276924Y0151433D01*
X0276924Y0152631D02*
X0258037Y0152631D01*
X0256911Y0153830D02*
X0276924Y0153830D01*
X0276924Y0155028D02*
X0255712Y0155028D01*
X0254181Y0156227D02*
X0276924Y0156227D01*
X0276924Y0157426D02*
X0252105Y0157426D01*
X0248525Y0158624D02*
X0276924Y0158624D01*
X0276924Y0159823D02*
X0007866Y0159823D01*
X0007866Y0161021D02*
X0276924Y0161021D01*
X0276924Y0162220D02*
X0007866Y0162220D01*
X0007866Y0163418D02*
X0276924Y0163418D01*
X0276924Y0164617D02*
X0007866Y0164617D01*
X0007866Y0165815D02*
X0276924Y0165815D01*
X0276924Y0167014D02*
X0007866Y0167014D01*
X0007866Y0168212D02*
X0276924Y0168212D01*
X0276924Y0169411D02*
X0007866Y0169411D01*
X0007866Y0170609D02*
X0276924Y0170609D01*
X0276924Y0171808D02*
X0007866Y0171808D01*
X0007866Y0173006D02*
X0276924Y0173006D01*
X0276924Y0174205D02*
X0007866Y0174205D01*
X0007866Y0175403D02*
X0276924Y0175403D01*
X0276924Y0176602D02*
X0007866Y0176602D01*
X0007866Y0177800D02*
X0276924Y0177800D01*
X0276924Y0178999D02*
X0007866Y0178999D01*
X0007866Y0180197D02*
X0276924Y0180197D01*
X0276924Y0181396D02*
X0007866Y0181396D01*
X0007866Y0182594D02*
X0276924Y0182594D01*
X0276924Y0183793D02*
X0007866Y0183793D01*
X0007866Y0184991D02*
X0276924Y0184991D01*
X0276924Y0186190D02*
X0007866Y0186190D01*
X0007866Y0187388D02*
X0276924Y0187388D01*
X0276924Y0188587D02*
X0007866Y0188587D01*
X0007866Y0189785D02*
X0276924Y0189785D01*
X0276924Y0190984D02*
X0007866Y0190984D01*
X0007866Y0192182D02*
X0276924Y0192182D01*
X0276924Y0193381D02*
X0007866Y0193381D01*
X0007866Y0194579D02*
X0276924Y0194579D01*
X0276924Y0195778D02*
X0007866Y0195778D01*
X0007866Y0196976D02*
X0276924Y0196976D01*
X0276924Y0198175D02*
X0007866Y0198175D01*
X0007866Y0199373D02*
X0276924Y0199373D01*
X0276924Y0200572D02*
X0007866Y0200572D01*
X0007866Y0201770D02*
X0276924Y0201770D01*
X0276924Y0202969D02*
X0007866Y0202969D01*
X0007866Y0204167D02*
X0276924Y0204167D01*
X0276924Y0205366D02*
X0007866Y0205366D01*
X0007866Y0206564D02*
X0276924Y0206564D01*
X0276924Y0207763D02*
X0007866Y0207763D01*
X0007866Y0208961D02*
X0276924Y0208961D01*
X0276924Y0210160D02*
X0007866Y0210160D01*
X0007866Y0211359D02*
X0276924Y0211359D01*
X0276924Y0212557D02*
X0007866Y0212557D01*
X0007866Y0213756D02*
X0276924Y0213756D01*
X0276924Y0214954D02*
X0007866Y0214954D01*
X0007866Y0216153D02*
X0276924Y0216153D01*
X0276924Y0217351D02*
X0007866Y0217351D01*
X0007866Y0218550D02*
X0276924Y0218550D01*
X0276924Y0219748D02*
X0007866Y0219748D01*
X0007866Y0220947D02*
X0276924Y0220947D01*
X0276924Y0222145D02*
X0007866Y0222145D01*
X0007866Y0223344D02*
X0276924Y0223344D01*
X0276924Y0224542D02*
X0007866Y0224542D01*
X0007866Y0225741D02*
X0276924Y0225741D01*
X0276924Y0226939D02*
X0007866Y0226939D01*
X0007866Y0228138D02*
X0276924Y0228138D01*
X0276924Y0229336D02*
X0007866Y0229336D01*
X0007866Y0230535D02*
X0276924Y0230535D01*
X0276924Y0231733D02*
X0007866Y0231733D01*
X0007866Y0232932D02*
X0276924Y0232932D01*
X0276924Y0234130D02*
X0007866Y0234130D01*
X0007866Y0235329D02*
X0276924Y0235329D01*
X0276924Y0236527D02*
X0007866Y0236527D01*
X0007866Y0237726D02*
X0276924Y0237726D01*
X0276924Y0238924D02*
X0007866Y0238924D01*
X0007866Y0240123D02*
X0276924Y0240123D01*
X0276924Y0241321D02*
X0007866Y0241321D01*
X0007866Y0242520D02*
X0276924Y0242520D01*
X0276924Y0243718D02*
X0007866Y0243718D01*
X0007866Y0244917D02*
X0049549Y0244917D01*
X0051243Y0244463D02*
X0045567Y0245984D01*
X0040478Y0248922D01*
X0036323Y0253077D01*
X0033385Y0258166D01*
X0031865Y0263841D01*
X0031865Y0269718D01*
X0033385Y0275393D01*
X0036323Y0280482D01*
X0040478Y0284637D01*
X0045567Y0287575D01*
X0051243Y0289096D01*
X0057119Y0289096D01*
X0062795Y0287575D01*
X0067884Y0284637D01*
X0072039Y0280482D01*
X0074977Y0275393D01*
X0076498Y0269718D01*
X0076498Y0263841D01*
X0074977Y0258166D01*
X0072039Y0253077D01*
X0067884Y0248922D01*
X0062795Y0245984D01*
X0057119Y0244463D01*
X0051243Y0244463D01*
X0045339Y0246115D02*
X0007866Y0246115D01*
X0007866Y0247314D02*
X0043264Y0247314D01*
X0041188Y0248512D02*
X0007866Y0248512D01*
X0007866Y0249711D02*
X0039689Y0249711D01*
X0038491Y0250909D02*
X0007866Y0250909D01*
X0007866Y0252108D02*
X0037292Y0252108D01*
X0036191Y0253306D02*
X0007866Y0253306D01*
X0007866Y0254505D02*
X0035499Y0254505D01*
X0034807Y0255703D02*
X0007866Y0255703D01*
X0007866Y0256902D02*
X0034115Y0256902D01*
X0033423Y0258100D02*
X0007866Y0258100D01*
X0007866Y0259299D02*
X0033082Y0259299D01*
X0032761Y0260497D02*
X0007866Y0260497D01*
X0007866Y0261696D02*
X0032439Y0261696D01*
X0032118Y0262895D02*
X0007866Y0262895D01*
X0007866Y0264093D02*
X0031865Y0264093D01*
X0031865Y0265292D02*
X0007866Y0265292D01*
X0007866Y0266490D02*
X0031865Y0266490D01*
X0031865Y0267689D02*
X0007866Y0267689D01*
X0007866Y0268887D02*
X0031865Y0268887D01*
X0031963Y0270086D02*
X0007866Y0270086D01*
X0007866Y0271284D02*
X0032284Y0271284D01*
X0032605Y0272483D02*
X0007866Y0272483D01*
X0007866Y0273681D02*
X0032927Y0273681D01*
X0033248Y0274880D02*
X0007866Y0274880D01*
X0007866Y0276078D02*
X0033781Y0276078D01*
X0034473Y0277277D02*
X0007866Y0277277D01*
X0007866Y0278475D02*
X0035165Y0278475D01*
X0035857Y0279674D02*
X0007866Y0279674D01*
X0007866Y0280872D02*
X0036713Y0280872D01*
X0037912Y0282071D02*
X0007866Y0282071D01*
X0007866Y0283269D02*
X0039110Y0283269D01*
X0040309Y0284468D02*
X0007866Y0284468D01*
X0007866Y0285666D02*
X0042261Y0285666D01*
X0044337Y0286865D02*
X0007866Y0286865D01*
X0007866Y0288063D02*
X0047389Y0288063D01*
X0060974Y0288063D02*
X0219829Y0288063D01*
X0218008Y0287575D02*
X0212919Y0284637D01*
X0208764Y0280482D01*
X0205826Y0275393D01*
X0204306Y0269718D01*
X0204306Y0263841D01*
X0205826Y0258166D01*
X0208764Y0253077D01*
X0212919Y0248922D01*
X0218008Y0245984D01*
X0223684Y0244463D01*
X0229560Y0244463D01*
X0235236Y0245984D01*
X0240325Y0248922D01*
X0244480Y0253077D01*
X0247418Y0258166D01*
X0248939Y0263841D01*
X0248939Y0269718D01*
X0247418Y0275393D01*
X0244480Y0280482D01*
X0240325Y0284637D01*
X0235236Y0287575D01*
X0229560Y0289096D01*
X0223684Y0289096D01*
X0218008Y0287575D01*
X0216778Y0286865D02*
X0064026Y0286865D01*
X0066101Y0285666D02*
X0214702Y0285666D01*
X0212750Y0284468D02*
X0068053Y0284468D01*
X0069252Y0283269D02*
X0211551Y0283269D01*
X0210353Y0282071D02*
X0070450Y0282071D01*
X0071649Y0280872D02*
X0209154Y0280872D01*
X0208298Y0279674D02*
X0072506Y0279674D01*
X0073198Y0278475D02*
X0207606Y0278475D01*
X0206914Y0277277D02*
X0073890Y0277277D01*
X0074581Y0276078D02*
X0206222Y0276078D01*
X0205689Y0274880D02*
X0075114Y0274880D01*
X0075436Y0273681D02*
X0205368Y0273681D01*
X0205046Y0272483D02*
X0075757Y0272483D01*
X0076078Y0271284D02*
X0204725Y0271284D01*
X0204404Y0270086D02*
X0076399Y0270086D01*
X0076498Y0268887D02*
X0204306Y0268887D01*
X0204306Y0267689D02*
X0076498Y0267689D01*
X0076498Y0266490D02*
X0204306Y0266490D01*
X0204306Y0265292D02*
X0076498Y0265292D01*
X0076498Y0264093D02*
X0204306Y0264093D01*
X0204559Y0262895D02*
X0076244Y0262895D01*
X0075923Y0261696D02*
X0204880Y0261696D01*
X0205202Y0260497D02*
X0075602Y0260497D01*
X0075280Y0259299D02*
X0205523Y0259299D01*
X0205864Y0258100D02*
X0074939Y0258100D01*
X0074247Y0256902D02*
X0206556Y0256902D01*
X0207248Y0255703D02*
X0073555Y0255703D01*
X0072863Y0254505D02*
X0207940Y0254505D01*
X0208632Y0253306D02*
X0072171Y0253306D01*
X0071070Y0252108D02*
X0209733Y0252108D01*
X0210932Y0250909D02*
X0069871Y0250909D01*
X0068673Y0249711D02*
X0212130Y0249711D01*
X0213629Y0248512D02*
X0067175Y0248512D01*
X0065099Y0247314D02*
X0215704Y0247314D01*
X0217780Y0246115D02*
X0063023Y0246115D01*
X0058813Y0244917D02*
X0221990Y0244917D01*
X0231254Y0244917D02*
X0276924Y0244917D01*
X0276924Y0246115D02*
X0235464Y0246115D01*
X0237540Y0247314D02*
X0276924Y0247314D01*
X0276924Y0248512D02*
X0239615Y0248512D01*
X0241114Y0249711D02*
X0276924Y0249711D01*
X0276924Y0250909D02*
X0242312Y0250909D01*
X0243511Y0252108D02*
X0276924Y0252108D01*
X0276924Y0253306D02*
X0244612Y0253306D01*
X0245304Y0254505D02*
X0276924Y0254505D01*
X0276924Y0255703D02*
X0245996Y0255703D01*
X0246688Y0256902D02*
X0276924Y0256902D01*
X0276924Y0258100D02*
X0247380Y0258100D01*
X0247721Y0259299D02*
X0276924Y0259299D01*
X0276924Y0260497D02*
X0248043Y0260497D01*
X0248364Y0261696D02*
X0276924Y0261696D01*
X0276924Y0262895D02*
X0248685Y0262895D01*
X0248939Y0264093D02*
X0276924Y0264093D01*
X0276924Y0265292D02*
X0248939Y0265292D01*
X0248939Y0266490D02*
X0276924Y0266490D01*
X0276924Y0267689D02*
X0248939Y0267689D01*
X0248939Y0268887D02*
X0276924Y0268887D01*
X0276924Y0270086D02*
X0248840Y0270086D01*
X0248519Y0271284D02*
X0276924Y0271284D01*
X0276924Y0272483D02*
X0248198Y0272483D01*
X0247877Y0273681D02*
X0276924Y0273681D01*
X0276924Y0274880D02*
X0247555Y0274880D01*
X0247022Y0276078D02*
X0276924Y0276078D01*
X0276924Y0277277D02*
X0246330Y0277277D01*
X0245638Y0278475D02*
X0276924Y0278475D01*
X0276924Y0279674D02*
X0244947Y0279674D01*
X0244090Y0280872D02*
X0276924Y0280872D01*
X0276924Y0282071D02*
X0242891Y0282071D01*
X0241693Y0283269D02*
X0276924Y0283269D01*
X0276924Y0284468D02*
X0240494Y0284468D01*
X0238542Y0285666D02*
X0276924Y0285666D01*
X0276924Y0286865D02*
X0236467Y0286865D01*
X0233415Y0288063D02*
X0276924Y0288063D01*
X0276924Y0289262D02*
X0007866Y0289262D01*
X0007866Y0290460D02*
X0276924Y0290460D01*
X0276924Y0291659D02*
X0007866Y0291659D01*
X0007866Y0292857D02*
X0276924Y0292857D01*
X0276924Y0294056D02*
X0007866Y0294056D01*
X0007866Y0295254D02*
X0276924Y0295254D01*
X0276924Y0296453D02*
X0007866Y0296453D01*
X0007866Y0297651D02*
X0276924Y0297651D01*
X0276924Y0298850D02*
X0007866Y0298850D01*
X0007866Y0300048D02*
X0276924Y0300048D01*
X0276924Y0301247D02*
X0007866Y0301247D01*
X0007866Y0302445D02*
X0276924Y0302445D01*
X0276924Y0303644D02*
X0007866Y0303644D01*
X0007866Y0304842D02*
X0276924Y0304842D01*
X0276924Y0306041D02*
X0007866Y0306041D01*
X0007866Y0307239D02*
X0276924Y0307239D01*
X0276924Y0308438D02*
X0007866Y0308438D01*
X0007866Y0309636D02*
X0276924Y0309636D01*
X0276924Y0310835D02*
X0007866Y0310835D01*
X0007866Y0312033D02*
X0276924Y0312033D01*
X0276924Y0313232D02*
X0007866Y0313232D01*
X0007866Y0314430D02*
X0276924Y0314430D01*
X0276924Y0315629D02*
X0007866Y0315629D01*
X0007866Y0316828D02*
X0276924Y0316828D01*
X0276924Y0318026D02*
X0007866Y0318026D01*
X0007866Y0319225D02*
X0276924Y0319225D01*
X0276924Y0320423D02*
X0007866Y0320423D01*
X0007866Y0321622D02*
X0276924Y0321622D01*
X0276924Y0322820D02*
X0007866Y0322820D01*
X0007866Y0324019D02*
X0276924Y0324019D01*
X0276924Y0325217D02*
X0007866Y0325217D01*
X0007866Y0326416D02*
X0276924Y0326416D01*
X0276924Y0327614D02*
X0007866Y0327614D01*
X0007866Y0328813D02*
X0276924Y0328813D01*
X0276924Y0330011D02*
X0007866Y0330011D01*
X0007866Y0331210D02*
X0276924Y0331210D01*
X0276924Y0332408D02*
X0007866Y0332408D01*
X0007866Y0333607D02*
X0276924Y0333607D01*
X0276924Y0334805D02*
X0007866Y0334805D01*
X0007866Y0336004D02*
X0276924Y0336004D01*
X0276924Y0337202D02*
X0007866Y0337202D01*
X0007866Y0338401D02*
X0276924Y0338401D01*
X0276924Y0339599D02*
X0007866Y0339599D01*
X0007866Y0340798D02*
X0276924Y0340798D01*
X0276924Y0341996D02*
X0007866Y0341996D01*
X0007866Y0343195D02*
X0276924Y0343195D01*
X0276924Y0344393D02*
X0007866Y0344393D01*
X0007866Y0345592D02*
X0276924Y0345592D01*
X0276924Y0346790D02*
X0232262Y0346790D01*
X0232408Y0346829D02*
X0236146Y0348987D01*
X0239198Y0352039D01*
X0241356Y0355777D01*
X0242473Y0359946D01*
X0242473Y0364262D01*
X0241356Y0368431D01*
X0239198Y0372169D01*
X0236146Y0375221D01*
X0232408Y0377379D01*
X0228239Y0378496D01*
X0223923Y0378496D01*
X0219754Y0377379D01*
X0216016Y0375221D01*
X0212964Y0372169D01*
X0210806Y0368431D01*
X0209689Y0364262D01*
X0209689Y0359946D01*
X0210806Y0355777D01*
X0212964Y0352039D01*
X0216016Y0348987D01*
X0219754Y0346829D01*
X0223923Y0345712D01*
X0228239Y0345712D01*
X0232408Y0346829D01*
X0234416Y0347989D02*
X0276924Y0347989D01*
X0276924Y0349187D02*
X0236346Y0349187D01*
X0237544Y0350386D02*
X0276924Y0350386D01*
X0276924Y0351584D02*
X0238743Y0351584D01*
X0239627Y0352783D02*
X0276924Y0352783D01*
X0276924Y0353981D02*
X0240319Y0353981D01*
X0241011Y0355180D02*
X0276924Y0355180D01*
X0276924Y0356378D02*
X0241517Y0356378D01*
X0241838Y0357577D02*
X0276924Y0357577D01*
X0276924Y0358775D02*
X0242159Y0358775D01*
X0242473Y0359974D02*
X0276924Y0359974D01*
X0276924Y0361172D02*
X0242473Y0361172D01*
X0242473Y0362371D02*
X0276924Y0362371D01*
X0276924Y0363569D02*
X0242473Y0363569D01*
X0242337Y0364768D02*
X0276924Y0364768D01*
X0276924Y0365966D02*
X0242016Y0365966D01*
X0241695Y0367165D02*
X0276924Y0367165D01*
X0276924Y0368363D02*
X0241374Y0368363D01*
X0240703Y0369562D02*
X0276924Y0369562D01*
X0276924Y0370761D02*
X0240011Y0370761D01*
X0239319Y0371959D02*
X0276924Y0371959D01*
X0276924Y0373158D02*
X0238209Y0373158D01*
X0237011Y0374356D02*
X0276924Y0374356D01*
X0276924Y0375555D02*
X0235568Y0375555D01*
X0233493Y0376753D02*
X0276924Y0376753D01*
X0276924Y0377952D02*
X0230272Y0377952D01*
X0221889Y0377952D02*
X0007866Y0377952D01*
X0007866Y0379150D02*
X0276924Y0379150D01*
X0276924Y0380349D02*
X0007866Y0380349D01*
X0007866Y0381547D02*
X0276924Y0381547D01*
X0276924Y0382746D02*
X0007866Y0382746D01*
X0007866Y0383944D02*
X0276924Y0383944D01*
X0276924Y0385143D02*
X0007866Y0385143D01*
X0007866Y0386341D02*
X0276924Y0386341D01*
X0276924Y0387540D02*
X0007866Y0387540D01*
X0007866Y0388738D02*
X0276924Y0388738D01*
X0276924Y0389937D02*
X0007866Y0389937D01*
X0007866Y0391135D02*
X0276924Y0391135D01*
X0276924Y0392334D02*
X0007866Y0392334D01*
X0007866Y0393532D02*
X0276924Y0393532D01*
X0276924Y0394731D02*
X0007866Y0394731D01*
X0007866Y0395929D02*
X0276924Y0395929D01*
X0276924Y0397128D02*
X0007866Y0397128D01*
X0007866Y0398326D02*
X0276924Y0398326D01*
X0276924Y0399525D02*
X0007866Y0399525D01*
X0007866Y0400723D02*
X0276924Y0400723D01*
X0276924Y0401922D02*
X0007866Y0401922D01*
X0007866Y0403120D02*
X0276924Y0403120D01*
X0276924Y0404319D02*
X0007866Y0404319D01*
X0007866Y0405517D02*
X0276924Y0405517D01*
X0276924Y0406716D02*
X0007866Y0406716D01*
X0007866Y0407914D02*
X0276924Y0407914D01*
X0276924Y0409113D02*
X0007866Y0409113D01*
X0007866Y0410311D02*
X0276924Y0410311D01*
X0276924Y0411510D02*
X0007866Y0411510D01*
X0007866Y0412708D02*
X0276924Y0412708D01*
X0276924Y0413907D02*
X0007866Y0413907D01*
X0007866Y0415105D02*
X0276924Y0415105D01*
X0276924Y0416304D02*
X0007866Y0416304D01*
X0007866Y0417502D02*
X0276924Y0417502D01*
X0276924Y0418701D02*
X0007866Y0418701D01*
X0007866Y0419899D02*
X0222010Y0419899D01*
X0219950Y0420451D02*
X0224119Y0419334D01*
X0228436Y0419334D01*
X0232605Y0420451D01*
X0236343Y0422609D01*
X0239395Y0425661D01*
X0241553Y0429399D01*
X0242670Y0433568D01*
X0242670Y0437884D01*
X0241553Y0442053D01*
X0239395Y0445791D01*
X0236343Y0448843D01*
X0232605Y0451001D01*
X0228436Y0452118D01*
X0224119Y0452118D01*
X0219950Y0451001D01*
X0216213Y0448843D01*
X0213161Y0445791D01*
X0211003Y0442053D01*
X0209885Y0437884D01*
X0209885Y0433568D01*
X0211003Y0429399D01*
X0213161Y0425661D01*
X0216213Y0422609D01*
X0219950Y0420451D01*
X0218830Y0421098D02*
X0007866Y0421098D01*
X0007866Y0422297D02*
X0216755Y0422297D01*
X0215327Y0423495D02*
X0007866Y0423495D01*
X0007866Y0424694D02*
X0214128Y0424694D01*
X0213027Y0425892D02*
X0190134Y0425892D01*
X0189490Y0425521D02*
X0191976Y0426956D01*
X0194005Y0428985D01*
X0195440Y0431470D01*
X0196183Y0434242D01*
X0196183Y0437112D01*
X0195440Y0439884D01*
X0194005Y0442369D01*
X0191976Y0444399D01*
X0189490Y0445834D01*
X0186718Y0446576D01*
X0183849Y0446576D01*
X0181077Y0445834D01*
X0178591Y0444399D01*
X0176562Y0442369D01*
X0175127Y0439884D01*
X0174384Y0437112D01*
X0174384Y0434242D01*
X0175127Y0431470D01*
X0176562Y0428985D01*
X0178591Y0426956D01*
X0181077Y0425521D01*
X0183849Y0424778D01*
X0186718Y0424778D01*
X0189490Y0425521D01*
X0192111Y0427091D02*
X0212335Y0427091D01*
X0211643Y0428289D02*
X0193309Y0428289D01*
X0194295Y0429488D02*
X0210979Y0429488D01*
X0210658Y0430686D02*
X0194987Y0430686D01*
X0195551Y0431885D02*
X0210337Y0431885D01*
X0210015Y0433083D02*
X0195872Y0433083D01*
X0196183Y0434282D02*
X0209885Y0434282D01*
X0209885Y0435480D02*
X0196183Y0435480D01*
X0196183Y0436679D02*
X0209885Y0436679D01*
X0209885Y0437877D02*
X0195978Y0437877D01*
X0195657Y0439076D02*
X0210205Y0439076D01*
X0210526Y0440274D02*
X0195215Y0440274D01*
X0194523Y0441473D02*
X0210847Y0441473D01*
X0211359Y0442671D02*
X0193703Y0442671D01*
X0192505Y0443870D02*
X0212051Y0443870D01*
X0212743Y0445068D02*
X0190816Y0445068D01*
X0187874Y0446267D02*
X0213636Y0446267D01*
X0214834Y0447465D02*
X0007866Y0447465D01*
X0007866Y0446267D02*
X0182693Y0446267D01*
X0179751Y0445068D02*
X0007866Y0445068D01*
X0007866Y0443870D02*
X0178062Y0443870D01*
X0176864Y0442671D02*
X0007866Y0442671D01*
X0007866Y0441473D02*
X0176044Y0441473D01*
X0175352Y0440274D02*
X0007866Y0440274D01*
X0007866Y0439076D02*
X0174910Y0439076D01*
X0174589Y0437877D02*
X0007866Y0437877D01*
X0007866Y0436679D02*
X0174384Y0436679D01*
X0174384Y0435480D02*
X0007866Y0435480D01*
X0007866Y0434282D02*
X0174384Y0434282D01*
X0174695Y0433083D02*
X0007866Y0433083D01*
X0007866Y0431885D02*
X0175016Y0431885D01*
X0175580Y0430686D02*
X0007866Y0430686D01*
X0007866Y0429488D02*
X0176272Y0429488D01*
X0177258Y0428289D02*
X0007866Y0428289D01*
X0007866Y0427091D02*
X0178456Y0427091D01*
X0180433Y0425892D02*
X0007866Y0425892D01*
X0007866Y0448664D02*
X0216033Y0448664D01*
X0217977Y0449862D02*
X0007866Y0449862D01*
X0007866Y0451061D02*
X0220172Y0451061D01*
X0232383Y0451061D02*
X0276924Y0451061D01*
X0276924Y0452259D02*
X0007866Y0452259D01*
X0007866Y0453458D02*
X0276924Y0453458D01*
X0276924Y0454656D02*
X0007866Y0454656D01*
X0007866Y0455855D02*
X0276924Y0455855D01*
X0276924Y0457053D02*
X0007866Y0457053D01*
X0007866Y0458252D02*
X0276924Y0458252D01*
X0276924Y0459450D02*
X0007866Y0459450D01*
X0007866Y0460649D02*
X0276924Y0460649D01*
X0276924Y0461847D02*
X0007866Y0461847D01*
X0007866Y0463046D02*
X0276924Y0463046D01*
X0276924Y0464244D02*
X0007866Y0464244D01*
X0007866Y0465443D02*
X0276924Y0465443D01*
X0276924Y0466641D02*
X0007866Y0466641D01*
X0007866Y0467840D02*
X0276924Y0467840D01*
X0276924Y0469038D02*
X0007866Y0469038D01*
X0007866Y0470237D02*
X0276924Y0470237D01*
X0276924Y0471435D02*
X0007866Y0471435D01*
X0007866Y0472634D02*
X0276924Y0472634D01*
X0276924Y0473832D02*
X0007866Y0473832D01*
X0007866Y0475031D02*
X0276924Y0475031D01*
X0276924Y0476230D02*
X0007866Y0476230D01*
X0007866Y0477428D02*
X0276924Y0477428D01*
X0276924Y0478627D02*
X0007866Y0478627D01*
X0007866Y0479825D02*
X0276924Y0479825D01*
X0276924Y0481024D02*
X0007866Y0481024D01*
X0007866Y0482222D02*
X0276924Y0482222D01*
X0276924Y0483421D02*
X0007866Y0483421D01*
X0007866Y0484619D02*
X0276924Y0484619D01*
X0276924Y0485818D02*
X0007866Y0485818D01*
X0007866Y0487016D02*
X0276924Y0487016D01*
X0276924Y0488215D02*
X0007866Y0488215D01*
X0007866Y0489413D02*
X0276924Y0489413D01*
X0276924Y0490612D02*
X0007866Y0490612D01*
X0007866Y0491810D02*
X0276924Y0491810D01*
X0276924Y0493009D02*
X0007866Y0493009D01*
X0007866Y0494207D02*
X0276924Y0494207D01*
X0276924Y0495406D02*
X0007866Y0495406D01*
X0007866Y0496604D02*
X0276924Y0496604D01*
X0276924Y0497803D02*
X0007866Y0497803D01*
X0007866Y0499001D02*
X0276924Y0499001D01*
X0276924Y0500200D02*
X0007866Y0500200D01*
X0007866Y0501398D02*
X0276924Y0501398D01*
X0276924Y0502597D02*
X0007866Y0502597D01*
X0007866Y0503795D02*
X0276924Y0503795D01*
X0276924Y0504994D02*
X0007866Y0504994D01*
X0007866Y0506192D02*
X0276924Y0506192D01*
X0276924Y0506500D02*
X0276924Y0009834D01*
X0007866Y0009834D01*
X0007866Y0506500D01*
X0276924Y0506500D01*
X0276924Y0449862D02*
X0234578Y0449862D01*
X0236522Y0448664D02*
X0276924Y0448664D01*
X0276924Y0447465D02*
X0237721Y0447465D01*
X0238919Y0446267D02*
X0276924Y0446267D01*
X0276924Y0445068D02*
X0239812Y0445068D01*
X0240504Y0443870D02*
X0276924Y0443870D01*
X0276924Y0442671D02*
X0241196Y0442671D01*
X0241708Y0441473D02*
X0276924Y0441473D01*
X0276924Y0440274D02*
X0242029Y0440274D01*
X0242350Y0439076D02*
X0276924Y0439076D01*
X0276924Y0437877D02*
X0242670Y0437877D01*
X0242670Y0436679D02*
X0276924Y0436679D01*
X0276924Y0435480D02*
X0242670Y0435480D01*
X0242670Y0434282D02*
X0276924Y0434282D01*
X0276924Y0433083D02*
X0242540Y0433083D01*
X0242219Y0431885D02*
X0276924Y0431885D01*
X0276924Y0430686D02*
X0241897Y0430686D01*
X0241576Y0429488D02*
X0276924Y0429488D01*
X0276924Y0428289D02*
X0240912Y0428289D01*
X0240220Y0427091D02*
X0276924Y0427091D01*
X0276924Y0425892D02*
X0239528Y0425892D01*
X0238427Y0424694D02*
X0276924Y0424694D01*
X0276924Y0423495D02*
X0237228Y0423495D01*
X0235801Y0422297D02*
X0276924Y0422297D01*
X0276924Y0421098D02*
X0233725Y0421098D01*
X0230545Y0419899D02*
X0276924Y0419899D01*
X0218669Y0376753D02*
X0007866Y0376753D01*
X0007866Y0375555D02*
X0216593Y0375555D01*
X0215150Y0374356D02*
X0007866Y0374356D01*
X0007866Y0373158D02*
X0213952Y0373158D01*
X0212842Y0371959D02*
X0007866Y0371959D01*
X0007866Y0370761D02*
X0212150Y0370761D01*
X0211458Y0369562D02*
X0007866Y0369562D01*
X0007866Y0368363D02*
X0210787Y0368363D01*
X0210466Y0367165D02*
X0007866Y0367165D01*
X0007866Y0365966D02*
X0210145Y0365966D01*
X0209824Y0364768D02*
X0007866Y0364768D01*
X0007866Y0363569D02*
X0209689Y0363569D01*
X0209689Y0362371D02*
X0007866Y0362371D01*
X0007866Y0361172D02*
X0209689Y0361172D01*
X0209689Y0359974D02*
X0007866Y0359974D01*
X0007866Y0358775D02*
X0210002Y0358775D01*
X0210323Y0357577D02*
X0007866Y0357577D01*
X0007866Y0356378D02*
X0210645Y0356378D01*
X0211151Y0355180D02*
X0007866Y0355180D01*
X0007866Y0353981D02*
X0211843Y0353981D01*
X0212534Y0352783D02*
X0007866Y0352783D01*
X0007866Y0351584D02*
X0213419Y0351584D01*
X0214617Y0350386D02*
X0007866Y0350386D01*
X0007866Y0349187D02*
X0215816Y0349187D01*
X0217745Y0347989D02*
X0007866Y0347989D01*
X0007866Y0346790D02*
X0219899Y0346790D01*
X0209873Y0159156D02*
X0205674Y0159156D01*
X0209873Y0159156D02*
X0213930Y0158069D01*
X0217567Y0155969D01*
X0220536Y0153000D01*
X0222636Y0149363D01*
X0223723Y0145306D01*
X0223723Y0141107D01*
X0222636Y0137051D01*
X0222957Y0138249D02*
X0229939Y0138249D01*
X0229618Y0139448D02*
X0223278Y0139448D01*
X0223599Y0140646D02*
X0229297Y0140646D01*
X0229226Y0141845D02*
X0223723Y0141845D01*
X0223723Y0143043D02*
X0229226Y0143043D01*
X0229226Y0144242D02*
X0223723Y0144242D01*
X0223687Y0145440D02*
X0229315Y0145440D01*
X0229636Y0146639D02*
X0223366Y0146639D01*
X0223045Y0147837D02*
X0229957Y0147837D01*
X0230278Y0149036D02*
X0222724Y0149036D01*
X0222133Y0150234D02*
X0230930Y0150234D01*
X0231622Y0151433D02*
X0221441Y0151433D01*
X0220749Y0152631D02*
X0232314Y0152631D01*
X0233440Y0153830D02*
X0219706Y0153830D01*
X0218507Y0155028D02*
X0234638Y0155028D01*
X0236170Y0156227D02*
X0217120Y0156227D01*
X0215044Y0157426D02*
X0238245Y0157426D01*
X0241825Y0158624D02*
X0211858Y0158624D01*
X0200503Y0157426D02*
X0155648Y0157426D01*
X0157724Y0156227D02*
X0198427Y0156227D01*
X0197040Y0155028D02*
X0159255Y0155028D01*
X0160454Y0153830D02*
X0195841Y0153830D01*
X0194798Y0152631D02*
X0161580Y0152631D01*
X0162272Y0151433D02*
X0194106Y0151433D01*
X0193415Y0150234D02*
X0162964Y0150234D01*
X0163616Y0149036D02*
X0192824Y0149036D01*
X0192503Y0147837D02*
X0163937Y0147837D01*
X0164258Y0146639D02*
X0192181Y0146639D01*
X0191860Y0145440D02*
X0164579Y0145440D01*
X0164668Y0144242D02*
X0191824Y0144242D01*
X0191824Y0143043D02*
X0164668Y0143043D01*
X0164668Y0141845D02*
X0191824Y0141845D01*
X0191948Y0140646D02*
X0164597Y0140646D01*
X0164276Y0139448D02*
X0192269Y0139448D01*
X0193603Y0135852D02*
X0163003Y0135852D01*
X0162311Y0134654D02*
X0194295Y0134654D01*
X0194987Y0133455D02*
X0161619Y0133455D01*
X0160521Y0132257D02*
X0196168Y0132257D01*
X0197366Y0131058D02*
X0159323Y0131058D01*
X0157840Y0129860D02*
X0198993Y0129860D01*
X0201069Y0128661D02*
X0155764Y0128661D01*
X0152319Y0127463D02*
X0204908Y0127463D01*
X0205674Y0112305D02*
X0201617Y0111219D01*
X0197981Y0109119D01*
X0195011Y0106149D01*
X0192911Y0102512D01*
X0191824Y0098456D01*
X0191824Y0094257D01*
X0192911Y0090200D01*
X0195011Y0086563D01*
X0197981Y0083594D01*
X0201617Y0081494D01*
X0205674Y0080407D01*
X0209873Y0080407D01*
X0213930Y0081494D01*
X0217567Y0083594D01*
X0220536Y0086563D01*
X0222636Y0090200D01*
X0223723Y0094257D01*
X0223723Y0098456D01*
X0222636Y0102512D01*
X0220536Y0106149D01*
X0217567Y0109119D01*
X0213930Y0111219D01*
X0209873Y0112305D01*
X0205674Y0112305D01*
X0204094Y0111882D02*
X0152399Y0111882D01*
X0150818Y0112305D02*
X0146619Y0112305D01*
X0142562Y0111219D01*
X0138925Y0109119D01*
X0135956Y0106149D01*
X0133856Y0102512D01*
X0132769Y0098456D01*
X0132769Y0094257D01*
X0133856Y0090200D01*
X0135956Y0086563D01*
X0138925Y0083594D01*
X0142562Y0081494D01*
X0146619Y0080407D01*
X0150818Y0080407D01*
X0154875Y0081494D01*
X0158512Y0083594D01*
X0161481Y0086563D01*
X0163581Y0090200D01*
X0164668Y0094257D01*
X0164668Y0098456D01*
X0163581Y0102512D01*
X0161481Y0106149D01*
X0158512Y0109119D01*
X0154875Y0111219D01*
X0150818Y0112305D01*
X0155801Y0110684D02*
X0200691Y0110684D01*
X0198615Y0109485D02*
X0157877Y0109485D01*
X0159344Y0108287D02*
X0197148Y0108287D01*
X0195950Y0107088D02*
X0160542Y0107088D01*
X0161631Y0105890D02*
X0194861Y0105890D01*
X0194169Y0104691D02*
X0162323Y0104691D01*
X0163015Y0103492D02*
X0193477Y0103492D01*
X0192853Y0102294D02*
X0163639Y0102294D01*
X0163960Y0101095D02*
X0192532Y0101095D01*
X0192211Y0099897D02*
X0164282Y0099897D01*
X0164603Y0098698D02*
X0191889Y0098698D01*
X0191824Y0097500D02*
X0164668Y0097500D01*
X0164668Y0096301D02*
X0191824Y0096301D01*
X0191824Y0095103D02*
X0164668Y0095103D01*
X0164573Y0093904D02*
X0191919Y0093904D01*
X0192240Y0092706D02*
X0164252Y0092706D01*
X0163931Y0091507D02*
X0192561Y0091507D01*
X0192882Y0090309D02*
X0163610Y0090309D01*
X0162952Y0089110D02*
X0193540Y0089110D01*
X0194232Y0087912D02*
X0162260Y0087912D01*
X0161568Y0086713D02*
X0194924Y0086713D01*
X0196059Y0085515D02*
X0160433Y0085515D01*
X0159234Y0084316D02*
X0197258Y0084316D01*
X0198805Y0083118D02*
X0157687Y0083118D01*
X0155611Y0081919D02*
X0200881Y0081919D01*
X0204503Y0080721D02*
X0151989Y0080721D01*
X0145448Y0080721D02*
X0115125Y0080721D01*
X0113220Y0080210D02*
X0117276Y0081297D01*
X0120913Y0083397D01*
X0123883Y0086366D01*
X0125982Y0090003D01*
X0127069Y0094060D01*
X0127069Y0098259D01*
X0125982Y0102316D01*
X0123883Y0105952D01*
X0120913Y0108922D01*
X0117276Y0111022D01*
X0113220Y0112109D01*
X0109020Y0112109D01*
X0104964Y0111022D01*
X0101327Y0108922D01*
X0098358Y0105952D01*
X0096258Y0102316D01*
X0095171Y0098259D01*
X0095171Y0094060D01*
X0096258Y0090003D01*
X0098358Y0086366D01*
X0101327Y0083397D01*
X0104964Y0081297D01*
X0109020Y0080210D01*
X0113220Y0080210D01*
X0118354Y0081919D02*
X0141826Y0081919D01*
X0139750Y0083118D02*
X0120430Y0083118D01*
X0121833Y0084316D02*
X0138203Y0084316D01*
X0137004Y0085515D02*
X0123031Y0085515D01*
X0124083Y0086713D02*
X0135869Y0086713D01*
X0135177Y0087912D02*
X0124775Y0087912D01*
X0125467Y0089110D02*
X0134485Y0089110D01*
X0133827Y0090309D02*
X0126064Y0090309D01*
X0126385Y0091507D02*
X0133506Y0091507D01*
X0133185Y0092706D02*
X0126707Y0092706D01*
X0127028Y0093904D02*
X0132864Y0093904D01*
X0132769Y0095103D02*
X0127069Y0095103D01*
X0127069Y0096301D02*
X0132769Y0096301D01*
X0132769Y0097500D02*
X0127069Y0097500D01*
X0126952Y0098698D02*
X0132834Y0098698D01*
X0133155Y0099897D02*
X0126630Y0099897D01*
X0126309Y0101095D02*
X0133477Y0101095D01*
X0133798Y0102294D02*
X0125988Y0102294D01*
X0125303Y0103492D02*
X0134422Y0103492D01*
X0135114Y0104691D02*
X0124611Y0104691D01*
X0123919Y0105890D02*
X0135806Y0105890D01*
X0136895Y0107088D02*
X0122747Y0107088D01*
X0121549Y0108287D02*
X0138093Y0108287D01*
X0139560Y0109485D02*
X0119938Y0109485D01*
X0117862Y0110684D02*
X0141636Y0110684D01*
X0145038Y0111882D02*
X0114065Y0111882D01*
X0108175Y0111882D02*
X0077595Y0111882D01*
X0076015Y0112305D02*
X0071816Y0112305D01*
X0067759Y0111219D01*
X0064122Y0109119D01*
X0061153Y0106149D01*
X0059053Y0102512D01*
X0057966Y0098456D01*
X0057966Y0094257D01*
X0059053Y0090200D01*
X0061153Y0086563D01*
X0064122Y0083594D01*
X0067759Y0081494D01*
X0071816Y0080407D01*
X0076015Y0080407D01*
X0080072Y0081494D01*
X0083708Y0083594D01*
X0086678Y0086563D01*
X0088778Y0090200D01*
X0089865Y0094257D01*
X0089865Y0098456D01*
X0088778Y0102512D01*
X0086678Y0106149D01*
X0083708Y0109119D01*
X0080072Y0111219D01*
X0076015Y0112305D01*
X0080998Y0110684D02*
X0104378Y0110684D01*
X0102302Y0109485D02*
X0083074Y0109485D01*
X0084541Y0108287D02*
X0100692Y0108287D01*
X0099493Y0107088D02*
X0085739Y0107088D01*
X0086828Y0105890D02*
X0098321Y0105890D01*
X0097629Y0104691D02*
X0087520Y0104691D01*
X0088212Y0103492D02*
X0096937Y0103492D01*
X0096252Y0102294D02*
X0088836Y0102294D01*
X0089157Y0101095D02*
X0095931Y0101095D01*
X0095610Y0099897D02*
X0089478Y0099897D01*
X0089800Y0098698D02*
X0095289Y0098698D01*
X0095171Y0097500D02*
X0089865Y0097500D01*
X0089865Y0096301D02*
X0095171Y0096301D01*
X0095171Y0095103D02*
X0089865Y0095103D01*
X0089770Y0093904D02*
X0095212Y0093904D01*
X0095534Y0092706D02*
X0089449Y0092706D01*
X0089128Y0091507D02*
X0095855Y0091507D01*
X0096176Y0090309D02*
X0088807Y0090309D01*
X0088148Y0089110D02*
X0096773Y0089110D01*
X0097465Y0087912D02*
X0087456Y0087912D01*
X0086765Y0086713D02*
X0098157Y0086713D01*
X0099209Y0085515D02*
X0085629Y0085515D01*
X0084431Y0084316D02*
X0100408Y0084316D01*
X0101810Y0083118D02*
X0082884Y0083118D01*
X0080808Y0081919D02*
X0103886Y0081919D01*
X0107115Y0080721D02*
X0077186Y0080721D01*
X0070645Y0080721D02*
X0039587Y0080721D01*
X0038417Y0080407D02*
X0042473Y0081494D01*
X0046110Y0083594D01*
X0049079Y0086563D01*
X0051179Y0090200D01*
X0052266Y0094257D01*
X0052266Y0098456D01*
X0051179Y0102512D01*
X0049079Y0106149D01*
X0046110Y0109119D01*
X0042473Y0111219D01*
X0038417Y0112305D01*
X0034217Y0112305D01*
X0030161Y0111219D01*
X0026524Y0109119D01*
X0023554Y0106149D01*
X0021455Y0102512D01*
X0020368Y0098456D01*
X0020368Y0094257D01*
X0021455Y0090200D01*
X0023554Y0086563D01*
X0026524Y0083594D01*
X0030161Y0081494D01*
X0034217Y0080407D01*
X0038417Y0080407D01*
X0043210Y0081919D02*
X0067023Y0081919D01*
X0064947Y0083118D02*
X0045286Y0083118D01*
X0046833Y0084316D02*
X0063400Y0084316D01*
X0062201Y0085515D02*
X0048031Y0085515D01*
X0049166Y0086713D02*
X0061066Y0086713D01*
X0060374Y0087912D02*
X0049858Y0087912D01*
X0050550Y0089110D02*
X0059682Y0089110D01*
X0059024Y0090309D02*
X0051208Y0090309D01*
X0051529Y0091507D02*
X0058703Y0091507D01*
X0058382Y0092706D02*
X0051851Y0092706D01*
X0052172Y0093904D02*
X0058060Y0093904D01*
X0057966Y0095103D02*
X0052266Y0095103D01*
X0052266Y0096301D02*
X0057966Y0096301D01*
X0057966Y0097500D02*
X0052266Y0097500D01*
X0052201Y0098698D02*
X0058031Y0098698D01*
X0058352Y0099897D02*
X0051880Y0099897D01*
X0051559Y0101095D02*
X0058673Y0101095D01*
X0058995Y0102294D02*
X0051238Y0102294D01*
X0050613Y0103492D02*
X0059619Y0103492D01*
X0060311Y0104691D02*
X0049921Y0104691D01*
X0049229Y0105890D02*
X0061003Y0105890D01*
X0062091Y0107088D02*
X0048141Y0107088D01*
X0046942Y0108287D02*
X0063290Y0108287D01*
X0064757Y0109485D02*
X0045476Y0109485D01*
X0043400Y0110684D02*
X0066832Y0110684D01*
X0070235Y0111882D02*
X0039997Y0111882D01*
X0032637Y0111882D02*
X0007866Y0111882D01*
X0007866Y0110684D02*
X0029234Y0110684D01*
X0027158Y0109485D02*
X0007866Y0109485D01*
X0007866Y0108287D02*
X0025692Y0108287D01*
X0024493Y0107088D02*
X0007866Y0107088D01*
X0007866Y0105890D02*
X0023404Y0105890D01*
X0022712Y0104691D02*
X0007866Y0104691D01*
X0007866Y0103492D02*
X0022020Y0103492D01*
X0021396Y0102294D02*
X0007866Y0102294D01*
X0007866Y0101095D02*
X0021075Y0101095D01*
X0020754Y0099897D02*
X0007866Y0099897D01*
X0007866Y0098698D02*
X0020433Y0098698D01*
X0020368Y0097500D02*
X0007866Y0097500D01*
X0007866Y0096301D02*
X0020368Y0096301D01*
X0020368Y0095103D02*
X0007866Y0095103D01*
X0007866Y0093904D02*
X0020462Y0093904D01*
X0020783Y0092706D02*
X0007866Y0092706D01*
X0007866Y0091507D02*
X0021104Y0091507D01*
X0021425Y0090309D02*
X0007866Y0090309D01*
X0007866Y0089110D02*
X0022084Y0089110D01*
X0022776Y0087912D02*
X0007866Y0087912D01*
X0007866Y0086713D02*
X0023468Y0086713D01*
X0024603Y0085515D02*
X0007866Y0085515D01*
X0007866Y0084316D02*
X0025801Y0084316D01*
X0027348Y0083118D02*
X0007866Y0083118D01*
X0007866Y0081919D02*
X0029424Y0081919D01*
X0033046Y0080721D02*
X0007866Y0080721D01*
X0007866Y0079522D02*
X0276924Y0079522D01*
X0276924Y0078324D02*
X0007866Y0078324D01*
X0007866Y0077125D02*
X0276924Y0077125D01*
X0276924Y0075927D02*
X0007866Y0075927D01*
X0007866Y0074728D02*
X0276924Y0074728D01*
X0276924Y0073530D02*
X0007866Y0073530D01*
X0007866Y0072331D02*
X0276924Y0072331D01*
X0276924Y0071133D02*
X0007866Y0071133D01*
X0007866Y0069934D02*
X0276924Y0069934D01*
X0276924Y0068736D02*
X0007866Y0068736D01*
X0007866Y0067537D02*
X0276924Y0067537D01*
X0276924Y0066339D02*
X0007866Y0066339D01*
X0007866Y0065140D02*
X0276924Y0065140D01*
X0276924Y0063942D02*
X0007866Y0063942D01*
X0007866Y0062743D02*
X0276924Y0062743D01*
X0276924Y0061545D02*
X0007866Y0061545D01*
X0007866Y0060346D02*
X0276924Y0060346D01*
X0276924Y0059148D02*
X0007866Y0059148D01*
X0007866Y0057949D02*
X0276924Y0057949D01*
X0276924Y0056751D02*
X0007866Y0056751D01*
X0007866Y0055552D02*
X0276924Y0055552D01*
X0276924Y0054354D02*
X0007866Y0054354D01*
X0007866Y0053155D02*
X0276924Y0053155D01*
X0276924Y0051957D02*
X0007866Y0051957D01*
X0007866Y0050758D02*
X0276924Y0050758D01*
X0276924Y0049559D02*
X0007866Y0049559D01*
X0007866Y0048361D02*
X0276924Y0048361D01*
X0276924Y0047162D02*
X0007866Y0047162D01*
X0007866Y0045964D02*
X0276924Y0045964D01*
X0276924Y0044765D02*
X0007866Y0044765D01*
X0007866Y0043567D02*
X0276924Y0043567D01*
X0276924Y0042368D02*
X0007866Y0042368D01*
X0007866Y0041170D02*
X0276924Y0041170D01*
X0276924Y0039971D02*
X0007866Y0039971D01*
X0007866Y0038773D02*
X0276924Y0038773D01*
X0276924Y0037574D02*
X0007866Y0037574D01*
X0007866Y0036376D02*
X0276924Y0036376D01*
X0276924Y0035177D02*
X0007866Y0035177D01*
X0007866Y0033979D02*
X0276924Y0033979D01*
X0276924Y0032780D02*
X0007866Y0032780D01*
X0007866Y0031582D02*
X0276924Y0031582D01*
X0276924Y0030383D02*
X0007866Y0030383D01*
X0007866Y0029185D02*
X0276924Y0029185D01*
X0276924Y0027986D02*
X0007866Y0027986D01*
X0007866Y0026788D02*
X0276924Y0026788D01*
X0276924Y0025589D02*
X0007866Y0025589D01*
X0007866Y0024391D02*
X0276924Y0024391D01*
X0276924Y0023192D02*
X0007866Y0023192D01*
X0007866Y0021994D02*
X0276924Y0021994D01*
X0276924Y0020795D02*
X0007866Y0020795D01*
X0007866Y0019597D02*
X0276924Y0019597D01*
X0276924Y0018398D02*
X0007866Y0018398D01*
X0007866Y0017200D02*
X0276924Y0017200D01*
X0276924Y0016001D02*
X0007866Y0016001D01*
X0007866Y0014803D02*
X0276924Y0014803D01*
X0276924Y0013604D02*
X0007866Y0013604D01*
X0007866Y0012406D02*
X0276924Y0012406D01*
X0276924Y0011207D02*
X0007866Y0011207D01*
X0007866Y0010009D02*
X0276924Y0010009D01*
X0276924Y0080721D02*
X0248983Y0080721D01*
X0247078Y0080210D02*
X0251135Y0081297D01*
X0254771Y0083397D01*
X0257741Y0086366D01*
X0259841Y0090003D01*
X0260928Y0094060D01*
X0260928Y0098259D01*
X0259841Y0102316D01*
X0257741Y0105952D01*
X0254771Y0108922D01*
X0251135Y0111022D01*
X0247078Y0112109D01*
X0242879Y0112109D01*
X0238822Y0111022D01*
X0235185Y0108922D01*
X0232216Y0105952D01*
X0230116Y0102316D01*
X0229029Y0098259D01*
X0229029Y0094060D01*
X0230116Y0090003D01*
X0232216Y0086366D01*
X0235185Y0083397D01*
X0238822Y0081297D01*
X0242879Y0080210D01*
X0247078Y0080210D01*
X0252212Y0081919D02*
X0276924Y0081919D01*
X0276924Y0083118D02*
X0254288Y0083118D01*
X0255691Y0084316D02*
X0276924Y0084316D01*
X0276924Y0085515D02*
X0256889Y0085515D01*
X0257941Y0086713D02*
X0276924Y0086713D01*
X0276924Y0087912D02*
X0258633Y0087912D01*
X0259325Y0089110D02*
X0276924Y0089110D01*
X0276924Y0090309D02*
X0259923Y0090309D01*
X0260244Y0091507D02*
X0276924Y0091507D01*
X0276924Y0092706D02*
X0260565Y0092706D01*
X0260886Y0093904D02*
X0276924Y0093904D01*
X0276924Y0095103D02*
X0260928Y0095103D01*
X0260928Y0096301D02*
X0276924Y0096301D01*
X0276924Y0097500D02*
X0260928Y0097500D01*
X0260810Y0098698D02*
X0276924Y0098698D01*
X0276924Y0099897D02*
X0260489Y0099897D01*
X0260168Y0101095D02*
X0276924Y0101095D01*
X0276924Y0102294D02*
X0259846Y0102294D01*
X0259161Y0103492D02*
X0276924Y0103492D01*
X0276924Y0104691D02*
X0258469Y0104691D01*
X0257777Y0105890D02*
X0276924Y0105890D01*
X0276924Y0107088D02*
X0256605Y0107088D01*
X0255407Y0108287D02*
X0276924Y0108287D01*
X0276924Y0109485D02*
X0253796Y0109485D01*
X0251720Y0110684D02*
X0276924Y0110684D01*
X0276924Y0111882D02*
X0247924Y0111882D01*
X0242033Y0111882D02*
X0211454Y0111882D01*
X0214856Y0110684D02*
X0238236Y0110684D01*
X0236161Y0109485D02*
X0216932Y0109485D01*
X0218399Y0108287D02*
X0234550Y0108287D01*
X0233351Y0107088D02*
X0219597Y0107088D01*
X0220686Y0105890D02*
X0232179Y0105890D01*
X0231487Y0104691D02*
X0221378Y0104691D01*
X0222070Y0103492D02*
X0230796Y0103492D01*
X0230110Y0102294D02*
X0222694Y0102294D01*
X0223016Y0101095D02*
X0229789Y0101095D01*
X0229468Y0099897D02*
X0223337Y0099897D01*
X0223658Y0098698D02*
X0229147Y0098698D01*
X0229029Y0097500D02*
X0223723Y0097500D01*
X0223723Y0096301D02*
X0229029Y0096301D01*
X0229029Y0095103D02*
X0223723Y0095103D01*
X0223628Y0093904D02*
X0229071Y0093904D01*
X0229392Y0092706D02*
X0223307Y0092706D01*
X0222986Y0091507D02*
X0229713Y0091507D01*
X0230034Y0090309D02*
X0222665Y0090309D01*
X0222007Y0089110D02*
X0230632Y0089110D01*
X0231324Y0087912D02*
X0221315Y0087912D01*
X0220623Y0086713D02*
X0232015Y0086713D01*
X0233067Y0085515D02*
X0219488Y0085515D01*
X0218289Y0084316D02*
X0234266Y0084316D01*
X0235669Y0083118D02*
X0216742Y0083118D01*
X0214666Y0081919D02*
X0237745Y0081919D01*
X0240973Y0080721D02*
X0211044Y0080721D01*
X0276924Y0113081D02*
X0007866Y0113081D01*
X0007866Y0114279D02*
X0276924Y0114279D01*
X0276924Y0115478D02*
X0007866Y0115478D01*
X0007866Y0116676D02*
X0276924Y0116676D01*
X0276924Y0117875D02*
X0007866Y0117875D01*
X0007866Y0119073D02*
X0276924Y0119073D01*
X0276924Y0120272D02*
X0007866Y0120272D01*
X0007866Y0121470D02*
X0276924Y0121470D01*
X0276924Y0122669D02*
X0007866Y0122669D01*
X0007866Y0123867D02*
X0276924Y0123867D01*
X0276924Y0125066D02*
X0007866Y0125066D01*
X0007866Y0126264D02*
X0276924Y0126264D01*
X0032429Y0158624D02*
X0007866Y0158624D01*
X0007866Y0157426D02*
X0029243Y0157426D01*
X0027167Y0156227D02*
X0007866Y0156227D01*
X0007866Y0155028D02*
X0025780Y0155028D01*
X0024581Y0153830D02*
X0007866Y0153830D01*
X0007866Y0152631D02*
X0023539Y0152631D01*
X0022847Y0151433D02*
X0007866Y0151433D01*
X0007866Y0150234D02*
X0022155Y0150234D01*
X0021564Y0149036D02*
X0007866Y0149036D01*
X0007866Y0147837D02*
X0021243Y0147837D01*
X0020922Y0146639D02*
X0007866Y0146639D01*
X0007866Y0145440D02*
X0020600Y0145440D01*
X0020565Y0144242D02*
X0007866Y0144242D01*
X0007866Y0143043D02*
X0020565Y0143043D01*
X0020565Y0141845D02*
X0007866Y0141845D01*
X0007866Y0140646D02*
X0020688Y0140646D01*
X0021009Y0139448D02*
X0007866Y0139448D01*
X0007866Y0135852D02*
X0022343Y0135852D01*
X0023035Y0134654D02*
X0007866Y0134654D01*
X0007866Y0133455D02*
X0023727Y0133455D01*
X0024908Y0132257D02*
X0007866Y0132257D01*
X0007866Y0131058D02*
X0026107Y0131058D01*
X0027733Y0129860D02*
X0007866Y0129860D01*
M02*
