G75*
%MOIN*%
%OFA0B0*%
%FSLAX25Y25*%
%IPPOS*%
%LPD*%
%AMOC8*
5,1,8,0,0,1.08239X$1,22.5*
%
%ADD10C,0.00039*%
%ADD11C,0.00000*%
%ADD12R,0.02756X0.00394*%
%ADD13R,0.04331X0.00394*%
%ADD14R,0.03543X0.00394*%
%ADD15R,0.03150X0.00394*%
%ADD16R,0.03937X0.00394*%
%ADD17R,0.04724X0.00394*%
%ADD18R,0.01969X0.00394*%
%ADD19R,0.05512X0.00394*%
%ADD20R,0.07087X0.00394*%
%ADD21R,0.05906X0.00394*%
%ADD22R,0.11024X0.00394*%
%ADD23R,0.07480X0.00394*%
%ADD24R,0.20866X0.00394*%
%ADD25R,0.20079X0.00394*%
%ADD26R,0.00787X0.00394*%
%ADD27R,0.19291X0.00394*%
%ADD28R,0.01575X0.00394*%
%ADD29R,0.18504X0.00394*%
%ADD30R,0.02362X0.00394*%
%ADD31R,0.17717X0.00394*%
%ADD32R,0.08268X0.00394*%
%ADD33R,0.06299X0.00394*%
%ADD34R,0.05118X0.00394*%
%ADD35R,0.18898X0.00394*%
%ADD36R,0.20472X0.00394*%
%ADD37R,0.12205X0.00394*%
%ADD38R,0.21260X0.00394*%
%ADD39R,0.12598X0.00394*%
%ADD40R,0.09055X0.00394*%
%ADD41R,0.10236X0.00394*%
%ADD42R,0.07874X0.00394*%
%ADD43R,0.08661X0.00394*%
%ADD44R,0.00394X0.00394*%
%ADD45R,0.14173X0.00394*%
%ADD46R,0.13780X0.00394*%
%ADD47R,0.10630X0.00394*%
%ADD48R,0.14961X0.00394*%
%ADD49R,0.09843X0.00394*%
%ADD50R,0.16929X0.00394*%
%ADD51R,0.22047X0.00394*%
%ADD52R,0.18110X0.00394*%
%ADD53R,0.22441X0.00394*%
%ADD54R,0.15354X0.00394*%
%ADD55R,0.01181X0.00394*%
%ADD56R,0.06693X0.00394*%
%ADD57R,0.09449X0.00394*%
%ADD58R,0.15748X0.00394*%
%ADD59R,0.13386X0.00394*%
%ADD60R,0.11417X0.00394*%
%ADD61R,0.16142X0.00394*%
%ADD62R,0.16535X0.00394*%
%ADD63R,0.21654X0.00394*%
%ADD64R,0.11811X0.00394*%
%ADD65R,0.14567X0.00394*%
%ADD66R,0.17323X0.00394*%
%ADD67R,0.12992X0.00394*%
%ADD68R,0.19685X0.00394*%
D10*
X0003246Y0005215D02*
X0281543Y0005215D01*
X0281543Y0511120D01*
X0003246Y0511120D01*
X0003246Y0005215D01*
D11*
X0036464Y0266780D02*
X0036469Y0267215D01*
X0036485Y0267649D01*
X0036512Y0268083D01*
X0036549Y0268517D01*
X0036597Y0268949D01*
X0036656Y0269380D01*
X0036725Y0269809D01*
X0036804Y0270236D01*
X0036894Y0270662D01*
X0036995Y0271085D01*
X0037106Y0271505D01*
X0037227Y0271923D01*
X0037358Y0272337D01*
X0037500Y0272749D01*
X0037651Y0273156D01*
X0037813Y0273560D01*
X0037984Y0273960D01*
X0038165Y0274355D01*
X0038356Y0274746D01*
X0038556Y0275132D01*
X0038766Y0275513D01*
X0038985Y0275888D01*
X0039213Y0276259D01*
X0039450Y0276623D01*
X0039696Y0276982D01*
X0039951Y0277334D01*
X0040214Y0277680D01*
X0040486Y0278020D01*
X0040766Y0278352D01*
X0041054Y0278678D01*
X0041350Y0278997D01*
X0041653Y0279308D01*
X0041964Y0279611D01*
X0042283Y0279907D01*
X0042609Y0280195D01*
X0042941Y0280475D01*
X0043281Y0280747D01*
X0043627Y0281010D01*
X0043979Y0281265D01*
X0044338Y0281511D01*
X0044702Y0281748D01*
X0045073Y0281976D01*
X0045448Y0282195D01*
X0045829Y0282405D01*
X0046215Y0282605D01*
X0046606Y0282796D01*
X0047001Y0282977D01*
X0047401Y0283148D01*
X0047805Y0283310D01*
X0048212Y0283461D01*
X0048624Y0283603D01*
X0049038Y0283734D01*
X0049456Y0283855D01*
X0049876Y0283966D01*
X0050299Y0284067D01*
X0050725Y0284157D01*
X0051152Y0284236D01*
X0051581Y0284305D01*
X0052012Y0284364D01*
X0052444Y0284412D01*
X0052878Y0284449D01*
X0053312Y0284476D01*
X0053746Y0284492D01*
X0054181Y0284497D01*
X0054616Y0284492D01*
X0055050Y0284476D01*
X0055484Y0284449D01*
X0055918Y0284412D01*
X0056350Y0284364D01*
X0056781Y0284305D01*
X0057210Y0284236D01*
X0057637Y0284157D01*
X0058063Y0284067D01*
X0058486Y0283966D01*
X0058906Y0283855D01*
X0059324Y0283734D01*
X0059738Y0283603D01*
X0060150Y0283461D01*
X0060557Y0283310D01*
X0060961Y0283148D01*
X0061361Y0282977D01*
X0061756Y0282796D01*
X0062147Y0282605D01*
X0062533Y0282405D01*
X0062914Y0282195D01*
X0063289Y0281976D01*
X0063660Y0281748D01*
X0064024Y0281511D01*
X0064383Y0281265D01*
X0064735Y0281010D01*
X0065081Y0280747D01*
X0065421Y0280475D01*
X0065753Y0280195D01*
X0066079Y0279907D01*
X0066398Y0279611D01*
X0066709Y0279308D01*
X0067012Y0278997D01*
X0067308Y0278678D01*
X0067596Y0278352D01*
X0067876Y0278020D01*
X0068148Y0277680D01*
X0068411Y0277334D01*
X0068666Y0276982D01*
X0068912Y0276623D01*
X0069149Y0276259D01*
X0069377Y0275888D01*
X0069596Y0275513D01*
X0069806Y0275132D01*
X0070006Y0274746D01*
X0070197Y0274355D01*
X0070378Y0273960D01*
X0070549Y0273560D01*
X0070711Y0273156D01*
X0070862Y0272749D01*
X0071004Y0272337D01*
X0071135Y0271923D01*
X0071256Y0271505D01*
X0071367Y0271085D01*
X0071468Y0270662D01*
X0071558Y0270236D01*
X0071637Y0269809D01*
X0071706Y0269380D01*
X0071765Y0268949D01*
X0071813Y0268517D01*
X0071850Y0268083D01*
X0071877Y0267649D01*
X0071893Y0267215D01*
X0071898Y0266780D01*
X0071893Y0266345D01*
X0071877Y0265911D01*
X0071850Y0265477D01*
X0071813Y0265043D01*
X0071765Y0264611D01*
X0071706Y0264180D01*
X0071637Y0263751D01*
X0071558Y0263324D01*
X0071468Y0262898D01*
X0071367Y0262475D01*
X0071256Y0262055D01*
X0071135Y0261637D01*
X0071004Y0261223D01*
X0070862Y0260811D01*
X0070711Y0260404D01*
X0070549Y0260000D01*
X0070378Y0259600D01*
X0070197Y0259205D01*
X0070006Y0258814D01*
X0069806Y0258428D01*
X0069596Y0258047D01*
X0069377Y0257672D01*
X0069149Y0257301D01*
X0068912Y0256937D01*
X0068666Y0256578D01*
X0068411Y0256226D01*
X0068148Y0255880D01*
X0067876Y0255540D01*
X0067596Y0255208D01*
X0067308Y0254882D01*
X0067012Y0254563D01*
X0066709Y0254252D01*
X0066398Y0253949D01*
X0066079Y0253653D01*
X0065753Y0253365D01*
X0065421Y0253085D01*
X0065081Y0252813D01*
X0064735Y0252550D01*
X0064383Y0252295D01*
X0064024Y0252049D01*
X0063660Y0251812D01*
X0063289Y0251584D01*
X0062914Y0251365D01*
X0062533Y0251155D01*
X0062147Y0250955D01*
X0061756Y0250764D01*
X0061361Y0250583D01*
X0060961Y0250412D01*
X0060557Y0250250D01*
X0060150Y0250099D01*
X0059738Y0249957D01*
X0059324Y0249826D01*
X0058906Y0249705D01*
X0058486Y0249594D01*
X0058063Y0249493D01*
X0057637Y0249403D01*
X0057210Y0249324D01*
X0056781Y0249255D01*
X0056350Y0249196D01*
X0055918Y0249148D01*
X0055484Y0249111D01*
X0055050Y0249084D01*
X0054616Y0249068D01*
X0054181Y0249063D01*
X0053746Y0249068D01*
X0053312Y0249084D01*
X0052878Y0249111D01*
X0052444Y0249148D01*
X0052012Y0249196D01*
X0051581Y0249255D01*
X0051152Y0249324D01*
X0050725Y0249403D01*
X0050299Y0249493D01*
X0049876Y0249594D01*
X0049456Y0249705D01*
X0049038Y0249826D01*
X0048624Y0249957D01*
X0048212Y0250099D01*
X0047805Y0250250D01*
X0047401Y0250412D01*
X0047001Y0250583D01*
X0046606Y0250764D01*
X0046215Y0250955D01*
X0045829Y0251155D01*
X0045448Y0251365D01*
X0045073Y0251584D01*
X0044702Y0251812D01*
X0044338Y0252049D01*
X0043979Y0252295D01*
X0043627Y0252550D01*
X0043281Y0252813D01*
X0042941Y0253085D01*
X0042609Y0253365D01*
X0042283Y0253653D01*
X0041964Y0253949D01*
X0041653Y0254252D01*
X0041350Y0254563D01*
X0041054Y0254882D01*
X0040766Y0255208D01*
X0040486Y0255540D01*
X0040214Y0255880D01*
X0039951Y0256226D01*
X0039696Y0256578D01*
X0039450Y0256937D01*
X0039213Y0257301D01*
X0038985Y0257672D01*
X0038766Y0258047D01*
X0038556Y0258428D01*
X0038356Y0258814D01*
X0038165Y0259205D01*
X0037984Y0259600D01*
X0037813Y0260000D01*
X0037651Y0260404D01*
X0037500Y0260811D01*
X0037358Y0261223D01*
X0037227Y0261637D01*
X0037106Y0262055D01*
X0036995Y0262475D01*
X0036894Y0262898D01*
X0036804Y0263324D01*
X0036725Y0263751D01*
X0036656Y0264180D01*
X0036597Y0264611D01*
X0036549Y0265043D01*
X0036512Y0265477D01*
X0036485Y0265911D01*
X0036469Y0266345D01*
X0036464Y0266780D01*
X0178984Y0435677D02*
X0178986Y0435835D01*
X0178992Y0435993D01*
X0179002Y0436151D01*
X0179016Y0436309D01*
X0179034Y0436466D01*
X0179055Y0436623D01*
X0179081Y0436779D01*
X0179111Y0436935D01*
X0179144Y0437090D01*
X0179182Y0437243D01*
X0179223Y0437396D01*
X0179268Y0437548D01*
X0179317Y0437699D01*
X0179370Y0437848D01*
X0179426Y0437996D01*
X0179486Y0438142D01*
X0179550Y0438287D01*
X0179618Y0438430D01*
X0179689Y0438572D01*
X0179763Y0438712D01*
X0179841Y0438849D01*
X0179923Y0438985D01*
X0180007Y0439119D01*
X0180096Y0439250D01*
X0180187Y0439379D01*
X0180282Y0439506D01*
X0180379Y0439631D01*
X0180480Y0439753D01*
X0180584Y0439872D01*
X0180691Y0439989D01*
X0180801Y0440103D01*
X0180914Y0440214D01*
X0181029Y0440323D01*
X0181147Y0440428D01*
X0181268Y0440530D01*
X0181391Y0440630D01*
X0181517Y0440726D01*
X0181645Y0440819D01*
X0181775Y0440909D01*
X0181908Y0440995D01*
X0182043Y0441079D01*
X0182179Y0441158D01*
X0182318Y0441235D01*
X0182459Y0441307D01*
X0182601Y0441377D01*
X0182745Y0441442D01*
X0182891Y0441504D01*
X0183038Y0441562D01*
X0183187Y0441617D01*
X0183337Y0441668D01*
X0183488Y0441715D01*
X0183640Y0441758D01*
X0183793Y0441797D01*
X0183948Y0441833D01*
X0184103Y0441864D01*
X0184259Y0441892D01*
X0184415Y0441916D01*
X0184572Y0441936D01*
X0184730Y0441952D01*
X0184887Y0441964D01*
X0185046Y0441972D01*
X0185204Y0441976D01*
X0185362Y0441976D01*
X0185520Y0441972D01*
X0185679Y0441964D01*
X0185836Y0441952D01*
X0185994Y0441936D01*
X0186151Y0441916D01*
X0186307Y0441892D01*
X0186463Y0441864D01*
X0186618Y0441833D01*
X0186773Y0441797D01*
X0186926Y0441758D01*
X0187078Y0441715D01*
X0187229Y0441668D01*
X0187379Y0441617D01*
X0187528Y0441562D01*
X0187675Y0441504D01*
X0187821Y0441442D01*
X0187965Y0441377D01*
X0188107Y0441307D01*
X0188248Y0441235D01*
X0188387Y0441158D01*
X0188523Y0441079D01*
X0188658Y0440995D01*
X0188791Y0440909D01*
X0188921Y0440819D01*
X0189049Y0440726D01*
X0189175Y0440630D01*
X0189298Y0440530D01*
X0189419Y0440428D01*
X0189537Y0440323D01*
X0189652Y0440214D01*
X0189765Y0440103D01*
X0189875Y0439989D01*
X0189982Y0439872D01*
X0190086Y0439753D01*
X0190187Y0439631D01*
X0190284Y0439506D01*
X0190379Y0439379D01*
X0190470Y0439250D01*
X0190559Y0439119D01*
X0190643Y0438985D01*
X0190725Y0438849D01*
X0190803Y0438712D01*
X0190877Y0438572D01*
X0190948Y0438430D01*
X0191016Y0438287D01*
X0191080Y0438142D01*
X0191140Y0437996D01*
X0191196Y0437848D01*
X0191249Y0437699D01*
X0191298Y0437548D01*
X0191343Y0437396D01*
X0191384Y0437243D01*
X0191422Y0437090D01*
X0191455Y0436935D01*
X0191485Y0436779D01*
X0191511Y0436623D01*
X0191532Y0436466D01*
X0191550Y0436309D01*
X0191564Y0436151D01*
X0191574Y0435993D01*
X0191580Y0435835D01*
X0191582Y0435677D01*
X0191580Y0435519D01*
X0191574Y0435361D01*
X0191564Y0435203D01*
X0191550Y0435045D01*
X0191532Y0434888D01*
X0191511Y0434731D01*
X0191485Y0434575D01*
X0191455Y0434419D01*
X0191422Y0434264D01*
X0191384Y0434111D01*
X0191343Y0433958D01*
X0191298Y0433806D01*
X0191249Y0433655D01*
X0191196Y0433506D01*
X0191140Y0433358D01*
X0191080Y0433212D01*
X0191016Y0433067D01*
X0190948Y0432924D01*
X0190877Y0432782D01*
X0190803Y0432642D01*
X0190725Y0432505D01*
X0190643Y0432369D01*
X0190559Y0432235D01*
X0190470Y0432104D01*
X0190379Y0431975D01*
X0190284Y0431848D01*
X0190187Y0431723D01*
X0190086Y0431601D01*
X0189982Y0431482D01*
X0189875Y0431365D01*
X0189765Y0431251D01*
X0189652Y0431140D01*
X0189537Y0431031D01*
X0189419Y0430926D01*
X0189298Y0430824D01*
X0189175Y0430724D01*
X0189049Y0430628D01*
X0188921Y0430535D01*
X0188791Y0430445D01*
X0188658Y0430359D01*
X0188523Y0430275D01*
X0188387Y0430196D01*
X0188248Y0430119D01*
X0188107Y0430047D01*
X0187965Y0429977D01*
X0187821Y0429912D01*
X0187675Y0429850D01*
X0187528Y0429792D01*
X0187379Y0429737D01*
X0187229Y0429686D01*
X0187078Y0429639D01*
X0186926Y0429596D01*
X0186773Y0429557D01*
X0186618Y0429521D01*
X0186463Y0429490D01*
X0186307Y0429462D01*
X0186151Y0429438D01*
X0185994Y0429418D01*
X0185836Y0429402D01*
X0185679Y0429390D01*
X0185520Y0429382D01*
X0185362Y0429378D01*
X0185204Y0429378D01*
X0185046Y0429382D01*
X0184887Y0429390D01*
X0184730Y0429402D01*
X0184572Y0429418D01*
X0184415Y0429438D01*
X0184259Y0429462D01*
X0184103Y0429490D01*
X0183948Y0429521D01*
X0183793Y0429557D01*
X0183640Y0429596D01*
X0183488Y0429639D01*
X0183337Y0429686D01*
X0183187Y0429737D01*
X0183038Y0429792D01*
X0182891Y0429850D01*
X0182745Y0429912D01*
X0182601Y0429977D01*
X0182459Y0430047D01*
X0182318Y0430119D01*
X0182179Y0430196D01*
X0182043Y0430275D01*
X0181908Y0430359D01*
X0181775Y0430445D01*
X0181645Y0430535D01*
X0181517Y0430628D01*
X0181391Y0430724D01*
X0181268Y0430824D01*
X0181147Y0430926D01*
X0181029Y0431031D01*
X0180914Y0431140D01*
X0180801Y0431251D01*
X0180691Y0431365D01*
X0180584Y0431482D01*
X0180480Y0431601D01*
X0180379Y0431723D01*
X0180282Y0431848D01*
X0180187Y0431975D01*
X0180096Y0432104D01*
X0180007Y0432235D01*
X0179923Y0432369D01*
X0179841Y0432505D01*
X0179763Y0432642D01*
X0179689Y0432782D01*
X0179618Y0432924D01*
X0179550Y0433067D01*
X0179486Y0433212D01*
X0179426Y0433358D01*
X0179370Y0433506D01*
X0179317Y0433655D01*
X0179268Y0433806D01*
X0179223Y0433958D01*
X0179182Y0434111D01*
X0179144Y0434264D01*
X0179111Y0434419D01*
X0179081Y0434575D01*
X0179055Y0434731D01*
X0179034Y0434888D01*
X0179016Y0435045D01*
X0179002Y0435203D01*
X0178992Y0435361D01*
X0178986Y0435519D01*
X0178984Y0435677D01*
X0208905Y0266780D02*
X0208910Y0267215D01*
X0208926Y0267649D01*
X0208953Y0268083D01*
X0208990Y0268517D01*
X0209038Y0268949D01*
X0209097Y0269380D01*
X0209166Y0269809D01*
X0209245Y0270236D01*
X0209335Y0270662D01*
X0209436Y0271085D01*
X0209547Y0271505D01*
X0209668Y0271923D01*
X0209799Y0272337D01*
X0209941Y0272749D01*
X0210092Y0273156D01*
X0210254Y0273560D01*
X0210425Y0273960D01*
X0210606Y0274355D01*
X0210797Y0274746D01*
X0210997Y0275132D01*
X0211207Y0275513D01*
X0211426Y0275888D01*
X0211654Y0276259D01*
X0211891Y0276623D01*
X0212137Y0276982D01*
X0212392Y0277334D01*
X0212655Y0277680D01*
X0212927Y0278020D01*
X0213207Y0278352D01*
X0213495Y0278678D01*
X0213791Y0278997D01*
X0214094Y0279308D01*
X0214405Y0279611D01*
X0214724Y0279907D01*
X0215050Y0280195D01*
X0215382Y0280475D01*
X0215722Y0280747D01*
X0216068Y0281010D01*
X0216420Y0281265D01*
X0216779Y0281511D01*
X0217143Y0281748D01*
X0217514Y0281976D01*
X0217889Y0282195D01*
X0218270Y0282405D01*
X0218656Y0282605D01*
X0219047Y0282796D01*
X0219442Y0282977D01*
X0219842Y0283148D01*
X0220246Y0283310D01*
X0220653Y0283461D01*
X0221065Y0283603D01*
X0221479Y0283734D01*
X0221897Y0283855D01*
X0222317Y0283966D01*
X0222740Y0284067D01*
X0223166Y0284157D01*
X0223593Y0284236D01*
X0224022Y0284305D01*
X0224453Y0284364D01*
X0224885Y0284412D01*
X0225319Y0284449D01*
X0225753Y0284476D01*
X0226187Y0284492D01*
X0226622Y0284497D01*
X0227057Y0284492D01*
X0227491Y0284476D01*
X0227925Y0284449D01*
X0228359Y0284412D01*
X0228791Y0284364D01*
X0229222Y0284305D01*
X0229651Y0284236D01*
X0230078Y0284157D01*
X0230504Y0284067D01*
X0230927Y0283966D01*
X0231347Y0283855D01*
X0231765Y0283734D01*
X0232179Y0283603D01*
X0232591Y0283461D01*
X0232998Y0283310D01*
X0233402Y0283148D01*
X0233802Y0282977D01*
X0234197Y0282796D01*
X0234588Y0282605D01*
X0234974Y0282405D01*
X0235355Y0282195D01*
X0235730Y0281976D01*
X0236101Y0281748D01*
X0236465Y0281511D01*
X0236824Y0281265D01*
X0237176Y0281010D01*
X0237522Y0280747D01*
X0237862Y0280475D01*
X0238194Y0280195D01*
X0238520Y0279907D01*
X0238839Y0279611D01*
X0239150Y0279308D01*
X0239453Y0278997D01*
X0239749Y0278678D01*
X0240037Y0278352D01*
X0240317Y0278020D01*
X0240589Y0277680D01*
X0240852Y0277334D01*
X0241107Y0276982D01*
X0241353Y0276623D01*
X0241590Y0276259D01*
X0241818Y0275888D01*
X0242037Y0275513D01*
X0242247Y0275132D01*
X0242447Y0274746D01*
X0242638Y0274355D01*
X0242819Y0273960D01*
X0242990Y0273560D01*
X0243152Y0273156D01*
X0243303Y0272749D01*
X0243445Y0272337D01*
X0243576Y0271923D01*
X0243697Y0271505D01*
X0243808Y0271085D01*
X0243909Y0270662D01*
X0243999Y0270236D01*
X0244078Y0269809D01*
X0244147Y0269380D01*
X0244206Y0268949D01*
X0244254Y0268517D01*
X0244291Y0268083D01*
X0244318Y0267649D01*
X0244334Y0267215D01*
X0244339Y0266780D01*
X0244334Y0266345D01*
X0244318Y0265911D01*
X0244291Y0265477D01*
X0244254Y0265043D01*
X0244206Y0264611D01*
X0244147Y0264180D01*
X0244078Y0263751D01*
X0243999Y0263324D01*
X0243909Y0262898D01*
X0243808Y0262475D01*
X0243697Y0262055D01*
X0243576Y0261637D01*
X0243445Y0261223D01*
X0243303Y0260811D01*
X0243152Y0260404D01*
X0242990Y0260000D01*
X0242819Y0259600D01*
X0242638Y0259205D01*
X0242447Y0258814D01*
X0242247Y0258428D01*
X0242037Y0258047D01*
X0241818Y0257672D01*
X0241590Y0257301D01*
X0241353Y0256937D01*
X0241107Y0256578D01*
X0240852Y0256226D01*
X0240589Y0255880D01*
X0240317Y0255540D01*
X0240037Y0255208D01*
X0239749Y0254882D01*
X0239453Y0254563D01*
X0239150Y0254252D01*
X0238839Y0253949D01*
X0238520Y0253653D01*
X0238194Y0253365D01*
X0237862Y0253085D01*
X0237522Y0252813D01*
X0237176Y0252550D01*
X0236824Y0252295D01*
X0236465Y0252049D01*
X0236101Y0251812D01*
X0235730Y0251584D01*
X0235355Y0251365D01*
X0234974Y0251155D01*
X0234588Y0250955D01*
X0234197Y0250764D01*
X0233802Y0250583D01*
X0233402Y0250412D01*
X0232998Y0250250D01*
X0232591Y0250099D01*
X0232179Y0249957D01*
X0231765Y0249826D01*
X0231347Y0249705D01*
X0230927Y0249594D01*
X0230504Y0249493D01*
X0230078Y0249403D01*
X0229651Y0249324D01*
X0229222Y0249255D01*
X0228791Y0249196D01*
X0228359Y0249148D01*
X0227925Y0249111D01*
X0227491Y0249084D01*
X0227057Y0249068D01*
X0226622Y0249063D01*
X0226187Y0249068D01*
X0225753Y0249084D01*
X0225319Y0249111D01*
X0224885Y0249148D01*
X0224453Y0249196D01*
X0224022Y0249255D01*
X0223593Y0249324D01*
X0223166Y0249403D01*
X0222740Y0249493D01*
X0222317Y0249594D01*
X0221897Y0249705D01*
X0221479Y0249826D01*
X0221065Y0249957D01*
X0220653Y0250099D01*
X0220246Y0250250D01*
X0219842Y0250412D01*
X0219442Y0250583D01*
X0219047Y0250764D01*
X0218656Y0250955D01*
X0218270Y0251155D01*
X0217889Y0251365D01*
X0217514Y0251584D01*
X0217143Y0251812D01*
X0216779Y0252049D01*
X0216420Y0252295D01*
X0216068Y0252550D01*
X0215722Y0252813D01*
X0215382Y0253085D01*
X0215050Y0253365D01*
X0214724Y0253653D01*
X0214405Y0253949D01*
X0214094Y0254252D01*
X0213791Y0254563D01*
X0213495Y0254882D01*
X0213207Y0255208D01*
X0212927Y0255540D01*
X0212655Y0255880D01*
X0212392Y0256226D01*
X0212137Y0256578D01*
X0211891Y0256937D01*
X0211654Y0257301D01*
X0211426Y0257672D01*
X0211207Y0258047D01*
X0210997Y0258428D01*
X0210797Y0258814D01*
X0210606Y0259205D01*
X0210425Y0259600D01*
X0210254Y0260000D01*
X0210092Y0260404D01*
X0209941Y0260811D01*
X0209799Y0261223D01*
X0209668Y0261637D01*
X0209547Y0262055D01*
X0209436Y0262475D01*
X0209335Y0262898D01*
X0209245Y0263324D01*
X0209166Y0263751D01*
X0209097Y0264180D01*
X0209038Y0264611D01*
X0208990Y0265043D01*
X0208953Y0265477D01*
X0208926Y0265911D01*
X0208910Y0266345D01*
X0208905Y0266780D01*
D12*
X0207183Y0268207D03*
X0202459Y0263089D03*
X0202065Y0262301D03*
X0202065Y0261907D03*
X0202065Y0261514D03*
X0202065Y0261120D03*
X0202065Y0260726D03*
X0202065Y0260333D03*
X0202065Y0259939D03*
X0202065Y0259545D03*
X0202459Y0259152D03*
X0215057Y0251671D03*
X0215451Y0250884D03*
X0215451Y0250490D03*
X0215451Y0250096D03*
X0215451Y0247734D03*
X0215451Y0247341D03*
X0215451Y0246947D03*
X0215057Y0246159D03*
X0215057Y0245766D03*
X0210333Y0238285D03*
X0210333Y0237892D03*
X0209939Y0237498D03*
X0209939Y0237104D03*
X0209939Y0236711D03*
X0209939Y0236317D03*
X0209939Y0235923D03*
X0209939Y0235530D03*
X0210333Y0235136D03*
X0210333Y0234742D03*
X0213089Y0211907D03*
X0212695Y0211514D03*
X0212695Y0211120D03*
X0212695Y0210726D03*
X0212301Y0209939D03*
X0212301Y0209545D03*
X0212301Y0209152D03*
X0211907Y0208364D03*
X0211907Y0207970D03*
X0211514Y0207183D03*
X0211514Y0206789D03*
X0211514Y0206396D03*
X0211514Y0206002D03*
X0211120Y0205608D03*
X0211120Y0205215D03*
X0211120Y0204821D03*
X0210726Y0204427D03*
X0210726Y0204033D03*
X0210726Y0203640D03*
X0210333Y0202852D03*
X0210333Y0202459D03*
X0210333Y0202065D03*
X0209939Y0201671D03*
X0209939Y0201278D03*
X0209939Y0200884D03*
X0209939Y0200490D03*
X0209545Y0199703D03*
X0209545Y0199309D03*
X0209152Y0198522D03*
X0209152Y0198128D03*
X0209152Y0197734D03*
X0208758Y0196947D03*
X0198128Y0207577D03*
X0198128Y0207970D03*
X0190254Y0214270D03*
X0190648Y0215057D03*
X0190648Y0215451D03*
X0190648Y0215844D03*
X0191041Y0216632D03*
X0191041Y0217026D03*
X0191041Y0217419D03*
X0191435Y0218600D03*
X0191435Y0218994D03*
X0191829Y0219781D03*
X0191829Y0220175D03*
X0191829Y0220569D03*
X0191829Y0220963D03*
X0192222Y0221750D03*
X0192222Y0222144D03*
X0192222Y0222537D03*
X0192616Y0223325D03*
X0192616Y0223719D03*
X0192616Y0224112D03*
X0192616Y0224506D03*
X0193010Y0224900D03*
X0193010Y0225293D03*
X0193010Y0225687D03*
X0193404Y0226868D03*
X0193404Y0227262D03*
X0193404Y0227656D03*
X0193797Y0228049D03*
X0193797Y0228443D03*
X0193797Y0228837D03*
X0193797Y0229230D03*
X0194191Y0229624D03*
X0194191Y0230018D03*
X0194191Y0230411D03*
X0194191Y0230805D03*
X0194585Y0231199D03*
X0194585Y0231593D03*
X0194585Y0231986D03*
X0194585Y0232380D03*
X0194585Y0232774D03*
X0194978Y0233167D03*
X0194978Y0233561D03*
X0194978Y0233955D03*
X0195372Y0234742D03*
X0195372Y0235136D03*
X0195372Y0235530D03*
X0195372Y0235923D03*
X0195766Y0236317D03*
X0195766Y0236711D03*
X0195766Y0237104D03*
X0195766Y0237498D03*
X0181593Y0222931D03*
X0183167Y0208364D03*
X0165057Y0209545D03*
X0165057Y0209939D03*
X0161514Y0182774D03*
X0161514Y0182380D03*
X0158758Y0179230D03*
X0157970Y0178049D03*
X0156789Y0176474D03*
X0152065Y0178049D03*
X0152065Y0178443D03*
X0152065Y0178837D03*
X0152065Y0179230D03*
X0152065Y0179624D03*
X0152065Y0180018D03*
X0151671Y0177656D03*
X0150490Y0175293D03*
X0151278Y0174112D03*
X0146159Y0171356D03*
X0139073Y0171356D03*
X0139073Y0171750D03*
X0139073Y0172144D03*
X0139073Y0172537D03*
X0139073Y0172931D03*
X0139073Y0173325D03*
X0139073Y0173719D03*
X0139073Y0174112D03*
X0139073Y0174506D03*
X0139073Y0174900D03*
X0139073Y0175293D03*
X0139073Y0175687D03*
X0139073Y0176081D03*
X0139073Y0176474D03*
X0139073Y0176868D03*
X0139073Y0177262D03*
X0139073Y0177656D03*
X0139073Y0178049D03*
X0139073Y0178443D03*
X0139073Y0178837D03*
X0139073Y0179230D03*
X0139073Y0179624D03*
X0139073Y0180018D03*
X0139073Y0180411D03*
X0129230Y0198915D03*
X0125293Y0180805D03*
X0125687Y0175687D03*
X0125687Y0175293D03*
X0125687Y0174900D03*
X0125687Y0174506D03*
X0125687Y0174112D03*
X0125687Y0173719D03*
X0125293Y0173325D03*
X0120175Y0173325D03*
X0114270Y0174506D03*
X0115057Y0178049D03*
X0115451Y0178837D03*
X0115451Y0179230D03*
X0115451Y0179624D03*
X0115451Y0180018D03*
X0115057Y0180411D03*
X0109545Y0180411D03*
X0109545Y0180018D03*
X0109545Y0179624D03*
X0109545Y0179230D03*
X0109545Y0178837D03*
X0109545Y0178443D03*
X0109545Y0178049D03*
X0109545Y0177656D03*
X0109545Y0175293D03*
X0109545Y0174900D03*
X0109545Y0174506D03*
X0109545Y0174112D03*
X0109545Y0173719D03*
X0109545Y0173325D03*
X0109545Y0172931D03*
X0109545Y0172537D03*
X0109545Y0172144D03*
X0109545Y0171750D03*
X0109545Y0171356D03*
X0102459Y0171356D03*
X0102459Y0180411D03*
X0102459Y0180805D03*
X0105608Y0180805D03*
X0109545Y0180805D03*
X0099309Y0180805D03*
X0087892Y0180411D03*
X0087892Y0178443D03*
X0087892Y0178049D03*
X0087498Y0177656D03*
X0087498Y0177262D03*
X0087104Y0176868D03*
X0086711Y0176474D03*
X0086317Y0176081D03*
X0085923Y0175687D03*
X0085530Y0175293D03*
X0085136Y0174900D03*
X0084742Y0174506D03*
X0084348Y0174112D03*
X0083955Y0173719D03*
X0083561Y0173325D03*
X0078049Y0172537D03*
X0077656Y0173325D03*
X0076868Y0174506D03*
X0077656Y0177656D03*
X0078049Y0178049D03*
X0078049Y0178443D03*
X0078049Y0178837D03*
X0078049Y0179230D03*
X0078049Y0179624D03*
X0078049Y0180018D03*
X0082774Y0180018D03*
X0082774Y0180411D03*
X0083167Y0180805D03*
X0080018Y0195372D03*
X0080018Y0195766D03*
X0080411Y0196553D03*
X0080411Y0196947D03*
X0080411Y0197341D03*
X0080805Y0198128D03*
X0080805Y0198522D03*
X0080805Y0198915D03*
X0081199Y0199309D03*
X0081199Y0199703D03*
X0081199Y0200096D03*
X0081199Y0200490D03*
X0081593Y0200884D03*
X0081593Y0201278D03*
X0081593Y0201671D03*
X0081986Y0202459D03*
X0081986Y0202852D03*
X0081986Y0203246D03*
X0082380Y0203640D03*
X0082380Y0204033D03*
X0082380Y0204427D03*
X0082774Y0205608D03*
X0082774Y0206002D03*
X0083167Y0206396D03*
X0083167Y0206789D03*
X0083167Y0207183D03*
X0083167Y0207577D03*
X0083561Y0207970D03*
X0083561Y0208364D03*
X0083561Y0208758D03*
X0083561Y0209152D03*
X0083955Y0209939D03*
X0083955Y0210333D03*
X0072537Y0217813D03*
X0065451Y0208364D03*
X0064663Y0226868D03*
X0064663Y0227262D03*
X0064663Y0227656D03*
X0065057Y0228443D03*
X0065057Y0228837D03*
X0065057Y0229230D03*
X0065057Y0229624D03*
X0065451Y0230018D03*
X0065451Y0230411D03*
X0065451Y0230805D03*
X0065451Y0231199D03*
X0065844Y0231593D03*
X0065844Y0231986D03*
X0065844Y0232380D03*
X0065844Y0232774D03*
X0066238Y0233167D03*
X0066238Y0233561D03*
X0066238Y0233955D03*
X0066238Y0234348D03*
X0066632Y0235136D03*
X0066632Y0235530D03*
X0066632Y0235923D03*
X0067026Y0236711D03*
X0067026Y0237104D03*
X0067026Y0237498D03*
X0067026Y0237892D03*
X0067419Y0238285D03*
X0067419Y0238679D03*
X0067419Y0239073D03*
X0067419Y0239467D03*
X0067813Y0239860D03*
X0067813Y0240254D03*
X0067813Y0240648D03*
X0067813Y0241041D03*
X0068207Y0241435D03*
X0068207Y0241829D03*
X0068207Y0242222D03*
X0068207Y0242616D03*
X0068207Y0243010D03*
X0068600Y0243404D03*
X0068600Y0243797D03*
X0068600Y0244191D03*
X0068994Y0244585D03*
X0068994Y0244978D03*
X0068994Y0245372D03*
X0068994Y0245766D03*
X0068994Y0246159D03*
X0069388Y0246947D03*
X0069388Y0247341D03*
X0069388Y0247734D03*
X0069781Y0248128D03*
X0069781Y0248522D03*
X0069781Y0248915D03*
X0069781Y0249309D03*
X0070175Y0250096D03*
X0070175Y0250490D03*
X0084348Y0250490D03*
X0084348Y0250096D03*
X0084742Y0251278D03*
X0084348Y0248128D03*
X0089073Y0257970D03*
X0089073Y0258364D03*
X0089467Y0258758D03*
X0089467Y0259152D03*
X0089467Y0259545D03*
X0089860Y0260333D03*
X0089860Y0260726D03*
X0089860Y0261120D03*
X0089860Y0261514D03*
X0089860Y0261907D03*
X0089860Y0262301D03*
X0089860Y0262695D03*
X0089467Y0263482D03*
X0089467Y0263876D03*
X0089073Y0264663D03*
X0076474Y0272144D03*
X0076081Y0272931D03*
X0076081Y0273325D03*
X0076081Y0273719D03*
X0076081Y0274112D03*
X0076081Y0274506D03*
X0076474Y0274900D03*
X0076474Y0275293D03*
X0076868Y0276081D03*
X0074506Y0284742D03*
X0074506Y0285136D03*
X0074506Y0285530D03*
X0074506Y0285923D03*
X0074506Y0286317D03*
X0074506Y0286711D03*
X0074506Y0287104D03*
X0074900Y0287892D03*
X0074900Y0288285D03*
X0075293Y0289073D03*
X0075687Y0289467D03*
X0068600Y0304427D03*
X0068600Y0304821D03*
X0068994Y0306002D03*
X0068994Y0306396D03*
X0068994Y0307577D03*
X0068994Y0307970D03*
X0068994Y0308364D03*
X0068600Y0309152D03*
X0073325Y0319781D03*
X0073719Y0320569D03*
X0074112Y0321356D03*
X0074900Y0322931D03*
X0075293Y0323325D03*
X0066632Y0351278D03*
X0067026Y0351671D03*
X0055215Y0335530D03*
X0055608Y0334742D03*
X0055608Y0334348D03*
X0055608Y0333955D03*
X0055608Y0331199D03*
X0055608Y0330805D03*
X0055608Y0330411D03*
X0055215Y0329624D03*
X0055215Y0329230D03*
X0050490Y0321750D03*
X0050490Y0321356D03*
X0050096Y0320963D03*
X0050096Y0320569D03*
X0050096Y0320175D03*
X0050096Y0319781D03*
X0050096Y0319388D03*
X0050490Y0318600D03*
X0050490Y0318207D03*
X0038679Y0318207D03*
X0029624Y0325687D03*
X0042222Y0343404D03*
X0042222Y0343797D03*
X0042222Y0344191D03*
X0042222Y0344585D03*
X0042222Y0344978D03*
X0042222Y0345372D03*
X0042222Y0345766D03*
X0042616Y0346159D03*
X0042616Y0346553D03*
X0047341Y0351671D03*
X0042222Y0356002D03*
X0042222Y0356396D03*
X0042222Y0356789D03*
X0042222Y0357183D03*
X0020569Y0361907D03*
X0020569Y0362301D03*
X0020175Y0361514D03*
X0020175Y0361120D03*
X0020175Y0360726D03*
X0020175Y0360333D03*
X0019781Y0359545D03*
X0019781Y0359152D03*
X0019388Y0358364D03*
X0019388Y0357970D03*
X0019388Y0357577D03*
X0018994Y0356789D03*
X0018994Y0356396D03*
X0018994Y0356002D03*
X0018600Y0355608D03*
X0018600Y0355215D03*
X0018600Y0354821D03*
X0018600Y0354427D03*
X0018207Y0354033D03*
X0018207Y0353640D03*
X0018207Y0353246D03*
X0017813Y0352459D03*
X0017813Y0352065D03*
X0017813Y0351671D03*
X0017419Y0351278D03*
X0017419Y0350884D03*
X0017419Y0350490D03*
X0017026Y0349703D03*
X0017026Y0349309D03*
X0017026Y0348915D03*
X0016632Y0348522D03*
X0016632Y0348128D03*
X0016632Y0347734D03*
X0016632Y0347341D03*
X0022537Y0300884D03*
X0023325Y0289467D03*
X0031593Y0279230D03*
X0038679Y0288679D03*
X0014663Y0270175D03*
X0022537Y0228443D03*
X0026474Y0222931D03*
X0026868Y0222144D03*
X0028049Y0220175D03*
X0027656Y0180805D03*
X0027656Y0180411D03*
X0027656Y0180018D03*
X0027656Y0179624D03*
X0027656Y0179230D03*
X0027656Y0178837D03*
X0027656Y0178443D03*
X0027656Y0178049D03*
X0027656Y0177656D03*
X0027656Y0177262D03*
X0027656Y0176868D03*
X0027656Y0176474D03*
X0027656Y0176081D03*
X0027656Y0175687D03*
X0027656Y0175293D03*
X0027656Y0174900D03*
X0027656Y0174506D03*
X0027656Y0174112D03*
X0027656Y0173719D03*
X0027656Y0173325D03*
X0027656Y0172931D03*
X0027656Y0172537D03*
X0027656Y0172144D03*
X0027656Y0171750D03*
X0027656Y0171356D03*
X0030805Y0180805D03*
X0024506Y0180805D03*
X0034742Y0171356D03*
X0039073Y0175293D03*
X0040648Y0178443D03*
X0040648Y0178837D03*
X0040648Y0179624D03*
X0040648Y0180018D03*
X0048915Y0179230D03*
X0048915Y0178837D03*
X0048915Y0178443D03*
X0048915Y0178049D03*
X0048915Y0177656D03*
X0048915Y0177262D03*
X0048915Y0176868D03*
X0048915Y0176474D03*
X0048915Y0176081D03*
X0048915Y0175687D03*
X0048915Y0175293D03*
X0048915Y0174900D03*
X0048915Y0174506D03*
X0048915Y0174112D03*
X0048915Y0173719D03*
X0048915Y0173325D03*
X0048915Y0172931D03*
X0048915Y0182380D03*
X0065057Y0180411D03*
X0065057Y0180018D03*
X0065057Y0179624D03*
X0065057Y0179230D03*
X0065057Y0178837D03*
X0065057Y0178443D03*
X0065057Y0178049D03*
X0065057Y0177656D03*
X0065057Y0177262D03*
X0065057Y0176868D03*
X0065057Y0176474D03*
X0065057Y0176081D03*
X0065057Y0175687D03*
X0065057Y0175293D03*
X0065057Y0174900D03*
X0065057Y0174506D03*
X0065057Y0174112D03*
X0065057Y0173719D03*
X0065057Y0173325D03*
X0065057Y0172931D03*
X0065057Y0172537D03*
X0065057Y0172144D03*
X0065057Y0171750D03*
X0065057Y0171356D03*
X0072144Y0171356D03*
X0072144Y0171750D03*
X0072144Y0172144D03*
X0072144Y0172537D03*
X0072144Y0172931D03*
X0072144Y0173325D03*
X0072144Y0173719D03*
X0072144Y0174112D03*
X0072144Y0174506D03*
X0072144Y0174900D03*
X0072144Y0175293D03*
X0072144Y0177656D03*
X0072144Y0178049D03*
X0072144Y0178443D03*
X0072144Y0178837D03*
X0072144Y0179230D03*
X0072144Y0179624D03*
X0072144Y0180018D03*
X0072144Y0180411D03*
X0072144Y0180805D03*
X0095766Y0226868D03*
X0102459Y0233167D03*
X0102459Y0233561D03*
X0102852Y0234348D03*
X0102852Y0234742D03*
X0102852Y0235136D03*
X0102852Y0237498D03*
X0102852Y0237892D03*
X0107577Y0248915D03*
X0107577Y0249309D03*
X0107970Y0250096D03*
X0108758Y0251671D03*
X0109152Y0252459D03*
X0109545Y0252852D03*
X0121750Y0269388D03*
X0134742Y0289073D03*
X0135530Y0290254D03*
X0135530Y0290648D03*
X0135530Y0291041D03*
X0140648Y0274900D03*
X0153640Y0286711D03*
X0160726Y0295372D03*
X0161120Y0296159D03*
X0161120Y0296553D03*
X0161120Y0296947D03*
X0161514Y0297734D03*
X0161514Y0298128D03*
X0161514Y0298522D03*
X0161907Y0299309D03*
X0161907Y0299703D03*
X0161907Y0300096D03*
X0161907Y0300490D03*
X0162301Y0300884D03*
X0162301Y0301278D03*
X0162301Y0301671D03*
X0162695Y0302459D03*
X0162695Y0302852D03*
X0162695Y0303246D03*
X0162695Y0303640D03*
X0163089Y0304427D03*
X0163089Y0304821D03*
X0163089Y0305215D03*
X0163482Y0305608D03*
X0163482Y0306002D03*
X0163482Y0306396D03*
X0163482Y0306789D03*
X0163876Y0307577D03*
X0163876Y0307970D03*
X0163876Y0308364D03*
X0163876Y0308758D03*
X0164270Y0309152D03*
X0164270Y0309545D03*
X0164270Y0309939D03*
X0164663Y0310726D03*
X0164663Y0311120D03*
X0164663Y0311514D03*
X0165057Y0312695D03*
X0165057Y0313089D03*
X0165057Y0313482D03*
X0165451Y0313876D03*
X0165451Y0314270D03*
X0165451Y0314663D03*
X0165451Y0315057D03*
X0165844Y0315844D03*
X0165844Y0316238D03*
X0165844Y0316632D03*
X0166238Y0317419D03*
X0166238Y0317813D03*
X0166238Y0318207D03*
X0166238Y0318600D03*
X0172931Y0340254D03*
X0172537Y0340648D03*
X0172537Y0341041D03*
X0172537Y0341435D03*
X0172537Y0341829D03*
X0172537Y0342222D03*
X0172537Y0342616D03*
X0172537Y0343010D03*
X0172537Y0343404D03*
X0172931Y0343797D03*
X0172931Y0344191D03*
X0170963Y0353246D03*
X0170963Y0353640D03*
X0170963Y0355215D03*
X0170963Y0355608D03*
X0170963Y0356002D03*
X0171356Y0356789D03*
X0185530Y0332774D03*
X0185923Y0331986D03*
X0185923Y0331593D03*
X0185923Y0331199D03*
X0185923Y0330411D03*
X0185923Y0329230D03*
X0185923Y0328443D03*
X0185923Y0328049D03*
X0185923Y0327656D03*
X0185530Y0327262D03*
X0180411Y0318207D03*
X0180411Y0317813D03*
X0180411Y0317419D03*
X0180411Y0317026D03*
X0180411Y0316632D03*
X0180805Y0315844D03*
X0192222Y0295372D03*
X0198522Y0301671D03*
X0198915Y0302065D03*
X0198915Y0302459D03*
X0199309Y0303246D03*
X0199309Y0303640D03*
X0199309Y0304033D03*
X0199309Y0304427D03*
X0199309Y0304821D03*
X0199309Y0305215D03*
X0199309Y0305608D03*
X0198915Y0306396D03*
X0203640Y0317026D03*
X0203640Y0317419D03*
X0204033Y0318207D03*
X0204427Y0318994D03*
X0205608Y0320963D03*
X0218994Y0339073D03*
X0219388Y0339860D03*
X0219388Y0340254D03*
X0236317Y0327656D03*
X0241829Y0308758D03*
X0240254Y0291829D03*
X0243797Y0286711D03*
X0245766Y0283561D03*
X0245766Y0283167D03*
X0256002Y0301278D03*
X0273325Y0298915D03*
X0275293Y0281199D03*
X0278837Y0276474D03*
X0266238Y0262301D03*
X0265844Y0246947D03*
X0254033Y0213482D03*
X0254033Y0213089D03*
X0248128Y0179624D03*
X0248128Y0179230D03*
X0248128Y0178837D03*
X0248128Y0178443D03*
X0247734Y0177656D03*
X0248522Y0174506D03*
X0248522Y0174112D03*
X0248522Y0173719D03*
X0248128Y0173325D03*
X0248128Y0172931D03*
X0234348Y0201278D03*
X0234348Y0201671D03*
X0234348Y0202065D03*
X0234348Y0202459D03*
X0234348Y0202852D03*
X0234348Y0203246D03*
X0234348Y0203640D03*
X0234348Y0204033D03*
X0234742Y0204427D03*
X0234742Y0204821D03*
X0221750Y0214270D03*
X0228443Y0220963D03*
X0228443Y0221356D03*
X0228443Y0221750D03*
X0228837Y0222537D03*
X0228837Y0222931D03*
X0228837Y0223325D03*
X0228837Y0223719D03*
X0228837Y0224112D03*
X0228837Y0224506D03*
X0228443Y0225293D03*
X0228443Y0225687D03*
X0210333Y0176868D03*
X0210726Y0175687D03*
X0211907Y0172931D03*
X0211907Y0172537D03*
X0211907Y0172144D03*
X0212301Y0171750D03*
X0212301Y0171356D03*
X0204427Y0172931D03*
X0204033Y0172144D03*
X0204033Y0171750D03*
X0203640Y0171356D03*
X0203640Y0170963D03*
X0205215Y0175293D03*
X0205608Y0176081D03*
X0205608Y0176474D03*
X0206002Y0177262D03*
X0206002Y0177656D03*
X0206396Y0178443D03*
X0176081Y0263482D03*
X0176474Y0264270D03*
X0176474Y0264663D03*
X0176474Y0265057D03*
X0176868Y0265451D03*
X0176868Y0265844D03*
X0176868Y0266238D03*
X0176868Y0266632D03*
X0177262Y0267026D03*
X0177262Y0267419D03*
X0177262Y0267813D03*
X0177656Y0268207D03*
X0177656Y0268600D03*
X0177656Y0268994D03*
X0177656Y0269388D03*
X0178049Y0270175D03*
X0178049Y0270569D03*
X0178443Y0271356D03*
X0178443Y0271750D03*
X0178443Y0272144D03*
X0178837Y0272931D03*
X0178837Y0273325D03*
X0178837Y0273719D03*
X0179230Y0274112D03*
X0179230Y0274506D03*
X0179230Y0274900D03*
X0179230Y0275293D03*
X0179624Y0275687D03*
X0179624Y0276081D03*
X0180018Y0277262D03*
X0180018Y0277656D03*
X0180018Y0278049D03*
X0180411Y0278443D03*
X0180411Y0278837D03*
X0168600Y0285923D03*
X0146947Y0345372D03*
X0146947Y0345766D03*
X0146947Y0346159D03*
X0147341Y0346553D03*
X0147341Y0346947D03*
X0147341Y0347341D03*
X0147734Y0347734D03*
X0147734Y0348128D03*
X0147734Y0348522D03*
X0147734Y0348915D03*
X0148128Y0349703D03*
X0148128Y0350096D03*
X0148522Y0350884D03*
X0148522Y0351278D03*
X0148522Y0351671D03*
X0148915Y0352459D03*
X0148915Y0352852D03*
X0148915Y0353246D03*
X0149309Y0353640D03*
X0149309Y0354033D03*
X0149309Y0354427D03*
X0149309Y0354821D03*
X0149703Y0355215D03*
X0149703Y0355608D03*
X0149703Y0356002D03*
X0150096Y0356789D03*
X0150096Y0357183D03*
X0150096Y0357577D03*
X0150490Y0357970D03*
X0150490Y0358364D03*
X0150490Y0358758D03*
X0150884Y0359939D03*
X0134742Y0357183D03*
X0119781Y0357577D03*
X0106002Y0330411D03*
X0104821Y0313089D03*
X0094191Y0296947D03*
X0094191Y0296553D03*
X0088679Y0290648D03*
X0119781Y0295766D03*
X0119781Y0296159D03*
X0101278Y0361514D03*
X0093010Y0437498D03*
X0093010Y0437892D03*
X0093010Y0438285D03*
X0093404Y0439073D03*
X0093404Y0439467D03*
X0093404Y0439860D03*
X0093797Y0440648D03*
X0093797Y0441041D03*
X0093797Y0441435D03*
X0093797Y0441829D03*
X0094191Y0442222D03*
X0094191Y0442616D03*
X0094191Y0443010D03*
X0094585Y0443797D03*
X0094585Y0444191D03*
X0094585Y0444585D03*
X0094585Y0444978D03*
X0094978Y0445766D03*
X0094978Y0446159D03*
X0094978Y0446553D03*
X0095372Y0446947D03*
X0095372Y0447341D03*
X0095372Y0447734D03*
X0095372Y0448128D03*
X0095766Y0448915D03*
X0095766Y0449309D03*
X0095766Y0449703D03*
X0095766Y0450096D03*
X0096159Y0450490D03*
X0096159Y0450884D03*
X0096159Y0451278D03*
X0096553Y0452065D03*
X0096553Y0452459D03*
X0096553Y0452852D03*
X0096947Y0454033D03*
X0096947Y0454427D03*
X0096947Y0454821D03*
X0097341Y0455215D03*
X0097341Y0455608D03*
X0097341Y0456002D03*
X0097341Y0456396D03*
X0097734Y0457183D03*
X0097734Y0457577D03*
X0097734Y0457970D03*
X0097734Y0458364D03*
X0098128Y0458758D03*
X0098128Y0459152D03*
X0098128Y0459545D03*
X0098128Y0459939D03*
X0098522Y0460333D03*
X0112301Y0459545D03*
X0112301Y0459152D03*
X0112695Y0457970D03*
X0113089Y0457183D03*
X0112695Y0460726D03*
X0117419Y0468600D03*
X0117813Y0468994D03*
X0117813Y0469388D03*
X0117813Y0469781D03*
X0118207Y0473325D03*
X0117813Y0473719D03*
X0117813Y0474112D03*
X0117419Y0474506D03*
X0104821Y0481986D03*
X0104821Y0482380D03*
X0104427Y0482774D03*
X0104427Y0483167D03*
X0104427Y0483561D03*
X0104427Y0483955D03*
X0104427Y0484348D03*
X0083955Y0445766D03*
X0052065Y0437892D03*
X0046553Y0446159D03*
X0026081Y0438679D03*
X0026081Y0438285D03*
X0007183Y0430411D03*
X0006789Y0430018D03*
X0006789Y0429624D03*
X0006789Y0429230D03*
X0006396Y0428443D03*
X0006396Y0428049D03*
X0006396Y0427656D03*
X0006396Y0427262D03*
X0006002Y0462695D03*
X0006002Y0463089D03*
X0007183Y0465057D03*
X0021356Y0484742D03*
X0026081Y0490648D03*
X0124112Y0437104D03*
X0130411Y0443404D03*
X0130805Y0443797D03*
X0130805Y0444191D03*
X0131199Y0444585D03*
X0131199Y0444978D03*
X0131199Y0445372D03*
X0131199Y0445766D03*
X0131199Y0446159D03*
X0131199Y0446553D03*
X0131199Y0446947D03*
X0131199Y0447341D03*
X0131199Y0447734D03*
X0131199Y0448128D03*
X0130805Y0448522D03*
X0135530Y0459152D03*
X0135923Y0459939D03*
X0151278Y0481593D03*
X0151278Y0481986D03*
X0168207Y0464270D03*
X0197341Y0430018D03*
X0196947Y0428837D03*
X0202852Y0414270D03*
X0202459Y0398915D03*
X0189073Y0385923D03*
X0190254Y0364663D03*
X0189860Y0363876D03*
X0224506Y0294585D03*
X0224506Y0294191D03*
X0224112Y0293404D03*
X0223719Y0292616D03*
X0205608Y0286317D03*
X0205215Y0285530D03*
X0205215Y0285136D03*
X0204821Y0284742D03*
X0204821Y0284348D03*
X0204821Y0283955D03*
X0204821Y0283561D03*
X0204821Y0283167D03*
X0204821Y0282774D03*
X0204821Y0282380D03*
X0204821Y0281986D03*
X0252852Y0370569D03*
X0252852Y0370963D03*
X0252852Y0371356D03*
X0252852Y0371750D03*
X0253246Y0372144D03*
X0253246Y0372537D03*
X0253246Y0372931D03*
X0253246Y0373325D03*
X0253640Y0373719D03*
X0253640Y0374112D03*
X0253640Y0374506D03*
X0253640Y0374900D03*
X0254033Y0375293D03*
X0254033Y0375687D03*
X0254033Y0376081D03*
X0254033Y0376474D03*
X0254033Y0376868D03*
X0254427Y0377656D03*
X0254427Y0378049D03*
X0254427Y0378443D03*
X0254821Y0378837D03*
X0254821Y0379230D03*
X0254821Y0379624D03*
X0254821Y0380018D03*
X0255215Y0380411D03*
X0255215Y0380805D03*
X0255215Y0381199D03*
X0255608Y0382380D03*
X0255608Y0382774D03*
X0255608Y0383167D03*
X0256002Y0383561D03*
X0256002Y0383955D03*
X0256002Y0384348D03*
X0256002Y0384742D03*
X0256396Y0385923D03*
X0256396Y0386317D03*
X0256789Y0387104D03*
X0256789Y0387498D03*
X0256789Y0387892D03*
X0256789Y0388285D03*
X0257183Y0388679D03*
X0257183Y0389073D03*
X0257183Y0389467D03*
X0257577Y0390648D03*
X0257577Y0391041D03*
X0257577Y0391435D03*
X0257970Y0391829D03*
X0257970Y0392222D03*
X0257970Y0392616D03*
X0257970Y0393010D03*
X0258364Y0394191D03*
X0265057Y0407183D03*
X0264663Y0407970D03*
X0264663Y0408364D03*
X0264663Y0410726D03*
X0264663Y0411120D03*
X0265057Y0411514D03*
X0269781Y0416632D03*
X0262695Y0429230D03*
X0262695Y0429624D03*
X0262695Y0430018D03*
X0262695Y0430411D03*
X0262695Y0430805D03*
X0263089Y0431593D03*
X0263089Y0431986D03*
X0276868Y0434742D03*
X0261907Y0464270D03*
X0261907Y0464663D03*
X0262301Y0465451D03*
X0277262Y0486317D03*
X0254033Y0494978D03*
X0246947Y0432774D03*
X0246947Y0432380D03*
X0246947Y0431986D03*
X0246553Y0431593D03*
X0246553Y0431199D03*
X0246553Y0430805D03*
X0246553Y0430411D03*
X0246159Y0430018D03*
X0246159Y0429624D03*
X0246159Y0429230D03*
X0245766Y0428837D03*
X0245766Y0428443D03*
X0245766Y0428049D03*
X0245372Y0427262D03*
X0245372Y0426868D03*
X0245372Y0426474D03*
X0244978Y0425687D03*
X0244978Y0425293D03*
X0244978Y0424900D03*
X0244585Y0424112D03*
X0244585Y0423719D03*
X0244191Y0422931D03*
X0244191Y0422537D03*
X0244191Y0422144D03*
X0243797Y0421750D03*
X0243797Y0421356D03*
X0243797Y0420963D03*
X0243797Y0420569D03*
X0243404Y0419781D03*
X0243404Y0419388D03*
X0243010Y0418600D03*
X0243010Y0418207D03*
X0243010Y0417813D03*
X0243797Y0379624D03*
X0268994Y0342616D03*
X0268994Y0342222D03*
X0268994Y0341829D03*
X0268600Y0341041D03*
X0268600Y0340648D03*
X0268600Y0340254D03*
X0268207Y0339860D03*
X0268207Y0339467D03*
X0268207Y0339073D03*
X0269388Y0343404D03*
X0269388Y0343797D03*
X0269388Y0344191D03*
X0269781Y0344585D03*
X0269781Y0344978D03*
X0269781Y0345372D03*
X0269781Y0345766D03*
X0270175Y0346159D03*
X0270175Y0346553D03*
X0270175Y0346947D03*
X0270569Y0347734D03*
X0270569Y0348128D03*
X0270569Y0348522D03*
X0270963Y0348915D03*
X0270963Y0349309D03*
X0270963Y0349703D03*
X0271356Y0350490D03*
X0271356Y0350884D03*
X0271356Y0351278D03*
X0271356Y0351671D03*
X0271750Y0352065D03*
X0271750Y0352459D03*
X0271750Y0352852D03*
X0272144Y0353640D03*
X0272144Y0354033D03*
X0272144Y0354427D03*
X0278837Y0378049D03*
X0272931Y0383167D03*
X0272537Y0383561D03*
X0272537Y0383955D03*
X0272537Y0384348D03*
X0272537Y0384742D03*
X0272537Y0385136D03*
X0272537Y0385530D03*
X0272537Y0385923D03*
X0272537Y0386317D03*
X0272931Y0387104D03*
X0277262Y0393797D03*
X0277656Y0394585D03*
X0277656Y0394978D03*
X0278049Y0395766D03*
X0278049Y0396159D03*
X0278049Y0396553D03*
X0278049Y0396947D03*
X0278049Y0397341D03*
X0278049Y0397734D03*
X0278049Y0398128D03*
X0278049Y0398522D03*
X0278049Y0398915D03*
X0277656Y0399703D03*
X0277656Y0400096D03*
X0217813Y0469388D03*
X0217813Y0469781D03*
X0209152Y0461514D03*
X0128049Y0225687D03*
X0128049Y0225293D03*
X0144191Y0223325D03*
X0149309Y0215451D03*
X0149309Y0215057D03*
X0120569Y0180411D03*
X0108364Y0214663D03*
X0108364Y0215057D03*
X0108364Y0215451D03*
X0108758Y0216238D03*
X0108758Y0216632D03*
X0108758Y0217026D03*
X0109152Y0217813D03*
X0055608Y0235530D03*
X0048522Y0067026D03*
X0045766Y0064270D03*
X0041435Y0066632D03*
X0041435Y0067026D03*
X0041829Y0067419D03*
X0041041Y0065844D03*
X0040648Y0065057D03*
X0040648Y0064663D03*
X0040254Y0063876D03*
X0040254Y0063482D03*
X0039860Y0063089D03*
X0039860Y0062695D03*
X0039860Y0062301D03*
X0039467Y0061907D03*
X0039073Y0060726D03*
X0038679Y0059545D03*
X0035530Y0059939D03*
X0035530Y0060333D03*
X0035136Y0061120D03*
X0035136Y0061514D03*
X0034742Y0062301D03*
X0034742Y0062695D03*
X0034348Y0063089D03*
X0034348Y0063482D03*
X0034348Y0063876D03*
X0033955Y0064270D03*
X0033955Y0064663D03*
X0033561Y0065057D03*
X0033561Y0065451D03*
X0033561Y0065844D03*
X0033167Y0066238D03*
X0033167Y0066632D03*
X0032774Y0067419D03*
X0037104Y0056396D03*
X0026868Y0056002D03*
X0022931Y0059152D03*
X0022537Y0059939D03*
X0022537Y0060333D03*
X0022144Y0061120D03*
X0022144Y0061514D03*
X0022144Y0061907D03*
X0022144Y0062301D03*
X0022144Y0062695D03*
X0022537Y0063089D03*
X0022537Y0063482D03*
X0022537Y0063876D03*
X0027262Y0007970D03*
X0055608Y0019781D03*
X0055608Y0020175D03*
X0055608Y0020569D03*
X0056002Y0019388D03*
X0055608Y0022537D03*
X0055608Y0022931D03*
X0056002Y0023719D03*
X0059152Y0028837D03*
X0074112Y0009939D03*
X0074112Y0009545D03*
X0074112Y0009152D03*
X0074112Y0008758D03*
X0074112Y0007970D03*
X0074506Y0056396D03*
X0076081Y0060333D03*
X0076081Y0060726D03*
X0076474Y0061120D03*
X0076474Y0061514D03*
X0076868Y0061907D03*
X0076868Y0062301D03*
X0076868Y0062695D03*
X0077262Y0063482D03*
X0077262Y0063876D03*
X0077656Y0064270D03*
X0077656Y0064663D03*
X0078049Y0065057D03*
X0078049Y0065451D03*
X0078049Y0065844D03*
X0078443Y0066238D03*
X0078443Y0066632D03*
X0078837Y0067419D03*
X0082380Y0065057D03*
X0082380Y0064663D03*
X0082774Y0065451D03*
X0087498Y0065451D03*
X0087498Y0063482D03*
X0087498Y0063089D03*
X0087104Y0062695D03*
X0087104Y0062301D03*
X0086711Y0061907D03*
X0086317Y0061514D03*
X0085923Y0061120D03*
X0096947Y0060333D03*
X0096947Y0059939D03*
X0097341Y0059152D03*
X0096947Y0063482D03*
X0096947Y0063876D03*
X0101278Y0056002D03*
X0107577Y0066238D03*
X0107577Y0066632D03*
X0107970Y0065844D03*
X0107970Y0065451D03*
X0107970Y0065057D03*
X0108364Y0064663D03*
X0108364Y0064270D03*
X0108758Y0063876D03*
X0108758Y0063482D03*
X0108758Y0063089D03*
X0109152Y0062695D03*
X0109152Y0062301D03*
X0109545Y0061907D03*
X0109545Y0061514D03*
X0109939Y0060333D03*
X0113089Y0059545D03*
X0113482Y0060726D03*
X0113876Y0061907D03*
X0114270Y0062301D03*
X0114270Y0062695D03*
X0114270Y0063089D03*
X0114663Y0063482D03*
X0114663Y0063876D03*
X0115057Y0064663D03*
X0115057Y0065057D03*
X0115451Y0065844D03*
X0115451Y0066238D03*
X0115844Y0066632D03*
X0115844Y0067026D03*
X0116238Y0067419D03*
X0120175Y0065451D03*
X0119781Y0064663D03*
X0124506Y0063089D03*
X0124900Y0063482D03*
X0124900Y0065451D03*
X0125293Y0060726D03*
X0125293Y0060333D03*
X0125293Y0059939D03*
X0125293Y0059545D03*
X0125293Y0059152D03*
X0125293Y0058758D03*
X0119781Y0058364D03*
X0111514Y0056396D03*
X0107183Y0067419D03*
X0133561Y0063089D03*
X0133561Y0062695D03*
X0133561Y0062301D03*
X0133561Y0061907D03*
X0133561Y0061514D03*
X0133561Y0061120D03*
X0133561Y0060726D03*
X0144191Y0067026D03*
X0144585Y0065844D03*
X0144978Y0065057D03*
X0144978Y0064663D03*
X0145372Y0064270D03*
X0145372Y0063876D03*
X0145766Y0063089D03*
X0145766Y0062695D03*
X0146159Y0061907D03*
X0146159Y0061514D03*
X0146553Y0060726D03*
X0146947Y0059939D03*
X0148522Y0056396D03*
X0150096Y0059939D03*
X0150096Y0060333D03*
X0150490Y0061120D03*
X0150490Y0061514D03*
X0150884Y0061907D03*
X0150884Y0062301D03*
X0150884Y0062695D03*
X0151278Y0063089D03*
X0151278Y0063482D03*
X0151671Y0064270D03*
X0151671Y0064663D03*
X0152065Y0065057D03*
X0152065Y0065451D03*
X0152065Y0065844D03*
X0152459Y0066238D03*
X0152459Y0066632D03*
X0152852Y0067419D03*
X0156789Y0061907D03*
X0156002Y0060726D03*
X0160726Y0067026D03*
X0165451Y0034742D03*
X0193797Y0028049D03*
X0193797Y0027656D03*
X0193797Y0027262D03*
X0193797Y0026868D03*
X0193797Y0025293D03*
X0193797Y0024900D03*
X0194191Y0028837D03*
X0194191Y0029230D03*
X0194585Y0029624D03*
X0194978Y0030805D03*
X0195766Y0032774D03*
X0196159Y0033955D03*
X0196159Y0034348D03*
X0196159Y0034742D03*
X0196553Y0035530D03*
X0196553Y0035923D03*
X0196553Y0036317D03*
X0196553Y0036711D03*
X0196553Y0037104D03*
X0196553Y0037498D03*
X0196159Y0038679D03*
X0196159Y0039467D03*
X0204427Y0061514D03*
X0204427Y0061907D03*
X0204427Y0064663D03*
X0204427Y0065057D03*
X0204821Y0065844D03*
X0211120Y0067026D03*
X0211120Y0059545D03*
X0224506Y0023719D03*
X0215451Y0016632D03*
X0215451Y0016238D03*
X0215451Y0015844D03*
X0215451Y0015451D03*
X0215451Y0015057D03*
X0215451Y0014663D03*
X0215451Y0014270D03*
X0215057Y0013876D03*
X0215057Y0013482D03*
X0215057Y0013089D03*
X0214663Y0012301D03*
X0215057Y0017026D03*
X0215057Y0017419D03*
X0215057Y0017813D03*
X0249309Y0060726D03*
X0249703Y0061514D03*
X0249703Y0061907D03*
X0249703Y0064663D03*
X0249703Y0065057D03*
X0249309Y0065844D03*
X0278837Y0213482D03*
X0278837Y0213876D03*
X0070963Y0065057D03*
X0070963Y0064663D03*
X0070963Y0064270D03*
X0071356Y0063876D03*
X0071356Y0063482D03*
X0071750Y0063089D03*
X0071750Y0062695D03*
X0071750Y0062301D03*
X0072144Y0061907D03*
X0072144Y0061514D03*
X0072537Y0061120D03*
X0072537Y0060726D03*
X0072537Y0060333D03*
X0070569Y0065451D03*
X0070569Y0065844D03*
X0070569Y0066238D03*
X0070175Y0066632D03*
X0070175Y0067026D03*
X0069781Y0067419D03*
X0059939Y0064270D03*
X0059545Y0063482D03*
X0059545Y0063089D03*
X0059545Y0062695D03*
X0059545Y0061120D03*
X0059545Y0060726D03*
X0059545Y0060333D03*
D13*
X0047734Y0065844D03*
X0037104Y0058364D03*
X0072144Y0012695D03*
X0074506Y0058364D03*
X0111514Y0058364D03*
X0123719Y0061514D03*
X0122537Y0067419D03*
X0148522Y0058364D03*
X0148522Y0057970D03*
X0159939Y0064663D03*
X0159939Y0065057D03*
X0195372Y0022931D03*
X0211120Y0007970D03*
X0211514Y0008364D03*
X0235923Y0019388D03*
X0265844Y0012695D03*
X0274112Y0015844D03*
X0208364Y0057577D03*
X0206002Y0059545D03*
X0160726Y0180411D03*
X0160726Y0180805D03*
X0160726Y0204427D03*
X0134348Y0202459D03*
X0129624Y0199309D03*
X0124112Y0176474D03*
X0122931Y0171356D03*
X0099703Y0230018D03*
X0087498Y0266238D03*
X0078049Y0270175D03*
X0078443Y0278049D03*
X0080805Y0280018D03*
X0076868Y0290648D03*
X0065451Y0300884D03*
X0062301Y0298522D03*
X0052459Y0316238D03*
X0053640Y0337104D03*
X0044978Y0349309D03*
X0025293Y0320175D03*
X0020963Y0317419D03*
X0031593Y0280018D03*
X0017813Y0267026D03*
X0017419Y0267419D03*
X0015844Y0268600D03*
X0015451Y0268994D03*
X0048128Y0181199D03*
X0065451Y0209152D03*
X0100096Y0280411D03*
X0113089Y0287498D03*
X0131593Y0285530D03*
X0145766Y0270569D03*
X0147341Y0269388D03*
X0174112Y0338679D03*
X0174506Y0346159D03*
X0176868Y0348128D03*
X0173325Y0359152D03*
X0187892Y0361514D03*
X0203246Y0353640D03*
X0196553Y0298915D03*
X0196159Y0298522D03*
X0207183Y0288285D03*
X0212695Y0291435D03*
X0222144Y0290648D03*
X0225687Y0267813D03*
X0213482Y0253640D03*
X0213876Y0253246D03*
X0204033Y0257577D03*
X0204821Y0265844D03*
X0206396Y0267419D03*
X0226868Y0227656D03*
X0225293Y0217419D03*
X0222144Y0215057D03*
X0236711Y0207183D03*
X0259939Y0196947D03*
X0273325Y0256396D03*
X0272931Y0256789D03*
X0270963Y0258364D03*
X0270569Y0258758D03*
X0269388Y0259545D03*
X0257577Y0272931D03*
X0271750Y0300490D03*
X0243797Y0337498D03*
X0243404Y0337892D03*
X0242222Y0338679D03*
X0237892Y0341829D03*
X0237498Y0342222D03*
X0243010Y0380805D03*
X0242616Y0381199D03*
X0222931Y0411514D03*
X0209939Y0408364D03*
X0205215Y0411907D03*
X0203640Y0413089D03*
X0193797Y0424900D03*
X0207577Y0448915D03*
X0208364Y0449309D03*
X0208758Y0449703D03*
X0210333Y0450884D03*
X0212695Y0452459D03*
X0213089Y0452852D03*
X0214663Y0454033D03*
X0216238Y0455215D03*
X0217419Y0456002D03*
X0218994Y0457183D03*
X0220175Y0457970D03*
X0221356Y0458758D03*
X0221750Y0459152D03*
X0222144Y0459545D03*
X0223325Y0460333D03*
X0223719Y0460726D03*
X0224900Y0461514D03*
X0258364Y0498128D03*
X0268994Y0415844D03*
X0266238Y0406002D03*
X0274112Y0381593D03*
X0182380Y0459545D03*
X0175687Y0474112D03*
X0175293Y0474506D03*
X0170569Y0477656D03*
X0128837Y0450884D03*
X0128049Y0440254D03*
X0124506Y0437892D03*
X0114663Y0455608D03*
X0116238Y0476081D03*
X0115844Y0476474D03*
X0083167Y0446947D03*
X0082774Y0447341D03*
X0066632Y0448522D03*
X0041435Y0485136D03*
X0040254Y0485923D03*
X0025293Y0459152D03*
X0023719Y0435136D03*
X0009152Y0432774D03*
X0021356Y0493797D03*
X0020963Y0494191D03*
X0020175Y0494585D03*
X0019781Y0494978D03*
X0019388Y0495372D03*
X0017813Y0496553D03*
X0017419Y0496947D03*
X0017026Y0497341D03*
X0016632Y0497734D03*
X0015844Y0498128D03*
X0015451Y0498522D03*
X0006789Y0503246D03*
X0078837Y0358364D03*
X0067813Y0352459D03*
X0097341Y0356396D03*
X0109152Y0343404D03*
X0113482Y0340254D03*
D14*
X0113876Y0339467D03*
X0112301Y0337498D03*
X0111907Y0337104D03*
X0111514Y0336711D03*
X0111120Y0336317D03*
X0110726Y0335923D03*
X0110333Y0335530D03*
X0109939Y0335136D03*
X0109545Y0334742D03*
X0109152Y0334348D03*
X0108758Y0333955D03*
X0108364Y0333561D03*
X0107970Y0333167D03*
X0106789Y0331593D03*
X0106396Y0331199D03*
X0106789Y0345372D03*
X0098128Y0357183D03*
X0098522Y0357577D03*
X0098915Y0357970D03*
X0100096Y0359545D03*
X0089073Y0342222D03*
X0087498Y0339860D03*
X0086317Y0338285D03*
X0085923Y0337892D03*
X0085136Y0336711D03*
X0084742Y0336317D03*
X0084348Y0335923D03*
X0084348Y0335530D03*
X0083955Y0335136D03*
X0083561Y0334742D03*
X0083167Y0334348D03*
X0082774Y0333955D03*
X0082380Y0333167D03*
X0081986Y0332774D03*
X0081593Y0332380D03*
X0080411Y0330805D03*
X0079230Y0329230D03*
X0078049Y0327656D03*
X0077262Y0326474D03*
X0076868Y0326081D03*
X0076474Y0325293D03*
X0093010Y0317419D03*
X0092222Y0293797D03*
X0081199Y0280411D03*
X0078049Y0277656D03*
X0077656Y0277262D03*
X0077262Y0276868D03*
X0076474Y0290254D03*
X0067026Y0302065D03*
X0051278Y0317026D03*
X0051278Y0323325D03*
X0051671Y0323719D03*
X0052065Y0324506D03*
X0052459Y0324900D03*
X0052852Y0325293D03*
X0052852Y0325687D03*
X0053246Y0326081D03*
X0053640Y0326474D03*
X0054033Y0327262D03*
X0043404Y0347734D03*
X0043797Y0348128D03*
X0043404Y0359152D03*
X0049309Y0363089D03*
X0053246Y0360333D03*
X0067419Y0352065D03*
X0038285Y0317419D03*
X0026868Y0321356D03*
X0028049Y0306789D03*
X0027656Y0306396D03*
X0027262Y0306002D03*
X0026868Y0305608D03*
X0026474Y0305215D03*
X0026081Y0304821D03*
X0025687Y0304427D03*
X0025293Y0304033D03*
X0024900Y0303640D03*
X0024506Y0303246D03*
X0024112Y0302852D03*
X0023719Y0302459D03*
X0023325Y0302065D03*
X0022931Y0301671D03*
X0023719Y0288679D03*
X0024112Y0287892D03*
X0024506Y0287498D03*
X0024900Y0287104D03*
X0025293Y0286711D03*
X0025687Y0286317D03*
X0026081Y0285923D03*
X0026474Y0285136D03*
X0026868Y0284742D03*
X0027262Y0284348D03*
X0027656Y0283955D03*
X0028049Y0283561D03*
X0028443Y0283167D03*
X0028837Y0282774D03*
X0029230Y0282380D03*
X0029624Y0281986D03*
X0031593Y0279624D03*
X0033561Y0281986D03*
X0033561Y0282380D03*
X0033955Y0282774D03*
X0034348Y0283167D03*
X0034742Y0283561D03*
X0035136Y0283955D03*
X0035530Y0284348D03*
X0035530Y0284742D03*
X0035923Y0285136D03*
X0036317Y0285530D03*
X0036711Y0285923D03*
X0036711Y0286317D03*
X0037104Y0286711D03*
X0037498Y0287104D03*
X0037892Y0287498D03*
X0038285Y0287892D03*
X0021750Y0263482D03*
X0021356Y0263089D03*
X0020963Y0262695D03*
X0020569Y0262301D03*
X0019388Y0260726D03*
X0018994Y0260333D03*
X0018600Y0259939D03*
X0018207Y0259545D03*
X0017813Y0259152D03*
X0017419Y0258758D03*
X0017026Y0258364D03*
X0016632Y0257970D03*
X0016238Y0257577D03*
X0015844Y0257183D03*
X0015451Y0256789D03*
X0015057Y0256396D03*
X0014663Y0255608D03*
X0014270Y0255215D03*
X0014663Y0269781D03*
X0022931Y0227656D03*
X0023325Y0226868D03*
X0023719Y0226474D03*
X0024112Y0226081D03*
X0024506Y0225687D03*
X0024900Y0225293D03*
X0025293Y0224506D03*
X0026081Y0223325D03*
X0048522Y0181593D03*
X0065451Y0208758D03*
X0067419Y0211120D03*
X0067813Y0211514D03*
X0068207Y0211907D03*
X0068600Y0212695D03*
X0068994Y0213089D03*
X0069388Y0213482D03*
X0069781Y0213876D03*
X0070175Y0214270D03*
X0070175Y0214663D03*
X0070569Y0215057D03*
X0070963Y0215451D03*
X0071356Y0215844D03*
X0071750Y0216238D03*
X0063482Y0211120D03*
X0063089Y0211514D03*
X0062695Y0211907D03*
X0062301Y0212301D03*
X0061907Y0212695D03*
X0061514Y0213089D03*
X0061120Y0213482D03*
X0060333Y0214663D03*
X0059939Y0215057D03*
X0059545Y0215451D03*
X0059152Y0215844D03*
X0058758Y0216238D03*
X0058364Y0216632D03*
X0057970Y0217026D03*
X0057970Y0217419D03*
X0057577Y0217813D03*
X0055215Y0236317D03*
X0085136Y0246553D03*
X0085923Y0253246D03*
X0086317Y0253640D03*
X0086711Y0254427D03*
X0087104Y0254821D03*
X0087498Y0255215D03*
X0087498Y0255608D03*
X0087892Y0256002D03*
X0088285Y0265451D03*
X0102065Y0239467D03*
X0100884Y0231199D03*
X0100490Y0230805D03*
X0096159Y0227262D03*
X0110333Y0219388D03*
X0126081Y0222537D03*
X0126474Y0222931D03*
X0110726Y0254821D03*
X0111514Y0256002D03*
X0111907Y0256396D03*
X0112695Y0257577D03*
X0113482Y0258758D03*
X0115057Y0260726D03*
X0115844Y0261514D03*
X0116632Y0262695D03*
X0117026Y0263089D03*
X0117813Y0264270D03*
X0118207Y0264663D03*
X0118600Y0265057D03*
X0118994Y0265451D03*
X0119388Y0266238D03*
X0119781Y0266632D03*
X0132774Y0286317D03*
X0132774Y0286711D03*
X0133955Y0287892D03*
X0140648Y0274506D03*
X0146947Y0267419D03*
X0146553Y0267026D03*
X0146159Y0266632D03*
X0145766Y0266238D03*
X0145372Y0265844D03*
X0144191Y0264270D03*
X0143797Y0263876D03*
X0143404Y0263482D03*
X0143010Y0263089D03*
X0142616Y0262695D03*
X0142222Y0262301D03*
X0141829Y0261907D03*
X0141435Y0261514D03*
X0141041Y0261120D03*
X0140648Y0260726D03*
X0140254Y0260333D03*
X0147341Y0267813D03*
X0147734Y0268207D03*
X0147734Y0268600D03*
X0158364Y0280805D03*
X0157970Y0281199D03*
X0157577Y0281986D03*
X0157183Y0282380D03*
X0156789Y0282774D03*
X0156396Y0283167D03*
X0156002Y0283561D03*
X0155608Y0283955D03*
X0155215Y0284348D03*
X0154427Y0285530D03*
X0154033Y0285923D03*
X0158758Y0280411D03*
X0159152Y0280018D03*
X0159545Y0279624D03*
X0161907Y0276868D03*
X0163876Y0279624D03*
X0164270Y0280018D03*
X0165057Y0281199D03*
X0165451Y0281593D03*
X0166238Y0282774D03*
X0166632Y0283167D03*
X0167026Y0283561D03*
X0167419Y0283955D03*
X0167813Y0284348D03*
X0167813Y0284742D03*
X0168207Y0285136D03*
X0181986Y0314270D03*
X0181593Y0314663D03*
X0181199Y0315057D03*
X0181199Y0320175D03*
X0181593Y0320963D03*
X0182380Y0321750D03*
X0182774Y0322537D03*
X0183167Y0322931D03*
X0183561Y0323719D03*
X0183955Y0324112D03*
X0184348Y0324506D03*
X0184742Y0325293D03*
X0185136Y0326081D03*
X0184742Y0333955D03*
X0177262Y0348522D03*
X0174112Y0345766D03*
X0173719Y0345372D03*
X0173325Y0339467D03*
X0173719Y0339073D03*
X0172537Y0358364D03*
X0198128Y0307970D03*
X0197734Y0300096D03*
X0197341Y0299703D03*
X0196947Y0299309D03*
X0206396Y0287498D03*
X0206789Y0267813D03*
X0203640Y0264663D03*
X0203246Y0264270D03*
X0202852Y0258364D03*
X0212301Y0241435D03*
X0211907Y0241041D03*
X0211514Y0240254D03*
X0211120Y0239860D03*
X0212695Y0241829D03*
X0213089Y0242616D03*
X0213482Y0243010D03*
X0213876Y0243797D03*
X0214663Y0252459D03*
X0214270Y0252852D03*
X0211120Y0233561D03*
X0226474Y0218207D03*
X0226868Y0218600D03*
X0227656Y0226868D03*
X0227262Y0227262D03*
X0247734Y0180018D03*
X0247734Y0172537D03*
X0259545Y0196553D03*
X0274506Y0220175D03*
X0274900Y0219781D03*
X0274900Y0219388D03*
X0275293Y0218994D03*
X0275687Y0218600D03*
X0276081Y0218207D03*
X0278049Y0215451D03*
X0278443Y0214663D03*
X0266238Y0247734D03*
X0266632Y0248128D03*
X0267026Y0248522D03*
X0268207Y0250096D03*
X0268600Y0250490D03*
X0268994Y0250884D03*
X0269388Y0251278D03*
X0269781Y0251671D03*
X0270175Y0252065D03*
X0270569Y0252459D03*
X0270963Y0252852D03*
X0271356Y0253246D03*
X0271750Y0253640D03*
X0272144Y0254033D03*
X0273719Y0256002D03*
X0266632Y0261907D03*
X0257970Y0273325D03*
X0258364Y0273719D03*
X0258758Y0274112D03*
X0259152Y0274506D03*
X0272931Y0299309D03*
X0275687Y0280411D03*
X0276081Y0280018D03*
X0276474Y0279624D03*
X0276868Y0279230D03*
X0277656Y0278049D03*
X0278049Y0277656D03*
X0278443Y0277262D03*
X0243797Y0336317D03*
X0243404Y0335923D03*
X0243010Y0335530D03*
X0242616Y0335136D03*
X0244191Y0336711D03*
X0244191Y0337104D03*
X0241041Y0333167D03*
X0240648Y0332774D03*
X0240254Y0332380D03*
X0239073Y0331199D03*
X0238679Y0330805D03*
X0238285Y0330411D03*
X0237892Y0330018D03*
X0237498Y0329624D03*
X0237104Y0329230D03*
X0236711Y0328443D03*
X0237104Y0342616D03*
X0218207Y0337892D03*
X0217026Y0336317D03*
X0216632Y0335923D03*
X0216238Y0335136D03*
X0215844Y0334742D03*
X0215451Y0334348D03*
X0214270Y0332774D03*
X0213089Y0331199D03*
X0211514Y0329230D03*
X0211120Y0328837D03*
X0210726Y0328443D03*
X0210333Y0327656D03*
X0209939Y0327262D03*
X0209545Y0326868D03*
X0208758Y0325687D03*
X0208364Y0325293D03*
X0222931Y0291435D03*
X0240648Y0291041D03*
X0241041Y0290254D03*
X0241435Y0289860D03*
X0241829Y0289467D03*
X0242222Y0289073D03*
X0197734Y0206789D03*
X0197341Y0206396D03*
X0196159Y0204821D03*
X0195766Y0204427D03*
X0194978Y0203246D03*
X0194585Y0202852D03*
X0194191Y0202459D03*
X0193797Y0202065D03*
X0193404Y0201278D03*
X0187892Y0202459D03*
X0187104Y0203640D03*
X0186711Y0204033D03*
X0186317Y0204427D03*
X0185923Y0204821D03*
X0185530Y0205215D03*
X0184742Y0206396D03*
X0184348Y0206789D03*
X0183955Y0207183D03*
X0183561Y0207577D03*
X0181199Y0223719D03*
X0187892Y0249309D03*
X0163876Y0207577D03*
X0163089Y0206396D03*
X0162695Y0206002D03*
X0162301Y0205608D03*
X0161907Y0205215D03*
X0148915Y0216238D03*
X0147734Y0218207D03*
X0146553Y0219781D03*
X0145372Y0221356D03*
X0144978Y0221750D03*
X0144585Y0222144D03*
X0144585Y0222537D03*
X0151278Y0180805D03*
X0152459Y0172144D03*
X0152852Y0171356D03*
X0161120Y0181593D03*
X0123719Y0177656D03*
X0123719Y0177262D03*
X0114663Y0173719D03*
X0085530Y0182774D03*
X0078837Y0171356D03*
X0097734Y0065057D03*
X0098128Y0058364D03*
X0110333Y0037104D03*
X0109939Y0036711D03*
X0109545Y0036317D03*
X0109152Y0035923D03*
X0109152Y0035530D03*
X0108758Y0035136D03*
X0110726Y0037498D03*
X0111120Y0037892D03*
X0111514Y0038285D03*
X0111907Y0038679D03*
X0112301Y0039073D03*
X0112695Y0039467D03*
X0113089Y0039860D03*
X0113482Y0040254D03*
X0113876Y0040648D03*
X0124506Y0057970D03*
X0124506Y0061120D03*
X0123325Y0062301D03*
X0123719Y0062695D03*
X0134348Y0058758D03*
X0148522Y0057183D03*
X0160333Y0065844D03*
X0194978Y0023325D03*
X0212301Y0009152D03*
X0212695Y0009545D03*
X0213089Y0009939D03*
X0214270Y0018994D03*
X0213876Y0019388D03*
X0237498Y0033167D03*
X0237892Y0033561D03*
X0240648Y0036711D03*
X0241041Y0037104D03*
X0241829Y0037892D03*
X0243010Y0039073D03*
X0118994Y0297734D03*
X0118600Y0298522D03*
X0117813Y0299703D03*
X0117419Y0300096D03*
X0116632Y0301278D03*
X0115451Y0302852D03*
X0115057Y0303246D03*
X0114663Y0303640D03*
X0125687Y0350490D03*
X0125293Y0350884D03*
X0124900Y0351278D03*
X0124506Y0351671D03*
X0124112Y0352065D03*
X0123719Y0352459D03*
X0123325Y0352852D03*
X0122931Y0353640D03*
X0122537Y0354033D03*
X0122144Y0354427D03*
X0121750Y0354821D03*
X0121356Y0355215D03*
X0120963Y0355608D03*
X0120175Y0356789D03*
X0119781Y0357183D03*
X0130018Y0350884D03*
X0130411Y0351278D03*
X0131199Y0352065D03*
X0131593Y0352852D03*
X0131986Y0353246D03*
X0132380Y0353640D03*
X0132774Y0354033D03*
X0132774Y0354427D03*
X0133167Y0354821D03*
X0133561Y0355215D03*
X0133955Y0355608D03*
X0134348Y0356002D03*
X0124112Y0437498D03*
X0128443Y0440648D03*
X0129230Y0441435D03*
X0129624Y0441829D03*
X0139860Y0466238D03*
X0140254Y0467026D03*
X0140648Y0467419D03*
X0141829Y0468994D03*
X0142222Y0469388D03*
X0143404Y0470963D03*
X0144585Y0472537D03*
X0144978Y0472931D03*
X0146159Y0474506D03*
X0146553Y0474900D03*
X0147341Y0476081D03*
X0147734Y0476474D03*
X0148128Y0476868D03*
X0148522Y0477656D03*
X0148915Y0478049D03*
X0149703Y0479230D03*
X0167026Y0452459D03*
X0168600Y0465057D03*
X0168994Y0465451D03*
X0169388Y0465844D03*
X0169781Y0466238D03*
X0170175Y0466632D03*
X0173719Y0470569D03*
X0174112Y0470963D03*
X0174506Y0471356D03*
X0174900Y0471750D03*
X0175293Y0472144D03*
X0175687Y0472537D03*
X0176081Y0472931D03*
X0176081Y0473325D03*
X0168994Y0479230D03*
X0181986Y0459152D03*
X0196159Y0427656D03*
X0195766Y0426868D03*
X0195372Y0426474D03*
X0194978Y0426081D03*
X0194585Y0425687D03*
X0209545Y0406789D03*
X0209152Y0406396D03*
X0208758Y0406002D03*
X0208364Y0405608D03*
X0207970Y0405215D03*
X0207577Y0404821D03*
X0207183Y0404427D03*
X0206789Y0404033D03*
X0206396Y0403640D03*
X0206002Y0403246D03*
X0205608Y0402852D03*
X0205215Y0402459D03*
X0204821Y0402065D03*
X0202852Y0399703D03*
X0202459Y0399309D03*
X0209939Y0407577D03*
X0243404Y0380411D03*
X0265844Y0406396D03*
X0265451Y0406789D03*
X0265844Y0413089D03*
X0269388Y0416238D03*
X0276868Y0401278D03*
X0276474Y0392222D03*
X0276081Y0391829D03*
X0276081Y0391435D03*
X0275687Y0391041D03*
X0275293Y0390648D03*
X0274900Y0390254D03*
X0274900Y0389860D03*
X0274506Y0389467D03*
X0274112Y0389073D03*
X0273325Y0382380D03*
X0273719Y0381986D03*
X0264270Y0433955D03*
X0264663Y0434348D03*
X0265451Y0470569D03*
X0266238Y0471750D03*
X0266632Y0472144D03*
X0267419Y0473325D03*
X0267813Y0473719D03*
X0268600Y0474900D03*
X0268994Y0475293D03*
X0270175Y0476868D03*
X0271750Y0478837D03*
X0272144Y0479230D03*
X0272931Y0480411D03*
X0273325Y0480805D03*
X0273719Y0481199D03*
X0274112Y0481986D03*
X0274506Y0482380D03*
X0274900Y0482774D03*
X0275687Y0483955D03*
X0216238Y0476868D03*
X0216238Y0467026D03*
X0215844Y0466632D03*
X0215451Y0465844D03*
X0215057Y0465451D03*
X0116632Y0467026D03*
X0116238Y0466238D03*
X0115844Y0465844D03*
X0115451Y0465451D03*
X0115451Y0465057D03*
X0115057Y0464663D03*
X0114663Y0464270D03*
X0113876Y0456396D03*
X0117026Y0475293D03*
X0116632Y0475687D03*
X0083561Y0446553D03*
X0052459Y0455608D03*
X0046947Y0445372D03*
X0047341Y0444978D03*
X0047341Y0444585D03*
X0047734Y0444191D03*
X0048128Y0443797D03*
X0048522Y0443404D03*
X0050884Y0439860D03*
X0038285Y0472931D03*
X0038285Y0473325D03*
X0039467Y0474506D03*
X0039860Y0474900D03*
X0040254Y0475293D03*
X0041041Y0476081D03*
X0041435Y0476474D03*
X0041829Y0476868D03*
X0042222Y0477262D03*
X0042616Y0477656D03*
X0045766Y0481199D03*
X0045766Y0481593D03*
X0038679Y0487498D03*
X0033561Y0495372D03*
X0020963Y0483955D03*
X0020175Y0482774D03*
X0017813Y0479624D03*
X0017026Y0478443D03*
X0016632Y0478049D03*
X0015844Y0476868D03*
X0015451Y0476474D03*
X0015057Y0476081D03*
X0014663Y0475687D03*
X0014663Y0475293D03*
X0014270Y0474900D03*
X0013876Y0474506D03*
X0013482Y0474112D03*
X0009939Y0469388D03*
X0008364Y0467026D03*
X0025293Y0436711D03*
X0024900Y0436317D03*
X0024506Y0435923D03*
X0007970Y0431986D03*
X0023325Y0065057D03*
X0023719Y0058364D03*
X0048128Y0066238D03*
X0060333Y0058758D03*
X0074506Y0057183D03*
X0059152Y0028443D03*
X0058364Y0027262D03*
X0057970Y0026868D03*
X0057577Y0026081D03*
X0057183Y0025687D03*
X0056789Y0024900D03*
X0056789Y0018207D03*
X0072931Y0011907D03*
X0073325Y0011514D03*
X0026868Y0008364D03*
D15*
X0056199Y0018994D03*
X0056593Y0018600D03*
X0055411Y0020963D03*
X0055411Y0021356D03*
X0055411Y0021750D03*
X0055411Y0022144D03*
X0055805Y0023325D03*
X0056199Y0024112D03*
X0056593Y0024506D03*
X0056986Y0025293D03*
X0057774Y0026474D03*
X0058561Y0027656D03*
X0058955Y0028049D03*
X0073522Y0011120D03*
X0073915Y0010726D03*
X0073915Y0010333D03*
X0074309Y0008364D03*
X0074309Y0056789D03*
X0078640Y0067026D03*
X0084939Y0059939D03*
X0085333Y0060333D03*
X0085726Y0060726D03*
X0084545Y0059545D03*
X0084152Y0059152D03*
X0083758Y0058758D03*
X0083364Y0058364D03*
X0096750Y0060726D03*
X0097144Y0059545D03*
X0097537Y0058758D03*
X0096750Y0063089D03*
X0097144Y0064270D03*
X0097537Y0064663D03*
X0107380Y0067026D03*
X0111711Y0057183D03*
X0111711Y0056789D03*
X0114860Y0064270D03*
X0115254Y0065451D03*
X0120372Y0057970D03*
X0114860Y0042222D03*
X0108561Y0034742D03*
X0133758Y0059545D03*
X0133758Y0059939D03*
X0133758Y0060333D03*
X0134152Y0059152D03*
X0133758Y0063482D03*
X0133758Y0063876D03*
X0134152Y0064270D03*
X0134152Y0064663D03*
X0134545Y0065057D03*
X0143994Y0067419D03*
X0144388Y0066632D03*
X0144388Y0066238D03*
X0144781Y0065451D03*
X0148325Y0056789D03*
X0152656Y0067026D03*
X0160530Y0066632D03*
X0160530Y0066238D03*
X0161711Y0058758D03*
X0195175Y0031593D03*
X0195175Y0031199D03*
X0195569Y0031986D03*
X0195569Y0032380D03*
X0195963Y0033167D03*
X0195963Y0033561D03*
X0194781Y0030411D03*
X0194781Y0030018D03*
X0193994Y0028443D03*
X0193600Y0026474D03*
X0193600Y0026081D03*
X0193600Y0025687D03*
X0193994Y0024506D03*
X0193994Y0024112D03*
X0194388Y0023719D03*
X0195963Y0039073D03*
X0205411Y0059939D03*
X0205018Y0060333D03*
X0204624Y0060726D03*
X0204624Y0061120D03*
X0204230Y0062301D03*
X0204230Y0062695D03*
X0204230Y0063089D03*
X0204230Y0063482D03*
X0204230Y0063876D03*
X0204230Y0064270D03*
X0204624Y0065451D03*
X0205018Y0066238D03*
X0205411Y0066632D03*
X0214467Y0018600D03*
X0214860Y0018207D03*
X0214860Y0012695D03*
X0214467Y0011907D03*
X0214467Y0011514D03*
X0214073Y0011120D03*
X0213679Y0010726D03*
X0213285Y0010333D03*
X0237301Y0032774D03*
X0243207Y0039467D03*
X0249112Y0060333D03*
X0249506Y0061120D03*
X0249506Y0065451D03*
X0249112Y0066238D03*
X0248719Y0066632D03*
X0212498Y0170963D03*
X0208167Y0181593D03*
X0208167Y0181986D03*
X0210530Y0203246D03*
X0212104Y0208758D03*
X0212498Y0210333D03*
X0210923Y0233955D03*
X0210530Y0234348D03*
X0210530Y0238679D03*
X0210530Y0239073D03*
X0210923Y0239467D03*
X0211711Y0240648D03*
X0213679Y0243404D03*
X0214073Y0244191D03*
X0214467Y0244585D03*
X0214467Y0244978D03*
X0214860Y0245372D03*
X0215254Y0246553D03*
X0215254Y0251278D03*
X0214860Y0252065D03*
X0202656Y0258758D03*
X0202262Y0262695D03*
X0202656Y0263482D03*
X0203049Y0263876D03*
X0205411Y0285923D03*
X0205805Y0286711D03*
X0206199Y0287104D03*
X0197931Y0300490D03*
X0198325Y0300884D03*
X0198325Y0301278D03*
X0198719Y0306789D03*
X0198719Y0307183D03*
X0198325Y0307577D03*
X0203837Y0317813D03*
X0204230Y0318600D03*
X0204624Y0319388D03*
X0205018Y0319781D03*
X0205018Y0320175D03*
X0205411Y0320569D03*
X0205805Y0321356D03*
X0206199Y0321750D03*
X0206199Y0322144D03*
X0206593Y0322537D03*
X0206986Y0322931D03*
X0206986Y0323325D03*
X0207380Y0323719D03*
X0207774Y0324112D03*
X0207774Y0324506D03*
X0208167Y0324900D03*
X0208955Y0326081D03*
X0209348Y0326474D03*
X0210530Y0328049D03*
X0211711Y0329624D03*
X0212104Y0330018D03*
X0212498Y0330411D03*
X0212892Y0330805D03*
X0213285Y0331593D03*
X0213679Y0331986D03*
X0214073Y0332380D03*
X0214467Y0333167D03*
X0214860Y0333561D03*
X0215254Y0333955D03*
X0216435Y0335530D03*
X0217222Y0336711D03*
X0217616Y0337104D03*
X0218010Y0337498D03*
X0218404Y0338285D03*
X0218797Y0338679D03*
X0219191Y0339467D03*
X0236907Y0343010D03*
X0236514Y0328049D03*
X0224309Y0293797D03*
X0223915Y0293010D03*
X0223522Y0292222D03*
X0223128Y0291829D03*
X0225490Y0267419D03*
X0238876Y0274900D03*
X0245569Y0283955D03*
X0245175Y0284348D03*
X0245175Y0284742D03*
X0244781Y0285136D03*
X0244388Y0285530D03*
X0244388Y0285923D03*
X0243994Y0286317D03*
X0243600Y0287104D03*
X0243207Y0287498D03*
X0242813Y0287892D03*
X0242813Y0288285D03*
X0242419Y0288679D03*
X0240451Y0291435D03*
X0252656Y0269781D03*
X0259348Y0274900D03*
X0259742Y0275293D03*
X0260136Y0275687D03*
X0260136Y0276081D03*
X0260530Y0276474D03*
X0260923Y0276868D03*
X0260923Y0277262D03*
X0261317Y0277656D03*
X0261317Y0278049D03*
X0275490Y0280805D03*
X0277065Y0278837D03*
X0277459Y0278443D03*
X0278640Y0276868D03*
X0266041Y0247341D03*
X0264467Y0229624D03*
X0274309Y0220569D03*
X0276278Y0217813D03*
X0276671Y0217419D03*
X0277065Y0217026D03*
X0277065Y0216632D03*
X0277459Y0216238D03*
X0277852Y0215844D03*
X0278246Y0215057D03*
X0278640Y0214270D03*
X0278640Y0200884D03*
X0253837Y0212695D03*
X0253443Y0212301D03*
X0253443Y0211907D03*
X0253049Y0211514D03*
X0253049Y0211120D03*
X0252656Y0210726D03*
X0252262Y0210333D03*
X0252656Y0233955D03*
X0235726Y0206396D03*
X0235333Y0206002D03*
X0235333Y0205608D03*
X0234939Y0205215D03*
X0227065Y0218994D03*
X0227459Y0219388D03*
X0227852Y0219781D03*
X0227852Y0220175D03*
X0228246Y0220569D03*
X0228246Y0226081D03*
X0227852Y0226474D03*
X0247931Y0175293D03*
X0248325Y0174900D03*
X0197931Y0207183D03*
X0197144Y0206002D03*
X0196750Y0205608D03*
X0196356Y0205215D03*
X0195569Y0204033D03*
X0195175Y0203640D03*
X0193600Y0201671D03*
X0191238Y0198522D03*
X0183364Y0207970D03*
X0191238Y0217813D03*
X0191238Y0218207D03*
X0191632Y0219388D03*
X0193207Y0226081D03*
X0193207Y0226474D03*
X0195175Y0234348D03*
X0181396Y0223325D03*
X0164860Y0209152D03*
X0164467Y0208758D03*
X0164467Y0208364D03*
X0164073Y0207970D03*
X0163679Y0207183D03*
X0163285Y0206789D03*
X0149112Y0215844D03*
X0148719Y0216632D03*
X0148325Y0217026D03*
X0148325Y0217419D03*
X0147931Y0217813D03*
X0147144Y0218600D03*
X0147144Y0218994D03*
X0146750Y0219388D03*
X0146356Y0220175D03*
X0145963Y0220569D03*
X0145569Y0220963D03*
X0144388Y0222931D03*
X0127852Y0224900D03*
X0127459Y0224506D03*
X0127459Y0224112D03*
X0127065Y0223719D03*
X0126671Y0223325D03*
X0122734Y0219781D03*
X0110136Y0218994D03*
X0109742Y0218600D03*
X0109348Y0218207D03*
X0108955Y0217419D03*
X0108561Y0215844D03*
X0108561Y0214270D03*
X0101474Y0231593D03*
X0101474Y0231986D03*
X0101868Y0232380D03*
X0102262Y0232774D03*
X0102656Y0233955D03*
X0102656Y0238285D03*
X0102262Y0238679D03*
X0102262Y0239073D03*
X0107774Y0249703D03*
X0108167Y0250490D03*
X0108561Y0250884D03*
X0108561Y0251278D03*
X0108955Y0252065D03*
X0109742Y0253246D03*
X0110136Y0253640D03*
X0110136Y0254033D03*
X0110530Y0254427D03*
X0110923Y0255215D03*
X0111317Y0255608D03*
X0112104Y0256789D03*
X0112498Y0257183D03*
X0112892Y0257970D03*
X0113285Y0258364D03*
X0114073Y0259152D03*
X0114073Y0259545D03*
X0114467Y0259939D03*
X0114860Y0260333D03*
X0115254Y0261120D03*
X0116041Y0261907D03*
X0116435Y0262301D03*
X0117222Y0263482D03*
X0117616Y0263876D03*
X0119191Y0265844D03*
X0119978Y0267026D03*
X0120372Y0267419D03*
X0120766Y0267813D03*
X0121159Y0268207D03*
X0121159Y0268600D03*
X0121553Y0268994D03*
X0121947Y0269781D03*
X0122341Y0270175D03*
X0122734Y0270569D03*
X0122734Y0270963D03*
X0123128Y0271356D03*
X0123128Y0271750D03*
X0133364Y0287104D03*
X0133758Y0287498D03*
X0134152Y0288285D03*
X0134545Y0288679D03*
X0134939Y0289467D03*
X0135333Y0289860D03*
X0119585Y0296553D03*
X0119585Y0296947D03*
X0119191Y0297341D03*
X0118797Y0298128D03*
X0118404Y0298915D03*
X0118010Y0299309D03*
X0117222Y0300490D03*
X0116829Y0300884D03*
X0116435Y0301671D03*
X0116041Y0302065D03*
X0115648Y0302459D03*
X0114467Y0304033D03*
X0106199Y0330805D03*
X0106593Y0345766D03*
X0099506Y0358758D03*
X0099900Y0359152D03*
X0100293Y0359939D03*
X0100687Y0360333D03*
X0100687Y0360726D03*
X0101081Y0361120D03*
X0099112Y0358364D03*
X0089270Y0342616D03*
X0088876Y0341829D03*
X0088482Y0341435D03*
X0088482Y0341041D03*
X0088089Y0340648D03*
X0087695Y0340254D03*
X0087301Y0339467D03*
X0086907Y0339073D03*
X0086514Y0338679D03*
X0085726Y0337498D03*
X0085333Y0337104D03*
X0082577Y0333561D03*
X0081396Y0331986D03*
X0081002Y0331593D03*
X0080608Y0331199D03*
X0080215Y0330411D03*
X0079821Y0330018D03*
X0079427Y0329624D03*
X0079033Y0328837D03*
X0078640Y0328443D03*
X0078246Y0328049D03*
X0077852Y0327262D03*
X0077459Y0326868D03*
X0076671Y0325687D03*
X0076278Y0324900D03*
X0075884Y0324506D03*
X0075884Y0324112D03*
X0075490Y0323719D03*
X0074703Y0322537D03*
X0074703Y0322144D03*
X0074309Y0321750D03*
X0073915Y0320963D03*
X0073522Y0320175D03*
X0068010Y0310333D03*
X0068404Y0309939D03*
X0068404Y0309545D03*
X0068797Y0308758D03*
X0068797Y0305215D03*
X0068404Y0304033D03*
X0068010Y0303640D03*
X0068010Y0303246D03*
X0067616Y0302852D03*
X0067222Y0302459D03*
X0075884Y0289860D03*
X0075096Y0288679D03*
X0074703Y0287498D03*
X0077065Y0276474D03*
X0076671Y0275687D03*
X0076278Y0272537D03*
X0076671Y0271750D03*
X0076671Y0271356D03*
X0077065Y0270963D03*
X0085726Y0252852D03*
X0085333Y0252459D03*
X0084939Y0252065D03*
X0084939Y0251671D03*
X0084545Y0250884D03*
X0084545Y0247734D03*
X0084545Y0247341D03*
X0084939Y0246947D03*
X0088089Y0256396D03*
X0088482Y0256789D03*
X0088482Y0257183D03*
X0088876Y0257577D03*
X0089270Y0264270D03*
X0088876Y0265057D03*
X0099900Y0280018D03*
X0092813Y0294191D03*
X0093207Y0294585D03*
X0093207Y0294978D03*
X0093600Y0295372D03*
X0093600Y0295766D03*
X0093994Y0296159D03*
X0069978Y0249703D03*
X0055411Y0235923D03*
X0057380Y0218207D03*
X0060530Y0214270D03*
X0060923Y0213876D03*
X0068404Y0212301D03*
X0071947Y0216632D03*
X0072341Y0217026D03*
X0072341Y0217419D03*
X0082577Y0205215D03*
X0082577Y0204821D03*
X0080608Y0197734D03*
X0080215Y0196159D03*
X0077852Y0180411D03*
X0076278Y0175293D03*
X0076671Y0174900D03*
X0077065Y0174112D03*
X0077459Y0173719D03*
X0077852Y0172931D03*
X0078246Y0172144D03*
X0078640Y0171750D03*
X0087695Y0180805D03*
X0113679Y0175293D03*
X0114073Y0174900D03*
X0114467Y0174112D03*
X0114860Y0173325D03*
X0115254Y0172931D03*
X0115254Y0172537D03*
X0115648Y0172144D03*
X0115648Y0171750D03*
X0116041Y0171356D03*
X0114860Y0177656D03*
X0120766Y0180805D03*
X0123128Y0182774D03*
X0125096Y0176081D03*
X0150687Y0174900D03*
X0151081Y0174506D03*
X0151474Y0173719D03*
X0151868Y0173325D03*
X0151868Y0172931D03*
X0152262Y0172537D03*
X0152656Y0171750D03*
X0151868Y0180411D03*
X0161317Y0181986D03*
X0140057Y0259545D03*
X0140057Y0259939D03*
X0153837Y0286317D03*
X0157774Y0281593D03*
X0164467Y0280411D03*
X0164860Y0280805D03*
X0165648Y0281986D03*
X0166041Y0282380D03*
X0168404Y0285530D03*
X0161317Y0297341D03*
X0161711Y0298915D03*
X0163679Y0307183D03*
X0165648Y0315451D03*
X0166041Y0317026D03*
X0180608Y0316238D03*
X0181002Y0315451D03*
X0180608Y0318600D03*
X0180608Y0318994D03*
X0181002Y0319388D03*
X0181002Y0319781D03*
X0181396Y0320569D03*
X0182183Y0321356D03*
X0182577Y0322144D03*
X0183364Y0323325D03*
X0184545Y0324900D03*
X0184939Y0325687D03*
X0185333Y0326474D03*
X0185333Y0326868D03*
X0185726Y0332380D03*
X0185333Y0333167D03*
X0184939Y0333561D03*
X0177459Y0348915D03*
X0173522Y0344978D03*
X0173128Y0344585D03*
X0173128Y0339860D03*
X0171159Y0356396D03*
X0171553Y0357183D03*
X0171947Y0357577D03*
X0171947Y0357970D03*
X0188876Y0362301D03*
X0189270Y0362695D03*
X0189663Y0363089D03*
X0189663Y0363482D03*
X0190057Y0364270D03*
X0203837Y0354427D03*
X0203049Y0413876D03*
X0195963Y0427262D03*
X0196356Y0428049D03*
X0196750Y0428443D03*
X0197144Y0429230D03*
X0197537Y0429624D03*
X0206986Y0447734D03*
X0215648Y0466238D03*
X0216435Y0467419D03*
X0216829Y0467813D03*
X0217222Y0468207D03*
X0217222Y0468600D03*
X0217616Y0468994D03*
X0225490Y0462301D03*
X0244781Y0424506D03*
X0244388Y0423325D03*
X0263285Y0432380D03*
X0263285Y0432774D03*
X0263679Y0433167D03*
X0264073Y0433561D03*
X0265648Y0412695D03*
X0265254Y0412301D03*
X0265254Y0411907D03*
X0264860Y0407577D03*
X0257380Y0390254D03*
X0257380Y0389860D03*
X0255411Y0381986D03*
X0255411Y0381593D03*
X0243600Y0380018D03*
X0270372Y0347341D03*
X0271947Y0353246D03*
X0273128Y0382774D03*
X0272734Y0386711D03*
X0273128Y0387498D03*
X0273522Y0387892D03*
X0273522Y0388285D03*
X0273915Y0388679D03*
X0276671Y0392616D03*
X0276671Y0393010D03*
X0277065Y0393404D03*
X0277459Y0400490D03*
X0277065Y0400884D03*
X0262104Y0465057D03*
X0262498Y0465844D03*
X0262892Y0466238D03*
X0262892Y0466632D03*
X0263285Y0467026D03*
X0263285Y0467419D03*
X0263679Y0467813D03*
X0264073Y0468207D03*
X0264073Y0468600D03*
X0264467Y0468994D03*
X0264860Y0469388D03*
X0264860Y0469781D03*
X0265254Y0470175D03*
X0265648Y0470963D03*
X0266041Y0471356D03*
X0266829Y0472537D03*
X0267222Y0472931D03*
X0268010Y0474112D03*
X0268404Y0474506D03*
X0269191Y0475687D03*
X0269585Y0476081D03*
X0269978Y0476474D03*
X0270372Y0477262D03*
X0270766Y0477656D03*
X0271159Y0478049D03*
X0271553Y0478443D03*
X0272341Y0479624D03*
X0272734Y0480018D03*
X0273915Y0481593D03*
X0275096Y0483167D03*
X0275490Y0483561D03*
X0275884Y0484348D03*
X0276278Y0484742D03*
X0276671Y0485136D03*
X0276671Y0485530D03*
X0277065Y0485923D03*
X0277459Y0486711D03*
X0278640Y0498128D03*
X0168797Y0479624D03*
X0168404Y0464663D03*
X0155018Y0456789D03*
X0145175Y0473325D03*
X0145569Y0473719D03*
X0145963Y0474112D03*
X0146750Y0475293D03*
X0147144Y0475687D03*
X0148325Y0477262D03*
X0149112Y0478443D03*
X0149506Y0478837D03*
X0149900Y0479624D03*
X0150293Y0480018D03*
X0150687Y0480411D03*
X0150687Y0480805D03*
X0151081Y0481199D03*
X0144388Y0472144D03*
X0143994Y0471750D03*
X0143600Y0471356D03*
X0143207Y0470569D03*
X0142813Y0470175D03*
X0142419Y0469781D03*
X0141632Y0468600D03*
X0141238Y0468207D03*
X0140844Y0467813D03*
X0140057Y0466632D03*
X0139663Y0465844D03*
X0139270Y0465451D03*
X0138876Y0465057D03*
X0138876Y0464663D03*
X0138482Y0464270D03*
X0138089Y0463876D03*
X0138089Y0463482D03*
X0137695Y0463089D03*
X0137301Y0462695D03*
X0137301Y0462301D03*
X0136907Y0461907D03*
X0136907Y0461514D03*
X0136514Y0461120D03*
X0136514Y0460726D03*
X0136120Y0460333D03*
X0135726Y0459545D03*
X0130215Y0449703D03*
X0130608Y0449309D03*
X0130608Y0448915D03*
X0130215Y0443010D03*
X0130215Y0442616D03*
X0129821Y0442222D03*
X0113285Y0456789D03*
X0112892Y0457577D03*
X0112498Y0458364D03*
X0112498Y0458758D03*
X0112498Y0459939D03*
X0112498Y0460333D03*
X0112892Y0461120D03*
X0112892Y0461514D03*
X0113285Y0461907D03*
X0113285Y0462301D03*
X0113679Y0462695D03*
X0114073Y0463089D03*
X0114073Y0463482D03*
X0114467Y0463876D03*
X0116435Y0466632D03*
X0116829Y0467419D03*
X0117222Y0467813D03*
X0117222Y0468207D03*
X0117222Y0474900D03*
X0105411Y0481199D03*
X0105018Y0481593D03*
X0097537Y0456789D03*
X0095569Y0448522D03*
X0093600Y0440254D03*
X0093207Y0438679D03*
X0083758Y0446159D03*
X0051868Y0438285D03*
X0051474Y0438679D03*
X0051474Y0439073D03*
X0051081Y0439467D03*
X0050687Y0440254D03*
X0050293Y0440648D03*
X0050293Y0441041D03*
X0049900Y0441435D03*
X0049506Y0441829D03*
X0049506Y0442222D03*
X0049112Y0442616D03*
X0048719Y0443010D03*
X0046750Y0445766D03*
X0038089Y0472537D03*
X0020766Y0483561D03*
X0020372Y0483167D03*
X0019978Y0482380D03*
X0019585Y0481986D03*
X0019191Y0481593D03*
X0019191Y0481199D03*
X0018797Y0480805D03*
X0018404Y0480411D03*
X0018404Y0480018D03*
X0017616Y0479230D03*
X0017222Y0478837D03*
X0016435Y0477656D03*
X0016041Y0477262D03*
X0013285Y0473719D03*
X0012892Y0473325D03*
X0012498Y0472931D03*
X0012104Y0472537D03*
X0012104Y0472144D03*
X0011711Y0471750D03*
X0011317Y0471356D03*
X0010923Y0470963D03*
X0010923Y0470569D03*
X0010530Y0470175D03*
X0010136Y0469781D03*
X0009742Y0468994D03*
X0009348Y0468600D03*
X0008955Y0468207D03*
X0008955Y0467813D03*
X0008561Y0467419D03*
X0008167Y0466632D03*
X0007774Y0466238D03*
X0007774Y0465844D03*
X0007380Y0465451D03*
X0006986Y0464663D03*
X0006593Y0464270D03*
X0006593Y0463876D03*
X0006199Y0463482D03*
X0021159Y0484348D03*
X0025884Y0437892D03*
X0025490Y0437498D03*
X0025490Y0437104D03*
X0007774Y0431593D03*
X0007774Y0431199D03*
X0007380Y0430805D03*
X0019585Y0358758D03*
X0019191Y0357183D03*
X0017222Y0350096D03*
X0029427Y0325293D03*
X0029427Y0324900D03*
X0029033Y0324506D03*
X0029033Y0324112D03*
X0028640Y0323719D03*
X0028246Y0323325D03*
X0027852Y0322931D03*
X0027852Y0322537D03*
X0027459Y0322144D03*
X0027065Y0321750D03*
X0038482Y0317813D03*
X0050687Y0317813D03*
X0051081Y0317419D03*
X0050687Y0322144D03*
X0050687Y0322537D03*
X0051081Y0322931D03*
X0051868Y0324112D03*
X0053837Y0326868D03*
X0054230Y0327656D03*
X0054624Y0328049D03*
X0054624Y0328443D03*
X0055018Y0328837D03*
X0055411Y0330018D03*
X0055411Y0335136D03*
X0055018Y0335923D03*
X0054624Y0336317D03*
X0042813Y0342222D03*
X0042813Y0342616D03*
X0042419Y0343010D03*
X0042813Y0346947D03*
X0043207Y0347341D03*
X0042419Y0357577D03*
X0042813Y0357970D03*
X0042813Y0358364D03*
X0043207Y0358758D03*
X0022734Y0301278D03*
X0023522Y0289073D03*
X0038482Y0288285D03*
X0021947Y0263876D03*
X0014073Y0254821D03*
X0022734Y0228049D03*
X0025096Y0224900D03*
X0025490Y0224112D03*
X0025884Y0223719D03*
X0026671Y0222537D03*
X0027065Y0221750D03*
X0027459Y0221356D03*
X0027459Y0220963D03*
X0027852Y0220569D03*
X0040451Y0180411D03*
X0040451Y0178049D03*
X0040057Y0177656D03*
X0039270Y0174900D03*
X0039663Y0174506D03*
X0039663Y0174112D03*
X0040057Y0173719D03*
X0040451Y0173325D03*
X0040451Y0172931D03*
X0040844Y0172537D03*
X0040844Y0172144D03*
X0041238Y0171750D03*
X0041238Y0171356D03*
X0048719Y0181986D03*
X0032970Y0067026D03*
X0037301Y0057183D03*
X0037301Y0056789D03*
X0040451Y0064270D03*
X0040844Y0065451D03*
X0041238Y0066238D03*
X0048325Y0066632D03*
X0059348Y0062301D03*
X0059348Y0061907D03*
X0059348Y0061514D03*
X0059742Y0059939D03*
X0059742Y0059545D03*
X0060136Y0059152D03*
X0059742Y0063876D03*
X0060136Y0064663D03*
X0060530Y0065057D03*
X0023128Y0064663D03*
X0022734Y0064270D03*
X0022341Y0060726D03*
X0022734Y0059545D03*
X0023128Y0058758D03*
X0176278Y0263876D03*
X0178246Y0270963D03*
X0178640Y0272537D03*
X0146750Y0344585D03*
X0146750Y0344978D03*
X0148325Y0350490D03*
X0148719Y0352065D03*
X0150687Y0359152D03*
X0150687Y0359545D03*
X0134545Y0356789D03*
X0134545Y0356396D03*
X0131396Y0352459D03*
X0130608Y0351671D03*
X0129821Y0350490D03*
X0127852Y0347734D03*
D16*
X0127852Y0348128D03*
X0123128Y0353246D03*
X0120766Y0356002D03*
X0120372Y0356396D03*
X0113679Y0339860D03*
X0113679Y0339073D03*
X0113285Y0338679D03*
X0112892Y0338285D03*
X0112498Y0337892D03*
X0107774Y0332774D03*
X0107380Y0332380D03*
X0106986Y0331986D03*
X0106986Y0344978D03*
X0097931Y0356789D03*
X0066829Y0311514D03*
X0067222Y0311120D03*
X0067616Y0310726D03*
X0066435Y0301671D03*
X0066041Y0301278D03*
X0062104Y0298128D03*
X0051868Y0316632D03*
X0054230Y0336711D03*
X0047144Y0351278D03*
X0044388Y0348915D03*
X0043994Y0348522D03*
X0043207Y0341829D03*
X0043600Y0341435D03*
X0043994Y0359545D03*
X0044388Y0359939D03*
X0026278Y0320963D03*
X0025884Y0320569D03*
X0033758Y0312695D03*
X0034152Y0313089D03*
X0034545Y0313482D03*
X0034939Y0313876D03*
X0035333Y0314270D03*
X0035726Y0314663D03*
X0036120Y0315057D03*
X0036514Y0315451D03*
X0036907Y0315844D03*
X0037301Y0316238D03*
X0037695Y0316632D03*
X0038089Y0317026D03*
X0033364Y0312301D03*
X0032970Y0311907D03*
X0032577Y0311514D03*
X0032183Y0311120D03*
X0031789Y0310726D03*
X0031396Y0310333D03*
X0031002Y0309939D03*
X0030608Y0309545D03*
X0030215Y0309152D03*
X0029821Y0308758D03*
X0029427Y0308364D03*
X0029033Y0307970D03*
X0028640Y0307577D03*
X0028246Y0307183D03*
X0023915Y0288285D03*
X0026278Y0285530D03*
X0014860Y0269388D03*
X0021553Y0264270D03*
X0020372Y0261907D03*
X0019978Y0261514D03*
X0019585Y0261120D03*
X0014860Y0256002D03*
X0024309Y0245372D03*
X0023128Y0227262D03*
X0040057Y0180805D03*
X0055018Y0236711D03*
X0077459Y0270569D03*
X0086514Y0254033D03*
X0085333Y0246159D03*
X0085726Y0245766D03*
X0086120Y0245372D03*
X0088089Y0265844D03*
X0101081Y0240254D03*
X0101474Y0239860D03*
X0100293Y0230411D03*
X0110923Y0219781D03*
X0114467Y0180805D03*
X0124309Y0178049D03*
X0123915Y0176868D03*
X0149900Y0232774D03*
X0160136Y0254821D03*
X0147537Y0268994D03*
X0145175Y0265451D03*
X0144781Y0265057D03*
X0144388Y0264663D03*
X0140844Y0274112D03*
X0132183Y0285923D03*
X0127065Y0282380D03*
X0154624Y0285136D03*
X0155018Y0284742D03*
X0161711Y0277262D03*
X0182183Y0313876D03*
X0184152Y0334348D03*
X0195963Y0348522D03*
X0203443Y0354033D03*
X0188482Y0361907D03*
X0184939Y0359152D03*
X0172734Y0358758D03*
X0197537Y0308364D03*
X0192419Y0295766D03*
X0206986Y0287892D03*
X0222341Y0291041D03*
X0223522Y0314663D03*
X0236907Y0328837D03*
X0239270Y0331593D03*
X0239663Y0331986D03*
X0241238Y0333561D03*
X0241632Y0333955D03*
X0242026Y0334348D03*
X0242419Y0334742D03*
X0240844Y0290648D03*
X0266829Y0261514D03*
X0273128Y0255215D03*
X0273522Y0255608D03*
X0272734Y0254821D03*
X0272341Y0254427D03*
X0268010Y0249703D03*
X0267616Y0249309D03*
X0267222Y0248915D03*
X0251868Y0209939D03*
X0248325Y0207183D03*
X0236120Y0206789D03*
X0225884Y0217813D03*
X0221947Y0214663D03*
X0212104Y0232774D03*
X0211711Y0233167D03*
X0212892Y0242222D03*
X0203443Y0257970D03*
X0203837Y0265057D03*
X0204230Y0265451D03*
X0180608Y0224112D03*
X0184939Y0206002D03*
X0185333Y0205608D03*
X0187301Y0203246D03*
X0187695Y0202852D03*
X0188482Y0202065D03*
X0188876Y0201671D03*
X0189270Y0201278D03*
X0191238Y0198915D03*
X0208167Y0181199D03*
X0208167Y0180805D03*
X0208167Y0180411D03*
X0160923Y0181199D03*
X0161317Y0204821D03*
X0092026Y0293404D03*
X0077065Y0180805D03*
X0085333Y0067419D03*
X0098325Y0065451D03*
X0111711Y0057970D03*
X0111711Y0057577D03*
X0114860Y0041829D03*
X0114467Y0041435D03*
X0114073Y0041041D03*
X0123522Y0061907D03*
X0134939Y0058364D03*
X0134939Y0065451D03*
X0148325Y0057577D03*
X0160136Y0065451D03*
X0206199Y0067026D03*
X0208167Y0022931D03*
X0213679Y0019781D03*
X0212104Y0008758D03*
X0238089Y0033955D03*
X0238482Y0034348D03*
X0238876Y0034742D03*
X0239270Y0035136D03*
X0239663Y0035530D03*
X0240057Y0035923D03*
X0240451Y0036317D03*
X0241632Y0037498D03*
X0242419Y0038285D03*
X0242813Y0038679D03*
X0248325Y0059545D03*
X0248719Y0059939D03*
X0248325Y0067026D03*
X0278246Y0013089D03*
X0272734Y0299703D03*
X0272341Y0300096D03*
X0278246Y0378443D03*
X0276278Y0401671D03*
X0266435Y0413482D03*
X0266829Y0413876D03*
X0265254Y0434742D03*
X0254230Y0495372D03*
X0225096Y0461907D03*
X0214467Y0465057D03*
X0214073Y0464663D03*
X0207380Y0448522D03*
X0206986Y0448128D03*
X0194388Y0425293D03*
X0188876Y0421750D03*
X0175096Y0426868D03*
X0170372Y0467026D03*
X0170766Y0467419D03*
X0171159Y0467813D03*
X0171553Y0468207D03*
X0171947Y0468600D03*
X0172341Y0468994D03*
X0172734Y0469388D03*
X0173128Y0469781D03*
X0173522Y0470175D03*
X0175884Y0473719D03*
X0169191Y0478837D03*
X0203443Y0413482D03*
X0204624Y0401671D03*
X0204230Y0401278D03*
X0203837Y0400884D03*
X0203443Y0400490D03*
X0203049Y0400096D03*
X0209742Y0407183D03*
X0210136Y0407970D03*
X0212498Y0389467D03*
X0200687Y0381593D03*
X0128640Y0441041D03*
X0129821Y0450096D03*
X0129427Y0450490D03*
X0114073Y0456002D03*
X0105805Y0480805D03*
X0045569Y0480805D03*
X0045175Y0480411D03*
X0044781Y0480018D03*
X0044388Y0479624D03*
X0043994Y0479230D03*
X0043600Y0478837D03*
X0043207Y0478443D03*
X0042813Y0478049D03*
X0040844Y0475687D03*
X0039270Y0474112D03*
X0038876Y0473719D03*
X0045569Y0481986D03*
X0038876Y0487104D03*
X0033364Y0494978D03*
X0018797Y0495766D03*
X0018404Y0496159D03*
X0036514Y0455215D03*
X0024309Y0435530D03*
X0014467Y0435923D03*
X0008561Y0432380D03*
X0023915Y0065451D03*
X0037301Y0057970D03*
X0037301Y0057577D03*
X0060923Y0058364D03*
X0060923Y0065451D03*
X0074309Y0057970D03*
X0074309Y0057577D03*
X0057380Y0017813D03*
X0072734Y0012301D03*
X0026671Y0008758D03*
X0026278Y0009152D03*
D17*
X0025884Y0009545D03*
X0025096Y0009939D03*
X0026671Y0056396D03*
X0037301Y0058758D03*
X0047537Y0065451D03*
X0074309Y0059152D03*
X0074309Y0058758D03*
X0101081Y0056396D03*
X0111711Y0058758D03*
X0122341Y0056396D03*
X0148325Y0058758D03*
X0148325Y0059152D03*
X0157380Y0058758D03*
X0208955Y0068994D03*
X0225096Y0023325D03*
X0212892Y0020175D03*
X0252262Y0019781D03*
X0208167Y0179624D03*
X0208167Y0180018D03*
X0191238Y0199309D03*
X0180215Y0224506D03*
X0179821Y0224900D03*
X0164073Y0225687D03*
X0157380Y0228837D03*
X0134939Y0202852D03*
X0133758Y0202065D03*
X0125096Y0222144D03*
X0111711Y0220175D03*
X0100687Y0240648D03*
X0096750Y0228049D03*
X0096356Y0227656D03*
X0086907Y0244978D03*
X0079033Y0278443D03*
X0080608Y0279624D03*
X0077459Y0291041D03*
X0064860Y0300490D03*
X0044388Y0341041D03*
X0045569Y0349703D03*
X0046356Y0350490D03*
X0046750Y0350884D03*
X0045175Y0360333D03*
X0069978Y0354033D03*
X0070766Y0354427D03*
X0071159Y0354821D03*
X0107380Y0344585D03*
X0107774Y0344191D03*
X0108561Y0343797D03*
X0109742Y0343010D03*
X0110136Y0342616D03*
X0110923Y0342222D03*
X0111317Y0341829D03*
X0111711Y0341435D03*
X0112498Y0341041D03*
X0112892Y0340648D03*
X0127852Y0348522D03*
X0105018Y0283561D03*
X0104624Y0283167D03*
X0103837Y0282774D03*
X0141238Y0273719D03*
X0141632Y0273325D03*
X0142419Y0272931D03*
X0142813Y0272537D03*
X0143600Y0272144D03*
X0143994Y0271750D03*
X0144781Y0271356D03*
X0145175Y0270963D03*
X0146356Y0270175D03*
X0146750Y0269781D03*
X0161711Y0277656D03*
X0182970Y0313482D03*
X0192813Y0296159D03*
X0195569Y0298128D03*
X0197144Y0308758D03*
X0196750Y0309152D03*
X0183364Y0334742D03*
X0175096Y0346553D03*
X0175490Y0346947D03*
X0173915Y0359545D03*
X0189663Y0385530D03*
X0203837Y0412695D03*
X0204624Y0412301D03*
X0205805Y0411514D03*
X0206199Y0411120D03*
X0206986Y0410726D03*
X0207380Y0410333D03*
X0207774Y0409939D03*
X0208561Y0409545D03*
X0208955Y0409152D03*
X0209348Y0408758D03*
X0209348Y0450096D03*
X0209742Y0450490D03*
X0210923Y0451278D03*
X0211711Y0451671D03*
X0212104Y0452065D03*
X0213679Y0453246D03*
X0214073Y0453640D03*
X0215254Y0454427D03*
X0215648Y0454821D03*
X0216829Y0455608D03*
X0218010Y0456396D03*
X0218404Y0456789D03*
X0219585Y0457577D03*
X0220766Y0458364D03*
X0222734Y0459939D03*
X0224309Y0461120D03*
X0213679Y0464270D03*
X0188089Y0463089D03*
X0187301Y0462695D03*
X0186907Y0462301D03*
X0186120Y0461907D03*
X0174703Y0474900D03*
X0173915Y0475293D03*
X0173522Y0475687D03*
X0172341Y0476474D03*
X0171553Y0476868D03*
X0171159Y0477262D03*
X0169978Y0478049D03*
X0169585Y0478443D03*
X0106593Y0480411D03*
X0082183Y0447734D03*
X0045175Y0482380D03*
X0044781Y0482774D03*
X0043994Y0483167D03*
X0043600Y0483561D03*
X0042813Y0483955D03*
X0042419Y0484348D03*
X0041632Y0484742D03*
X0040844Y0485530D03*
X0039663Y0486317D03*
X0039270Y0486711D03*
X0032970Y0494585D03*
X0014860Y0498915D03*
X0020766Y0432774D03*
X0031396Y0280411D03*
X0020766Y0265057D03*
X0021159Y0264663D03*
X0019978Y0265451D03*
X0019585Y0265844D03*
X0019191Y0266238D03*
X0018404Y0266632D03*
X0016829Y0267813D03*
X0016041Y0268207D03*
X0053837Y0237498D03*
X0054230Y0237104D03*
X0047931Y0180805D03*
X0085726Y0182380D03*
X0123128Y0182380D03*
X0160530Y0180018D03*
X0205411Y0266238D03*
X0206199Y0267026D03*
X0218797Y0288285D03*
X0230608Y0270963D03*
X0230215Y0270569D03*
X0229427Y0270175D03*
X0242419Y0308364D03*
X0242813Y0338285D03*
X0241632Y0339073D03*
X0241238Y0339467D03*
X0240844Y0339860D03*
X0240057Y0340254D03*
X0239663Y0340648D03*
X0238482Y0341435D03*
X0242026Y0381593D03*
X0241632Y0381986D03*
X0249900Y0406002D03*
X0265648Y0435136D03*
X0268797Y0415451D03*
X0267222Y0414270D03*
X0275490Y0402065D03*
X0274703Y0381199D03*
X0275096Y0380805D03*
X0271159Y0300884D03*
X0267222Y0261120D03*
X0267616Y0260726D03*
X0268404Y0260333D03*
X0268797Y0259939D03*
X0269978Y0259152D03*
X0271553Y0257970D03*
X0271947Y0257577D03*
X0272734Y0257183D03*
X0253443Y0233561D03*
X0237301Y0207577D03*
X0224703Y0217026D03*
X0226278Y0228049D03*
X0263679Y0199309D03*
X0264467Y0199703D03*
X0264860Y0200096D03*
X0199112Y0350884D03*
X0199900Y0351278D03*
X0200293Y0351671D03*
X0201081Y0352065D03*
X0258955Y0498522D03*
X0259742Y0498915D03*
X0277852Y0498522D03*
X0071553Y0013089D03*
D18*
X0059152Y0029230D03*
X0066238Y0058364D03*
X0066632Y0065451D03*
X0045766Y0063876D03*
X0027262Y0067813D03*
X0005608Y0039860D03*
X0005608Y0013482D03*
X0009545Y0010333D03*
X0101671Y0067813D03*
X0103640Y0058364D03*
X0119781Y0059152D03*
X0136711Y0040648D03*
X0140648Y0058364D03*
X0140648Y0065451D03*
X0161120Y0064270D03*
X0161120Y0063876D03*
X0161120Y0063482D03*
X0161120Y0063089D03*
X0161120Y0062695D03*
X0161120Y0062301D03*
X0161120Y0061907D03*
X0161120Y0061514D03*
X0161120Y0061120D03*
X0161120Y0060726D03*
X0161120Y0058364D03*
X0161120Y0057970D03*
X0161120Y0057577D03*
X0161120Y0057183D03*
X0161120Y0056789D03*
X0161120Y0056396D03*
X0122537Y0170963D03*
X0144191Y0223719D03*
X0165057Y0210333D03*
X0181593Y0222537D03*
X0208758Y0196159D03*
X0209545Y0179230D03*
X0254033Y0213876D03*
X0265844Y0246553D03*
X0266238Y0262695D03*
X0279230Y0275293D03*
X0279230Y0275687D03*
X0273719Y0298128D03*
X0251278Y0330805D03*
X0236317Y0327262D03*
X0224506Y0294978D03*
X0240254Y0292222D03*
X0245766Y0282774D03*
X0268207Y0338679D03*
X0272144Y0355215D03*
X0252852Y0370175D03*
X0258364Y0394978D03*
X0262695Y0428443D03*
X0246947Y0433167D03*
X0217813Y0470175D03*
X0168207Y0463876D03*
X0135530Y0458364D03*
X0098522Y0461120D03*
X0083955Y0445372D03*
X0052065Y0437104D03*
X0046553Y0446553D03*
X0024506Y0459545D03*
X0006789Y0426081D03*
X0005608Y0461120D03*
X0005608Y0461514D03*
X0020569Y0362695D03*
X0016632Y0346553D03*
X0023325Y0289860D03*
X0031593Y0278837D03*
X0070175Y0250884D03*
X0072537Y0218207D03*
X0065451Y0207970D03*
X0074506Y0284348D03*
X0094191Y0297734D03*
X0106002Y0330018D03*
X0106396Y0346159D03*
X0101278Y0362301D03*
X0092616Y0353246D03*
X0089073Y0343404D03*
X0066238Y0350884D03*
X0130018Y0335923D03*
X0150884Y0360333D03*
X0166632Y0319388D03*
X0160726Y0294585D03*
X0153640Y0287104D03*
X0168994Y0286711D03*
X0180411Y0279230D03*
X0191829Y0294978D03*
X0203640Y0316632D03*
X0195372Y0348128D03*
X0204821Y0281593D03*
X0279230Y0212695D03*
X0279230Y0212301D03*
X0243404Y0040254D03*
X0237104Y0031986D03*
D19*
X0257380Y0017026D03*
X0258167Y0016632D03*
X0258955Y0016238D03*
X0259742Y0015844D03*
X0260530Y0015451D03*
X0262892Y0198915D03*
X0265648Y0200490D03*
X0228640Y0269781D03*
X0232183Y0271750D03*
X0212498Y0254033D03*
X0208167Y0288679D03*
X0194388Y0297341D03*
X0193600Y0296947D03*
X0193207Y0296553D03*
X0224309Y0314270D03*
X0249112Y0304821D03*
X0249900Y0304427D03*
X0250687Y0304033D03*
X0256593Y0272537D03*
X0270372Y0301278D03*
X0277459Y0325293D03*
X0277459Y0379230D03*
X0275884Y0380411D03*
X0274703Y0402459D03*
X0276671Y0435136D03*
X0240844Y0382380D03*
X0226671Y0382380D03*
X0220766Y0385136D03*
X0219978Y0385530D03*
X0219191Y0385923D03*
X0217616Y0386711D03*
X0212892Y0389073D03*
X0202656Y0352852D03*
X0161711Y0278049D03*
X0150687Y0232380D03*
X0156199Y0229624D03*
X0158167Y0228443D03*
X0178246Y0225687D03*
X0191238Y0200096D03*
X0223522Y0216238D03*
X0130215Y0200096D03*
X0116435Y0222931D03*
X0099900Y0241041D03*
X0098325Y0229230D03*
X0097144Y0228443D03*
X0086514Y0266632D03*
X0080215Y0279230D03*
X0079033Y0269781D03*
X0063679Y0299703D03*
X0053049Y0315844D03*
X0068404Y0353246D03*
X0071947Y0355215D03*
X0052262Y0360726D03*
X0096356Y0356002D03*
X0103837Y0313482D03*
X0106593Y0284348D03*
X0053049Y0237892D03*
X0038089Y0238285D03*
X0031002Y0241829D03*
X0029427Y0242616D03*
X0047537Y0180018D03*
X0073522Y0182774D03*
X0110923Y0182774D03*
X0122734Y0067026D03*
X0085333Y0067026D03*
X0047144Y0064663D03*
X0032970Y0034348D03*
X0024309Y0010333D03*
X0007380Y0039467D03*
X0125490Y0438679D03*
X0125884Y0439073D03*
X0182970Y0459939D03*
X0188876Y0463482D03*
X0189270Y0482380D03*
X0260530Y0499309D03*
X0267222Y0502459D03*
X0058561Y0452459D03*
X0031789Y0493797D03*
X0026278Y0491041D03*
X0013679Y0499703D03*
X0012892Y0500096D03*
X0007380Y0502852D03*
D20*
X0020372Y0433167D03*
X0053837Y0454821D03*
X0056593Y0453246D03*
X0049506Y0362695D03*
X0046356Y0340254D03*
X0051474Y0337892D03*
X0064860Y0312301D03*
X0094781Y0316632D03*
X0127852Y0350096D03*
X0161711Y0279230D03*
X0153837Y0230411D03*
X0177065Y0226081D03*
X0191238Y0200884D03*
X0211317Y0254427D03*
X0205805Y0256789D03*
X0212892Y0291041D03*
X0225096Y0313876D03*
X0233364Y0311120D03*
X0239663Y0382774D03*
X0234152Y0385136D03*
X0216435Y0387104D03*
X0213679Y0388679D03*
X0188482Y0422144D03*
X0208955Y0461907D03*
X0184545Y0359545D03*
X0127065Y0451671D03*
X0113679Y0477262D03*
X0020766Y0317813D03*
X0031396Y0281593D03*
X0025490Y0244585D03*
X0051081Y0238679D03*
X0037301Y0181986D03*
X0048719Y0172537D03*
X0048719Y0172144D03*
X0048719Y0171750D03*
X0048719Y0171356D03*
X0074309Y0175687D03*
X0074309Y0176474D03*
X0074309Y0182380D03*
X0085333Y0181199D03*
X0111711Y0176474D03*
X0122734Y0172537D03*
X0148719Y0176868D03*
X0148719Y0181986D03*
X0208955Y0068207D03*
X0208561Y0058364D03*
X0244388Y0057970D03*
X0244388Y0170963D03*
X0244388Y0176474D03*
X0244388Y0176868D03*
X0267616Y0201278D03*
X0254230Y0233167D03*
X0224309Y0228837D03*
X0273522Y0402852D03*
X0268404Y0405215D03*
X0122734Y0065844D03*
X0122341Y0057577D03*
X0085333Y0066238D03*
X0026671Y0056789D03*
X0010136Y0010726D03*
X0163679Y0035136D03*
D21*
X0122537Y0056789D03*
X0058758Y0017026D03*
X0023719Y0010726D03*
X0047341Y0179624D03*
X0065451Y0209939D03*
X0085530Y0181986D03*
X0122931Y0181986D03*
X0136711Y0203640D03*
X0142616Y0206396D03*
X0100884Y0281199D03*
X0088285Y0291041D03*
X0078443Y0291435D03*
X0045372Y0340648D03*
X0046159Y0360726D03*
X0007577Y0322144D03*
X0031593Y0280805D03*
X0024900Y0244978D03*
X0030018Y0242222D03*
X0127656Y0349309D03*
X0131199Y0335530D03*
X0157577Y0330411D03*
X0183955Y0313089D03*
X0195766Y0309545D03*
X0196553Y0349309D03*
X0196947Y0349703D03*
X0226474Y0268600D03*
X0204821Y0257183D03*
X0247341Y0305608D03*
X0263876Y0304427D03*
X0266632Y0200884D03*
X0260726Y0197734D03*
X0277262Y0201278D03*
X0165844Y0452852D03*
X0080805Y0448522D03*
X0057577Y0452852D03*
X0053246Y0455215D03*
X0254821Y0496159D03*
D22*
X0197537Y0382774D03*
X0192813Y0384348D03*
X0188089Y0422931D03*
X0163679Y0453640D03*
X0049112Y0361514D03*
X0010136Y0320963D03*
X0091238Y0243797D03*
X0067222Y0014270D03*
X0010923Y0011120D03*
X0232970Y0020569D03*
X0256593Y0232380D03*
D23*
X0244585Y0181593D03*
X0244585Y0177262D03*
X0244585Y0171356D03*
X0244585Y0068600D03*
X0253246Y0018994D03*
X0148915Y0177262D03*
X0122931Y0172931D03*
X0111907Y0176868D03*
X0111907Y0181986D03*
X0085530Y0172931D03*
X0074506Y0176868D03*
X0074506Y0181986D03*
X0065451Y0210726D03*
X0037498Y0181593D03*
X0037498Y0176868D03*
X0085136Y0065844D03*
X0085136Y0057970D03*
X0063876Y0057183D03*
X0069388Y0013876D03*
X0022537Y0011120D03*
X0137892Y0057183D03*
X0151671Y0231593D03*
X0161514Y0254427D03*
X0194585Y0309939D03*
X0181593Y0335530D03*
X0224112Y0411120D03*
X0248522Y0406396D03*
X0214663Y0477262D03*
X0190254Y0463876D03*
X0175687Y0426474D03*
X0108364Y0479624D03*
X0035136Y0455608D03*
X0014663Y0435530D03*
X0054427Y0315451D03*
X0243404Y0307577D03*
D24*
X0258758Y0303640D03*
X0259545Y0303246D03*
X0241041Y0272537D03*
X0231986Y0383167D03*
X0206002Y0479230D03*
X0069781Y0450490D03*
X0068994Y0450884D03*
X0015057Y0011514D03*
D25*
X0014663Y0011907D03*
X0168207Y0252852D03*
X0179624Y0251278D03*
X0270175Y0013876D03*
D26*
X0279821Y0011907D03*
X0236907Y0018994D03*
X0237301Y0031593D03*
X0200293Y0019781D03*
X0196750Y0039860D03*
X0144388Y0037104D03*
X0140844Y0065057D03*
X0120372Y0179230D03*
X0116435Y0223325D03*
X0107380Y0247734D03*
X0082970Y0179230D03*
X0042419Y0241041D03*
X0045569Y0063482D03*
X0066829Y0065057D03*
X0066435Y0058758D03*
X0005018Y0013876D03*
X0149506Y0213876D03*
X0158955Y0255215D03*
X0168797Y0287104D03*
X0195963Y0238679D03*
X0219585Y0341041D03*
X0234545Y0385530D03*
X0231789Y0407970D03*
X0242813Y0416632D03*
X0262892Y0428049D03*
X0279821Y0438285D03*
X0201081Y0481199D03*
X0154624Y0457183D03*
X0135726Y0457970D03*
X0098325Y0461514D03*
X0035726Y0457577D03*
X0021159Y0485530D03*
X0273522Y0297734D03*
X0279821Y0274112D03*
D27*
X0206002Y0463876D03*
X0150884Y0331986D03*
X0157577Y0036711D03*
X0204033Y0021750D03*
X0204427Y0021356D03*
X0014270Y0012301D03*
D28*
X0058955Y0029624D03*
X0064073Y0067813D03*
X0084939Y0067813D03*
X0108561Y0033955D03*
X0114860Y0043010D03*
X0122734Y0067813D03*
X0138089Y0067813D03*
X0208561Y0057183D03*
X0211317Y0059939D03*
X0211317Y0066632D03*
X0279427Y0012301D03*
X0279427Y0200490D03*
X0279427Y0211907D03*
X0274309Y0221356D03*
X0279427Y0274900D03*
X0261317Y0278837D03*
X0234152Y0200490D03*
X0212892Y0212695D03*
X0198325Y0208758D03*
X0190451Y0213482D03*
X0182970Y0209152D03*
X0207380Y0268600D03*
X0203837Y0316238D03*
X0205018Y0355215D03*
X0226278Y0384742D03*
X0243994Y0378837D03*
X0269978Y0417026D03*
X0261711Y0463089D03*
X0277459Y0487498D03*
X0279427Y0497734D03*
X0225490Y0463089D03*
X0206593Y0446947D03*
X0197537Y0430805D03*
X0202656Y0414663D03*
X0202262Y0398128D03*
X0172734Y0424112D03*
X0181396Y0458758D03*
X0168797Y0480018D03*
X0151474Y0482774D03*
X0123915Y0436711D03*
X0092813Y0436317D03*
X0119585Y0358364D03*
X0146750Y0343797D03*
X0170766Y0352459D03*
X0135333Y0291435D03*
X0140451Y0275293D03*
X0140057Y0258758D03*
X0123128Y0272537D03*
X0119978Y0294978D03*
X0114467Y0304821D03*
X0107380Y0248128D03*
X0095569Y0226474D03*
X0084152Y0211120D03*
X0064467Y0226081D03*
X0057380Y0218994D03*
X0055805Y0234742D03*
X0027852Y0219388D03*
X0014073Y0254033D03*
X0014467Y0270569D03*
X0022341Y0300096D03*
X0038482Y0289467D03*
X0038876Y0318994D03*
X0047537Y0352065D03*
X0042026Y0355215D03*
X0073522Y0318994D03*
X0108561Y0213089D03*
X0161711Y0276081D03*
X0038089Y0471750D03*
X0038482Y0488285D03*
X0033758Y0496159D03*
X0005411Y0460726D03*
X0020766Y0432380D03*
X0026278Y0439467D03*
D29*
X0080411Y0356396D03*
X0114663Y0285530D03*
X0144191Y0204427D03*
X0240254Y0272931D03*
X0259152Y0328837D03*
X0185923Y0424112D03*
X0013876Y0012695D03*
D30*
X0034152Y0033955D03*
X0029427Y0058364D03*
X0029427Y0065451D03*
X0034939Y0061907D03*
X0035333Y0060726D03*
X0035726Y0059545D03*
X0038876Y0059939D03*
X0038876Y0060333D03*
X0039270Y0061120D03*
X0039270Y0061514D03*
X0048719Y0061514D03*
X0048719Y0061907D03*
X0048719Y0062301D03*
X0048719Y0062695D03*
X0048719Y0063089D03*
X0048719Y0063482D03*
X0048719Y0063876D03*
X0048719Y0064270D03*
X0048719Y0067419D03*
X0048719Y0061120D03*
X0048719Y0060726D03*
X0048719Y0060333D03*
X0048719Y0059939D03*
X0048719Y0059545D03*
X0048719Y0059152D03*
X0048719Y0058758D03*
X0048719Y0058364D03*
X0048719Y0057970D03*
X0063679Y0056002D03*
X0072734Y0059939D03*
X0075884Y0059939D03*
X0077065Y0063089D03*
X0087695Y0063876D03*
X0087695Y0064270D03*
X0087695Y0064663D03*
X0087695Y0065057D03*
X0096750Y0062695D03*
X0096750Y0062301D03*
X0096750Y0061907D03*
X0096750Y0061514D03*
X0096750Y0061120D03*
X0103837Y0065451D03*
X0109742Y0061120D03*
X0109742Y0060726D03*
X0110136Y0059939D03*
X0110136Y0059545D03*
X0113285Y0059939D03*
X0113285Y0060333D03*
X0113679Y0061120D03*
X0113679Y0061514D03*
X0119585Y0058758D03*
X0122341Y0056002D03*
X0125096Y0058364D03*
X0125096Y0063876D03*
X0125096Y0064270D03*
X0125096Y0064663D03*
X0125096Y0065057D03*
X0119978Y0065057D03*
X0114860Y0042616D03*
X0108561Y0034348D03*
X0137695Y0056002D03*
X0146750Y0060333D03*
X0146356Y0061120D03*
X0145963Y0062301D03*
X0145569Y0063482D03*
X0147144Y0059545D03*
X0149900Y0059545D03*
X0150293Y0060726D03*
X0151474Y0063876D03*
X0156199Y0061120D03*
X0156593Y0061514D03*
X0156986Y0062301D03*
X0157380Y0062695D03*
X0157774Y0063089D03*
X0157774Y0063482D03*
X0158167Y0063876D03*
X0158561Y0064270D03*
X0160923Y0067419D03*
X0196356Y0038285D03*
X0196356Y0037892D03*
X0196356Y0035136D03*
X0237301Y0032380D03*
X0243207Y0039860D03*
X0242026Y0059545D03*
X0242026Y0059939D03*
X0242026Y0060333D03*
X0242026Y0060726D03*
X0242026Y0061120D03*
X0242026Y0061514D03*
X0242026Y0061907D03*
X0242026Y0062301D03*
X0242026Y0062695D03*
X0242026Y0063089D03*
X0242026Y0063482D03*
X0242026Y0063876D03*
X0242026Y0064270D03*
X0242026Y0064663D03*
X0242026Y0065057D03*
X0242026Y0065451D03*
X0242026Y0065844D03*
X0242026Y0066238D03*
X0242026Y0066632D03*
X0242026Y0067026D03*
X0249900Y0064270D03*
X0249900Y0063876D03*
X0249900Y0063482D03*
X0249900Y0063089D03*
X0249900Y0062695D03*
X0249900Y0062301D03*
X0251474Y0020175D03*
X0279033Y0012695D03*
X0242026Y0172537D03*
X0242026Y0172931D03*
X0242026Y0173325D03*
X0242026Y0173719D03*
X0242026Y0174112D03*
X0242026Y0174506D03*
X0242026Y0174900D03*
X0242026Y0175293D03*
X0242026Y0177656D03*
X0242026Y0178049D03*
X0242026Y0178443D03*
X0242026Y0178837D03*
X0242026Y0179230D03*
X0242026Y0179624D03*
X0242026Y0180018D03*
X0247931Y0178049D03*
X0234545Y0200884D03*
X0228640Y0222144D03*
X0228640Y0224900D03*
X0212892Y0212301D03*
X0211711Y0207577D03*
X0209742Y0200096D03*
X0209348Y0198915D03*
X0208955Y0197341D03*
X0208955Y0196553D03*
X0208167Y0182380D03*
X0206593Y0179230D03*
X0206593Y0178837D03*
X0206199Y0178049D03*
X0205805Y0176868D03*
X0205411Y0175687D03*
X0204230Y0172537D03*
X0203443Y0170569D03*
X0210923Y0175293D03*
X0210530Y0176081D03*
X0210530Y0176474D03*
X0210136Y0177262D03*
X0210136Y0177656D03*
X0209742Y0178049D03*
X0209742Y0178443D03*
X0209742Y0178837D03*
X0212892Y0170569D03*
X0198325Y0208364D03*
X0190451Y0213876D03*
X0190451Y0214663D03*
X0190844Y0216238D03*
X0192026Y0221356D03*
X0192419Y0222931D03*
X0195963Y0237892D03*
X0195963Y0238285D03*
X0182970Y0208758D03*
X0191238Y0198128D03*
X0161711Y0179624D03*
X0161711Y0179230D03*
X0161711Y0178837D03*
X0161711Y0178443D03*
X0161711Y0178049D03*
X0161711Y0177656D03*
X0161711Y0177262D03*
X0161711Y0176868D03*
X0161711Y0176474D03*
X0161711Y0176081D03*
X0161711Y0175687D03*
X0161711Y0173719D03*
X0161711Y0173325D03*
X0161711Y0172931D03*
X0161711Y0172537D03*
X0161711Y0172144D03*
X0161711Y0171750D03*
X0161711Y0171356D03*
X0156593Y0176081D03*
X0156199Y0175687D03*
X0156986Y0176868D03*
X0157380Y0177262D03*
X0157774Y0177656D03*
X0158167Y0178443D03*
X0158561Y0178837D03*
X0158955Y0179624D03*
X0146356Y0179624D03*
X0146356Y0179230D03*
X0146356Y0178837D03*
X0146356Y0178443D03*
X0146356Y0178049D03*
X0146356Y0177656D03*
X0146356Y0180018D03*
X0146356Y0180411D03*
X0146356Y0180805D03*
X0146356Y0175293D03*
X0146356Y0174900D03*
X0146356Y0174506D03*
X0146356Y0174112D03*
X0146356Y0173719D03*
X0146356Y0173325D03*
X0146356Y0172931D03*
X0146356Y0172537D03*
X0146356Y0172144D03*
X0146356Y0171750D03*
X0125490Y0178837D03*
X0125490Y0179230D03*
X0125490Y0179624D03*
X0125490Y0180018D03*
X0125490Y0180411D03*
X0125096Y0178443D03*
X0120372Y0180018D03*
X0119978Y0179624D03*
X0115254Y0178443D03*
X0119978Y0174112D03*
X0119978Y0173719D03*
X0102262Y0173719D03*
X0102262Y0174112D03*
X0102262Y0174506D03*
X0102262Y0174900D03*
X0102262Y0175293D03*
X0102262Y0175687D03*
X0102262Y0176081D03*
X0102262Y0176474D03*
X0102262Y0176868D03*
X0102262Y0177262D03*
X0102262Y0177656D03*
X0102262Y0178049D03*
X0102262Y0178443D03*
X0102262Y0178837D03*
X0102262Y0179230D03*
X0102262Y0179624D03*
X0102262Y0180018D03*
X0102262Y0173325D03*
X0102262Y0172931D03*
X0102262Y0172537D03*
X0102262Y0172144D03*
X0102262Y0171750D03*
X0088089Y0178837D03*
X0088089Y0179230D03*
X0088089Y0179624D03*
X0088089Y0180018D03*
X0082577Y0179624D03*
X0081789Y0202065D03*
X0083758Y0209545D03*
X0084152Y0210726D03*
X0066435Y0234742D03*
X0066829Y0236317D03*
X0064860Y0228049D03*
X0064467Y0226474D03*
X0057380Y0218600D03*
X0055805Y0235136D03*
X0069191Y0246553D03*
X0084152Y0248522D03*
X0084152Y0248915D03*
X0084152Y0249309D03*
X0084152Y0249703D03*
X0089663Y0259939D03*
X0089663Y0263089D03*
X0081396Y0280805D03*
X0094388Y0297341D03*
X0114467Y0304427D03*
X0119978Y0295372D03*
X0123128Y0272144D03*
X0140057Y0259152D03*
X0128246Y0226474D03*
X0128246Y0226081D03*
X0108561Y0213876D03*
X0108561Y0213482D03*
X0103049Y0235530D03*
X0103049Y0235923D03*
X0103049Y0236317D03*
X0103049Y0236711D03*
X0103049Y0237104D03*
X0107380Y0248522D03*
X0068797Y0305608D03*
X0069191Y0306789D03*
X0069191Y0307183D03*
X0061711Y0297734D03*
X0050293Y0318994D03*
X0055805Y0331593D03*
X0055805Y0331986D03*
X0055805Y0332380D03*
X0055805Y0332774D03*
X0055805Y0333167D03*
X0055805Y0333561D03*
X0042026Y0355608D03*
X0053837Y0359939D03*
X0038876Y0318600D03*
X0029427Y0326081D03*
X0016435Y0346947D03*
X0018010Y0352852D03*
X0019978Y0359939D03*
X0022341Y0300490D03*
X0038482Y0289073D03*
X0014073Y0254427D03*
X0022341Y0228837D03*
X0027852Y0219781D03*
X0034939Y0180805D03*
X0034939Y0180411D03*
X0034939Y0180018D03*
X0034939Y0179624D03*
X0034939Y0179230D03*
X0034939Y0178837D03*
X0034939Y0178443D03*
X0034939Y0178049D03*
X0034939Y0177656D03*
X0034939Y0175293D03*
X0034939Y0174900D03*
X0034939Y0174506D03*
X0034939Y0174112D03*
X0034939Y0173719D03*
X0034939Y0173325D03*
X0034939Y0172931D03*
X0034939Y0172537D03*
X0034939Y0172144D03*
X0034939Y0171750D03*
X0040844Y0179230D03*
X0045963Y0179230D03*
X0049112Y0182774D03*
X0073522Y0319388D03*
X0089270Y0343010D03*
X0101081Y0361907D03*
X0119585Y0357970D03*
X0127852Y0347341D03*
X0134939Y0357577D03*
X0146750Y0344191D03*
X0147931Y0349309D03*
X0149900Y0356396D03*
X0158955Y0330018D03*
X0166435Y0318994D03*
X0164860Y0312301D03*
X0164860Y0311907D03*
X0164467Y0310333D03*
X0162892Y0304033D03*
X0162498Y0302065D03*
X0160923Y0295766D03*
X0160923Y0294978D03*
X0168797Y0286317D03*
X0161711Y0276474D03*
X0177852Y0269781D03*
X0176278Y0263089D03*
X0179821Y0276474D03*
X0179821Y0276868D03*
X0199112Y0302852D03*
X0199112Y0306002D03*
X0186120Y0328837D03*
X0186120Y0329624D03*
X0186120Y0330018D03*
X0186120Y0330805D03*
X0177852Y0349309D03*
X0170766Y0352852D03*
X0170766Y0354033D03*
X0170766Y0354427D03*
X0170766Y0354821D03*
X0190451Y0365057D03*
X0190451Y0365451D03*
X0190451Y0365844D03*
X0204230Y0354821D03*
X0219585Y0340648D03*
X0222734Y0315057D03*
X0235333Y0310333D03*
X0236907Y0343404D03*
X0243994Y0379230D03*
X0254230Y0377262D03*
X0256199Y0385136D03*
X0256199Y0385530D03*
X0256593Y0386711D03*
X0258167Y0393404D03*
X0258167Y0393797D03*
X0258561Y0394585D03*
X0264467Y0408758D03*
X0264467Y0409152D03*
X0264467Y0409545D03*
X0264467Y0409939D03*
X0264467Y0410333D03*
X0262892Y0428837D03*
X0262892Y0431199D03*
X0270766Y0438285D03*
X0279033Y0437498D03*
X0261711Y0463482D03*
X0261711Y0463876D03*
X0277459Y0487104D03*
X0245569Y0427656D03*
X0245175Y0426081D03*
X0243600Y0420175D03*
X0243207Y0418994D03*
X0242813Y0417419D03*
X0242813Y0417026D03*
X0225490Y0462695D03*
X0206593Y0447341D03*
X0197537Y0430411D03*
X0202262Y0398522D03*
X0151474Y0482380D03*
X0135726Y0458758D03*
X0118010Y0470175D03*
X0118010Y0470569D03*
X0118010Y0470963D03*
X0118010Y0471356D03*
X0118010Y0471750D03*
X0118010Y0472144D03*
X0118010Y0472537D03*
X0118010Y0472931D03*
X0098325Y0460726D03*
X0096750Y0453640D03*
X0096750Y0453246D03*
X0096356Y0451671D03*
X0094781Y0445372D03*
X0094388Y0443404D03*
X0092813Y0437104D03*
X0092813Y0436711D03*
X0051868Y0437498D03*
X0038089Y0472144D03*
X0038482Y0487892D03*
X0033758Y0495766D03*
X0021159Y0485136D03*
X0005805Y0462301D03*
X0005805Y0461907D03*
X0026278Y0439073D03*
X0006593Y0428837D03*
X0006593Y0426868D03*
X0006593Y0426474D03*
X0149506Y0214663D03*
X0149506Y0214270D03*
X0215648Y0248128D03*
X0215648Y0248522D03*
X0215648Y0248915D03*
X0215648Y0249309D03*
X0215648Y0249703D03*
X0261317Y0278443D03*
X0273522Y0298522D03*
X0275096Y0281986D03*
X0275096Y0281593D03*
X0279033Y0276081D03*
X0274309Y0220963D03*
X0279033Y0213089D03*
X0268797Y0341435D03*
X0269191Y0343010D03*
X0271159Y0350096D03*
X0272341Y0354821D03*
X0277459Y0394191D03*
X0277852Y0395372D03*
X0277852Y0399309D03*
D31*
X0271356Y0326868D03*
X0250096Y0272144D03*
X0166632Y0253246D03*
X0013482Y0013089D03*
D32*
X0031593Y0034742D03*
X0026474Y0065844D03*
X0026868Y0066238D03*
X0063482Y0065844D03*
X0063876Y0066238D03*
X0063482Y0057970D03*
X0085136Y0057577D03*
X0085136Y0057183D03*
X0085136Y0056789D03*
X0085136Y0056396D03*
X0100884Y0065844D03*
X0101278Y0066238D03*
X0137892Y0057577D03*
X0139073Y0039860D03*
X0207577Y0022537D03*
X0208758Y0067813D03*
X0244978Y0171750D03*
X0244978Y0172144D03*
X0244978Y0175687D03*
X0244978Y0180411D03*
X0244978Y0180805D03*
X0272931Y0203640D03*
X0255215Y0232774D03*
X0252065Y0270569D03*
X0244191Y0306789D03*
X0276081Y0325687D03*
X0269388Y0404821D03*
X0214663Y0387892D03*
X0206789Y0256396D03*
X0210333Y0254821D03*
X0152065Y0231199D03*
X0126474Y0283167D03*
X0102459Y0313876D03*
X0081199Y0268994D03*
X0084348Y0267419D03*
X0116632Y0222537D03*
X0112301Y0181199D03*
X0085530Y0172537D03*
X0085136Y0171750D03*
X0074900Y0181199D03*
X0026081Y0243797D03*
X0008758Y0321750D03*
X0047341Y0339860D03*
X0054821Y0454033D03*
X0027262Y0458364D03*
X0109545Y0479230D03*
X0112695Y0477656D03*
X0266632Y0013089D03*
D33*
X0256593Y0017419D03*
X0253049Y0019388D03*
X0234939Y0019781D03*
X0225884Y0022931D03*
X0208561Y0057970D03*
X0208955Y0068600D03*
X0243994Y0068994D03*
X0243994Y0057577D03*
X0260923Y0198128D03*
X0247931Y0207577D03*
X0242419Y0210333D03*
X0238482Y0207970D03*
X0263285Y0230018D03*
X0252656Y0270175D03*
X0269585Y0301671D03*
X0242813Y0307970D03*
X0227065Y0268994D03*
X0213679Y0231986D03*
X0191238Y0200490D03*
X0155018Y0230018D03*
X0130608Y0200490D03*
X0122341Y0220175D03*
X0122734Y0172144D03*
X0148325Y0175687D03*
X0148325Y0176081D03*
X0161711Y0278443D03*
X0161711Y0278837D03*
X0182577Y0335136D03*
X0175884Y0337892D03*
X0199900Y0381986D03*
X0190451Y0385136D03*
X0221947Y0384742D03*
X0183364Y0460333D03*
X0183758Y0460726D03*
X0195569Y0466238D03*
X0255411Y0496553D03*
X0255805Y0496947D03*
X0261317Y0499703D03*
X0277065Y0498915D03*
X0270766Y0437892D03*
X0277065Y0379624D03*
X0127852Y0349703D03*
X0092419Y0353640D03*
X0073128Y0355608D03*
X0082577Y0293797D03*
X0101081Y0281593D03*
X0088089Y0244585D03*
X0046356Y0241041D03*
X0031396Y0281199D03*
X0036907Y0182380D03*
X0036907Y0176081D03*
X0036907Y0175687D03*
X0085333Y0066632D03*
X0122734Y0066632D03*
X0017616Y0013482D03*
X0116435Y0454821D03*
X0107380Y0480018D03*
X0030608Y0493404D03*
X0012104Y0500490D03*
X0026278Y0458758D03*
D34*
X0009939Y0433167D03*
X0022144Y0493404D03*
X0014270Y0499309D03*
X0032380Y0494191D03*
X0059152Y0452065D03*
X0059939Y0451671D03*
X0060726Y0451278D03*
X0081593Y0448128D03*
X0115451Y0455215D03*
X0126474Y0439467D03*
X0127262Y0439860D03*
X0124900Y0438285D03*
X0128049Y0451278D03*
X0115057Y0476868D03*
X0156002Y0456396D03*
X0172931Y0476081D03*
X0185530Y0461514D03*
X0193010Y0424506D03*
X0218600Y0386317D03*
X0202852Y0353246D03*
X0201671Y0352459D03*
X0196159Y0348915D03*
X0178837Y0362301D03*
X0176474Y0347734D03*
X0176081Y0347341D03*
X0174900Y0338285D03*
X0194978Y0297734D03*
X0206002Y0266632D03*
X0226081Y0268207D03*
X0231593Y0271356D03*
X0248128Y0305215D03*
X0234348Y0310726D03*
X0239073Y0341041D03*
X0267026Y0405608D03*
X0267813Y0414663D03*
X0268600Y0415057D03*
X0266238Y0435530D03*
X0277656Y0378837D03*
X0254427Y0495766D03*
X0257577Y0497734D03*
X0130805Y0285136D03*
X0105608Y0283955D03*
X0102852Y0282380D03*
X0100490Y0280805D03*
X0079624Y0278837D03*
X0064270Y0300096D03*
X0063089Y0299309D03*
X0062695Y0298915D03*
X0066238Y0311907D03*
X0052852Y0337498D03*
X0046159Y0350096D03*
X0068207Y0352852D03*
X0069388Y0353640D03*
X0093797Y0317026D03*
X0127656Y0348915D03*
X0098915Y0229624D03*
X0097734Y0228837D03*
X0065451Y0209545D03*
X0052459Y0238285D03*
X0032380Y0241041D03*
X0031593Y0241435D03*
X0036317Y0182774D03*
X0047734Y0180411D03*
X0064270Y0067419D03*
X0063876Y0056396D03*
X0074506Y0059545D03*
X0057970Y0017419D03*
X0070963Y0013482D03*
X0047341Y0065057D03*
X0037104Y0059152D03*
X0026868Y0067419D03*
X0101278Y0067419D03*
X0111514Y0059152D03*
X0137892Y0056396D03*
X0138285Y0067419D03*
X0137892Y0040254D03*
X0196159Y0022537D03*
X0243404Y0170569D03*
X0243404Y0182380D03*
X0260333Y0197341D03*
X0224112Y0216632D03*
X0222931Y0215844D03*
X0222537Y0215451D03*
X0225687Y0228443D03*
X0212695Y0232380D03*
X0191435Y0199703D03*
X0178837Y0225293D03*
X0159939Y0204033D03*
X0156396Y0201671D03*
X0147734Y0182774D03*
X0135530Y0203246D03*
X0132774Y0201671D03*
X0130018Y0199703D03*
X0122931Y0171750D03*
X0156789Y0229230D03*
D35*
X0137695Y0333955D03*
X0144388Y0038679D03*
X0203443Y0022144D03*
X0205018Y0020963D03*
X0205411Y0020569D03*
X0270766Y0013482D03*
X0026278Y0035923D03*
D36*
X0015254Y0037498D03*
X0114860Y0285136D03*
X0166435Y0228049D03*
X0229821Y0384348D03*
X0268797Y0015057D03*
X0269978Y0014270D03*
D37*
X0155215Y0202852D03*
X0191041Y0310726D03*
X0189467Y0311514D03*
X0218207Y0230805D03*
X0178049Y0425293D03*
X0122537Y0452852D03*
X0120963Y0453640D03*
X0091435Y0354821D03*
X0100490Y0314663D03*
X0059545Y0313876D03*
X0058364Y0314270D03*
X0092616Y0243404D03*
X0093404Y0243010D03*
X0141041Y0039467D03*
X0066238Y0014663D03*
X0063482Y0015844D03*
X0029624Y0035136D03*
X0010726Y0038679D03*
X0267813Y0501671D03*
D38*
X0269585Y0500096D03*
X0239270Y0408364D03*
X0231002Y0409545D03*
X0230608Y0383955D03*
X0231396Y0383561D03*
X0260923Y0328443D03*
X0260530Y0302852D03*
X0260923Y0302459D03*
X0261711Y0302065D03*
X0173522Y0252065D03*
X0167222Y0227656D03*
X0168010Y0227262D03*
X0168797Y0226868D03*
X0169191Y0226474D03*
X0144781Y0204033D03*
X0146356Y0332774D03*
X0081002Y0356002D03*
X0071947Y0449309D03*
X0071159Y0449703D03*
X0070372Y0450096D03*
X0041632Y0240254D03*
X0042813Y0239467D03*
X0043600Y0239073D03*
X0018797Y0037104D03*
X0024703Y0036317D03*
X0145963Y0038285D03*
X0151868Y0037498D03*
X0155805Y0037104D03*
X0269585Y0014663D03*
D39*
X0231789Y0020963D03*
X0143207Y0205608D03*
X0094388Y0242616D03*
X0060530Y0313482D03*
X0044781Y0240648D03*
X0010923Y0320569D03*
X0032183Y0456789D03*
X0134545Y0334742D03*
X0154230Y0331199D03*
X0190451Y0311120D03*
X0219191Y0230411D03*
X0219978Y0230018D03*
X0251474Y0271356D03*
X0260136Y0231199D03*
X0255805Y0329624D03*
X0162892Y0454033D03*
X0064467Y0015451D03*
X0065254Y0015057D03*
D40*
X0159152Y0059545D03*
X0159152Y0059939D03*
X0159152Y0060333D03*
X0207970Y0174112D03*
X0209545Y0255215D03*
X0213089Y0290648D03*
X0232774Y0311514D03*
X0239073Y0274506D03*
X0179624Y0336317D03*
X0178837Y0336711D03*
X0198522Y0382380D03*
X0176474Y0426081D03*
X0111120Y0478443D03*
X0079230Y0357970D03*
X0048915Y0339073D03*
X0048128Y0339467D03*
X0082774Y0293404D03*
X0081986Y0268600D03*
X0082774Y0268207D03*
X0083561Y0267813D03*
X0089860Y0244191D03*
X0102459Y0182774D03*
X0139073Y0182774D03*
X0139073Y0180805D03*
X0159545Y0175293D03*
X0159545Y0174900D03*
X0159545Y0174506D03*
X0245372Y0067419D03*
X0245372Y0059152D03*
X0233955Y0020175D03*
X0273325Y0015451D03*
X0065057Y0180805D03*
X0027656Y0181199D03*
X0027656Y0181593D03*
X0027656Y0181986D03*
X0027656Y0182380D03*
X0027656Y0182774D03*
X0026474Y0491829D03*
X0009152Y0501278D03*
X0270963Y0404033D03*
X0271750Y0403640D03*
D41*
X0225490Y0410726D03*
X0186907Y0312301D03*
X0162892Y0254033D03*
X0164860Y0226081D03*
X0101474Y0314270D03*
X0091632Y0354427D03*
X0049506Y0361907D03*
X0015254Y0435136D03*
X0096750Y0241829D03*
X0062104Y0016238D03*
X0251868Y0270963D03*
X0263285Y0304033D03*
D42*
X0243994Y0307183D03*
X0218404Y0288679D03*
X0185333Y0312695D03*
X0177065Y0337498D03*
X0179033Y0361907D03*
X0191238Y0384742D03*
X0214073Y0388285D03*
X0272734Y0403246D03*
X0276278Y0435530D03*
X0276278Y0499309D03*
X0186120Y0249703D03*
X0156199Y0202065D03*
X0149112Y0181593D03*
X0149112Y0181199D03*
X0112104Y0181593D03*
X0112104Y0177262D03*
X0085333Y0172144D03*
X0074703Y0177262D03*
X0074703Y0181593D03*
X0098325Y0241435D03*
X0050687Y0338285D03*
X0092419Y0354033D03*
X0054230Y0454427D03*
X0026278Y0491435D03*
X0008561Y0502065D03*
X0025884Y0244191D03*
X0027852Y0243010D03*
X0037695Y0181199D03*
X0037695Y0177262D03*
X0027065Y0066632D03*
X0026671Y0057183D03*
X0060136Y0016632D03*
X0064073Y0066632D03*
X0101474Y0066632D03*
X0101081Y0057183D03*
X0138089Y0066632D03*
X0201081Y0020175D03*
X0208561Y0058758D03*
X0226671Y0022537D03*
X0244781Y0058364D03*
X0244781Y0068207D03*
X0253837Y0018600D03*
X0244781Y0176081D03*
X0244781Y0181199D03*
D43*
X0242419Y0209939D03*
X0262104Y0230411D03*
X0256593Y0301671D03*
X0244781Y0306396D03*
X0208561Y0255608D03*
X0207774Y0256002D03*
X0208167Y0174900D03*
X0208167Y0174506D03*
X0159348Y0174112D03*
X0152656Y0230805D03*
X0113285Y0287104D03*
X0095569Y0316238D03*
X0087695Y0291435D03*
X0049900Y0338679D03*
X0049506Y0362301D03*
X0055018Y0453640D03*
X0008955Y0501671D03*
X0110136Y0478837D03*
X0112104Y0478049D03*
X0157774Y0455608D03*
X0164860Y0453246D03*
X0188482Y0422537D03*
X0215254Y0387498D03*
X0180215Y0335923D03*
X0177852Y0337104D03*
X0190451Y0481986D03*
X0270372Y0404427D03*
X0085333Y0171356D03*
X0026671Y0243404D03*
X0026278Y0057970D03*
X0026671Y0057577D03*
X0008955Y0039073D03*
X0063679Y0057577D03*
X0100687Y0057970D03*
X0101081Y0057577D03*
X0137695Y0057970D03*
X0137695Y0065844D03*
X0138089Y0066238D03*
X0159348Y0059152D03*
X0208561Y0059152D03*
X0208561Y0067419D03*
X0245175Y0067813D03*
X0245175Y0058758D03*
X0254230Y0018207D03*
X0254624Y0017813D03*
D44*
X0231199Y0019781D03*
X0231199Y0022537D03*
X0211514Y0060333D03*
X0211514Y0066238D03*
X0245766Y0067026D03*
X0259152Y0196159D03*
X0274506Y0204033D03*
X0252065Y0234348D03*
X0280018Y0273719D03*
X0265844Y0326474D03*
X0279230Y0380411D03*
X0251671Y0405608D03*
X0250490Y0408364D03*
X0280018Y0438679D03*
X0217813Y0470569D03*
X0211120Y0461514D03*
X0191829Y0466238D03*
X0167813Y0454821D03*
X0168994Y0480411D03*
X0195766Y0384742D03*
X0229230Y0313876D03*
X0227656Y0311514D03*
X0218994Y0287892D03*
X0185136Y0249309D03*
X0167026Y0225687D03*
X0141435Y0334742D03*
X0127656Y0346947D03*
X0100490Y0316238D03*
X0076081Y0358364D03*
X0073325Y0318600D03*
X0004821Y0319781D03*
X0046159Y0446947D03*
X0046947Y0446947D03*
X0033955Y0455215D03*
X0069781Y0451278D03*
X0045766Y0178443D03*
X0043010Y0067813D03*
X0058758Y0030018D03*
X0007577Y0037104D03*
X0117419Y0067813D03*
X0163089Y0037498D03*
D45*
X0160530Y0035923D03*
X0231002Y0021356D03*
X0273128Y0202459D03*
X0239663Y0273719D03*
X0229427Y0312695D03*
X0195569Y0383561D03*
X0161711Y0454427D03*
X0193207Y0481199D03*
X0098719Y0315451D03*
X0079427Y0357183D03*
X0031396Y0457183D03*
X0164860Y0253640D03*
X0154624Y0203246D03*
D46*
X0230018Y0021750D03*
X0011514Y0320175D03*
X0178443Y0424900D03*
X0196159Y0465451D03*
D47*
X0195766Y0465844D03*
X0213089Y0477656D03*
X0177262Y0425687D03*
X0126081Y0283561D03*
X0117026Y0222144D03*
X0039467Y0238679D03*
X0026474Y0492222D03*
X0261120Y0230805D03*
X0274900Y0326081D03*
X0228049Y0022144D03*
D48*
X0142419Y0039073D03*
X0143600Y0205215D03*
X0090844Y0355215D03*
X0207380Y0463482D03*
X0272734Y0436711D03*
X0256986Y0329230D03*
X0250687Y0271750D03*
X0272734Y0202065D03*
X0028246Y0035530D03*
D49*
X0143010Y0206002D03*
X0207970Y0173325D03*
X0222537Y0229230D03*
X0215844Y0231593D03*
X0226474Y0313482D03*
X0254427Y0330018D03*
X0227262Y0382774D03*
X0179230Y0361514D03*
X0124900Y0452065D03*
X0067419Y0448915D03*
X0033955Y0456002D03*
X0028049Y0457970D03*
X0009545Y0321356D03*
X0056396Y0315057D03*
X0162301Y0035530D03*
D50*
X0159152Y0036317D03*
X0214270Y0289073D03*
X0268600Y0500884D03*
X0080018Y0356789D03*
D51*
X0170372Y0252459D03*
X0177065Y0251671D03*
X0202656Y0479624D03*
X0199900Y0480018D03*
X0021947Y0036711D03*
D52*
X0013679Y0037892D03*
X0123915Y0284742D03*
X0018010Y0319781D03*
X0195175Y0480805D03*
X0268797Y0500490D03*
D53*
X0235923Y0408758D03*
X0233167Y0409152D03*
X0264270Y0328049D03*
X0267026Y0327656D03*
X0143010Y0333167D03*
X0148522Y0037892D03*
D54*
X0012301Y0038285D03*
X0124900Y0284348D03*
X0179230Y0424506D03*
X0272537Y0436317D03*
D55*
X0279624Y0437892D03*
X0258364Y0395372D03*
X0246947Y0433561D03*
X0221750Y0411907D03*
X0201671Y0381199D03*
X0190648Y0366238D03*
X0178049Y0349703D03*
X0153640Y0287498D03*
X0180411Y0279624D03*
X0181593Y0222144D03*
X0221356Y0213876D03*
X0254033Y0214270D03*
X0265844Y0246159D03*
X0279624Y0274506D03*
X0279624Y0324900D03*
X0245766Y0282380D03*
X0236711Y0343797D03*
X0168207Y0463482D03*
X0187498Y0482774D03*
X0134742Y0357970D03*
X0106002Y0329624D03*
X0092222Y0317813D03*
X0074506Y0283955D03*
X0081593Y0281199D03*
X0061514Y0297341D03*
X0029624Y0326474D03*
X0020569Y0363089D03*
X0054033Y0359545D03*
X0052065Y0436711D03*
X0037498Y0454821D03*
X0083955Y0444978D03*
X0128049Y0226868D03*
X0120175Y0174506D03*
X0072537Y0218600D03*
X0045766Y0178837D03*
X0022537Y0229230D03*
X0029624Y0065057D03*
X0029624Y0058758D03*
X0082774Y0064270D03*
X0104033Y0065057D03*
X0104033Y0058758D03*
X0120175Y0064270D03*
X0140648Y0058758D03*
X0243404Y0040648D03*
X0279624Y0211514D03*
D56*
X0261514Y0198522D03*
X0244191Y0181986D03*
X0227656Y0269388D03*
X0233167Y0272144D03*
X0246159Y0306002D03*
X0253246Y0330411D03*
X0276868Y0380018D03*
X0256396Y0497341D03*
X0183955Y0461120D03*
X0156789Y0456002D03*
X0197734Y0350490D03*
X0197341Y0350096D03*
X0151278Y0231986D03*
X0171750Y0228443D03*
X0148522Y0182380D03*
X0148522Y0176474D03*
X0131593Y0201278D03*
X0130805Y0200884D03*
X0122931Y0181593D03*
X0122931Y0181199D03*
X0111514Y0182380D03*
X0111514Y0176081D03*
X0111514Y0175687D03*
X0085530Y0181593D03*
X0074112Y0176081D03*
X0065451Y0210333D03*
X0037104Y0176474D03*
X0033955Y0240648D03*
X0080018Y0269388D03*
X0085530Y0267026D03*
X0101671Y0281986D03*
X0107577Y0284742D03*
X0126474Y0282774D03*
X0079624Y0448915D03*
X0074112Y0451278D03*
X0007970Y0502459D03*
X0026868Y0067026D03*
X0048522Y0057577D03*
X0048522Y0057183D03*
X0048522Y0056789D03*
X0048522Y0056396D03*
X0063876Y0056789D03*
X0063876Y0067026D03*
X0101278Y0067026D03*
X0101278Y0056789D03*
X0122537Y0057183D03*
X0122537Y0066238D03*
X0138285Y0067026D03*
X0137892Y0056789D03*
D57*
X0139270Y0181199D03*
X0139270Y0181593D03*
X0139270Y0181986D03*
X0139270Y0182380D03*
X0155805Y0202459D03*
X0208167Y0173719D03*
X0247144Y0207970D03*
X0155805Y0330805D03*
X0132970Y0335136D03*
X0118404Y0454427D03*
X0062892Y0312695D03*
X0020372Y0318207D03*
X0064860Y0182774D03*
X0064860Y0182380D03*
X0064860Y0181986D03*
X0064860Y0181593D03*
X0064860Y0181199D03*
X0102262Y0181199D03*
X0102262Y0181593D03*
X0102262Y0181986D03*
X0102262Y0182380D03*
X0208561Y0462301D03*
X0267616Y0502065D03*
X0275490Y0499703D03*
X0271159Y0437498D03*
X0009742Y0500884D03*
D58*
X0018797Y0319388D03*
X0085726Y0293010D03*
X0186907Y0423719D03*
X0196356Y0465057D03*
X0239663Y0273325D03*
X0272341Y0201671D03*
D59*
X0273522Y0202852D03*
X0259348Y0231593D03*
X0258167Y0231986D03*
X0273522Y0326474D03*
X0194388Y0383955D03*
X0160530Y0454821D03*
X0211711Y0478049D03*
X0113679Y0286317D03*
X0099900Y0315057D03*
X0019585Y0318994D03*
X0026671Y0493010D03*
D60*
X0029230Y0457577D03*
X0033167Y0456396D03*
X0049309Y0361120D03*
X0061514Y0313089D03*
X0096947Y0315844D03*
X0113482Y0286711D03*
X0192222Y0310333D03*
X0231199Y0311907D03*
X0239467Y0274112D03*
X0217419Y0231199D03*
X0221356Y0229624D03*
X0273325Y0203246D03*
X0159152Y0455215D03*
X0191829Y0481593D03*
X0208364Y0462695D03*
X0123719Y0452459D03*
D61*
X0181199Y0360726D03*
X0181593Y0361120D03*
X0152459Y0331593D03*
X0136317Y0334348D03*
X0114270Y0285923D03*
X0085136Y0292616D03*
X0119388Y0221750D03*
X0154033Y0203640D03*
X0215844Y0290254D03*
X0245372Y0209545D03*
X0244978Y0209152D03*
X0244585Y0208758D03*
X0272144Y0435923D03*
X0210333Y0478443D03*
X0017419Y0434742D03*
D62*
X0016829Y0434348D03*
X0016435Y0433955D03*
X0016041Y0433561D03*
X0084545Y0292222D03*
X0084152Y0291829D03*
X0118797Y0221356D03*
X0118404Y0220963D03*
X0118010Y0220569D03*
X0143600Y0204821D03*
X0214860Y0289467D03*
X0215254Y0289860D03*
X0180215Y0359939D03*
X0180608Y0360333D03*
X0243994Y0208364D03*
D63*
X0269388Y0327262D03*
X0197341Y0480411D03*
X0139467Y0333561D03*
X0149309Y0332380D03*
X0042222Y0239860D03*
D64*
X0057774Y0314663D03*
X0079427Y0357577D03*
X0119978Y0454033D03*
X0188482Y0311907D03*
X0184152Y0250096D03*
X0233364Y0384742D03*
X0246750Y0406789D03*
X0095175Y0242222D03*
X0019978Y0318600D03*
X0026671Y0492616D03*
D65*
X0182774Y0250490D03*
X0245372Y0407183D03*
X0227262Y0410333D03*
X0272931Y0437104D03*
X0268207Y0501278D03*
D66*
X0243994Y0407577D03*
X0228640Y0409939D03*
X0196750Y0464663D03*
X0090057Y0355608D03*
X0181396Y0250884D03*
D67*
X0228049Y0313089D03*
X0230411Y0312301D03*
X0196553Y0383167D03*
X0187498Y0423325D03*
X0207970Y0463089D03*
X0121750Y0453246D03*
X0125687Y0283955D03*
D68*
X0197144Y0464270D03*
X0208167Y0478837D03*
X0242419Y0407970D03*
M02*
