G75*
%MOIN*%
%OFA0B0*%
%FSLAX25Y25*%
%IPPOS*%
%LPD*%
%AMOC8*
5,1,8,0,0,1.08239X$1,22.5*
%
%ADD10C,0.00039*%
%ADD11C,0.00000*%
%ADD12C,0.29984*%
%ADD13C,0.29098*%
%ADD14C,0.01000*%
D10*
X0003246Y0005215D02*
X0281543Y0005215D01*
X0281543Y0511120D01*
X0003246Y0511120D01*
X0003246Y0005215D01*
D11*
X0036464Y0266780D02*
X0036469Y0267215D01*
X0036485Y0267649D01*
X0036512Y0268083D01*
X0036549Y0268517D01*
X0036597Y0268949D01*
X0036656Y0269380D01*
X0036725Y0269809D01*
X0036804Y0270236D01*
X0036894Y0270662D01*
X0036995Y0271085D01*
X0037106Y0271505D01*
X0037227Y0271923D01*
X0037358Y0272337D01*
X0037500Y0272749D01*
X0037651Y0273156D01*
X0037813Y0273560D01*
X0037984Y0273960D01*
X0038165Y0274355D01*
X0038356Y0274746D01*
X0038556Y0275132D01*
X0038766Y0275513D01*
X0038985Y0275888D01*
X0039213Y0276259D01*
X0039450Y0276623D01*
X0039696Y0276982D01*
X0039951Y0277334D01*
X0040214Y0277680D01*
X0040486Y0278020D01*
X0040766Y0278352D01*
X0041054Y0278678D01*
X0041350Y0278997D01*
X0041653Y0279308D01*
X0041964Y0279611D01*
X0042283Y0279907D01*
X0042609Y0280195D01*
X0042941Y0280475D01*
X0043281Y0280747D01*
X0043627Y0281010D01*
X0043979Y0281265D01*
X0044338Y0281511D01*
X0044702Y0281748D01*
X0045073Y0281976D01*
X0045448Y0282195D01*
X0045829Y0282405D01*
X0046215Y0282605D01*
X0046606Y0282796D01*
X0047001Y0282977D01*
X0047401Y0283148D01*
X0047805Y0283310D01*
X0048212Y0283461D01*
X0048624Y0283603D01*
X0049038Y0283734D01*
X0049456Y0283855D01*
X0049876Y0283966D01*
X0050299Y0284067D01*
X0050725Y0284157D01*
X0051152Y0284236D01*
X0051581Y0284305D01*
X0052012Y0284364D01*
X0052444Y0284412D01*
X0052878Y0284449D01*
X0053312Y0284476D01*
X0053746Y0284492D01*
X0054181Y0284497D01*
X0054616Y0284492D01*
X0055050Y0284476D01*
X0055484Y0284449D01*
X0055918Y0284412D01*
X0056350Y0284364D01*
X0056781Y0284305D01*
X0057210Y0284236D01*
X0057637Y0284157D01*
X0058063Y0284067D01*
X0058486Y0283966D01*
X0058906Y0283855D01*
X0059324Y0283734D01*
X0059738Y0283603D01*
X0060150Y0283461D01*
X0060557Y0283310D01*
X0060961Y0283148D01*
X0061361Y0282977D01*
X0061756Y0282796D01*
X0062147Y0282605D01*
X0062533Y0282405D01*
X0062914Y0282195D01*
X0063289Y0281976D01*
X0063660Y0281748D01*
X0064024Y0281511D01*
X0064383Y0281265D01*
X0064735Y0281010D01*
X0065081Y0280747D01*
X0065421Y0280475D01*
X0065753Y0280195D01*
X0066079Y0279907D01*
X0066398Y0279611D01*
X0066709Y0279308D01*
X0067012Y0278997D01*
X0067308Y0278678D01*
X0067596Y0278352D01*
X0067876Y0278020D01*
X0068148Y0277680D01*
X0068411Y0277334D01*
X0068666Y0276982D01*
X0068912Y0276623D01*
X0069149Y0276259D01*
X0069377Y0275888D01*
X0069596Y0275513D01*
X0069806Y0275132D01*
X0070006Y0274746D01*
X0070197Y0274355D01*
X0070378Y0273960D01*
X0070549Y0273560D01*
X0070711Y0273156D01*
X0070862Y0272749D01*
X0071004Y0272337D01*
X0071135Y0271923D01*
X0071256Y0271505D01*
X0071367Y0271085D01*
X0071468Y0270662D01*
X0071558Y0270236D01*
X0071637Y0269809D01*
X0071706Y0269380D01*
X0071765Y0268949D01*
X0071813Y0268517D01*
X0071850Y0268083D01*
X0071877Y0267649D01*
X0071893Y0267215D01*
X0071898Y0266780D01*
X0071893Y0266345D01*
X0071877Y0265911D01*
X0071850Y0265477D01*
X0071813Y0265043D01*
X0071765Y0264611D01*
X0071706Y0264180D01*
X0071637Y0263751D01*
X0071558Y0263324D01*
X0071468Y0262898D01*
X0071367Y0262475D01*
X0071256Y0262055D01*
X0071135Y0261637D01*
X0071004Y0261223D01*
X0070862Y0260811D01*
X0070711Y0260404D01*
X0070549Y0260000D01*
X0070378Y0259600D01*
X0070197Y0259205D01*
X0070006Y0258814D01*
X0069806Y0258428D01*
X0069596Y0258047D01*
X0069377Y0257672D01*
X0069149Y0257301D01*
X0068912Y0256937D01*
X0068666Y0256578D01*
X0068411Y0256226D01*
X0068148Y0255880D01*
X0067876Y0255540D01*
X0067596Y0255208D01*
X0067308Y0254882D01*
X0067012Y0254563D01*
X0066709Y0254252D01*
X0066398Y0253949D01*
X0066079Y0253653D01*
X0065753Y0253365D01*
X0065421Y0253085D01*
X0065081Y0252813D01*
X0064735Y0252550D01*
X0064383Y0252295D01*
X0064024Y0252049D01*
X0063660Y0251812D01*
X0063289Y0251584D01*
X0062914Y0251365D01*
X0062533Y0251155D01*
X0062147Y0250955D01*
X0061756Y0250764D01*
X0061361Y0250583D01*
X0060961Y0250412D01*
X0060557Y0250250D01*
X0060150Y0250099D01*
X0059738Y0249957D01*
X0059324Y0249826D01*
X0058906Y0249705D01*
X0058486Y0249594D01*
X0058063Y0249493D01*
X0057637Y0249403D01*
X0057210Y0249324D01*
X0056781Y0249255D01*
X0056350Y0249196D01*
X0055918Y0249148D01*
X0055484Y0249111D01*
X0055050Y0249084D01*
X0054616Y0249068D01*
X0054181Y0249063D01*
X0053746Y0249068D01*
X0053312Y0249084D01*
X0052878Y0249111D01*
X0052444Y0249148D01*
X0052012Y0249196D01*
X0051581Y0249255D01*
X0051152Y0249324D01*
X0050725Y0249403D01*
X0050299Y0249493D01*
X0049876Y0249594D01*
X0049456Y0249705D01*
X0049038Y0249826D01*
X0048624Y0249957D01*
X0048212Y0250099D01*
X0047805Y0250250D01*
X0047401Y0250412D01*
X0047001Y0250583D01*
X0046606Y0250764D01*
X0046215Y0250955D01*
X0045829Y0251155D01*
X0045448Y0251365D01*
X0045073Y0251584D01*
X0044702Y0251812D01*
X0044338Y0252049D01*
X0043979Y0252295D01*
X0043627Y0252550D01*
X0043281Y0252813D01*
X0042941Y0253085D01*
X0042609Y0253365D01*
X0042283Y0253653D01*
X0041964Y0253949D01*
X0041653Y0254252D01*
X0041350Y0254563D01*
X0041054Y0254882D01*
X0040766Y0255208D01*
X0040486Y0255540D01*
X0040214Y0255880D01*
X0039951Y0256226D01*
X0039696Y0256578D01*
X0039450Y0256937D01*
X0039213Y0257301D01*
X0038985Y0257672D01*
X0038766Y0258047D01*
X0038556Y0258428D01*
X0038356Y0258814D01*
X0038165Y0259205D01*
X0037984Y0259600D01*
X0037813Y0260000D01*
X0037651Y0260404D01*
X0037500Y0260811D01*
X0037358Y0261223D01*
X0037227Y0261637D01*
X0037106Y0262055D01*
X0036995Y0262475D01*
X0036894Y0262898D01*
X0036804Y0263324D01*
X0036725Y0263751D01*
X0036656Y0264180D01*
X0036597Y0264611D01*
X0036549Y0265043D01*
X0036512Y0265477D01*
X0036485Y0265911D01*
X0036469Y0266345D01*
X0036464Y0266780D01*
X0178984Y0435677D02*
X0178986Y0435835D01*
X0178992Y0435993D01*
X0179002Y0436151D01*
X0179016Y0436309D01*
X0179034Y0436466D01*
X0179055Y0436623D01*
X0179081Y0436779D01*
X0179111Y0436935D01*
X0179144Y0437090D01*
X0179182Y0437243D01*
X0179223Y0437396D01*
X0179268Y0437548D01*
X0179317Y0437699D01*
X0179370Y0437848D01*
X0179426Y0437996D01*
X0179486Y0438142D01*
X0179550Y0438287D01*
X0179618Y0438430D01*
X0179689Y0438572D01*
X0179763Y0438712D01*
X0179841Y0438849D01*
X0179923Y0438985D01*
X0180007Y0439119D01*
X0180096Y0439250D01*
X0180187Y0439379D01*
X0180282Y0439506D01*
X0180379Y0439631D01*
X0180480Y0439753D01*
X0180584Y0439872D01*
X0180691Y0439989D01*
X0180801Y0440103D01*
X0180914Y0440214D01*
X0181029Y0440323D01*
X0181147Y0440428D01*
X0181268Y0440530D01*
X0181391Y0440630D01*
X0181517Y0440726D01*
X0181645Y0440819D01*
X0181775Y0440909D01*
X0181908Y0440995D01*
X0182043Y0441079D01*
X0182179Y0441158D01*
X0182318Y0441235D01*
X0182459Y0441307D01*
X0182601Y0441377D01*
X0182745Y0441442D01*
X0182891Y0441504D01*
X0183038Y0441562D01*
X0183187Y0441617D01*
X0183337Y0441668D01*
X0183488Y0441715D01*
X0183640Y0441758D01*
X0183793Y0441797D01*
X0183948Y0441833D01*
X0184103Y0441864D01*
X0184259Y0441892D01*
X0184415Y0441916D01*
X0184572Y0441936D01*
X0184730Y0441952D01*
X0184887Y0441964D01*
X0185046Y0441972D01*
X0185204Y0441976D01*
X0185362Y0441976D01*
X0185520Y0441972D01*
X0185679Y0441964D01*
X0185836Y0441952D01*
X0185994Y0441936D01*
X0186151Y0441916D01*
X0186307Y0441892D01*
X0186463Y0441864D01*
X0186618Y0441833D01*
X0186773Y0441797D01*
X0186926Y0441758D01*
X0187078Y0441715D01*
X0187229Y0441668D01*
X0187379Y0441617D01*
X0187528Y0441562D01*
X0187675Y0441504D01*
X0187821Y0441442D01*
X0187965Y0441377D01*
X0188107Y0441307D01*
X0188248Y0441235D01*
X0188387Y0441158D01*
X0188523Y0441079D01*
X0188658Y0440995D01*
X0188791Y0440909D01*
X0188921Y0440819D01*
X0189049Y0440726D01*
X0189175Y0440630D01*
X0189298Y0440530D01*
X0189419Y0440428D01*
X0189537Y0440323D01*
X0189652Y0440214D01*
X0189765Y0440103D01*
X0189875Y0439989D01*
X0189982Y0439872D01*
X0190086Y0439753D01*
X0190187Y0439631D01*
X0190284Y0439506D01*
X0190379Y0439379D01*
X0190470Y0439250D01*
X0190559Y0439119D01*
X0190643Y0438985D01*
X0190725Y0438849D01*
X0190803Y0438712D01*
X0190877Y0438572D01*
X0190948Y0438430D01*
X0191016Y0438287D01*
X0191080Y0438142D01*
X0191140Y0437996D01*
X0191196Y0437848D01*
X0191249Y0437699D01*
X0191298Y0437548D01*
X0191343Y0437396D01*
X0191384Y0437243D01*
X0191422Y0437090D01*
X0191455Y0436935D01*
X0191485Y0436779D01*
X0191511Y0436623D01*
X0191532Y0436466D01*
X0191550Y0436309D01*
X0191564Y0436151D01*
X0191574Y0435993D01*
X0191580Y0435835D01*
X0191582Y0435677D01*
X0191580Y0435519D01*
X0191574Y0435361D01*
X0191564Y0435203D01*
X0191550Y0435045D01*
X0191532Y0434888D01*
X0191511Y0434731D01*
X0191485Y0434575D01*
X0191455Y0434419D01*
X0191422Y0434264D01*
X0191384Y0434111D01*
X0191343Y0433958D01*
X0191298Y0433806D01*
X0191249Y0433655D01*
X0191196Y0433506D01*
X0191140Y0433358D01*
X0191080Y0433212D01*
X0191016Y0433067D01*
X0190948Y0432924D01*
X0190877Y0432782D01*
X0190803Y0432642D01*
X0190725Y0432505D01*
X0190643Y0432369D01*
X0190559Y0432235D01*
X0190470Y0432104D01*
X0190379Y0431975D01*
X0190284Y0431848D01*
X0190187Y0431723D01*
X0190086Y0431601D01*
X0189982Y0431482D01*
X0189875Y0431365D01*
X0189765Y0431251D01*
X0189652Y0431140D01*
X0189537Y0431031D01*
X0189419Y0430926D01*
X0189298Y0430824D01*
X0189175Y0430724D01*
X0189049Y0430628D01*
X0188921Y0430535D01*
X0188791Y0430445D01*
X0188658Y0430359D01*
X0188523Y0430275D01*
X0188387Y0430196D01*
X0188248Y0430119D01*
X0188107Y0430047D01*
X0187965Y0429977D01*
X0187821Y0429912D01*
X0187675Y0429850D01*
X0187528Y0429792D01*
X0187379Y0429737D01*
X0187229Y0429686D01*
X0187078Y0429639D01*
X0186926Y0429596D01*
X0186773Y0429557D01*
X0186618Y0429521D01*
X0186463Y0429490D01*
X0186307Y0429462D01*
X0186151Y0429438D01*
X0185994Y0429418D01*
X0185836Y0429402D01*
X0185679Y0429390D01*
X0185520Y0429382D01*
X0185362Y0429378D01*
X0185204Y0429378D01*
X0185046Y0429382D01*
X0184887Y0429390D01*
X0184730Y0429402D01*
X0184572Y0429418D01*
X0184415Y0429438D01*
X0184259Y0429462D01*
X0184103Y0429490D01*
X0183948Y0429521D01*
X0183793Y0429557D01*
X0183640Y0429596D01*
X0183488Y0429639D01*
X0183337Y0429686D01*
X0183187Y0429737D01*
X0183038Y0429792D01*
X0182891Y0429850D01*
X0182745Y0429912D01*
X0182601Y0429977D01*
X0182459Y0430047D01*
X0182318Y0430119D01*
X0182179Y0430196D01*
X0182043Y0430275D01*
X0181908Y0430359D01*
X0181775Y0430445D01*
X0181645Y0430535D01*
X0181517Y0430628D01*
X0181391Y0430724D01*
X0181268Y0430824D01*
X0181147Y0430926D01*
X0181029Y0431031D01*
X0180914Y0431140D01*
X0180801Y0431251D01*
X0180691Y0431365D01*
X0180584Y0431482D01*
X0180480Y0431601D01*
X0180379Y0431723D01*
X0180282Y0431848D01*
X0180187Y0431975D01*
X0180096Y0432104D01*
X0180007Y0432235D01*
X0179923Y0432369D01*
X0179841Y0432505D01*
X0179763Y0432642D01*
X0179689Y0432782D01*
X0179618Y0432924D01*
X0179550Y0433067D01*
X0179486Y0433212D01*
X0179426Y0433358D01*
X0179370Y0433506D01*
X0179317Y0433655D01*
X0179268Y0433806D01*
X0179223Y0433958D01*
X0179182Y0434111D01*
X0179144Y0434264D01*
X0179111Y0434419D01*
X0179081Y0434575D01*
X0179055Y0434731D01*
X0179034Y0434888D01*
X0179016Y0435045D01*
X0179002Y0435203D01*
X0178992Y0435361D01*
X0178986Y0435519D01*
X0178984Y0435677D01*
X0208905Y0266780D02*
X0208910Y0267215D01*
X0208926Y0267649D01*
X0208953Y0268083D01*
X0208990Y0268517D01*
X0209038Y0268949D01*
X0209097Y0269380D01*
X0209166Y0269809D01*
X0209245Y0270236D01*
X0209335Y0270662D01*
X0209436Y0271085D01*
X0209547Y0271505D01*
X0209668Y0271923D01*
X0209799Y0272337D01*
X0209941Y0272749D01*
X0210092Y0273156D01*
X0210254Y0273560D01*
X0210425Y0273960D01*
X0210606Y0274355D01*
X0210797Y0274746D01*
X0210997Y0275132D01*
X0211207Y0275513D01*
X0211426Y0275888D01*
X0211654Y0276259D01*
X0211891Y0276623D01*
X0212137Y0276982D01*
X0212392Y0277334D01*
X0212655Y0277680D01*
X0212927Y0278020D01*
X0213207Y0278352D01*
X0213495Y0278678D01*
X0213791Y0278997D01*
X0214094Y0279308D01*
X0214405Y0279611D01*
X0214724Y0279907D01*
X0215050Y0280195D01*
X0215382Y0280475D01*
X0215722Y0280747D01*
X0216068Y0281010D01*
X0216420Y0281265D01*
X0216779Y0281511D01*
X0217143Y0281748D01*
X0217514Y0281976D01*
X0217889Y0282195D01*
X0218270Y0282405D01*
X0218656Y0282605D01*
X0219047Y0282796D01*
X0219442Y0282977D01*
X0219842Y0283148D01*
X0220246Y0283310D01*
X0220653Y0283461D01*
X0221065Y0283603D01*
X0221479Y0283734D01*
X0221897Y0283855D01*
X0222317Y0283966D01*
X0222740Y0284067D01*
X0223166Y0284157D01*
X0223593Y0284236D01*
X0224022Y0284305D01*
X0224453Y0284364D01*
X0224885Y0284412D01*
X0225319Y0284449D01*
X0225753Y0284476D01*
X0226187Y0284492D01*
X0226622Y0284497D01*
X0227057Y0284492D01*
X0227491Y0284476D01*
X0227925Y0284449D01*
X0228359Y0284412D01*
X0228791Y0284364D01*
X0229222Y0284305D01*
X0229651Y0284236D01*
X0230078Y0284157D01*
X0230504Y0284067D01*
X0230927Y0283966D01*
X0231347Y0283855D01*
X0231765Y0283734D01*
X0232179Y0283603D01*
X0232591Y0283461D01*
X0232998Y0283310D01*
X0233402Y0283148D01*
X0233802Y0282977D01*
X0234197Y0282796D01*
X0234588Y0282605D01*
X0234974Y0282405D01*
X0235355Y0282195D01*
X0235730Y0281976D01*
X0236101Y0281748D01*
X0236465Y0281511D01*
X0236824Y0281265D01*
X0237176Y0281010D01*
X0237522Y0280747D01*
X0237862Y0280475D01*
X0238194Y0280195D01*
X0238520Y0279907D01*
X0238839Y0279611D01*
X0239150Y0279308D01*
X0239453Y0278997D01*
X0239749Y0278678D01*
X0240037Y0278352D01*
X0240317Y0278020D01*
X0240589Y0277680D01*
X0240852Y0277334D01*
X0241107Y0276982D01*
X0241353Y0276623D01*
X0241590Y0276259D01*
X0241818Y0275888D01*
X0242037Y0275513D01*
X0242247Y0275132D01*
X0242447Y0274746D01*
X0242638Y0274355D01*
X0242819Y0273960D01*
X0242990Y0273560D01*
X0243152Y0273156D01*
X0243303Y0272749D01*
X0243445Y0272337D01*
X0243576Y0271923D01*
X0243697Y0271505D01*
X0243808Y0271085D01*
X0243909Y0270662D01*
X0243999Y0270236D01*
X0244078Y0269809D01*
X0244147Y0269380D01*
X0244206Y0268949D01*
X0244254Y0268517D01*
X0244291Y0268083D01*
X0244318Y0267649D01*
X0244334Y0267215D01*
X0244339Y0266780D01*
X0244334Y0266345D01*
X0244318Y0265911D01*
X0244291Y0265477D01*
X0244254Y0265043D01*
X0244206Y0264611D01*
X0244147Y0264180D01*
X0244078Y0263751D01*
X0243999Y0263324D01*
X0243909Y0262898D01*
X0243808Y0262475D01*
X0243697Y0262055D01*
X0243576Y0261637D01*
X0243445Y0261223D01*
X0243303Y0260811D01*
X0243152Y0260404D01*
X0242990Y0260000D01*
X0242819Y0259600D01*
X0242638Y0259205D01*
X0242447Y0258814D01*
X0242247Y0258428D01*
X0242037Y0258047D01*
X0241818Y0257672D01*
X0241590Y0257301D01*
X0241353Y0256937D01*
X0241107Y0256578D01*
X0240852Y0256226D01*
X0240589Y0255880D01*
X0240317Y0255540D01*
X0240037Y0255208D01*
X0239749Y0254882D01*
X0239453Y0254563D01*
X0239150Y0254252D01*
X0238839Y0253949D01*
X0238520Y0253653D01*
X0238194Y0253365D01*
X0237862Y0253085D01*
X0237522Y0252813D01*
X0237176Y0252550D01*
X0236824Y0252295D01*
X0236465Y0252049D01*
X0236101Y0251812D01*
X0235730Y0251584D01*
X0235355Y0251365D01*
X0234974Y0251155D01*
X0234588Y0250955D01*
X0234197Y0250764D01*
X0233802Y0250583D01*
X0233402Y0250412D01*
X0232998Y0250250D01*
X0232591Y0250099D01*
X0232179Y0249957D01*
X0231765Y0249826D01*
X0231347Y0249705D01*
X0230927Y0249594D01*
X0230504Y0249493D01*
X0230078Y0249403D01*
X0229651Y0249324D01*
X0229222Y0249255D01*
X0228791Y0249196D01*
X0228359Y0249148D01*
X0227925Y0249111D01*
X0227491Y0249084D01*
X0227057Y0249068D01*
X0226622Y0249063D01*
X0226187Y0249068D01*
X0225753Y0249084D01*
X0225319Y0249111D01*
X0224885Y0249148D01*
X0224453Y0249196D01*
X0224022Y0249255D01*
X0223593Y0249324D01*
X0223166Y0249403D01*
X0222740Y0249493D01*
X0222317Y0249594D01*
X0221897Y0249705D01*
X0221479Y0249826D01*
X0221065Y0249957D01*
X0220653Y0250099D01*
X0220246Y0250250D01*
X0219842Y0250412D01*
X0219442Y0250583D01*
X0219047Y0250764D01*
X0218656Y0250955D01*
X0218270Y0251155D01*
X0217889Y0251365D01*
X0217514Y0251584D01*
X0217143Y0251812D01*
X0216779Y0252049D01*
X0216420Y0252295D01*
X0216068Y0252550D01*
X0215722Y0252813D01*
X0215382Y0253085D01*
X0215050Y0253365D01*
X0214724Y0253653D01*
X0214405Y0253949D01*
X0214094Y0254252D01*
X0213791Y0254563D01*
X0213495Y0254882D01*
X0213207Y0255208D01*
X0212927Y0255540D01*
X0212655Y0255880D01*
X0212392Y0256226D01*
X0212137Y0256578D01*
X0211891Y0256937D01*
X0211654Y0257301D01*
X0211426Y0257672D01*
X0211207Y0258047D01*
X0210997Y0258428D01*
X0210797Y0258814D01*
X0210606Y0259205D01*
X0210425Y0259600D01*
X0210254Y0260000D01*
X0210092Y0260404D01*
X0209941Y0260811D01*
X0209799Y0261223D01*
X0209668Y0261637D01*
X0209547Y0262055D01*
X0209436Y0262475D01*
X0209335Y0262898D01*
X0209245Y0263324D01*
X0209166Y0263751D01*
X0209097Y0264180D01*
X0209038Y0264611D01*
X0208990Y0265043D01*
X0208953Y0265477D01*
X0208926Y0265911D01*
X0208910Y0266345D01*
X0208905Y0266780D01*
D12*
X0226081Y0362104D03*
X0226278Y0435726D03*
D13*
X0207774Y0143207D03*
X0207774Y0096356D03*
X0244978Y0096159D03*
X0245175Y0143010D03*
X0148719Y0143010D03*
X0148719Y0096356D03*
X0111120Y0096159D03*
X0111120Y0143207D03*
X0073915Y0143207D03*
X0073915Y0096356D03*
X0036317Y0096356D03*
X0036514Y0143207D03*
D14*
X0029370Y0129030D02*
X0007766Y0129030D01*
X0007766Y0130028D02*
X0027641Y0130028D01*
X0026782Y0130524D02*
X0030396Y0128438D01*
X0034427Y0127357D01*
X0038600Y0127357D01*
X0042631Y0128438D01*
X0046245Y0130524D01*
X0049196Y0133475D01*
X0051283Y0137089D01*
X0052363Y0141120D01*
X0052363Y0145293D01*
X0051283Y0149324D01*
X0049196Y0152938D01*
X0046245Y0155889D01*
X0042631Y0157976D01*
X0038600Y0159056D01*
X0034427Y0159056D01*
X0030396Y0157976D01*
X0026782Y0155889D01*
X0023831Y0152938D01*
X0021745Y0149324D01*
X0020665Y0145293D01*
X0020665Y0141120D01*
X0021745Y0137089D01*
X0023831Y0133475D01*
X0026782Y0130524D01*
X0026279Y0131027D02*
X0007766Y0131027D01*
X0007766Y0132026D02*
X0025281Y0132026D01*
X0024282Y0133024D02*
X0007766Y0133024D01*
X0007766Y0134023D02*
X0023515Y0134023D01*
X0022939Y0135021D02*
X0007766Y0135021D01*
X0007766Y0136020D02*
X0022362Y0136020D01*
X0021786Y0137018D02*
X0007766Y0137018D01*
X0007766Y0138017D02*
X0021496Y0138017D01*
X0021229Y0139015D02*
X0007766Y0139015D01*
X0007766Y0140014D02*
X0020961Y0140014D01*
X0020693Y0141012D02*
X0007766Y0141012D01*
X0007766Y0142011D02*
X0020665Y0142011D01*
X0020665Y0143009D02*
X0007766Y0143009D01*
X0007766Y0144008D02*
X0020665Y0144008D01*
X0020665Y0145006D02*
X0007766Y0145006D01*
X0007766Y0146005D02*
X0020855Y0146005D01*
X0021123Y0147003D02*
X0007766Y0147003D01*
X0007766Y0148002D02*
X0021390Y0148002D01*
X0021658Y0149000D02*
X0007766Y0149000D01*
X0007766Y0149999D02*
X0022134Y0149999D01*
X0022711Y0150997D02*
X0007766Y0150997D01*
X0007766Y0151996D02*
X0023287Y0151996D01*
X0023887Y0152994D02*
X0007766Y0152994D01*
X0007766Y0153993D02*
X0024886Y0153993D01*
X0025884Y0154991D02*
X0007766Y0154991D01*
X0007766Y0155990D02*
X0026956Y0155990D01*
X0028686Y0156988D02*
X0007766Y0156988D01*
X0007766Y0157987D02*
X0030437Y0157987D01*
X0034164Y0158985D02*
X0007766Y0158985D01*
X0007766Y0159984D02*
X0277024Y0159984D01*
X0277024Y0160982D02*
X0007766Y0160982D01*
X0007766Y0161981D02*
X0277024Y0161981D01*
X0277024Y0162979D02*
X0007766Y0162979D01*
X0007766Y0163978D02*
X0277024Y0163978D01*
X0277024Y0164976D02*
X0007766Y0164976D01*
X0007766Y0165975D02*
X0277024Y0165975D01*
X0277024Y0166973D02*
X0007766Y0166973D01*
X0007766Y0167972D02*
X0277024Y0167972D01*
X0277024Y0168970D02*
X0007766Y0168970D01*
X0007766Y0169969D02*
X0277024Y0169969D01*
X0277024Y0170967D02*
X0007766Y0170967D01*
X0007766Y0171966D02*
X0277024Y0171966D01*
X0277024Y0172964D02*
X0007766Y0172964D01*
X0007766Y0173963D02*
X0277024Y0173963D01*
X0277024Y0174961D02*
X0007766Y0174961D01*
X0007766Y0175960D02*
X0277024Y0175960D01*
X0277024Y0176959D02*
X0007766Y0176959D01*
X0007766Y0177957D02*
X0277024Y0177957D01*
X0277024Y0178956D02*
X0007766Y0178956D01*
X0007766Y0179954D02*
X0277024Y0179954D01*
X0277024Y0180953D02*
X0007766Y0180953D01*
X0007766Y0181951D02*
X0277024Y0181951D01*
X0277024Y0182950D02*
X0007766Y0182950D01*
X0007766Y0183948D02*
X0277024Y0183948D01*
X0277024Y0184947D02*
X0007766Y0184947D01*
X0007766Y0185945D02*
X0277024Y0185945D01*
X0277024Y0186944D02*
X0007766Y0186944D01*
X0007766Y0187942D02*
X0277024Y0187942D01*
X0277024Y0188941D02*
X0007766Y0188941D01*
X0007766Y0189939D02*
X0277024Y0189939D01*
X0277024Y0190938D02*
X0007766Y0190938D01*
X0007766Y0191936D02*
X0277024Y0191936D01*
X0277024Y0192935D02*
X0007766Y0192935D01*
X0007766Y0193933D02*
X0277024Y0193933D01*
X0277024Y0194932D02*
X0007766Y0194932D01*
X0007766Y0195930D02*
X0277024Y0195930D01*
X0277024Y0196929D02*
X0007766Y0196929D01*
X0007766Y0197927D02*
X0277024Y0197927D01*
X0277024Y0198926D02*
X0007766Y0198926D01*
X0007766Y0199924D02*
X0277024Y0199924D01*
X0277024Y0200923D02*
X0007766Y0200923D01*
X0007766Y0201921D02*
X0277024Y0201921D01*
X0277024Y0202920D02*
X0007766Y0202920D01*
X0007766Y0203918D02*
X0277024Y0203918D01*
X0277024Y0204917D02*
X0007766Y0204917D01*
X0007766Y0205915D02*
X0277024Y0205915D01*
X0277024Y0206914D02*
X0007766Y0206914D01*
X0007766Y0207912D02*
X0277024Y0207912D01*
X0277024Y0208911D02*
X0007766Y0208911D01*
X0007766Y0209909D02*
X0277024Y0209909D01*
X0277024Y0210908D02*
X0007766Y0210908D01*
X0007766Y0211906D02*
X0277024Y0211906D01*
X0277024Y0212905D02*
X0007766Y0212905D01*
X0007766Y0213903D02*
X0277024Y0213903D01*
X0277024Y0214902D02*
X0007766Y0214902D01*
X0007766Y0215900D02*
X0277024Y0215900D01*
X0277024Y0216899D02*
X0007766Y0216899D01*
X0007766Y0217897D02*
X0277024Y0217897D01*
X0277024Y0218896D02*
X0007766Y0218896D01*
X0007766Y0219895D02*
X0277024Y0219895D01*
X0277024Y0220893D02*
X0007766Y0220893D01*
X0007766Y0221892D02*
X0277024Y0221892D01*
X0277024Y0222890D02*
X0007766Y0222890D01*
X0007766Y0223889D02*
X0277024Y0223889D01*
X0277024Y0224887D02*
X0007766Y0224887D01*
X0007766Y0225886D02*
X0277024Y0225886D01*
X0277024Y0226884D02*
X0007766Y0226884D01*
X0007766Y0227883D02*
X0277024Y0227883D01*
X0277024Y0228881D02*
X0007766Y0228881D01*
X0007766Y0229880D02*
X0277024Y0229880D01*
X0277024Y0230878D02*
X0007766Y0230878D01*
X0007766Y0231877D02*
X0277024Y0231877D01*
X0277024Y0232875D02*
X0007766Y0232875D01*
X0007766Y0233874D02*
X0277024Y0233874D01*
X0277024Y0234872D02*
X0007766Y0234872D01*
X0007766Y0235871D02*
X0277024Y0235871D01*
X0277024Y0236869D02*
X0007766Y0236869D01*
X0007766Y0237868D02*
X0277024Y0237868D01*
X0277024Y0238866D02*
X0007766Y0238866D01*
X0007766Y0239865D02*
X0277024Y0239865D01*
X0277024Y0240863D02*
X0007766Y0240863D01*
X0007766Y0241862D02*
X0277024Y0241862D01*
X0277024Y0242860D02*
X0007766Y0242860D01*
X0007766Y0243859D02*
X0277024Y0243859D01*
X0277024Y0244857D02*
X0230645Y0244857D01*
X0229547Y0244563D02*
X0235197Y0246077D01*
X0240263Y0249002D01*
X0244400Y0253138D01*
X0247325Y0258204D01*
X0248839Y0263855D01*
X0248839Y0269704D01*
X0247325Y0275355D01*
X0244400Y0280421D01*
X0240263Y0284557D01*
X0235197Y0287482D01*
X0229547Y0288996D01*
X0223697Y0288996D01*
X0218047Y0287482D01*
X0212981Y0284557D01*
X0208844Y0280421D01*
X0205920Y0275355D01*
X0204406Y0269704D01*
X0204406Y0263855D01*
X0205920Y0258204D01*
X0208844Y0253138D01*
X0212981Y0249002D01*
X0218047Y0246077D01*
X0223697Y0244563D01*
X0229547Y0244563D01*
X0234372Y0245856D02*
X0277024Y0245856D01*
X0277024Y0246854D02*
X0236544Y0246854D01*
X0238273Y0247853D02*
X0277024Y0247853D01*
X0277024Y0248851D02*
X0240003Y0248851D01*
X0241111Y0249850D02*
X0277024Y0249850D01*
X0277024Y0250848D02*
X0242110Y0250848D01*
X0243108Y0251847D02*
X0277024Y0251847D01*
X0277024Y0252845D02*
X0244107Y0252845D01*
X0244807Y0253844D02*
X0277024Y0253844D01*
X0277024Y0254842D02*
X0245384Y0254842D01*
X0245960Y0255841D02*
X0277024Y0255841D01*
X0277024Y0256839D02*
X0246537Y0256839D01*
X0247113Y0257838D02*
X0277024Y0257838D01*
X0277024Y0258836D02*
X0247494Y0258836D01*
X0247761Y0259835D02*
X0277024Y0259835D01*
X0277024Y0260833D02*
X0248029Y0260833D01*
X0248297Y0261832D02*
X0277024Y0261832D01*
X0277024Y0262830D02*
X0248564Y0262830D01*
X0248832Y0263829D02*
X0277024Y0263829D01*
X0277024Y0264828D02*
X0248839Y0264828D01*
X0248839Y0265826D02*
X0277024Y0265826D01*
X0277024Y0266825D02*
X0248839Y0266825D01*
X0248839Y0267823D02*
X0277024Y0267823D01*
X0277024Y0268822D02*
X0248839Y0268822D01*
X0248808Y0269820D02*
X0277024Y0269820D01*
X0277024Y0270819D02*
X0248540Y0270819D01*
X0248272Y0271817D02*
X0277024Y0271817D01*
X0277024Y0272816D02*
X0248005Y0272816D01*
X0247737Y0273814D02*
X0277024Y0273814D01*
X0277024Y0274813D02*
X0247470Y0274813D01*
X0247061Y0275811D02*
X0277024Y0275811D01*
X0277024Y0276810D02*
X0246485Y0276810D01*
X0245908Y0277808D02*
X0277024Y0277808D01*
X0277024Y0278807D02*
X0245332Y0278807D01*
X0244755Y0279805D02*
X0277024Y0279805D01*
X0277024Y0280804D02*
X0244017Y0280804D01*
X0243018Y0281802D02*
X0277024Y0281802D01*
X0277024Y0282801D02*
X0242020Y0282801D01*
X0241021Y0283799D02*
X0277024Y0283799D01*
X0277024Y0284798D02*
X0239847Y0284798D01*
X0238117Y0285796D02*
X0277024Y0285796D01*
X0277024Y0286795D02*
X0236388Y0286795D01*
X0234036Y0287793D02*
X0277024Y0287793D01*
X0277024Y0288792D02*
X0230309Y0288792D01*
X0222935Y0288792D02*
X0057868Y0288792D01*
X0057106Y0288996D02*
X0051256Y0288996D01*
X0045606Y0287482D01*
X0040540Y0284557D01*
X0036403Y0280421D01*
X0033479Y0275355D01*
X0031965Y0269704D01*
X0031965Y0263855D01*
X0033479Y0258204D01*
X0036403Y0253138D01*
X0040540Y0249002D01*
X0045606Y0246077D01*
X0051256Y0244563D01*
X0057106Y0244563D01*
X0062756Y0246077D01*
X0067822Y0249002D01*
X0071959Y0253138D01*
X0074884Y0258204D01*
X0076398Y0263855D01*
X0076398Y0269704D01*
X0074884Y0275355D01*
X0071959Y0280421D01*
X0067822Y0284557D01*
X0062756Y0287482D01*
X0057106Y0288996D01*
X0061595Y0287793D02*
X0219208Y0287793D01*
X0216856Y0286795D02*
X0063947Y0286795D01*
X0065676Y0285796D02*
X0215127Y0285796D01*
X0213397Y0284798D02*
X0067406Y0284798D01*
X0068580Y0283799D02*
X0212223Y0283799D01*
X0211224Y0282801D02*
X0069579Y0282801D01*
X0070577Y0281802D02*
X0210226Y0281802D01*
X0209227Y0280804D02*
X0071576Y0280804D01*
X0072314Y0279805D02*
X0208489Y0279805D01*
X0207912Y0278807D02*
X0072891Y0278807D01*
X0073467Y0277808D02*
X0207336Y0277808D01*
X0206759Y0276810D02*
X0074044Y0276810D01*
X0074620Y0275811D02*
X0206183Y0275811D01*
X0205774Y0274813D02*
X0075029Y0274813D01*
X0075296Y0273814D02*
X0205507Y0273814D01*
X0205239Y0272816D02*
X0075564Y0272816D01*
X0075832Y0271817D02*
X0204972Y0271817D01*
X0204704Y0270819D02*
X0076099Y0270819D01*
X0076367Y0269820D02*
X0204437Y0269820D01*
X0204406Y0268822D02*
X0076398Y0268822D01*
X0076398Y0267823D02*
X0204406Y0267823D01*
X0204406Y0266825D02*
X0076398Y0266825D01*
X0076398Y0265826D02*
X0204406Y0265826D01*
X0204406Y0264828D02*
X0076398Y0264828D01*
X0076391Y0263829D02*
X0204412Y0263829D01*
X0204680Y0262830D02*
X0076123Y0262830D01*
X0075856Y0261832D02*
X0204947Y0261832D01*
X0205215Y0260833D02*
X0075588Y0260833D01*
X0075321Y0259835D02*
X0205483Y0259835D01*
X0205750Y0258836D02*
X0075053Y0258836D01*
X0074672Y0257838D02*
X0206131Y0257838D01*
X0206708Y0256839D02*
X0074096Y0256839D01*
X0073519Y0255841D02*
X0207284Y0255841D01*
X0207860Y0254842D02*
X0072943Y0254842D01*
X0072366Y0253844D02*
X0208437Y0253844D01*
X0209137Y0252845D02*
X0071666Y0252845D01*
X0070667Y0251847D02*
X0210136Y0251847D01*
X0211134Y0250848D02*
X0069669Y0250848D01*
X0068670Y0249850D02*
X0212133Y0249850D01*
X0213242Y0248851D02*
X0067562Y0248851D01*
X0065832Y0247853D02*
X0214971Y0247853D01*
X0216700Y0246854D02*
X0064103Y0246854D01*
X0061931Y0245856D02*
X0218872Y0245856D01*
X0222599Y0244857D02*
X0058204Y0244857D01*
X0050158Y0244857D02*
X0007766Y0244857D01*
X0007766Y0245856D02*
X0046431Y0245856D01*
X0044259Y0246854D02*
X0007766Y0246854D01*
X0007766Y0247853D02*
X0042530Y0247853D01*
X0040801Y0248851D02*
X0007766Y0248851D01*
X0007766Y0249850D02*
X0039692Y0249850D01*
X0038693Y0250848D02*
X0007766Y0250848D01*
X0007766Y0251847D02*
X0037695Y0251847D01*
X0036696Y0252845D02*
X0007766Y0252845D01*
X0007766Y0253844D02*
X0035996Y0253844D01*
X0035420Y0254842D02*
X0007766Y0254842D01*
X0007766Y0255841D02*
X0034843Y0255841D01*
X0034267Y0256839D02*
X0007766Y0256839D01*
X0007766Y0257838D02*
X0033690Y0257838D01*
X0033309Y0258836D02*
X0007766Y0258836D01*
X0007766Y0259835D02*
X0033042Y0259835D01*
X0032774Y0260833D02*
X0007766Y0260833D01*
X0007766Y0261832D02*
X0032507Y0261832D01*
X0032239Y0262830D02*
X0007766Y0262830D01*
X0007766Y0263829D02*
X0031971Y0263829D01*
X0031965Y0264828D02*
X0007766Y0264828D01*
X0007766Y0265826D02*
X0031965Y0265826D01*
X0031965Y0266825D02*
X0007766Y0266825D01*
X0007766Y0267823D02*
X0031965Y0267823D01*
X0031965Y0268822D02*
X0007766Y0268822D01*
X0007766Y0269820D02*
X0031996Y0269820D01*
X0032263Y0270819D02*
X0007766Y0270819D01*
X0007766Y0271817D02*
X0032531Y0271817D01*
X0032798Y0272816D02*
X0007766Y0272816D01*
X0007766Y0273814D02*
X0033066Y0273814D01*
X0033333Y0274813D02*
X0007766Y0274813D01*
X0007766Y0275811D02*
X0033742Y0275811D01*
X0034319Y0276810D02*
X0007766Y0276810D01*
X0007766Y0277808D02*
X0034895Y0277808D01*
X0035472Y0278807D02*
X0007766Y0278807D01*
X0007766Y0279805D02*
X0036048Y0279805D01*
X0036786Y0280804D02*
X0007766Y0280804D01*
X0007766Y0281802D02*
X0037785Y0281802D01*
X0038783Y0282801D02*
X0007766Y0282801D01*
X0007766Y0283799D02*
X0039782Y0283799D01*
X0040956Y0284798D02*
X0007766Y0284798D01*
X0007766Y0285796D02*
X0042686Y0285796D01*
X0044415Y0286795D02*
X0007766Y0286795D01*
X0007766Y0287793D02*
X0046767Y0287793D01*
X0050494Y0288792D02*
X0007766Y0288792D01*
X0007766Y0289790D02*
X0277024Y0289790D01*
X0277024Y0290789D02*
X0007766Y0290789D01*
X0007766Y0291787D02*
X0277024Y0291787D01*
X0277024Y0292786D02*
X0007766Y0292786D01*
X0007766Y0293784D02*
X0277024Y0293784D01*
X0277024Y0294783D02*
X0007766Y0294783D01*
X0007766Y0295781D02*
X0277024Y0295781D01*
X0277024Y0296780D02*
X0007766Y0296780D01*
X0007766Y0297778D02*
X0277024Y0297778D01*
X0277024Y0298777D02*
X0007766Y0298777D01*
X0007766Y0299775D02*
X0277024Y0299775D01*
X0277024Y0300774D02*
X0007766Y0300774D01*
X0007766Y0301772D02*
X0277024Y0301772D01*
X0277024Y0302771D02*
X0007766Y0302771D01*
X0007766Y0303769D02*
X0277024Y0303769D01*
X0277024Y0304768D02*
X0007766Y0304768D01*
X0007766Y0305766D02*
X0277024Y0305766D01*
X0277024Y0306765D02*
X0007766Y0306765D01*
X0007766Y0307763D02*
X0277024Y0307763D01*
X0277024Y0308762D02*
X0007766Y0308762D01*
X0007766Y0309761D02*
X0277024Y0309761D01*
X0277024Y0310759D02*
X0007766Y0310759D01*
X0007766Y0311758D02*
X0277024Y0311758D01*
X0277024Y0312756D02*
X0007766Y0312756D01*
X0007766Y0313755D02*
X0277024Y0313755D01*
X0277024Y0314753D02*
X0007766Y0314753D01*
X0007766Y0315752D02*
X0277024Y0315752D01*
X0277024Y0316750D02*
X0007766Y0316750D01*
X0007766Y0317749D02*
X0277024Y0317749D01*
X0277024Y0318747D02*
X0007766Y0318747D01*
X0007766Y0319746D02*
X0277024Y0319746D01*
X0277024Y0320744D02*
X0007766Y0320744D01*
X0007766Y0321743D02*
X0277024Y0321743D01*
X0277024Y0322741D02*
X0007766Y0322741D01*
X0007766Y0323740D02*
X0277024Y0323740D01*
X0277024Y0324738D02*
X0007766Y0324738D01*
X0007766Y0325737D02*
X0277024Y0325737D01*
X0277024Y0326735D02*
X0007766Y0326735D01*
X0007766Y0327734D02*
X0277024Y0327734D01*
X0277024Y0328732D02*
X0007766Y0328732D01*
X0007766Y0329731D02*
X0277024Y0329731D01*
X0277024Y0330729D02*
X0007766Y0330729D01*
X0007766Y0331728D02*
X0277024Y0331728D01*
X0277024Y0332726D02*
X0007766Y0332726D01*
X0007766Y0333725D02*
X0277024Y0333725D01*
X0277024Y0334723D02*
X0007766Y0334723D01*
X0007766Y0335722D02*
X0277024Y0335722D01*
X0277024Y0336720D02*
X0007766Y0336720D01*
X0007766Y0337719D02*
X0277024Y0337719D01*
X0277024Y0338717D02*
X0007766Y0338717D01*
X0007766Y0339716D02*
X0277024Y0339716D01*
X0277024Y0340714D02*
X0007766Y0340714D01*
X0007766Y0341713D02*
X0277024Y0341713D01*
X0277024Y0342711D02*
X0007766Y0342711D01*
X0007766Y0343710D02*
X0277024Y0343710D01*
X0277024Y0344708D02*
X0007766Y0344708D01*
X0007766Y0345707D02*
X0277024Y0345707D01*
X0277024Y0346705D02*
X0231559Y0346705D01*
X0232369Y0346922D02*
X0228226Y0345812D01*
X0223936Y0345812D01*
X0219792Y0346922D01*
X0216077Y0349067D01*
X0213044Y0352101D01*
X0210899Y0355816D01*
X0209789Y0359959D01*
X0209789Y0364249D01*
X0210899Y0368393D01*
X0213044Y0372108D01*
X0216077Y0375141D01*
X0219792Y0377286D01*
X0223936Y0378396D01*
X0228226Y0378396D01*
X0232369Y0377286D01*
X0236084Y0375141D01*
X0239118Y0372108D01*
X0241263Y0368393D01*
X0242373Y0364249D01*
X0242373Y0359959D01*
X0241263Y0355816D01*
X0239118Y0352101D01*
X0236084Y0349067D01*
X0232369Y0346922D01*
X0233723Y0347704D02*
X0277024Y0347704D01*
X0277024Y0348702D02*
X0235452Y0348702D01*
X0236718Y0349701D02*
X0277024Y0349701D01*
X0277024Y0350699D02*
X0237716Y0350699D01*
X0238715Y0351698D02*
X0277024Y0351698D01*
X0277024Y0352697D02*
X0239462Y0352697D01*
X0240038Y0353695D02*
X0277024Y0353695D01*
X0277024Y0354694D02*
X0240615Y0354694D01*
X0241191Y0355692D02*
X0277024Y0355692D01*
X0277024Y0356691D02*
X0241497Y0356691D01*
X0241764Y0357689D02*
X0277024Y0357689D01*
X0277024Y0358688D02*
X0242032Y0358688D01*
X0242300Y0359686D02*
X0277024Y0359686D01*
X0277024Y0360685D02*
X0242373Y0360685D01*
X0242373Y0361683D02*
X0277024Y0361683D01*
X0277024Y0362682D02*
X0242373Y0362682D01*
X0242373Y0363680D02*
X0277024Y0363680D01*
X0277024Y0364679D02*
X0242258Y0364679D01*
X0241990Y0365677D02*
X0277024Y0365677D01*
X0277024Y0366676D02*
X0241723Y0366676D01*
X0241455Y0367674D02*
X0277024Y0367674D01*
X0277024Y0368673D02*
X0241101Y0368673D01*
X0240524Y0369671D02*
X0277024Y0369671D01*
X0277024Y0370670D02*
X0239948Y0370670D01*
X0239372Y0371668D02*
X0277024Y0371668D01*
X0277024Y0372667D02*
X0238559Y0372667D01*
X0237560Y0373665D02*
X0277024Y0373665D01*
X0277024Y0374664D02*
X0236562Y0374664D01*
X0235182Y0375662D02*
X0277024Y0375662D01*
X0277024Y0376661D02*
X0233452Y0376661D01*
X0230977Y0377659D02*
X0277024Y0377659D01*
X0277024Y0378658D02*
X0007766Y0378658D01*
X0007766Y0379656D02*
X0277024Y0379656D01*
X0277024Y0380655D02*
X0007766Y0380655D01*
X0007766Y0381653D02*
X0277024Y0381653D01*
X0277024Y0382652D02*
X0007766Y0382652D01*
X0007766Y0383650D02*
X0277024Y0383650D01*
X0277024Y0384649D02*
X0007766Y0384649D01*
X0007766Y0385647D02*
X0277024Y0385647D01*
X0277024Y0386646D02*
X0007766Y0386646D01*
X0007766Y0387644D02*
X0277024Y0387644D01*
X0277024Y0388643D02*
X0007766Y0388643D01*
X0007766Y0389641D02*
X0277024Y0389641D01*
X0277024Y0390640D02*
X0007766Y0390640D01*
X0007766Y0391638D02*
X0277024Y0391638D01*
X0277024Y0392637D02*
X0007766Y0392637D01*
X0007766Y0393635D02*
X0277024Y0393635D01*
X0277024Y0394634D02*
X0007766Y0394634D01*
X0007766Y0395632D02*
X0277024Y0395632D01*
X0277024Y0396631D02*
X0007766Y0396631D01*
X0007766Y0397630D02*
X0277024Y0397630D01*
X0277024Y0398628D02*
X0007766Y0398628D01*
X0007766Y0399627D02*
X0277024Y0399627D01*
X0277024Y0400625D02*
X0007766Y0400625D01*
X0007766Y0401624D02*
X0277024Y0401624D01*
X0277024Y0402622D02*
X0007766Y0402622D01*
X0007766Y0403621D02*
X0277024Y0403621D01*
X0277024Y0404619D02*
X0007766Y0404619D01*
X0007766Y0405618D02*
X0277024Y0405618D01*
X0277024Y0406616D02*
X0007766Y0406616D01*
X0007766Y0407615D02*
X0277024Y0407615D01*
X0277024Y0408613D02*
X0007766Y0408613D01*
X0007766Y0409612D02*
X0277024Y0409612D01*
X0277024Y0410610D02*
X0007766Y0410610D01*
X0007766Y0411609D02*
X0277024Y0411609D01*
X0277024Y0412607D02*
X0007766Y0412607D01*
X0007766Y0413606D02*
X0277024Y0413606D01*
X0277024Y0414604D02*
X0007766Y0414604D01*
X0007766Y0415603D02*
X0277024Y0415603D01*
X0277024Y0416601D02*
X0007766Y0416601D01*
X0007766Y0417600D02*
X0277024Y0417600D01*
X0277024Y0418598D02*
X0007766Y0418598D01*
X0007766Y0419597D02*
X0223526Y0419597D01*
X0224133Y0419434D02*
X0219989Y0420545D01*
X0216274Y0422689D01*
X0213241Y0425723D01*
X0211096Y0429438D01*
X0209985Y0433581D01*
X0209985Y0437871D01*
X0211096Y0442015D01*
X0213241Y0445730D01*
X0216274Y0448763D01*
X0219989Y0450908D01*
X0224133Y0452018D01*
X0228422Y0452018D01*
X0232566Y0450908D01*
X0236281Y0448763D01*
X0239314Y0445730D01*
X0241459Y0442015D01*
X0242570Y0437871D01*
X0242570Y0433581D01*
X0241459Y0429438D01*
X0239314Y0425723D01*
X0236281Y0422689D01*
X0232566Y0420545D01*
X0228422Y0419434D01*
X0224133Y0419434D01*
X0229029Y0419597D02*
X0277024Y0419597D01*
X0277024Y0420595D02*
X0232654Y0420595D01*
X0234383Y0421594D02*
X0277024Y0421594D01*
X0277024Y0422592D02*
X0236113Y0422592D01*
X0237183Y0423591D02*
X0277024Y0423591D01*
X0277024Y0424589D02*
X0238181Y0424589D01*
X0239180Y0425588D02*
X0277024Y0425588D01*
X0277024Y0426586D02*
X0239813Y0426586D01*
X0240390Y0427585D02*
X0277024Y0427585D01*
X0277024Y0428583D02*
X0240966Y0428583D01*
X0241498Y0429582D02*
X0277024Y0429582D01*
X0277024Y0430580D02*
X0241766Y0430580D01*
X0242033Y0431579D02*
X0277024Y0431579D01*
X0277024Y0432577D02*
X0242301Y0432577D01*
X0242568Y0433576D02*
X0277024Y0433576D01*
X0277024Y0434574D02*
X0242570Y0434574D01*
X0242570Y0435573D02*
X0277024Y0435573D01*
X0277024Y0436571D02*
X0242570Y0436571D01*
X0242570Y0437570D02*
X0277024Y0437570D01*
X0277024Y0438568D02*
X0242383Y0438568D01*
X0242115Y0439567D02*
X0277024Y0439567D01*
X0277024Y0440566D02*
X0241848Y0440566D01*
X0241580Y0441564D02*
X0277024Y0441564D01*
X0277024Y0442563D02*
X0241143Y0442563D01*
X0240567Y0443561D02*
X0277024Y0443561D01*
X0277024Y0444560D02*
X0239990Y0444560D01*
X0239414Y0445558D02*
X0277024Y0445558D01*
X0277024Y0446557D02*
X0238488Y0446557D01*
X0237489Y0447555D02*
X0277024Y0447555D01*
X0277024Y0448554D02*
X0236491Y0448554D01*
X0234915Y0449552D02*
X0277024Y0449552D01*
X0277024Y0450551D02*
X0233185Y0450551D01*
X0230174Y0451549D02*
X0277024Y0451549D01*
X0277024Y0452548D02*
X0007766Y0452548D01*
X0007766Y0453546D02*
X0277024Y0453546D01*
X0277024Y0454545D02*
X0007766Y0454545D01*
X0007766Y0455543D02*
X0277024Y0455543D01*
X0277024Y0456542D02*
X0007766Y0456542D01*
X0007766Y0457540D02*
X0277024Y0457540D01*
X0277024Y0458539D02*
X0007766Y0458539D01*
X0007766Y0459537D02*
X0277024Y0459537D01*
X0277024Y0460536D02*
X0007766Y0460536D01*
X0007766Y0461534D02*
X0277024Y0461534D01*
X0277024Y0462533D02*
X0007766Y0462533D01*
X0007766Y0463531D02*
X0277024Y0463531D01*
X0277024Y0464530D02*
X0007766Y0464530D01*
X0007766Y0465528D02*
X0277024Y0465528D01*
X0277024Y0466527D02*
X0007766Y0466527D01*
X0007766Y0467525D02*
X0277024Y0467525D01*
X0277024Y0468524D02*
X0007766Y0468524D01*
X0007766Y0469522D02*
X0277024Y0469522D01*
X0277024Y0470521D02*
X0007766Y0470521D01*
X0007766Y0471519D02*
X0277024Y0471519D01*
X0277024Y0472518D02*
X0007766Y0472518D01*
X0007766Y0473516D02*
X0277024Y0473516D01*
X0277024Y0474515D02*
X0007766Y0474515D01*
X0007766Y0475513D02*
X0277024Y0475513D01*
X0277024Y0476512D02*
X0007766Y0476512D01*
X0007766Y0477510D02*
X0277024Y0477510D01*
X0277024Y0478509D02*
X0007766Y0478509D01*
X0007766Y0479507D02*
X0277024Y0479507D01*
X0277024Y0480506D02*
X0007766Y0480506D01*
X0007766Y0481504D02*
X0277024Y0481504D01*
X0277024Y0482503D02*
X0007766Y0482503D01*
X0007766Y0483501D02*
X0277024Y0483501D01*
X0277024Y0484500D02*
X0007766Y0484500D01*
X0007766Y0485499D02*
X0277024Y0485499D01*
X0277024Y0486497D02*
X0007766Y0486497D01*
X0007766Y0487496D02*
X0277024Y0487496D01*
X0277024Y0488494D02*
X0007766Y0488494D01*
X0007766Y0489493D02*
X0277024Y0489493D01*
X0277024Y0490491D02*
X0007766Y0490491D01*
X0007766Y0491490D02*
X0277024Y0491490D01*
X0277024Y0492488D02*
X0007766Y0492488D01*
X0007766Y0493487D02*
X0277024Y0493487D01*
X0277024Y0494485D02*
X0007766Y0494485D01*
X0007766Y0495484D02*
X0277024Y0495484D01*
X0277024Y0496482D02*
X0007766Y0496482D01*
X0007766Y0497481D02*
X0277024Y0497481D01*
X0277024Y0498479D02*
X0007766Y0498479D01*
X0007766Y0499478D02*
X0277024Y0499478D01*
X0277024Y0500476D02*
X0007766Y0500476D01*
X0007766Y0501475D02*
X0277024Y0501475D01*
X0277024Y0502473D02*
X0007766Y0502473D01*
X0007766Y0503472D02*
X0277024Y0503472D01*
X0277024Y0504470D02*
X0007766Y0504470D01*
X0007766Y0505469D02*
X0277024Y0505469D01*
X0277024Y0506467D02*
X0007766Y0506467D01*
X0007766Y0506600D02*
X0277024Y0506600D01*
X0277024Y0009734D01*
X0007766Y0009734D01*
X0007766Y0506600D01*
X0007766Y0451549D02*
X0222381Y0451549D01*
X0219370Y0450551D02*
X0007766Y0450551D01*
X0007766Y0449552D02*
X0217640Y0449552D01*
X0216064Y0448554D02*
X0007766Y0448554D01*
X0007766Y0447555D02*
X0215066Y0447555D01*
X0214067Y0446557D02*
X0007766Y0446557D01*
X0007766Y0445558D02*
X0180799Y0445558D01*
X0181115Y0445740D02*
X0178653Y0444319D01*
X0176642Y0442308D01*
X0175220Y0439845D01*
X0174484Y0437099D01*
X0174484Y0434255D01*
X0175220Y0431509D01*
X0176642Y0429046D01*
X0178653Y0427036D01*
X0181115Y0425614D01*
X0183862Y0424878D01*
X0186705Y0424878D01*
X0189452Y0425614D01*
X0191914Y0427036D01*
X0193925Y0429046D01*
X0195347Y0431509D01*
X0196083Y0434255D01*
X0196083Y0437099D01*
X0195347Y0439845D01*
X0193925Y0442308D01*
X0191914Y0444319D01*
X0189452Y0445740D01*
X0186705Y0446476D01*
X0183862Y0446476D01*
X0181115Y0445740D01*
X0179070Y0444560D02*
X0007766Y0444560D01*
X0007766Y0443561D02*
X0177895Y0443561D01*
X0176896Y0442563D02*
X0007766Y0442563D01*
X0007766Y0441564D02*
X0176212Y0441564D01*
X0175636Y0440566D02*
X0007766Y0440566D01*
X0007766Y0439567D02*
X0175146Y0439567D01*
X0174878Y0438568D02*
X0007766Y0438568D01*
X0007766Y0437570D02*
X0174610Y0437570D01*
X0174484Y0436571D02*
X0007766Y0436571D01*
X0007766Y0435573D02*
X0174484Y0435573D01*
X0174484Y0434574D02*
X0007766Y0434574D01*
X0007766Y0433576D02*
X0174666Y0433576D01*
X0174934Y0432577D02*
X0007766Y0432577D01*
X0007766Y0431579D02*
X0175201Y0431579D01*
X0175756Y0430580D02*
X0007766Y0430580D01*
X0007766Y0429582D02*
X0176333Y0429582D01*
X0177105Y0428583D02*
X0007766Y0428583D01*
X0007766Y0427585D02*
X0178103Y0427585D01*
X0179431Y0426586D02*
X0007766Y0426586D01*
X0007766Y0425588D02*
X0181212Y0425588D01*
X0189354Y0425588D02*
X0213376Y0425588D01*
X0212742Y0426586D02*
X0191136Y0426586D01*
X0192464Y0427585D02*
X0212166Y0427585D01*
X0211589Y0428583D02*
X0193462Y0428583D01*
X0194234Y0429582D02*
X0211057Y0429582D01*
X0210790Y0430580D02*
X0194811Y0430580D01*
X0195365Y0431579D02*
X0210522Y0431579D01*
X0210254Y0432577D02*
X0195633Y0432577D01*
X0195901Y0433576D02*
X0209987Y0433576D01*
X0209985Y0434574D02*
X0196083Y0434574D01*
X0196083Y0435573D02*
X0209985Y0435573D01*
X0209985Y0436571D02*
X0196083Y0436571D01*
X0195956Y0437570D02*
X0209985Y0437570D01*
X0210172Y0438568D02*
X0195689Y0438568D01*
X0195421Y0439567D02*
X0210440Y0439567D01*
X0210707Y0440566D02*
X0194931Y0440566D01*
X0194355Y0441564D02*
X0210975Y0441564D01*
X0211412Y0442563D02*
X0193670Y0442563D01*
X0192672Y0443561D02*
X0211988Y0443561D01*
X0212565Y0444560D02*
X0191497Y0444560D01*
X0189768Y0445558D02*
X0213141Y0445558D01*
X0214374Y0424589D02*
X0007766Y0424589D01*
X0007766Y0423591D02*
X0215373Y0423591D01*
X0216442Y0422592D02*
X0007766Y0422592D01*
X0007766Y0421594D02*
X0218172Y0421594D01*
X0219901Y0420595D02*
X0007766Y0420595D01*
X0007766Y0377659D02*
X0221185Y0377659D01*
X0218709Y0376661D02*
X0007766Y0376661D01*
X0007766Y0375662D02*
X0216980Y0375662D01*
X0215600Y0374664D02*
X0007766Y0374664D01*
X0007766Y0373665D02*
X0214601Y0373665D01*
X0213603Y0372667D02*
X0007766Y0372667D01*
X0007766Y0371668D02*
X0212790Y0371668D01*
X0212213Y0370670D02*
X0007766Y0370670D01*
X0007766Y0369671D02*
X0211637Y0369671D01*
X0211060Y0368673D02*
X0007766Y0368673D01*
X0007766Y0367674D02*
X0210706Y0367674D01*
X0210439Y0366676D02*
X0007766Y0366676D01*
X0007766Y0365677D02*
X0210171Y0365677D01*
X0209904Y0364679D02*
X0007766Y0364679D01*
X0007766Y0363680D02*
X0209789Y0363680D01*
X0209789Y0362682D02*
X0007766Y0362682D01*
X0007766Y0361683D02*
X0209789Y0361683D01*
X0209789Y0360685D02*
X0007766Y0360685D01*
X0007766Y0359686D02*
X0209862Y0359686D01*
X0210129Y0358688D02*
X0007766Y0358688D01*
X0007766Y0357689D02*
X0210397Y0357689D01*
X0210664Y0356691D02*
X0007766Y0356691D01*
X0007766Y0355692D02*
X0210970Y0355692D01*
X0211547Y0354694D02*
X0007766Y0354694D01*
X0007766Y0353695D02*
X0212123Y0353695D01*
X0212700Y0352697D02*
X0007766Y0352697D01*
X0007766Y0351698D02*
X0213446Y0351698D01*
X0214445Y0350699D02*
X0007766Y0350699D01*
X0007766Y0349701D02*
X0215444Y0349701D01*
X0216709Y0348702D02*
X0007766Y0348702D01*
X0007766Y0347704D02*
X0218439Y0347704D01*
X0220602Y0346705D02*
X0007766Y0346705D01*
X0038864Y0158985D02*
X0071565Y0158985D01*
X0071829Y0159056D02*
X0067798Y0157976D01*
X0064184Y0155889D01*
X0061233Y0152938D01*
X0059146Y0149324D01*
X0058066Y0145293D01*
X0058066Y0141120D01*
X0059146Y0137089D01*
X0061233Y0133475D01*
X0064184Y0130524D01*
X0067798Y0128438D01*
X0071829Y0127357D01*
X0076002Y0127357D01*
X0080033Y0128438D01*
X0083647Y0130524D01*
X0086598Y0133475D01*
X0088684Y0137089D01*
X0089765Y0141120D01*
X0089765Y0145293D01*
X0088684Y0149324D01*
X0086598Y0152938D01*
X0083647Y0155889D01*
X0080033Y0157976D01*
X0076002Y0159056D01*
X0071829Y0159056D01*
X0076265Y0158985D02*
X0108770Y0158985D01*
X0109033Y0159056D02*
X0105002Y0157976D01*
X0101388Y0155889D01*
X0098438Y0152938D01*
X0096351Y0149324D01*
X0095271Y0145293D01*
X0095271Y0141120D01*
X0096351Y0137089D01*
X0098438Y0133475D01*
X0101388Y0130524D01*
X0105002Y0128438D01*
X0109033Y0127357D01*
X0113207Y0127357D01*
X0117238Y0128438D01*
X0120852Y0130524D01*
X0123803Y0133475D01*
X0125889Y0137089D01*
X0126969Y0141120D01*
X0126969Y0145293D01*
X0125889Y0149324D01*
X0123803Y0152938D01*
X0120852Y0155889D01*
X0117238Y0157976D01*
X0113207Y0159056D01*
X0109033Y0159056D01*
X0105044Y0157987D02*
X0079992Y0157987D01*
X0081743Y0156988D02*
X0103292Y0156988D01*
X0101563Y0155990D02*
X0083473Y0155990D01*
X0084545Y0154991D02*
X0100490Y0154991D01*
X0099492Y0153993D02*
X0085543Y0153993D01*
X0086542Y0152994D02*
X0098493Y0152994D01*
X0097893Y0151996D02*
X0087142Y0151996D01*
X0087719Y0150997D02*
X0097317Y0150997D01*
X0096740Y0149999D02*
X0088295Y0149999D01*
X0088771Y0149000D02*
X0096264Y0149000D01*
X0095997Y0148002D02*
X0089039Y0148002D01*
X0089306Y0147003D02*
X0095729Y0147003D01*
X0095461Y0146005D02*
X0089574Y0146005D01*
X0089765Y0145006D02*
X0095271Y0145006D01*
X0095271Y0144008D02*
X0089765Y0144008D01*
X0089765Y0143009D02*
X0095271Y0143009D01*
X0095271Y0142011D02*
X0089765Y0142011D01*
X0089736Y0141012D02*
X0095300Y0141012D01*
X0095567Y0140014D02*
X0089468Y0140014D01*
X0089201Y0139015D02*
X0095835Y0139015D01*
X0096102Y0138017D02*
X0088933Y0138017D01*
X0088643Y0137018D02*
X0096392Y0137018D01*
X0096968Y0136020D02*
X0088067Y0136020D01*
X0087490Y0135021D02*
X0097545Y0135021D01*
X0098121Y0134023D02*
X0086914Y0134023D01*
X0086147Y0133024D02*
X0098889Y0133024D01*
X0099887Y0132026D02*
X0085148Y0132026D01*
X0084150Y0131027D02*
X0100886Y0131027D01*
X0102247Y0130028D02*
X0082788Y0130028D01*
X0081059Y0129030D02*
X0103976Y0129030D01*
X0106518Y0128031D02*
X0078517Y0128031D01*
X0069313Y0128031D02*
X0041116Y0128031D01*
X0043657Y0129030D02*
X0066772Y0129030D01*
X0065042Y0130028D02*
X0045387Y0130028D01*
X0046748Y0131027D02*
X0063681Y0131027D01*
X0062682Y0132026D02*
X0047747Y0132026D01*
X0048745Y0133024D02*
X0061684Y0133024D01*
X0060917Y0134023D02*
X0049512Y0134023D01*
X0050089Y0135021D02*
X0060340Y0135021D01*
X0059764Y0136020D02*
X0050665Y0136020D01*
X0051242Y0137018D02*
X0059187Y0137018D01*
X0058898Y0138017D02*
X0051531Y0138017D01*
X0051799Y0139015D02*
X0058630Y0139015D01*
X0058363Y0140014D02*
X0052066Y0140014D01*
X0052334Y0141012D02*
X0058095Y0141012D01*
X0058066Y0142011D02*
X0052363Y0142011D01*
X0052363Y0143009D02*
X0058066Y0143009D01*
X0058066Y0144008D02*
X0052363Y0144008D01*
X0052363Y0145006D02*
X0058066Y0145006D01*
X0058257Y0146005D02*
X0052172Y0146005D01*
X0051905Y0147003D02*
X0058524Y0147003D01*
X0058792Y0148002D02*
X0051637Y0148002D01*
X0051370Y0149000D02*
X0059059Y0149000D01*
X0059536Y0149999D02*
X0050894Y0149999D01*
X0050317Y0150997D02*
X0060112Y0150997D01*
X0060689Y0151996D02*
X0049741Y0151996D01*
X0049140Y0152994D02*
X0061289Y0152994D01*
X0062287Y0153993D02*
X0048142Y0153993D01*
X0047143Y0154991D02*
X0063286Y0154991D01*
X0064358Y0155990D02*
X0046071Y0155990D01*
X0044342Y0156988D02*
X0066087Y0156988D01*
X0067839Y0157987D02*
X0042590Y0157987D01*
X0031912Y0128031D02*
X0007766Y0128031D01*
X0007766Y0127033D02*
X0277024Y0127033D01*
X0277024Y0128031D02*
X0250512Y0128031D01*
X0251293Y0128241D02*
X0254907Y0130327D01*
X0257858Y0133278D01*
X0259944Y0136892D01*
X0261024Y0140923D01*
X0261024Y0145096D01*
X0259944Y0149127D01*
X0257858Y0152741D01*
X0254907Y0155692D01*
X0251293Y0157779D01*
X0247262Y0158859D01*
X0243089Y0158859D01*
X0239058Y0157779D01*
X0235444Y0155692D01*
X0232493Y0152741D01*
X0230406Y0149127D01*
X0229326Y0145096D01*
X0229326Y0140923D01*
X0230406Y0136892D01*
X0232493Y0133278D01*
X0235444Y0130327D01*
X0239058Y0128241D01*
X0243089Y0127161D01*
X0247262Y0127161D01*
X0251293Y0128241D01*
X0252660Y0129030D02*
X0277024Y0129030D01*
X0277024Y0130028D02*
X0254389Y0130028D01*
X0255607Y0131027D02*
X0277024Y0131027D01*
X0277024Y0132026D02*
X0256605Y0132026D01*
X0257604Y0133024D02*
X0277024Y0133024D01*
X0277024Y0134023D02*
X0258287Y0134023D01*
X0258864Y0135021D02*
X0277024Y0135021D01*
X0277024Y0136020D02*
X0259440Y0136020D01*
X0259978Y0137018D02*
X0277024Y0137018D01*
X0277024Y0138017D02*
X0260246Y0138017D01*
X0260513Y0139015D02*
X0277024Y0139015D01*
X0277024Y0140014D02*
X0260781Y0140014D01*
X0261024Y0141012D02*
X0277024Y0141012D01*
X0277024Y0142011D02*
X0261024Y0142011D01*
X0261024Y0143009D02*
X0277024Y0143009D01*
X0277024Y0144008D02*
X0261024Y0144008D01*
X0261024Y0145006D02*
X0277024Y0145006D01*
X0277024Y0146005D02*
X0260781Y0146005D01*
X0260513Y0147003D02*
X0277024Y0147003D01*
X0277024Y0148002D02*
X0260246Y0148002D01*
X0259978Y0149000D02*
X0277024Y0149000D01*
X0277024Y0149999D02*
X0259441Y0149999D01*
X0258865Y0150997D02*
X0277024Y0150997D01*
X0277024Y0151996D02*
X0258288Y0151996D01*
X0257605Y0152994D02*
X0277024Y0152994D01*
X0277024Y0153993D02*
X0256606Y0153993D01*
X0255608Y0154991D02*
X0277024Y0154991D01*
X0277024Y0155990D02*
X0254392Y0155990D01*
X0252662Y0156988D02*
X0277024Y0156988D01*
X0277024Y0157987D02*
X0250517Y0157987D01*
X0239833Y0157987D02*
X0213850Y0157987D01*
X0213891Y0157976D02*
X0209860Y0159056D01*
X0205687Y0159056D01*
X0201656Y0157976D01*
X0198042Y0155889D01*
X0195091Y0152938D01*
X0193005Y0149324D01*
X0191924Y0145293D01*
X0191924Y0141120D01*
X0193005Y0137089D01*
X0195091Y0133475D01*
X0198042Y0130524D01*
X0201656Y0128438D01*
X0205687Y0127357D01*
X0209860Y0127357D01*
X0213891Y0128438D01*
X0217505Y0130524D01*
X0220456Y0133475D01*
X0222543Y0137089D01*
X0223623Y0141120D01*
X0223623Y0145293D01*
X0222543Y0149324D01*
X0220456Y0152938D01*
X0217505Y0155889D01*
X0213891Y0157976D01*
X0215602Y0156988D02*
X0237688Y0156988D01*
X0235959Y0155990D02*
X0217331Y0155990D01*
X0218403Y0154991D02*
X0234742Y0154991D01*
X0233744Y0153993D02*
X0219402Y0153993D01*
X0220400Y0152994D02*
X0232745Y0152994D01*
X0232062Y0151996D02*
X0221000Y0151996D01*
X0221577Y0150997D02*
X0231486Y0150997D01*
X0230909Y0149999D02*
X0222153Y0149999D01*
X0222630Y0149000D02*
X0230372Y0149000D01*
X0230104Y0148002D02*
X0222897Y0148002D01*
X0223165Y0147003D02*
X0229837Y0147003D01*
X0229569Y0146005D02*
X0223432Y0146005D01*
X0223623Y0145006D02*
X0229326Y0145006D01*
X0229326Y0144008D02*
X0223623Y0144008D01*
X0223623Y0143009D02*
X0229326Y0143009D01*
X0229326Y0142011D02*
X0223623Y0142011D01*
X0223594Y0141012D02*
X0229326Y0141012D01*
X0229570Y0140014D02*
X0223326Y0140014D01*
X0223059Y0139015D02*
X0229837Y0139015D01*
X0230105Y0138017D02*
X0222791Y0138017D01*
X0222502Y0137018D02*
X0230372Y0137018D01*
X0230910Y0136020D02*
X0221925Y0136020D01*
X0221349Y0135021D02*
X0231486Y0135021D01*
X0232063Y0134023D02*
X0220772Y0134023D01*
X0220005Y0133024D02*
X0232747Y0133024D01*
X0233745Y0132026D02*
X0219007Y0132026D01*
X0218008Y0131027D02*
X0234744Y0131027D01*
X0235961Y0130028D02*
X0216647Y0130028D01*
X0214917Y0129030D02*
X0237691Y0129030D01*
X0239839Y0128031D02*
X0212376Y0128031D01*
X0203172Y0128031D02*
X0154055Y0128031D01*
X0154836Y0128241D02*
X0158450Y0130327D01*
X0161401Y0133278D01*
X0163488Y0136892D01*
X0164568Y0140923D01*
X0164568Y0145096D01*
X0163488Y0149127D01*
X0161401Y0152741D01*
X0158450Y0155692D01*
X0154836Y0157779D01*
X0150805Y0158859D01*
X0146632Y0158859D01*
X0142601Y0157779D01*
X0138987Y0155692D01*
X0136036Y0152741D01*
X0133949Y0149127D01*
X0132869Y0145096D01*
X0132869Y0140923D01*
X0133949Y0136892D01*
X0136036Y0133278D01*
X0138987Y0130327D01*
X0142601Y0128241D01*
X0146632Y0127161D01*
X0150805Y0127161D01*
X0154836Y0128241D01*
X0156203Y0129030D02*
X0200630Y0129030D01*
X0198901Y0130028D02*
X0157933Y0130028D01*
X0159150Y0131027D02*
X0197539Y0131027D01*
X0196541Y0132026D02*
X0160148Y0132026D01*
X0161147Y0133024D02*
X0195542Y0133024D01*
X0194775Y0134023D02*
X0161831Y0134023D01*
X0162407Y0135021D02*
X0194198Y0135021D01*
X0193622Y0136020D02*
X0162984Y0136020D01*
X0163521Y0137018D02*
X0193046Y0137018D01*
X0192756Y0138017D02*
X0163789Y0138017D01*
X0164056Y0139015D02*
X0192488Y0139015D01*
X0192221Y0140014D02*
X0164324Y0140014D01*
X0164568Y0141012D02*
X0191953Y0141012D01*
X0191924Y0142011D02*
X0164568Y0142011D01*
X0164568Y0143009D02*
X0191924Y0143009D01*
X0191924Y0144008D02*
X0164568Y0144008D01*
X0164568Y0145006D02*
X0191924Y0145006D01*
X0192115Y0146005D02*
X0164324Y0146005D01*
X0164057Y0147003D02*
X0192383Y0147003D01*
X0192650Y0148002D02*
X0163789Y0148002D01*
X0163522Y0149000D02*
X0192918Y0149000D01*
X0193394Y0149999D02*
X0162985Y0149999D01*
X0162408Y0150997D02*
X0193970Y0150997D01*
X0194547Y0151996D02*
X0161832Y0151996D01*
X0161148Y0152994D02*
X0195147Y0152994D01*
X0196146Y0153993D02*
X0160150Y0153993D01*
X0159151Y0154991D02*
X0197144Y0154991D01*
X0198216Y0155990D02*
X0157935Y0155990D01*
X0156206Y0156988D02*
X0199946Y0156988D01*
X0201697Y0157987D02*
X0154060Y0157987D01*
X0143377Y0157987D02*
X0117197Y0157987D01*
X0118948Y0156988D02*
X0141231Y0156988D01*
X0139502Y0155990D02*
X0120678Y0155990D01*
X0121750Y0154991D02*
X0138286Y0154991D01*
X0137287Y0153993D02*
X0122748Y0153993D01*
X0123747Y0152994D02*
X0136289Y0152994D01*
X0135605Y0151996D02*
X0124347Y0151996D01*
X0124923Y0150997D02*
X0135029Y0150997D01*
X0134452Y0149999D02*
X0125500Y0149999D01*
X0125976Y0149000D02*
X0133915Y0149000D01*
X0133648Y0148002D02*
X0126244Y0148002D01*
X0126511Y0147003D02*
X0133380Y0147003D01*
X0133113Y0146005D02*
X0126779Y0146005D01*
X0126969Y0145006D02*
X0132869Y0145006D01*
X0132869Y0144008D02*
X0126969Y0144008D01*
X0126969Y0143009D02*
X0132869Y0143009D01*
X0132869Y0142011D02*
X0126969Y0142011D01*
X0126940Y0141012D02*
X0132869Y0141012D01*
X0133113Y0140014D02*
X0126673Y0140014D01*
X0126405Y0139015D02*
X0133381Y0139015D01*
X0133648Y0138017D02*
X0126138Y0138017D01*
X0125848Y0137018D02*
X0133916Y0137018D01*
X0134453Y0136020D02*
X0125272Y0136020D01*
X0124695Y0135021D02*
X0135030Y0135021D01*
X0135606Y0134023D02*
X0124119Y0134023D01*
X0123352Y0133024D02*
X0136290Y0133024D01*
X0137289Y0132026D02*
X0122353Y0132026D01*
X0121355Y0131027D02*
X0138287Y0131027D01*
X0139504Y0130028D02*
X0119993Y0130028D01*
X0118264Y0129030D02*
X0141234Y0129030D01*
X0143382Y0128031D02*
X0115722Y0128031D01*
X0113207Y0112009D02*
X0109033Y0112009D01*
X0105002Y0110929D01*
X0101388Y0108842D01*
X0098438Y0105891D01*
X0096351Y0102277D01*
X0095271Y0098246D01*
X0095271Y0094073D01*
X0096351Y0090042D01*
X0098438Y0086428D01*
X0101388Y0083477D01*
X0105002Y0081390D01*
X0109033Y0080310D01*
X0113207Y0080310D01*
X0117238Y0081390D01*
X0120852Y0083477D01*
X0123803Y0086428D01*
X0125889Y0090042D01*
X0126969Y0094073D01*
X0126969Y0098246D01*
X0125889Y0102277D01*
X0123803Y0105891D01*
X0120852Y0108842D01*
X0117238Y0110929D01*
X0113207Y0112009D01*
X0116759Y0111057D02*
X0142482Y0111057D01*
X0142601Y0111125D02*
X0138987Y0109039D01*
X0136036Y0106088D01*
X0133949Y0102474D01*
X0132869Y0098443D01*
X0132869Y0094270D01*
X0133949Y0090239D01*
X0136036Y0086625D01*
X0138987Y0083674D01*
X0142601Y0081587D01*
X0146632Y0080507D01*
X0150805Y0080507D01*
X0154836Y0081587D01*
X0158450Y0083674D01*
X0161401Y0086625D01*
X0163488Y0090239D01*
X0164568Y0094270D01*
X0164568Y0098443D01*
X0163488Y0102474D01*
X0161401Y0106088D01*
X0158450Y0109039D01*
X0154836Y0111125D01*
X0150805Y0112205D01*
X0146632Y0112205D01*
X0142601Y0111125D01*
X0140753Y0110058D02*
X0118745Y0110058D01*
X0120475Y0109060D02*
X0139023Y0109060D01*
X0138009Y0108061D02*
X0121632Y0108061D01*
X0122631Y0107063D02*
X0137011Y0107063D01*
X0136022Y0106064D02*
X0123629Y0106064D01*
X0124279Y0105066D02*
X0135446Y0105066D01*
X0134869Y0104067D02*
X0124856Y0104067D01*
X0125432Y0103069D02*
X0134293Y0103069D01*
X0133841Y0102070D02*
X0125945Y0102070D01*
X0126212Y0101072D02*
X0133574Y0101072D01*
X0133306Y0100073D02*
X0126480Y0100073D01*
X0126747Y0099075D02*
X0133039Y0099075D01*
X0132869Y0098076D02*
X0126969Y0098076D01*
X0126969Y0097078D02*
X0132869Y0097078D01*
X0132869Y0096079D02*
X0126969Y0096079D01*
X0126969Y0095081D02*
X0132869Y0095081D01*
X0132920Y0094082D02*
X0126969Y0094082D01*
X0126704Y0093084D02*
X0133187Y0093084D01*
X0133455Y0092085D02*
X0126437Y0092085D01*
X0126169Y0091087D02*
X0133722Y0091087D01*
X0134036Y0090088D02*
X0125902Y0090088D01*
X0125339Y0089090D02*
X0134613Y0089090D01*
X0135189Y0088091D02*
X0124763Y0088091D01*
X0124186Y0087092D02*
X0135766Y0087092D01*
X0136567Y0086094D02*
X0123469Y0086094D01*
X0122470Y0085095D02*
X0137565Y0085095D01*
X0138564Y0084097D02*
X0121472Y0084097D01*
X0120196Y0083098D02*
X0139983Y0083098D01*
X0141713Y0082100D02*
X0118467Y0082100D01*
X0116159Y0081101D02*
X0144414Y0081101D01*
X0153023Y0081101D02*
X0203469Y0081101D01*
X0201656Y0081587D02*
X0205687Y0080507D01*
X0209860Y0080507D01*
X0213891Y0081587D01*
X0217505Y0083674D01*
X0220456Y0086625D01*
X0222543Y0090239D01*
X0223623Y0094270D01*
X0223623Y0098443D01*
X0222543Y0102474D01*
X0220456Y0106088D01*
X0217505Y0109039D01*
X0213891Y0111125D01*
X0209860Y0112205D01*
X0205687Y0112205D01*
X0201656Y0111125D01*
X0198042Y0109039D01*
X0195091Y0106088D01*
X0193005Y0102474D01*
X0191924Y0098443D01*
X0191924Y0094270D01*
X0193005Y0090239D01*
X0195091Y0086625D01*
X0198042Y0083674D01*
X0201656Y0081587D01*
X0200768Y0082100D02*
X0155724Y0082100D01*
X0157454Y0083098D02*
X0199038Y0083098D01*
X0197619Y0084097D02*
X0158873Y0084097D01*
X0159872Y0085095D02*
X0196620Y0085095D01*
X0195622Y0086094D02*
X0160870Y0086094D01*
X0161671Y0087092D02*
X0194821Y0087092D01*
X0194244Y0088091D02*
X0162248Y0088091D01*
X0162824Y0089090D02*
X0193668Y0089090D01*
X0193091Y0090088D02*
X0163401Y0090088D01*
X0163715Y0091087D02*
X0192777Y0091087D01*
X0192510Y0092085D02*
X0163982Y0092085D01*
X0164250Y0093084D02*
X0192242Y0093084D01*
X0191975Y0094082D02*
X0164517Y0094082D01*
X0164568Y0095081D02*
X0191924Y0095081D01*
X0191924Y0096079D02*
X0164568Y0096079D01*
X0164568Y0097078D02*
X0191924Y0097078D01*
X0191924Y0098076D02*
X0164568Y0098076D01*
X0164398Y0099075D02*
X0192094Y0099075D01*
X0192361Y0100073D02*
X0164131Y0100073D01*
X0163863Y0101072D02*
X0192629Y0101072D01*
X0192896Y0102070D02*
X0163596Y0102070D01*
X0163144Y0103069D02*
X0193348Y0103069D01*
X0193924Y0104067D02*
X0162568Y0104067D01*
X0161991Y0105066D02*
X0194501Y0105066D01*
X0195077Y0106064D02*
X0161415Y0106064D01*
X0160426Y0107063D02*
X0196066Y0107063D01*
X0197064Y0108061D02*
X0159428Y0108061D01*
X0158414Y0109060D02*
X0198078Y0109060D01*
X0199808Y0110058D02*
X0156684Y0110058D01*
X0154955Y0111057D02*
X0201537Y0111057D01*
X0205126Y0112055D02*
X0151366Y0112055D01*
X0146071Y0112055D02*
X0076563Y0112055D01*
X0076002Y0112205D02*
X0071829Y0112205D01*
X0067798Y0111125D01*
X0064184Y0109039D01*
X0061233Y0106088D01*
X0059146Y0102474D01*
X0058066Y0098443D01*
X0058066Y0094270D01*
X0059146Y0090239D01*
X0061233Y0086625D01*
X0064184Y0083674D01*
X0067798Y0081587D01*
X0071829Y0080507D01*
X0076002Y0080507D01*
X0080033Y0081587D01*
X0083647Y0083674D01*
X0086598Y0086625D01*
X0088684Y0090239D01*
X0089765Y0094270D01*
X0089765Y0098443D01*
X0088684Y0102474D01*
X0086598Y0106088D01*
X0083647Y0109039D01*
X0080033Y0111125D01*
X0076002Y0112205D01*
X0071268Y0112055D02*
X0038964Y0112055D01*
X0038404Y0112205D02*
X0034230Y0112205D01*
X0030199Y0111125D01*
X0026585Y0109039D01*
X0023634Y0106088D01*
X0021548Y0102474D01*
X0020468Y0098443D01*
X0020468Y0094270D01*
X0021548Y0090239D01*
X0023634Y0086625D01*
X0026585Y0083674D01*
X0030199Y0081587D01*
X0034230Y0080507D01*
X0038404Y0080507D01*
X0042434Y0081587D01*
X0046049Y0083674D01*
X0048999Y0086625D01*
X0051086Y0090239D01*
X0052166Y0094270D01*
X0052166Y0098443D01*
X0051086Y0102474D01*
X0048999Y0106088D01*
X0046049Y0109039D01*
X0042434Y0111125D01*
X0038404Y0112205D01*
X0042553Y0111057D02*
X0067679Y0111057D01*
X0065949Y0110058D02*
X0044283Y0110058D01*
X0046012Y0109060D02*
X0064220Y0109060D01*
X0063206Y0108061D02*
X0047026Y0108061D01*
X0048025Y0107063D02*
X0062208Y0107063D01*
X0061219Y0106064D02*
X0049013Y0106064D01*
X0049590Y0105066D02*
X0060643Y0105066D01*
X0060066Y0104067D02*
X0050166Y0104067D01*
X0050743Y0103069D02*
X0059490Y0103069D01*
X0059038Y0102070D02*
X0051194Y0102070D01*
X0051462Y0101072D02*
X0058771Y0101072D01*
X0058503Y0100073D02*
X0051729Y0100073D01*
X0051997Y0099075D02*
X0058235Y0099075D01*
X0058066Y0098076D02*
X0052166Y0098076D01*
X0052166Y0097078D02*
X0058066Y0097078D01*
X0058066Y0096079D02*
X0052166Y0096079D01*
X0052166Y0095081D02*
X0058066Y0095081D01*
X0058116Y0094082D02*
X0052116Y0094082D01*
X0051848Y0093084D02*
X0058384Y0093084D01*
X0058652Y0092085D02*
X0051581Y0092085D01*
X0051313Y0091087D02*
X0058919Y0091087D01*
X0059233Y0090088D02*
X0050999Y0090088D01*
X0050423Y0089090D02*
X0059810Y0089090D01*
X0060386Y0088091D02*
X0049846Y0088091D01*
X0049270Y0087092D02*
X0060963Y0087092D01*
X0061763Y0086094D02*
X0048469Y0086094D01*
X0047470Y0085095D02*
X0062762Y0085095D01*
X0063761Y0084097D02*
X0046472Y0084097D01*
X0045052Y0083098D02*
X0065180Y0083098D01*
X0066910Y0082100D02*
X0043323Y0082100D01*
X0040622Y0081101D02*
X0069611Y0081101D01*
X0078220Y0081101D02*
X0106081Y0081101D01*
X0103773Y0082100D02*
X0080921Y0082100D01*
X0082651Y0083098D02*
X0102044Y0083098D01*
X0100768Y0084097D02*
X0084070Y0084097D01*
X0085069Y0085095D02*
X0099770Y0085095D01*
X0098771Y0086094D02*
X0086067Y0086094D01*
X0086868Y0087092D02*
X0098054Y0087092D01*
X0097477Y0088091D02*
X0087444Y0088091D01*
X0088021Y0089090D02*
X0096901Y0089090D01*
X0096339Y0090088D02*
X0088597Y0090088D01*
X0088912Y0091087D02*
X0096071Y0091087D01*
X0095803Y0092085D02*
X0089179Y0092085D01*
X0089447Y0093084D02*
X0095536Y0093084D01*
X0095271Y0094082D02*
X0089714Y0094082D01*
X0089765Y0095081D02*
X0095271Y0095081D01*
X0095271Y0096079D02*
X0089765Y0096079D01*
X0089765Y0097078D02*
X0095271Y0097078D01*
X0095271Y0098076D02*
X0089765Y0098076D01*
X0089595Y0099075D02*
X0095493Y0099075D01*
X0095760Y0100073D02*
X0089328Y0100073D01*
X0089060Y0101072D02*
X0096028Y0101072D01*
X0096296Y0102070D02*
X0088793Y0102070D01*
X0088341Y0103069D02*
X0096808Y0103069D01*
X0097385Y0104067D02*
X0087765Y0104067D01*
X0087188Y0105066D02*
X0097961Y0105066D01*
X0098611Y0106064D02*
X0086612Y0106064D01*
X0085623Y0107063D02*
X0099609Y0107063D01*
X0100608Y0108061D02*
X0084625Y0108061D01*
X0083611Y0109060D02*
X0101766Y0109060D01*
X0103495Y0110058D02*
X0081881Y0110058D01*
X0080152Y0111057D02*
X0105481Y0111057D01*
X0113470Y0158985D02*
X0205424Y0158985D01*
X0210124Y0158985D02*
X0277024Y0158985D01*
X0277024Y0126034D02*
X0007766Y0126034D01*
X0007766Y0125036D02*
X0277024Y0125036D01*
X0277024Y0124037D02*
X0007766Y0124037D01*
X0007766Y0123039D02*
X0277024Y0123039D01*
X0277024Y0122040D02*
X0007766Y0122040D01*
X0007766Y0121042D02*
X0277024Y0121042D01*
X0277024Y0120043D02*
X0007766Y0120043D01*
X0007766Y0119045D02*
X0277024Y0119045D01*
X0277024Y0118046D02*
X0007766Y0118046D01*
X0007766Y0117048D02*
X0277024Y0117048D01*
X0277024Y0116049D02*
X0007766Y0116049D01*
X0007766Y0115051D02*
X0277024Y0115051D01*
X0277024Y0114052D02*
X0007766Y0114052D01*
X0007766Y0113054D02*
X0277024Y0113054D01*
X0277024Y0112055D02*
X0210421Y0112055D01*
X0214010Y0111057D02*
X0239339Y0111057D01*
X0238861Y0110929D02*
X0235247Y0108842D01*
X0232296Y0105891D01*
X0230209Y0102277D01*
X0229129Y0098246D01*
X0229129Y0094073D01*
X0230209Y0090042D01*
X0232296Y0086428D01*
X0235247Y0083477D01*
X0238861Y0081390D01*
X0242892Y0080310D01*
X0247065Y0080310D01*
X0251096Y0081390D01*
X0254710Y0083477D01*
X0257661Y0086428D01*
X0259747Y0090042D01*
X0260828Y0094073D01*
X0260828Y0098246D01*
X0259747Y0102277D01*
X0257661Y0105891D01*
X0254710Y0108842D01*
X0251096Y0110929D01*
X0247065Y0112009D01*
X0242892Y0112009D01*
X0238861Y0110929D01*
X0237353Y0110058D02*
X0215740Y0110058D01*
X0217469Y0109060D02*
X0235624Y0109060D01*
X0234466Y0108061D02*
X0218483Y0108061D01*
X0219481Y0107063D02*
X0233467Y0107063D01*
X0232469Y0106064D02*
X0220470Y0106064D01*
X0221046Y0105066D02*
X0231819Y0105066D01*
X0231243Y0104067D02*
X0221623Y0104067D01*
X0222199Y0103069D02*
X0230666Y0103069D01*
X0230154Y0102070D02*
X0222651Y0102070D01*
X0222918Y0101072D02*
X0229886Y0101072D01*
X0229619Y0100073D02*
X0223186Y0100073D01*
X0223454Y0099075D02*
X0229351Y0099075D01*
X0229129Y0098076D02*
X0223623Y0098076D01*
X0223623Y0097078D02*
X0229129Y0097078D01*
X0229129Y0096079D02*
X0223623Y0096079D01*
X0223623Y0095081D02*
X0229129Y0095081D01*
X0229129Y0094082D02*
X0223573Y0094082D01*
X0223305Y0093084D02*
X0229394Y0093084D01*
X0229662Y0092085D02*
X0223037Y0092085D01*
X0222770Y0091087D02*
X0229929Y0091087D01*
X0230197Y0090088D02*
X0222456Y0090088D01*
X0221879Y0089090D02*
X0230759Y0089090D01*
X0231336Y0088091D02*
X0221303Y0088091D01*
X0220726Y0087092D02*
X0231912Y0087092D01*
X0232630Y0086094D02*
X0219925Y0086094D01*
X0218927Y0085095D02*
X0233628Y0085095D01*
X0234627Y0084097D02*
X0217928Y0084097D01*
X0216509Y0083098D02*
X0235902Y0083098D01*
X0237632Y0082100D02*
X0214779Y0082100D01*
X0212078Y0081101D02*
X0239939Y0081101D01*
X0250018Y0081101D02*
X0277024Y0081101D01*
X0277024Y0080103D02*
X0007766Y0080103D01*
X0007766Y0081101D02*
X0032012Y0081101D01*
X0029311Y0082100D02*
X0007766Y0082100D01*
X0007766Y0083098D02*
X0027582Y0083098D01*
X0026162Y0084097D02*
X0007766Y0084097D01*
X0007766Y0085095D02*
X0025164Y0085095D01*
X0024165Y0086094D02*
X0007766Y0086094D01*
X0007766Y0087092D02*
X0023364Y0087092D01*
X0022788Y0088091D02*
X0007766Y0088091D01*
X0007766Y0089090D02*
X0022211Y0089090D01*
X0021635Y0090088D02*
X0007766Y0090088D01*
X0007766Y0091087D02*
X0021321Y0091087D01*
X0021053Y0092085D02*
X0007766Y0092085D01*
X0007766Y0093084D02*
X0020786Y0093084D01*
X0020518Y0094082D02*
X0007766Y0094082D01*
X0007766Y0095081D02*
X0020468Y0095081D01*
X0020468Y0096079D02*
X0007766Y0096079D01*
X0007766Y0097078D02*
X0020468Y0097078D01*
X0020468Y0098076D02*
X0007766Y0098076D01*
X0007766Y0099075D02*
X0020637Y0099075D01*
X0020905Y0100073D02*
X0007766Y0100073D01*
X0007766Y0101072D02*
X0021172Y0101072D01*
X0021440Y0102070D02*
X0007766Y0102070D01*
X0007766Y0103069D02*
X0021891Y0103069D01*
X0022468Y0104067D02*
X0007766Y0104067D01*
X0007766Y0105066D02*
X0023044Y0105066D01*
X0023621Y0106064D02*
X0007766Y0106064D01*
X0007766Y0107063D02*
X0024609Y0107063D01*
X0025608Y0108061D02*
X0007766Y0108061D01*
X0007766Y0109060D02*
X0026622Y0109060D01*
X0028351Y0110058D02*
X0007766Y0110058D01*
X0007766Y0111057D02*
X0030080Y0111057D01*
X0033670Y0112055D02*
X0007766Y0112055D01*
X0007766Y0079104D02*
X0277024Y0079104D01*
X0277024Y0078106D02*
X0007766Y0078106D01*
X0007766Y0077107D02*
X0277024Y0077107D01*
X0277024Y0076109D02*
X0007766Y0076109D01*
X0007766Y0075110D02*
X0277024Y0075110D01*
X0277024Y0074112D02*
X0007766Y0074112D01*
X0007766Y0073113D02*
X0277024Y0073113D01*
X0277024Y0072115D02*
X0007766Y0072115D01*
X0007766Y0071116D02*
X0277024Y0071116D01*
X0277024Y0070118D02*
X0007766Y0070118D01*
X0007766Y0069119D02*
X0277024Y0069119D01*
X0277024Y0068121D02*
X0007766Y0068121D01*
X0007766Y0067122D02*
X0277024Y0067122D01*
X0277024Y0066124D02*
X0007766Y0066124D01*
X0007766Y0065125D02*
X0277024Y0065125D01*
X0277024Y0064127D02*
X0007766Y0064127D01*
X0007766Y0063128D02*
X0277024Y0063128D01*
X0277024Y0062130D02*
X0007766Y0062130D01*
X0007766Y0061131D02*
X0277024Y0061131D01*
X0277024Y0060133D02*
X0007766Y0060133D01*
X0007766Y0059134D02*
X0277024Y0059134D01*
X0277024Y0058136D02*
X0007766Y0058136D01*
X0007766Y0057137D02*
X0277024Y0057137D01*
X0277024Y0056139D02*
X0007766Y0056139D01*
X0007766Y0055140D02*
X0277024Y0055140D01*
X0277024Y0054142D02*
X0007766Y0054142D01*
X0007766Y0053143D02*
X0277024Y0053143D01*
X0277024Y0052145D02*
X0007766Y0052145D01*
X0007766Y0051146D02*
X0277024Y0051146D01*
X0277024Y0050148D02*
X0007766Y0050148D01*
X0007766Y0049149D02*
X0277024Y0049149D01*
X0277024Y0048151D02*
X0007766Y0048151D01*
X0007766Y0047152D02*
X0277024Y0047152D01*
X0277024Y0046154D02*
X0007766Y0046154D01*
X0007766Y0045155D02*
X0277024Y0045155D01*
X0277024Y0044157D02*
X0007766Y0044157D01*
X0007766Y0043158D02*
X0277024Y0043158D01*
X0277024Y0042159D02*
X0007766Y0042159D01*
X0007766Y0041161D02*
X0277024Y0041161D01*
X0277024Y0040162D02*
X0007766Y0040162D01*
X0007766Y0039164D02*
X0277024Y0039164D01*
X0277024Y0038165D02*
X0007766Y0038165D01*
X0007766Y0037167D02*
X0277024Y0037167D01*
X0277024Y0036168D02*
X0007766Y0036168D01*
X0007766Y0035170D02*
X0277024Y0035170D01*
X0277024Y0034171D02*
X0007766Y0034171D01*
X0007766Y0033173D02*
X0277024Y0033173D01*
X0277024Y0032174D02*
X0007766Y0032174D01*
X0007766Y0031176D02*
X0277024Y0031176D01*
X0277024Y0030177D02*
X0007766Y0030177D01*
X0007766Y0029179D02*
X0277024Y0029179D01*
X0277024Y0028180D02*
X0007766Y0028180D01*
X0007766Y0027182D02*
X0277024Y0027182D01*
X0277024Y0026183D02*
X0007766Y0026183D01*
X0007766Y0025185D02*
X0277024Y0025185D01*
X0277024Y0024186D02*
X0007766Y0024186D01*
X0007766Y0023188D02*
X0277024Y0023188D01*
X0277024Y0022189D02*
X0007766Y0022189D01*
X0007766Y0021191D02*
X0277024Y0021191D01*
X0277024Y0020192D02*
X0007766Y0020192D01*
X0007766Y0019194D02*
X0277024Y0019194D01*
X0277024Y0018195D02*
X0007766Y0018195D01*
X0007766Y0017197D02*
X0277024Y0017197D01*
X0277024Y0016198D02*
X0007766Y0016198D01*
X0007766Y0015200D02*
X0277024Y0015200D01*
X0277024Y0014201D02*
X0007766Y0014201D01*
X0007766Y0013203D02*
X0277024Y0013203D01*
X0277024Y0012204D02*
X0007766Y0012204D01*
X0007766Y0011206D02*
X0277024Y0011206D01*
X0277024Y0010207D02*
X0007766Y0010207D01*
X0250617Y0111057D02*
X0277024Y0111057D01*
X0277024Y0110058D02*
X0252603Y0110058D01*
X0254333Y0109060D02*
X0277024Y0109060D01*
X0277024Y0108061D02*
X0255491Y0108061D01*
X0256489Y0107063D02*
X0277024Y0107063D01*
X0277024Y0106064D02*
X0257488Y0106064D01*
X0258137Y0105066D02*
X0277024Y0105066D01*
X0277024Y0104067D02*
X0258714Y0104067D01*
X0259290Y0103069D02*
X0277024Y0103069D01*
X0277024Y0102070D02*
X0259803Y0102070D01*
X0260070Y0101072D02*
X0277024Y0101072D01*
X0277024Y0100073D02*
X0260338Y0100073D01*
X0260606Y0099075D02*
X0277024Y0099075D01*
X0277024Y0098076D02*
X0260828Y0098076D01*
X0260828Y0097078D02*
X0277024Y0097078D01*
X0277024Y0096079D02*
X0260828Y0096079D01*
X0260828Y0095081D02*
X0277024Y0095081D01*
X0277024Y0094082D02*
X0260828Y0094082D01*
X0260562Y0093084D02*
X0277024Y0093084D01*
X0277024Y0092085D02*
X0260295Y0092085D01*
X0260027Y0091087D02*
X0277024Y0091087D01*
X0277024Y0090088D02*
X0259760Y0090088D01*
X0259198Y0089090D02*
X0277024Y0089090D01*
X0277024Y0088091D02*
X0258621Y0088091D01*
X0258045Y0087092D02*
X0277024Y0087092D01*
X0277024Y0086094D02*
X0257327Y0086094D01*
X0256329Y0085095D02*
X0277024Y0085095D01*
X0277024Y0084097D02*
X0255330Y0084097D01*
X0254054Y0083098D02*
X0277024Y0083098D01*
X0277024Y0082100D02*
X0252325Y0082100D01*
M02*
